<?xml version="1.0" standalone="no"?>
 <!DOCTYPE svg PUBLIC "-//W3C//DTD SVG 1.1//EN" 
 "http://www.w3.org/Graphics/SVG/1.1/DTD/svg11.dtd"> 
<svg
  xmlns:svg="http://www.w3.org/2000/svg"
  xmlns="http://www.w3.org/2000/svg"
  xmlns:xlink="http://www.w3.org/1999/xlink"
  version="1.1"
  width="42.8498mm" height="64.4906mm" viewBox="0.0000 0.0000 42.8498 64.4906">
<title>SVG Image created as Wardriver-PCB-B_Mask.svg date 2023/10/29 17:36:46 </title>
  <desc>Image generated by PCBNEW </desc>
<g style="fill:#000000; fill-opacity:1.0000;stroke:#000000; stroke-opacity:1.0000;
stroke-linecap:round; stroke-linejoin:round;"
 transform="translate(0 0) scale(1 1)">
</g>
<g style="fill:#000000; fill-opacity:0.0; 
stroke:#000000; stroke-width:0.0000; stroke-opacity:1; 
stroke-linecap:round; stroke-linejoin:round;">
</g>
<g style="fill:#02FFEE; fill-opacity:0.0; 
stroke:#02FFEE; stroke-width:0.0000; stroke-opacity:1; 
stroke-linecap:round; stroke-linejoin:round;">
</g>
<g style="fill:#02FFEE; fill-opacity:0.0; 
stroke:#02FFEE; stroke-width:0.3000; stroke-opacity:1; 
stroke-linecap:round; stroke-linejoin:round;">
<text x="24.5500" y="5.9500"
transform="scale(-1 1) translate(-49.100000 0)"
textLength="14.8851" font-size="2.6667" lengthAdjust="spacingAndGlyphs"
text-anchor="start" opacity="0">lyndlabs.io</text>
<g class="stroked-text"><desc>lyndlabs.io</desc>
</g>
<g style="fill:#02FFEE; fill-opacity:0.4000; 
stroke:#02FFEE; stroke-width:0.0000; stroke-opacity:1; 
stroke-linecap:round; stroke-linejoin:round;">
<path style="fill:#02FFEE; fill-opacity:0.4000; 
stroke:#02FFEE; stroke-width:0.0000; stroke-opacity:1; 
stroke-linecap:round; stroke-linejoin:round;fill-rule:evenodd;"
d="M 24.3541,5.6100
24.3541,3.6502
24.0014,3.6502
24.0014,5.6100
Z" /> 
<path style="fill:#02FFEE; fill-opacity:0.4000; 
stroke:#02FFEE; stroke-width:0.0000; stroke-opacity:1; 
stroke-linecap:round; stroke-linejoin:round;fill-rule:evenodd;"
d="M 23.4582,6.1698
23.4582,5.8621
22.7025,5.8621
22.6799,5.8600
22.6611,5.8539
22.6436,5.8411
22.6316,5.8223
22.6258,5.8022
22.6239,5.7780
22.6239,5.4278
22.6742,5.4278
22.6835,5.4457
22.6946,5.4637
22.7075,5.4817
22.7222,5.4996
22.7358,5.5146
22.7446,5.5235
22.7602,5.5379
22.7775,5.5515
22.7964,5.5643
22.8170,5.5763
22.8346,5.5853
22.8533,5.5937
22.8730,5.6017
22.8940,5.6089
22.9164,5.6152
22.9402,5.6204
22.9654,5.6248
22.9852,5.6274
23.0058,5.6295
23.0272,5.6310
23.0493,5.6320
23.0723,5.6324
23.0801,5.6325
23.1003,5.6322
23.1202,5.6313
23.1397,5.6299
23.1684,5.6266
23.1964,5.6220
23.2237,5.6162
23.2503,5.6090
23.2762,5.6005
23.3013,5.5907
23.3258,5.5796
23.3495,5.5672
23.3649,5.5582
23.3873,5.5438
23.4086,5.5284
23.4291,5.5119
23.4485,5.4945
23.4671,5.4761
23.4846,5.4566
23.5012,5.4362
23.5169,5.4147
23.5316,5.3922
23.5453,5.3688
23.5540,5.3526
23.5659,5.3275
23.5767,5.3018
23.5863,5.2753
23.5948,5.2482
23.6020,5.2204
23.6081,5.1920
23.6115,5.1726
23.6144,5.1530
23.6167,5.1330
23.6185,5.1128
23.6199,5.0922
23.6206,5.0714
23.6209,5.0502
23.6209,4.2212
23.2677,4.2212
23.2677,5.0219
23.2670,5.0506
23.2650,5.0779
23.2617,5.1039
23.2569,5.1285
23.2509,5.1517
23.2435,5.1735
23.2347,5.1940
23.2246,5.2131
23.2131,5.2308
23.2003,5.2472
23.1910,5.2573
23.1760,5.2713
23.1598,5.2839
23.1424,5.2951
23.1239,5.3049
23.1043,5.3134
23.0835,5.3205
23.0615,5.3262
23.0384,5.3306
23.0142,5.3336
22.9888,5.3352
22.9712,5.3355
22.9512,5.3351
22.9222,5.3328
22.8945,5.3288
22.8680,5.3228
22.8429,5.3149
22.8191,5.3051
22.7965,5.2935
22.7752,5.2800
22.7553,5.2645
22.7366,5.2472
22.7192,5.2280
22.7032,5.2070
22.6888,5.1845
22.6759,5.1605
22.6647,5.1350
22.6550,5.1080
22.6494,5.0892
22.6445,5.0697
22.6403,5.0495
22.6368,5.0287
22.6340,5.0071
22.6319,4.9850
22.6305,4.9621
22.6298,4.9386
22.6298,4.9266
22.6298,4.2212
22.2766,4.2212
22.2766,5.8562
22.2773,5.8825
22.2795,5.9078
22.2832,5.9321
22.2884,5.9554
22.2950,5.9776
22.3032,5.9988
22.3128,6.0190
22.3238,6.0382
22.3364,6.0563
22.3504,6.0735
22.3606,6.0843
22.3769,6.0996
22.3941,6.1134
22.4123,6.1256
22.4315,6.1364
22.4517,6.1457
22.4729,6.1534
22.4951,6.1597
22.5182,6.1645
22.5424,6.1677
22.5675,6.1695
22.5848,6.1698
Z" /> 
<path style="fill:#02FFEE; fill-opacity:0.4000; 
stroke:#02FFEE; stroke-width:0.0000; stroke-opacity:1; 
stroke-linecap:round; stroke-linejoin:round;fill-rule:evenodd;"
d="M 21.8863,5.6100
21.8863,4.2212
21.5390,4.2212
21.5390,4.4034
21.4887,4.4034
21.4793,4.3852
21.4681,4.3673
21.4551,4.3496
21.4403,4.3321
21.4236,4.3149
21.4051,4.2979
21.3901,4.2854
21.3739,4.2729
21.3626,4.2647
21.3445,4.2529
21.3247,4.2423
21.3032,4.2328
21.2800,4.2245
21.2551,4.2174
21.2286,4.2114
21.2004,4.2066
21.1807,4.2040
21.1602,4.2019
21.1390,4.2004
21.1171,4.1993
21.0944,4.1988
21.0827,4.1988
21.0626,4.1991
21.0427,4.1999
21.0232,4.2014
20.9945,4.2046
20.9665,4.2092
20.9392,4.2151
20.9127,4.2223
20.8869,4.2307
20.8618,4.2405
20.8374,4.2516
20.8138,4.2640
20.7984,4.2730
20.7761,4.2874
20.7547,4.3028
20.7343,4.3192
20.7148,4.3366
20.6963,4.3550
20.6787,4.3743
20.6621,4.3947
20.6465,4.4160
20.6318,4.4383
20.6180,4.4616
20.6094,4.4777
20.5973,4.5024
20.5865,4.5279
20.5768,4.5542
20.5683,4.5813
20.5610,4.6091
20.5549,4.6376
20.5515,4.6571
20.5486,4.6769
20.5462,4.6971
20.5443,4.7175
20.5430,4.7384
20.5422,4.7595
20.5420,4.7810
20.5420,5.6100
20.8952,5.6100
20.8952,4.8094
20.8958,4.7807
20.8979,4.7533
20.9013,4.7274
20.9060,4.7028
20.9121,4.6796
20.9196,4.6579
20.9284,4.6374
20.9386,4.6184
20.9501,4.6008
20.9630,4.5845
20.9723,4.5744
20.9873,4.5604
21.0034,4.5477
21.0207,4.5364
21.0391,4.5265
21.0587,4.5180
21.0795,4.5108
21.1014,4.5051
21.1245,4.5007
21.1487,4.4977
21.1741,4.4961
21.1917,4.4958
21.2117,4.4962
21.2407,4.4984
21.2684,4.5025
21.2949,4.5085
21.3201,4.5164
21.3440,4.5262
21.3666,4.5379
21.3879,4.5515
21.4079,4.5670
21.4267,4.5844
21.4442,4.6037
21.4602,4.6246
21.4746,4.6470
21.4874,4.6710
21.4987,4.6964
21.5084,4.7234
21.5140,4.7422
21.5188,4.7616
21.5230,4.7818
21.5265,4.8026
21.5293,4.8241
21.5314,4.8463
21.5328,4.8691
21.5335,4.8926
21.5336,4.9046
21.5336,5.6100
Z" /> 
<path style="fill:#02FFEE; fill-opacity:0.4000; 
stroke:#02FFEE; stroke-width:0.0000; stroke-opacity:1; 
stroke-linecap:round; stroke-linejoin:round;fill-rule:evenodd;"
d="M 19.1210,4.3810
19.1718,4.3810
19.1811,4.3652
19.1939,4.3468
19.2085,4.3288
19.2221,4.3141
19.2368,4.2998
19.2529,4.2857
19.2562,4.2829
19.2740,4.2694
19.2933,4.2567
19.3142,4.2447
19.3320,4.2356
19.3509,4.2271
19.3707,4.2190
19.3916,4.2115
19.4024,4.2079
19.4249,4.2015
19.4487,4.1960
19.4738,4.1914
19.4935,4.1886
19.5139,4.1863
19.5350,4.1845
19.5568,4.1832
19.5793,4.1824
19.6026,4.1822
19.6235,4.1825
19.6442,4.1834
19.6648,4.1851
19.6851,4.1873
19.7052,4.1902
19.7251,4.1938
19.7449,4.1980
19.7644,4.2028
19.7838,4.2083
19.8029,4.2144
19.8219,4.2212
19.8407,4.2286
19.8592,4.2367
19.8776,4.2454
19.8958,4.2547
19.9138,4.2647
19.9314,4.2753
19.9486,4.2866
19.9653,4.2984
19.9816,4.3108
19.9975,4.3238
20.0129,4.3375
20.0279,4.3517
20.0425,4.3666
20.0566,4.3820
20.0703,4.3981
20.0836,4.4147
20.0964,4.4320
20.1088,4.4498
20.1208,4.4683
20.1323,4.4873
20.1434,4.5070
20.1538,4.5272
20.1636,4.5479
20.1728,4.5691
20.1812,4.5909
20.1890,4.6132
20.1961,4.6360
20.2025,4.6593
20.2082,4.6832
20.2133,4.7076
20.2177,4.7326
20.2214,4.7581
20.2244,4.7841
20.2268,4.8106
20.2285,4.8377
20.2295,4.8653
20.2298,4.8934
20.2298,4.9378
20.2295,4.9660
20.2285,4.9936
20.2268,5.0207
20.2244,5.0472
20.2214,5.0732
20.2177,5.0987
20.2133,5.1237
20.2082,5.1481
20.2025,5.1721
20.1961,5.1954
20.1890,5.2183
20.1812,5.2406
20.1728,5.2625
20.1636,5.2837
20.1538,5.3045
20.1434,5.3247
20.1323,5.3443
20.1207,5.3633
20.1088,5.3817
20.0963,5.3996
20.0834,5.4168
20.0701,5.4334
20.0563,5.4494
20.0421,5.4648
20.0275,5.4796
20.0124,5.4938
19.9968,5.5074
19.9808,5.5205
19.9643,5.5329
19.9474,5.5447
19.9301,5.5559
19.9123,5.5665
19.8942,5.5765
19.8760,5.5859
19.8575,5.5946
19.8389,5.6026
19.8202,5.6101
19.8012,5.6168
19.7821,5.6230
19.7628,5.6284
19.7434,5.6333
19.7238,5.6375
19.7040,5.6410
19.6841,5.6439
19.6640,5.6462
19.6437,5.6478
19.6232,5.6488
19.6026,5.6491
19.5908,5.6490
19.5678,5.6485
19.5455,5.6475
19.5238,5.6460
19.5029,5.6440
19.4827,5.6415
19.4537,5.6368
19.4264,5.6310
19.4006,5.6241
19.3764,5.6160
19.3538,5.6068
19.3328,5.5965
19.3134,5.5851
19.2952,5.5729
19.2779,5.5604
19.2615,5.5477
19.2460,5.5347
19.2267,5.5171
19.2091,5.4990
19.1931,5.4804
19.1787,5.4614
19.1659,5.4420
19.1156,5.4420
19.1156,5.6100
18.7683,5.6100
18.7683,4.9295
19.1156,4.9295
19.1160,4.9544
19.1173,4.9785
19.1194,5.0018
19.1224,5.0244
19.1263,5.0462
19.1310,5.0672
19.1365,5.0876
19.1430,5.1071
19.1502,5.1259
19.1583,5.1439
19.1721,5.1696
19.1878,5.1935
19.2055,5.2158
19.2250,5.2363
19.2319,5.2428
19.2531,5.2609
19.2752,5.2772
19.2983,5.2917
19.3224,5.3043
19.3474,5.3151
19.3733,5.3240
19.4002,5.3311
19.4280,5.3363
19.4568,5.3397
19.4765,5.3409
19.4966,5.3413
19.5167,5.3409
19.5460,5.3388
19.5744,5.3348
19.6019,5.3289
19.6284,5.3212
19.6540,5.3117
19.6787,5.3003
19.7025,5.2871
19.7253,5.2720
19.7472,5.2551
19.7682,5.2363
19.7877,5.2158
19.8052,5.1935
19.8209,5.1696
19.8346,5.1439
19.8427,5.1259
19.8499,5.1071
19.8563,5.0876
19.8618,5.0672
19.8665,5.0462
19.8703,5.0244
19.8733,5.0018
19.8754,4.9785
19.8767,4.9544
19.8771,4.9295
19.8771,4.9017
19.8767,4.8769
19.8754,4.8528
19.8733,4.8294
19.8703,4.8069
19.8665,4.7851
19.8618,4.7640
19.8563,4.7437
19.8499,4.7241
19.8427,4.7053
19.8346,4.6873
19.8209,4.6617
19.8052,4.6377
19.7877,4.6155
19.7682,4.5949
19.7613,4.5885
19.7400,4.5703
19.7178,4.5540
19.6947,4.5395
19.6706,4.5269
19.6456,4.5162
19.6197,4.5072
19.5928,4.5002
19.5650,4.4949
19.5363,4.4915
19.5167,4.4903
19.4966,4.4899
19.4863,4.4900
19.4661,4.4908
19.4463,4.4925
19.4175,4.4965
19.3896,4.5023
19.3628,4.5100
19.3371,4.5195
19.3123,4.5309
19.2886,4.5442
19.2659,4.5592
19.2442,4.5762
19.2236,4.5949
19.2043,4.6155
19.1869,4.6377
19.1714,4.6617
19.1578,4.6873
19.1498,4.7053
19.1426,4.7241
19.1363,4.7437
19.1308,4.7640
19.1261,4.7851
19.1223,4.8069
19.1194,4.8294
19.1173,4.8528
19.1160,4.8769
19.1156,4.9017
19.1156,4.9295
18.7683,4.9295
18.7683,3.6502
19.1210,3.6502
Z" /> 
<path style="fill:#02FFEE; fill-opacity:0.4000; 
stroke:#02FFEE; stroke-width:0.0000; stroke-opacity:1; 
stroke-linecap:round; stroke-linejoin:round;fill-rule:evenodd;"
d="M 18.3770,5.6100
18.3770,3.6502
18.0243,3.6502
18.0243,5.6100
Z" /> 
<path style="fill:#02FFEE; fill-opacity:0.4000; 
stroke:#02FFEE; stroke-width:0.0000; stroke-opacity:1; 
stroke-linecap:round; stroke-linejoin:round;fill-rule:evenodd;"
d="M 17.0778,4.1824
17.0996,4.1830
17.1210,4.1841
17.1419,4.1856
17.1624,4.1875
17.1824,4.1898
17.2020,4.1926
17.2307,4.1976
17.2584,4.2035
17.2851,4.2104
17.3109,4.2183
17.3357,4.2271
17.3595,4.2369
17.3749,4.2438
17.3972,4.2546
17.4186,4.2661
17.4392,4.2782
17.4589,4.2909
17.4776,4.3041
17.4955,4.3180
17.5126,4.3325
17.5287,4.3476
17.5439,4.3632
17.5583,4.3795
17.5674,4.3906
17.5805,4.4074
17.5929,4.4246
17.6046,4.4421
17.6155,4.4600
17.6258,4.4782
17.6353,4.4967
17.6441,4.5155
17.6522,4.5346
17.6596,4.5541
17.6663,4.5739
17.3414,4.6833
17.3358,4.6601
17.3288,4.6379
17.3204,4.6168
17.3106,4.5969
17.2994,4.5780
17.2868,4.5602
17.2728,4.5436
17.2574,4.5280
17.2533,4.5243
17.2356,4.5106
17.2158,4.4987
17.1939,4.4888
17.1699,4.4807
17.1505,4.4760
17.1299,4.4722
17.1081,4.4696
17.0852,4.4680
17.0610,4.4674
17.0527,4.4675
17.0286,4.4684
17.0057,4.4704
16.9842,4.4736
16.9639,4.4778
16.9449,4.4832
16.9215,4.4920
16.9005,4.5029
16.8817,4.5157
16.8651,4.5304
16.8507,4.5467
16.8382,4.5642
16.8276,4.5827
16.8190,4.6023
16.8122,4.6230
16.8074,4.6448
16.8046,4.6677
16.8036,4.6916
16.8036,4.7698
17.1846,4.7698
17.2041,4.7700
17.2328,4.7710
17.2608,4.7729
17.2883,4.7756
17.3151,4.7792
17.3413,4.7837
17.3669,4.7891
17.3918,4.7953
17.4162,4.8024
17.4399,4.8103
17.4630,4.8191
17.4780,4.8254
17.4998,4.8356
17.5206,4.8466
17.5404,4.8584
17.5594,4.8710
17.5774,4.8846
17.5945,4.8989
17.6106,4.9141
17.6259,4.9301
17.6402,4.9470
17.6536,4.9647
17.6618,4.9770
17.6733,4.9961
17.6835,5.0159
17.6925,5.0366
17.7003,5.0581
17.7069,5.0804
17.7123,5.1035
17.7165,5.1275
17.7195,5.1522
17.7213,5.1777
17.7219,5.2041
17.7217,5.2217
17.7203,5.2476
17.7177,5.2727
17.7139,5.2971
17.7089,5.3206
17.7026,5.3435
17.6952,5.3656
17.6866,5.3869
17.6768,5.4075
17.6658,5.4273
17.6536,5.4464
17.6448,5.4586
17.6309,5.4762
17.6161,5.4930
17.6005,5.5089
17.5840,5.5241
17.5667,5.5383
17.5486,5.5518
17.5296,5.5644
17.5097,5.5762
17.4890,5.5872
17.4674,5.5973
17.4526,5.6036
17.4299,5.6122
17.4067,5.6200
17.3829,5.6268
17.3585,5.6327
17.3337,5.6377
17.3083,5.6418
17.2823,5.6450
17.2558,5.6473
17.2288,5.6486
17.2012,5.6491
17.1745,5.6487
17.1488,5.6476
17.1242,5.6458
17.1007,5.6432
17.0783,5.6398
17.0569,5.6358
17.0367,5.6310
17.0175,5.6254
16.9936,5.6169
16.9716,5.6071
16.9664,5.6044
16.9465,5.5936
16.9279,5.5825
16.9108,5.5709
16.8950,5.5590
16.8773,5.5435
16.8618,5.5275
16.8485,5.5108
16.8370,5.4943
16.8250,5.4757
16.8149,5.4586
16.8056,5.4406
16.7982,5.4224
16.7450,5.4224
16.7450,5.4254
16.7439,5.4458
16.7397,5.4699
16.7322,5.4924
16.7214,5.5132
16.7073,5.5324
16.6937,5.5466
16.6781,5.5597
16.6606,5.5715
16.6421,5.5817
16.6223,5.5903
16.6015,5.5974
16.5795,5.6029
16.5563,5.6069
16.5320,5.6092
16.5066,5.6100
16.2716,5.6100
16.2716,5.3189
16.3835,5.3189
16.4062,5.3168
16.4283,5.3089
16.4449,5.2951
16.4559,5.2755
16.4609,5.2545
16.4621,5.2348
16.4621,5.0331
16.8036,5.0331
16.8036,5.0614
16.8040,5.0783
16.8059,5.1029
16.8095,5.1265
16.8147,5.1491
16.8215,5.1708
16.8301,5.1916
16.8402,5.2114
16.8520,5.2303
16.8655,5.2482
16.8806,5.2652
16.8974,5.2812
16.9093,5.2912
16.9280,5.3050
16.9477,5.3174
16.9683,5.3283
16.9899,5.3377
17.0125,5.3457
17.0360,5.3522
17.0605,5.3573
17.0859,5.3609
17.1123,5.3631
17.1397,5.3638
17.1602,5.3634
17.1861,5.3615
17.2103,5.3582
17.2330,5.3534
17.2539,5.3471
17.2732,5.3393
17.2909,5.3301
17.3106,5.3164
17.3177,5.3103
17.3335,5.2941
17.3464,5.2766
17.3564,5.2577
17.3635,5.2374
17.3678,5.2158
17.3693,5.1928
17.3690,5.1835
17.3666,5.1613
17.3614,5.1408
17.3535,5.1219
17.3429,5.1047
17.3296,5.0891
17.3136,5.0751
17.3064,5.0700
17.2870,5.0587
17.2655,5.0495
17.2469,5.0436
17.2269,5.0390
17.2057,5.0357
17.1831,5.0338
17.1592,5.0331
16.8036,5.0331
16.4621,5.0331
16.4621,4.7166
16.4628,4.6845
16.4646,4.6534
16.4678,4.6233
16.4721,4.5941
16.4777,4.5659
16.4846,4.5387
16.4927,4.5124
16.5021,4.4871
16.5127,4.4628
16.5245,4.4394
16.5376,4.4170
16.5520,4.3955
16.5676,4.3751
16.5844,4.3555
16.6025,4.3370
16.6219,4.3194
16.6422,4.3028
16.6635,4.2873
16.6856,4.2728
16.7087,4.2594
16.7327,4.2470
16.7575,4.2358
16.7833,4.2256
16.8099,4.2165
16.8375,4.2084
16.8660,4.2015
16.8953,4.1956
16.9256,4.1907
16.9568,4.1870
16.9888,4.1843
17.0218,4.1827
17.0557,4.1822
Z" /> 
<path style="fill:#02FFEE; fill-opacity:0.4000; 
stroke:#02FFEE; stroke-width:0.0000; stroke-opacity:1; 
stroke-linecap:round; stroke-linejoin:round;fill-rule:evenodd;"
d="M 16.0147,5.6100
15.6674,5.6100
15.6674,5.4420
15.6171,5.4420
15.6140,5.4469
15.6008,5.4662
15.5860,5.4851
15.5695,5.5035
15.5513,5.5215
15.5366,5.5347
15.5210,5.5477
15.5044,5.5604
15.4870,5.5729
15.4686,5.5851
15.4556,5.5928
15.4350,5.6035
15.4128,5.6131
15.3891,5.6215
15.3639,5.6288
15.3371,5.6350
15.3088,5.6401
15.2891,5.6428
15.2687,5.6451
15.2476,5.6468
15.2259,5.6481
15.2035,5.6488
15.1804,5.6491
15.1595,5.6488
15.1387,5.6478
15.1182,5.6462
15.0979,5.6439
15.0778,5.6410
15.0579,5.6375
15.0382,5.6333
15.0187,5.6284
14.9993,5.6230
14.9802,5.6168
14.9613,5.6101
14.9426,5.6026
14.9241,5.5946
14.9057,5.5859
14.8876,5.5765
14.8697,5.5665
14.8520,5.5559
14.8348,5.5447
14.8180,5.5329
14.8017,5.5205
14.7858,5.5074
14.7703,5.4938
14.7553,5.4796
14.7407,5.4648
14.7266,5.4494
14.7129,5.4334
14.6997,5.4168
14.6869,5.3996
14.6745,5.3817
14.6626,5.3633
14.6511,5.3443
14.6401,5.3247
14.6296,5.3045
14.6197,5.2837
14.6105,5.2625
14.6021,5.2406
14.5942,5.2183
14.5871,5.1954
14.5807,5.1721
14.5749,5.1481
14.5698,5.1237
14.5654,5.0987
14.5616,5.0732
14.5586,5.0472
14.5562,5.0207
14.5545,4.9936
14.5535,4.9660
14.5531,4.9378
14.5531,4.9295
14.9058,4.9295
14.9063,4.9544
14.9075,4.9785
14.9097,5.0018
14.9127,5.0244
14.9165,5.0462
14.9212,5.0672
14.9268,5.0876
14.9332,5.1071
14.9404,5.1259
14.9486,5.1439
14.9624,5.1696
14.9781,5.1935
14.9957,5.2158
15.0152,5.2363
15.0221,5.2428
15.0433,5.2609
15.0655,5.2772
15.0885,5.2917
15.1125,5.3043
15.1375,5.3151
15.1634,5.3240
15.1902,5.3311
15.2180,5.3363
15.2466,5.3397
15.2663,5.3409
15.2864,5.3413
15.2965,5.3412
15.3164,5.3404
15.3359,5.3388
15.3644,5.3348
15.3919,5.3289
15.4185,5.3212
15.4442,5.3117
15.4689,5.3003
15.4927,5.2871
15.5155,5.2720
15.5375,5.2551
15.5584,5.2363
15.5779,5.2158
15.5955,5.1935
15.6111,5.1696
15.6248,5.1439
15.6329,5.1259
15.6401,5.1071
15.6465,5.0876
15.6521,5.0672
15.6567,5.0462
15.6606,5.0244
15.6635,5.0018
15.6657,4.9785
15.6670,4.9544
15.6674,4.9295
15.6674,4.9017
15.6670,4.8769
15.6657,4.8528
15.6635,4.8294
15.6606,4.8069
15.6567,4.7851
15.6521,4.7640
15.6465,4.7437
15.6401,4.7241
15.6329,4.7053
15.6248,4.6873
15.6111,4.6617
15.5955,4.6377
15.5779,4.6155
15.5584,4.5949
15.5516,4.5885
15.5303,4.5703
15.5080,4.5540
15.4849,4.5395
15.4608,4.5269
15.4357,4.5162
15.4097,4.5072
15.3828,4.5002
15.3550,4.4949
15.3262,4.4915
15.3065,4.4903
15.2864,4.4899
15.2761,4.4900
15.2559,4.4908
15.2362,4.4925
15.2074,4.4965
15.1797,4.5023
15.1529,4.5100
15.1272,4.5195
15.1025,4.5309
15.0788,4.5442
15.0561,4.5592
15.0344,4.5762
15.0138,4.5949
14.9945,4.6155
14.9771,4.6377
14.9616,4.6617
14.9480,4.6873
14.9400,4.7053
14.9328,4.7241
14.9265,4.7437
14.9210,4.7640
14.9164,4.7851
14.9126,4.8069
14.9096,4.8294
14.9075,4.8528
14.9062,4.8769
14.9058,4.9017
14.9058,4.9295
14.5531,4.9295
14.5531,4.8934
14.5535,4.8653
14.5545,4.8377
14.5562,4.8106
14.5586,4.7841
14.5616,4.7581
14.5654,4.7326
14.5698,4.7076
14.5749,4.6832
14.5807,4.6593
14.5871,4.6360
14.5942,4.6132
14.6021,4.5909
14.6105,4.5691
14.6197,4.5479
14.6296,4.5272
14.6401,4.5070
14.6511,4.4873
14.6626,4.4683
14.6745,4.4498
14.6869,4.4320
14.6997,4.4147
14.7129,4.3981
14.7266,4.3820
14.7407,4.3666
14.7553,4.3517
14.7703,4.3375
14.7858,4.3238
14.8017,4.3108
14.8180,4.2984
14.8348,4.2866
14.8520,4.2753
14.8697,4.2647
14.8876,4.2547
14.9057,4.2454
14.9241,4.2367
14.9426,4.2286
14.9613,4.2212
14.9802,4.2144
14.9993,4.2083
15.0187,4.2028
15.0382,4.1980
15.0579,4.1938
15.0778,4.1902
15.0979,4.1873
15.1182,4.1851
15.1387,4.1834
15.1595,4.1825
15.1804,4.1822
15.1882,4.1822
15.2112,4.1826
15.2336,4.1836
15.2552,4.1850
15.2761,4.1870
15.2962,4.1895
15.3221,4.1936
15.3466,4.1986
15.3699,4.2046
15.3919,4.2115
15.3972,4.2133
15.4176,4.2210
15.4371,4.2292
15.4554,4.2379
15.4728,4.2470
15.4930,4.2592
15.5117,4.2721
15.5286,4.2857
15.5443,4.2998
15.5590,4.3141
15.5726,4.3288
15.5852,4.3438
15.5989,4.3621
15.6112,4.3810
15.6620,4.3810
15.6620,3.6502
16.0147,3.6502
Z" /> 
<path style="fill:#02FFEE; fill-opacity:0.4000; 
stroke:#02FFEE; stroke-width:0.0000; stroke-opacity:1; 
stroke-linecap:round; stroke-linejoin:round;fill-rule:evenodd;"
d="M 13.6519,5.6491
13.6855,5.6486
13.7183,5.6472
13.7503,5.6450
13.7816,5.6418
13.8121,5.6376
13.8418,5.6326
13.8708,5.6266
13.8991,5.6198
13.9265,5.6120
13.9532,5.6033
13.9792,5.5937
14.0043,5.5831
14.0287,5.5717
14.0524,5.5593
14.0753,5.5460
14.0974,5.5318
14.1185,5.5167
14.1386,5.5008
14.1576,5.4842
14.1755,5.4667
14.1924,5.4484
14.2081,5.4294
14.2228,5.4096
14.2365,5.3890
14.2490,5.3676
14.2605,5.3454
14.2709,5.3224
14.2803,5.2987
14.2886,5.2741
14.2958,5.2488
14.3019,5.2227
14.3069,5.1958
13.9821,5.1117
13.9768,5.1355
13.9707,5.1580
13.9637,5.1792
13.9560,5.1991
13.9474,5.2176
13.9380,5.2349
13.9250,5.2547
13.9166,5.2656
13.9016,5.2824
13.8855,5.2976
13.8683,5.3112
13.8500,5.3232
13.8307,5.3337
13.8103,5.3426
13.8018,5.3457
13.7800,5.3525
13.7576,5.3581
13.7346,5.3626
13.7110,5.3659
13.6868,5.3681
13.6670,5.3690
13.6519,5.3692
13.6294,5.3688
13.6080,5.3676
13.5877,5.3657
13.5625,5.3620
13.5393,5.3569
13.5181,5.3505
13.4989,5.3426
13.4777,5.3310
13.4702,5.3257
13.4531,5.3116
13.4390,5.2965
13.4277,5.2804
13.4180,5.2598
13.4125,5.2377
13.4111,5.2182
13.4130,5.1951
13.4190,5.1740
13.4288,5.1550
13.4427,5.1380
13.4604,5.1231
13.4672,5.1186
13.4863,5.1079
13.5086,5.0979
13.5289,5.0903
13.5512,5.0832
13.5757,5.0765
13.5954,5.0717
13.6163,5.0671
13.6384,5.0628
13.6460,5.0614
13.7247,5.0473
13.7517,5.0419
13.7784,5.0361
13.8046,5.0299
13.8303,5.0234
13.8557,5.0165
13.8806,5.0093
13.9050,5.0017
13.9290,4.9937
13.9526,4.9853
13.9757,4.9766
13.9909,4.9706
14.0130,4.9610
14.0343,4.9508
14.0547,4.9399
14.0744,4.9283
14.0931,4.9162
14.1111,4.9033
14.1282,4.8898
14.1445,4.8757
14.1599,4.8609
14.1746,4.8454
14.1838,4.8348
14.1969,4.8180
14.2086,4.8004
14.2190,4.7819
14.2282,4.7625
14.2361,4.7422
14.2427,4.7210
14.2480,4.6990
14.2521,4.6760
14.2549,4.6522
14.2563,4.6275
14.2566,4.6106
14.2560,4.5850
14.2543,4.5603
14.2513,4.5363
14.2472,4.5130
14.2419,4.4906
14.2354,4.4688
14.2277,4.4478
14.2189,4.4276
14.2089,4.4082
14.1977,4.3894
14.1853,4.3715
14.1717,4.3543
14.1570,4.3378
14.1411,4.3222
14.1240,4.3072
14.1057,4.2930
14.0864,4.2796
14.0663,4.2671
14.0456,4.2554
14.0240,4.2445
14.0018,4.2346
13.9788,4.2255
13.9550,4.2172
13.9306,4.2099
13.9053,4.2034
13.8794,4.1978
13.8527,4.1930
13.8252,4.1891
13.7971,4.1861
13.7681,4.1839
13.7385,4.1826
13.7081,4.1822
13.6793,4.1826
13.6512,4.1838
13.6236,4.1858
13.5967,4.1886
13.5704,4.1923
13.5447,4.1967
13.5197,4.2020
13.4952,4.2080
13.4714,4.2149
13.4481,4.2226
13.4255,4.2311
13.4035,4.2404
13.3821,4.2505
13.3614,4.2614
13.3412,4.2732
13.3217,4.2857
13.3028,4.2989
13.2847,4.3126
13.2675,4.3268
13.2512,4.3415
13.2356,4.3567
13.2209,4.3725
13.2071,4.3887
13.1941,4.4054
13.1819,4.4226
13.1705,4.4404
13.1600,4.4586
13.1503,4.4773
13.1415,4.4966
13.1334,4.5163
13.1263,4.5366
13.1199,4.5573
13.4477,4.6579
13.4522,4.6385
13.4596,4.6143
13.4684,4.5921
13.4786,4.5717
13.4903,4.5534
13.5035,4.5369
13.5182,4.5224
13.5343,4.5098
13.5386,4.5070
13.5562,4.4965
13.5748,4.4873
13.5944,4.4796
13.6151,4.4733
13.6368,4.4684
13.6595,4.4649
13.6833,4.4628
13.7081,4.4621
13.7325,4.4626
13.7554,4.4643
13.7769,4.4670
13.7968,4.4709
13.8197,4.4772
13.8403,4.4853
13.8586,4.4951
13.8619,4.4972
13.8800,4.5112
13.8944,4.5270
13.9050,4.5447
13.9119,4.5644
13.9150,4.5859
13.9152,4.5935
13.9138,4.6137
13.9085,4.6357
13.8993,4.6552
13.8862,4.6722
13.8690,4.6868
13.8590,4.6931
13.8405,4.7028
13.8201,4.7117
13.7979,4.7199
13.7787,4.7259
13.7583,4.7314
13.7367,4.7364
13.7139,4.7409
13.7081,4.7420
13.6294,4.7561
13.6099,4.7597
13.5907,4.7634
13.5622,4.7692
13.5343,4.7753
13.5069,4.7818
13.4801,4.7886
13.4537,4.7957
13.4279,4.8032
13.4026,4.8110
13.3778,4.8191
13.3536,4.8275
13.3456,4.8304
13.3222,4.8393
13.2997,4.8490
13.2781,4.8593
13.2575,4.8704
13.2378,4.8821
13.2190,4.8946
13.2012,4.9077
13.1843,4.9215
13.1684,4.9360
13.1533,4.9512
13.1439,4.9618
13.1306,4.9783
13.1186,4.9959
13.1080,5.0146
13.0986,5.0343
13.0906,5.0551
13.0838,5.0770
13.0784,5.0999
13.0742,5.1238
13.0714,5.1488
13.0699,5.1749
13.0696,5.1928
13.0702,5.2197
13.0721,5.2459
13.0752,5.2712
13.0795,5.2958
13.0851,5.3196
13.0919,5.3427
13.0999,5.3649
13.1092,5.3864
13.1197,5.4071
13.1314,5.4270
13.1444,5.4462
13.1586,5.4646
13.1741,5.4822
13.1908,5.4990
13.2087,5.5151
13.2279,5.5304
13.2480,5.5448
13.2690,5.5582
13.2909,5.5707
13.3135,5.5823
13.3371,5.5930
13.3615,5.6027
13.3867,5.6115
13.4128,5.6194
13.4397,5.6264
13.4675,5.6324
13.4961,5.6375
13.5255,5.6417
13.5559,5.6449
13.5870,5.6472
13.6190,5.6486
Z" /> 
<path style="fill:#02FFEE; fill-opacity:0.4000; 
stroke:#02FFEE; stroke-width:0.0000; stroke-opacity:1; 
stroke-linecap:round; stroke-linejoin:round;fill-rule:evenodd;"
d="M 12.5386,5.6491
12.5596,5.6484
12.5799,5.6465
12.5995,5.6432
12.6185,5.6386
12.6429,5.6304
12.6662,5.6199
12.6883,5.6070
12.7093,5.5919
12.7243,5.5789
12.7291,5.5743
12.7428,5.5600
12.7590,5.5396
12.7728,5.5179
12.7842,5.4949
12.7932,5.4706
12.7983,5.4515
12.8022,5.4316
12.8046,5.4110
12.8058,5.3897
12.8058,5.3824
12.8052,5.3608
12.8031,5.3401
12.7998,5.3201
12.7950,5.3008
12.7867,5.2762
12.7759,5.2530
12.7627,5.2311
12.7471,5.2106
12.7339,5.1960
12.7291,5.1914
12.7143,5.1781
12.6936,5.1624
12.6718,5.1491
12.6488,5.1381
12.6247,5.1294
12.5995,5.1230
12.5799,5.1197
12.5596,5.1178
12.5386,5.1171
12.5177,5.1178
12.4974,5.1198
12.4779,5.1231
12.4528,5.1295
12.4288,5.1383
12.4061,5.1495
12.3845,5.1630
12.3641,5.1789
12.3496,5.1923
12.3361,5.2067
12.3201,5.2271
12.3065,5.2487
12.2952,5.2716
12.2864,5.2959
12.2813,5.3150
12.2775,5.3348
12.2751,5.3553
12.2739,5.3766
12.2739,5.3838
12.2745,5.4053
12.2765,5.4261
12.2799,5.4461
12.2845,5.4654
12.2928,5.4900
12.3034,5.5132
12.3165,5.5350
12.3318,5.5556
12.3449,5.5701
12.3496,5.5748
12.3641,5.5881
12.3845,5.6038
12.4061,5.6171
12.4288,5.6281
12.4528,5.6368
12.4779,5.6432
12.4974,5.6465
12.5177,5.6484
Z" /> 
<path style="fill:#02FFEE; fill-opacity:0.4000; 
stroke:#02FFEE; stroke-width:0.0000; stroke-opacity:1; 
stroke-linecap:round; stroke-linejoin:round;fill-rule:evenodd;"
d="M 11.9270,5.6100
11.9270,4.2212
11.5744,4.2212
11.5744,5.6100
Z" /> 
<path style="fill:#02FFEE; fill-opacity:0.4000; 
stroke:#02FFEE; stroke-width:0.0000; stroke-opacity:1; 
stroke-linecap:round; stroke-linejoin:round;fill-rule:evenodd;"
d="M 11.7502,4.0586
11.7736,4.0576
11.7960,4.0547
11.8175,4.0499
11.8381,4.0432
11.8578,4.0345
11.8766,4.0239
11.8945,4.0114
11.9114,3.9970
11.9269,3.9810
11.9403,3.9638
11.9516,3.9454
11.9609,3.9257
11.9681,3.9048
11.9732,3.8827
11.9763,3.8594
11.9774,3.8348
11.9763,3.8103
11.9732,3.7870
11.9681,3.7649
11.9609,3.7440
11.9516,3.7243
11.9403,3.7059
11.9269,3.6887
11.9114,3.6727
11.8945,3.6581
11.8766,3.6455
11.8578,3.6349
11.8381,3.6261
11.8175,3.6194
11.7960,3.6145
11.7736,3.6116
11.7502,3.6106
11.7263,3.6116
11.7034,3.6145
11.6816,3.6194
11.6608,3.6261
11.6411,3.6349
11.6223,3.6455
11.6047,3.6581
11.5880,3.6727
11.5729,3.6887
11.5598,3.7059
11.5487,3.7243
11.5397,3.7440
11.5326,3.7649
11.5276,3.7870
11.5246,3.8103
11.5236,3.8348
11.5246,3.8594
11.5276,3.8827
11.5326,3.9048
11.5397,3.9257
11.5487,3.9454
11.5598,3.9638
11.5729,3.9810
11.5880,3.9970
11.6047,4.0114
11.6223,4.0239
11.6411,4.0345
11.6608,4.0432
11.6816,4.0499
11.7034,4.0547
11.7263,4.0576
Z" /> 
<path style="fill:#02FFEE; fill-opacity:0.4000; 
stroke:#02FFEE; stroke-width:0.0000; stroke-opacity:1; 
stroke-linecap:round; stroke-linejoin:round;fill-rule:evenodd;"
d="M 10.5474,4.1825
10.5728,4.1835
10.5979,4.1851
10.6226,4.1874
10.6471,4.1904
10.6712,4.1940
10.6949,4.1982
10.7184,4.2032
10.7415,4.2087
10.7643,4.2150
10.7868,4.2219
10.8090,4.2294
10.8308,4.2376
10.8523,4.2465
10.8735,4.2560
10.8944,4.2662
10.9147,4.2770
10.9346,4.2884
10.9538,4.3003
10.9726,4.3129
10.9908,4.3261
11.0084,4.3398
11.0255,4.3542
11.0420,4.3691
11.0580,4.3847
11.0735,4.4008
11.0884,4.4175
11.1028,4.4348
11.1166,4.4527
11.1298,4.4712
11.1426,4.4903
11.1547,4.5099
11.1662,4.5301
11.1770,4.5508
11.1870,4.5719
11.1962,4.5936
11.2047,4.6158
11.2125,4.6385
11.2195,4.6617
11.2258,4.6854
11.2314,4.7096
11.2362,4.7344
11.2403,4.7596
11.2436,4.7853
11.2462,4.8116
11.2480,4.8384
11.2491,4.8656
11.2495,4.8934
11.2495,4.9378
11.2491,4.9656
11.2480,4.9929
11.2462,5.0197
11.2436,5.0459
11.2403,5.0717
11.2362,5.0969
11.2314,5.1217
11.2258,5.1459
11.2195,5.1697
11.2125,5.1929
11.2047,5.2157
11.1962,5.2379
11.1870,5.2596
11.1770,5.2809
11.1662,5.3016
11.1547,5.3218
11.1426,5.3414
11.1298,5.3604
11.1166,5.3789
11.1028,5.3967
11.0884,5.4140
11.0735,5.4306
11.0580,5.4467
11.0420,5.4622
11.0255,5.4771
11.0084,5.4915
10.9908,5.5052
10.9726,5.5183
10.9538,5.5309
10.9346,5.5429
10.9147,5.5543
10.8944,5.5651
10.8735,5.5752
10.8523,5.5848
10.8308,5.5936
10.8090,5.6018
10.7868,5.6094
10.7643,5.6163
10.7415,5.6225
10.7184,5.6281
10.6949,5.6330
10.6712,5.6373
10.6471,5.6409
10.6226,5.6438
10.5979,5.6461
10.5728,5.6478
10.5474,5.6488
10.5217,5.6491
10.4959,5.6488
10.4705,5.6478
10.4455,5.6461
10.4207,5.6438
10.3963,5.6409
10.3722,5.6373
10.3485,5.6330
10.3251,5.6281
10.3020,5.6225
10.2792,5.6163
10.2567,5.6094
10.2346,5.6018
10.2128,5.5936
10.1914,5.5848
10.1702,5.5752
10.1494,5.5651
10.1290,5.5543
10.1091,5.5429
10.0898,5.5309
10.0711,5.5183
10.0529,5.5052
10.0352,5.4915
10.0181,5.4771
10.0016,5.4622
9.9856,5.4467
9.9701,5.4306
9.9552,5.4140
9.9409,5.3967
9.9271,5.3789
9.9139,5.3604
9.9012,5.3414
9.8891,5.3218
9.8775,5.3016
9.8668,5.2809
9.8567,5.2596
9.8474,5.2379
9.8388,5.2157
9.8310,5.1929
9.8240,5.1697
9.8176,5.1459
9.8121,5.1217
9.8072,5.0969
9.8031,5.0717
9.7998,5.0459
9.7972,5.0197
9.7953,4.9929
9.7942,4.9656
9.7938,4.9378
9.7938,4.9295
10.1465,4.9295
10.1466,4.9417
10.1474,4.9655
10.1491,4.9885
10.1516,5.0109
10.1549,5.0325
10.1591,5.0535
10.1641,5.0737
10.1699,5.0932
10.1766,5.1120
10.1881,5.1389
10.2015,5.1642
10.2168,5.1879
10.2340,5.2100
10.2530,5.2304
10.2597,5.2369
10.2805,5.2551
10.3023,5.2714
10.3250,5.2858
10.3487,5.2984
10.3734,5.3092
10.3991,5.3181
10.4257,5.3252
10.4534,5.3304
10.4820,5.3338
10.5016,5.3351
10.5217,5.3355
10.5417,5.3351
10.5710,5.3329
10.5993,5.3289
10.6266,5.3231
10.6529,5.3154
10.6783,5.3058
10.7026,5.2944
10.7260,5.2812
10.7484,5.2661
10.7699,5.2492
10.7903,5.2304
10.8032,5.2170
10.8210,5.1954
10.8369,5.1723
10.8510,5.1475
10.8631,5.1212
10.8702,5.1027
10.8764,5.0835
10.8819,5.0637
10.8864,5.0431
10.8902,5.0218
10.8931,4.9998
10.8952,4.9771
10.8964,4.9537
10.8968,4.9295
10.8968,4.9017
10.8967,4.8895
10.8959,4.8658
10.8942,4.8427
10.8917,4.8203
10.8884,4.7987
10.8842,4.7778
10.8792,4.7575
10.8734,4.7380
10.8668,4.7192
10.8552,4.6923
10.8418,4.6671
10.8265,4.6434
10.8094,4.6213
10.7903,4.6008
10.7836,4.5943
10.7628,4.5762
10.7411,4.5599
10.7183,4.5454
10.6946,4.5328
10.6699,4.5220
10.6442,4.5131
10.6176,4.5060
10.5900,4.5008
10.5613,4.4974
10.5417,4.4962
10.5217,4.4958
10.5114,4.4959
10.4912,4.4967
10.4715,4.4983
10.4429,4.5023
10.4153,4.5082
10.3887,4.5159
10.3632,4.5254
10.3388,4.5368
10.3154,4.5500
10.2930,4.5651
10.2718,4.5820
10.2515,4.6008
10.2388,4.6143
10.2213,4.6358
10.2056,4.6590
10.1917,4.6837
10.1797,4.7101
10.1728,4.7285
10.1666,4.7477
10.1613,4.7676
10.1568,4.7881
10.1531,4.8094
10.1502,4.8314
10.1482,4.8541
10.1469,4.8776
10.1465,4.9017
10.1465,4.9295
9.7938,4.9295
9.7938,4.8934
9.7942,4.8656
9.7953,4.8384
9.7972,4.8116
9.7998,4.7853
9.8031,4.7596
9.8072,4.7344
9.8121,4.7096
9.8176,4.6854
9.8240,4.6617
9.8310,4.6385
9.8388,4.6158
9.8474,4.5936
9.8567,4.5719
9.8668,4.5508
9.8775,4.5301
9.8891,4.5099
9.9012,4.4903
9.9139,4.4712
9.9271,4.4527
9.9409,4.4348
9.9552,4.4175
9.9701,4.4008
9.9856,4.3847
10.0016,4.3691
10.0181,4.3542
10.0352,4.3398
10.0529,4.3261
10.0711,4.3129
10.0898,4.3003
10.1091,4.2884
10.1290,4.2770
10.1494,4.2662
10.1702,4.2560
10.1914,4.2465
10.2128,4.2376
10.2346,4.2294
10.2567,4.2219
10.2792,4.2150
10.3020,4.2087
10.3251,4.2032
10.3485,4.1982
10.3722,4.1940
10.3963,4.1904
10.4207,4.1874
10.4455,4.1851
10.4705,4.1835
10.4959,4.1825
10.5217,4.1822
Z" /> 
</g><g >
<path style="fill:#02FFEE; fill-opacity:0.4000; 
stroke:#02FFEE; stroke-width:0.0000; stroke-opacity:1; 
stroke-linecap:round; stroke-linejoin:round;fill-rule:evenodd;"
d="M 29.5800,45.8000
29.5686,45.9063
29.5188,46.0396
29.4336,46.1536
29.3196,46.2388
29.1863,46.2886
29.0800,46.3000
28.0800,46.3000
27.9737,46.2886
27.8404,46.2388
27.7264,46.1536
27.6412,46.0396
27.5914,45.9063
27.5800,45.8000
27.5800,43.3000
27.5914,43.1937
27.6412,43.0604
27.7264,42.9464
27.8404,42.8612
27.9737,42.8114
28.0800,42.8000
29.0800,42.8000
29.1863,42.8114
29.3196,42.8612
29.4336,42.9464
29.5188,43.0604
29.5686,43.1937
29.5800,43.3000
Z" /> 
<path style="fill:#02FFEE; fill-opacity:0.4000; 
stroke:#02FFEE; stroke-width:0.0000; stroke-opacity:1; 
stroke-linecap:round; stroke-linejoin:round;fill-rule:evenodd;"
d="M 27.0400,45.8000
27.0286,45.9063
26.9788,46.0396
26.8936,46.1536
26.7796,46.2388
26.6463,46.2886
26.5400,46.3000
25.5400,46.3000
25.4337,46.2886
25.3004,46.2388
25.1864,46.1536
25.1012,46.0396
25.0514,45.9063
25.0400,45.8000
25.0400,43.3000
25.0514,43.1937
25.1012,43.0604
25.1864,42.9464
25.3004,42.8612
25.4337,42.8114
25.5400,42.8000
26.5400,42.8000
26.6463,42.8114
26.7796,42.8612
26.8936,42.9464
26.9788,43.0604
27.0286,43.1937
27.0400,43.3000
Z" /> 
<path style="fill:#02FFEE; fill-opacity:0.4000; 
stroke:#02FFEE; stroke-width:0.0000; stroke-opacity:1; 
stroke-linecap:round; stroke-linejoin:round;fill-rule:evenodd;"
d="M 24.5000,45.8000
24.4886,45.9063
24.4388,46.0396
24.3536,46.1536
24.2396,46.2388
24.1063,46.2886
24.0000,46.3000
23.0000,46.3000
22.8937,46.2886
22.7604,46.2388
22.6464,46.1536
22.5612,46.0396
22.5114,45.9063
22.5000,45.8000
22.5000,43.3000
22.5114,43.1937
22.5612,43.0604
22.6464,42.9464
22.7604,42.8612
22.8937,42.8114
23.0000,42.8000
24.0000,42.8000
24.1063,42.8114
24.2396,42.8612
24.3536,42.9464
24.4388,43.0604
24.4886,43.1937
24.5000,43.3000
Z" /> 
<path style="fill:#02FFEE; fill-opacity:0.4000; 
stroke:#02FFEE; stroke-width:0.0000; stroke-opacity:1; 
stroke-linecap:round; stroke-linejoin:round;fill-rule:evenodd;"
d="M 21.9600,45.8000
21.9486,45.9063
21.8988,46.0396
21.8136,46.1536
21.6996,46.2388
21.5663,46.2886
21.4600,46.3000
20.4600,46.3000
20.3537,46.2886
20.2204,46.2388
20.1064,46.1536
20.0212,46.0396
19.9714,45.9063
19.9600,45.8000
19.9600,43.3000
19.9714,43.1937
20.0212,43.0604
20.1064,42.9464
20.2204,42.8612
20.3537,42.8114
20.4600,42.8000
21.4600,42.8000
21.5663,42.8114
21.6996,42.8612
21.8136,42.9464
21.8988,43.0604
21.9486,43.1937
21.9600,43.3000
Z" /> 
<path style="fill:#02FFEE; fill-opacity:0.4000; 
stroke:#02FFEE; stroke-width:0.0000; stroke-opacity:1; 
stroke-linecap:round; stroke-linejoin:round;fill-rule:evenodd;"
d="M 19.4200,45.8000
19.4086,45.9063
19.3588,46.0396
19.2736,46.1536
19.1596,46.2388
19.0263,46.2886
18.9200,46.3000
17.9200,46.3000
17.8137,46.2886
17.6804,46.2388
17.5664,46.1536
17.4812,46.0396
17.4314,45.9063
17.4200,45.8000
17.4200,43.3000
17.4314,43.1937
17.4812,43.0604
17.5664,42.9464
17.6804,42.8612
17.8137,42.8114
17.9200,42.8000
18.9200,42.8000
19.0263,42.8114
19.1596,42.8612
19.2736,42.9464
19.3588,43.0604
19.4086,43.1937
19.4200,43.3000
Z" /> 
</g>
<g >
</g>
<g >
</g>
<g >
</g>
<g style="fill:#02FFEE; fill-opacity:0.4000; 
stroke:#02FFEE; stroke-width:0.0000; stroke-opacity:1; 
stroke-linecap:round; stroke-linejoin:round;">
<circle cx="37.9500" cy="3.8000" r="2.3500" /> 
</g>
<g style="fill:#02FFEE; fill-opacity:0.4000; 
stroke:#02FFEE; stroke-width:0.0212; stroke-opacity:1; 
stroke-linecap:round; stroke-linejoin:round;">
</g>
<g >
</g>
<g style="fill:#02FFEE; fill-opacity:0.4000; 
stroke:#02FFEE; stroke-width:0.0212; stroke-opacity:1; 
stroke-linecap:round; stroke-linejoin:round;">
</g>
<g style="fill:#02FFEE; fill-opacity:0.4000; 
stroke:#02FFEE; stroke-width:0.0000; stroke-opacity:1; 
stroke-linecap:round; stroke-linejoin:round;">
<circle cx="37.9500" cy="60.8000" r="2.3500" /> 
</g>
<g style="fill:#02FFEE; fill-opacity:0.4000; 
stroke:#02FFEE; stroke-width:0.0212; stroke-opacity:1; 
stroke-linecap:round; stroke-linejoin:round;">
</g>
<g >
</g>
<g >
</g>
<g style="fill:#02FFEE; fill-opacity:0.4000; 
stroke:#02FFEE; stroke-width:0.0212; stroke-opacity:1; 
stroke-linecap:round; stroke-linejoin:round;">
</g>
<g style="fill:#02FFEE; fill-opacity:0.4000; 
stroke:#02FFEE; stroke-width:0.0000; stroke-opacity:1; 
stroke-linecap:round; stroke-linejoin:round;">
<circle cx="4.9500" cy="3.8000" r="2.3500" /> 
</g>
<g style="fill:#02FFEE; fill-opacity:0.4000; 
stroke:#02FFEE; stroke-width:0.0212; stroke-opacity:1; 
stroke-linecap:round; stroke-linejoin:round;">
</g>
<g >
</g>
<g style="fill:#02FFEE; fill-opacity:0.4000; 
stroke:#02FFEE; stroke-width:0.0212; stroke-opacity:1; 
stroke-linecap:round; stroke-linejoin:round;">
</g>
<g style="fill:#02FFEE; fill-opacity:0.4000; 
stroke:#02FFEE; stroke-width:0.0000; stroke-opacity:1; 
stroke-linecap:round; stroke-linejoin:round;">
<circle cx="17.6400" cy="12.5500" r="0.9000" /> 
</g>
<g style="fill:#02FFEE; fill-opacity:0.4000; 
stroke:#02FFEE; stroke-width:0.0212; stroke-opacity:1; 
stroke-linecap:round; stroke-linejoin:round;">
</g>
<g style="fill:#02FFEE; fill-opacity:0.4000; 
stroke:#02FFEE; stroke-width:0.0000; stroke-opacity:1; 
stroke-linecap:round; stroke-linejoin:round;">
<circle cx="20.1800" cy="12.5500" r="0.9000" /> 
</g>
<g style="fill:#02FFEE; fill-opacity:0.4000; 
stroke:#02FFEE; stroke-width:0.0212; stroke-opacity:1; 
stroke-linecap:round; stroke-linejoin:round;">
</g>
<g style="fill:#02FFEE; fill-opacity:0.4000; 
stroke:#02FFEE; stroke-width:0.0000; stroke-opacity:1; 
stroke-linecap:round; stroke-linejoin:round;">
<circle cx="22.7200" cy="12.5500" r="0.9000" /> 
</g>
<g style="fill:#02FFEE; fill-opacity:0.4000; 
stroke:#02FFEE; stroke-width:0.0212; stroke-opacity:1; 
stroke-linecap:round; stroke-linejoin:round;">
</g>
<g style="fill:#02FFEE; fill-opacity:0.4000; 
stroke:#02FFEE; stroke-width:0.0000; stroke-opacity:1; 
stroke-linecap:round; stroke-linejoin:round;">
<circle cx="25.2600" cy="12.5500" r="0.9000" /> 
</g>
<g style="fill:#02FFEE; fill-opacity:0.4000; 
stroke:#02FFEE; stroke-width:0.0212; stroke-opacity:1; 
stroke-linecap:round; stroke-linejoin:round;">
</g>
<g >
</g>
<g >
</g>
<g style="fill:#02FFEE; fill-opacity:0.4000; 
stroke:#02FFEE; stroke-width:0.0212; stroke-opacity:1; 
stroke-linecap:round; stroke-linejoin:round;">
</g>
<g style="fill:#02FFEE; fill-opacity:0.4000; 
stroke:#02FFEE; stroke-width:0.0000; stroke-opacity:1; 
stroke-linecap:round; stroke-linejoin:round;">
<circle cx="4.9500" cy="60.8000" r="2.3500" /> 
</g>
<g style="fill:#02FFEE; fill-opacity:0.4000; 
stroke:#02FFEE; stroke-width:0.0212; stroke-opacity:1; 
stroke-linecap:round; stroke-linejoin:round;">
</g>
<g >
</g>
<g >
</g>
<g >
</g>
<g style="fill:#02FFEE; fill-opacity:0.4000; 
stroke:#02FFEE; stroke-width:0.0212; stroke-opacity:1; 
stroke-linecap:round; stroke-linejoin:round;">
</g>
<g style="fill:#02FFEE; fill-opacity:0.4000; 
stroke:#02FFEE; stroke-width:0.0000; stroke-opacity:1; 
stroke-linecap:round; stroke-linejoin:round;">
<path style="fill:#02FFEE; fill-opacity:0.4000; 
stroke:#02FFEE; stroke-width:0.0000; stroke-opacity:1; 
stroke-linecap:round; stroke-linejoin:round;fill-rule:evenodd;"
d="M 36.0500,46.9900
36.0500,47.9900
33.5400,47.9900
33.5400,46.9900
Z" /> 
<path style="fill:#02FFEE; fill-opacity:0.4000; 
stroke:#02FFEE; stroke-width:0.0000; stroke-opacity:1; 
stroke-linecap:round; stroke-linejoin:round;fill-rule:evenodd;"
d="M 39.3600,49.5300
39.3600,50.5300
36.8500,50.5300
36.8500,49.5300
Z" /> 
<path style="fill:#02FFEE; fill-opacity:0.4000; 
stroke:#02FFEE; stroke-width:0.0000; stroke-opacity:1; 
stroke-linecap:round; stroke-linejoin:round;fill-rule:evenodd;"
d="M 36.0500,52.0700
36.0500,53.0700
33.5400,53.0700
33.5400,52.0700
Z" /> 
<path style="fill:#02FFEE; fill-opacity:0.4000; 
stroke:#02FFEE; stroke-width:0.0000; stroke-opacity:1; 
stroke-linecap:round; stroke-linejoin:round;fill-rule:evenodd;"
d="M 39.3600,54.6100
39.3600,55.6100
36.8500,55.6100
36.8500,54.6100
Z" /> 
</g>
<g >
</g>
<g style="fill:#02FFEE; fill-opacity:0.4000; 
stroke:#02FFEE; stroke-width:0.0000; stroke-opacity:1; 
stroke-linecap:round; stroke-linejoin:round;">
<circle cx="30.3500" cy="5.0000" r="1.0250" /> 
</g>
<g style="fill:#02FFEE; fill-opacity:0.4000; 
stroke:#02FFEE; stroke-width:0.0212; stroke-opacity:1; 
stroke-linecap:round; stroke-linejoin:round;">
</g>
<g style="fill:#02FFEE; fill-opacity:0.4000; 
stroke:#02FFEE; stroke-width:0.0000; stroke-opacity:1; 
stroke-linecap:round; stroke-linejoin:round;">
<circle cx="32.8900" cy="7.5400" r="1.1250" /> 
</g>
<g style="fill:#02FFEE; fill-opacity:0.4000; 
stroke:#02FFEE; stroke-width:0.0212; stroke-opacity:1; 
stroke-linecap:round; stroke-linejoin:round;">
</g>
<g style="fill:#02FFEE; fill-opacity:0.4000; 
stroke:#02FFEE; stroke-width:0.0000; stroke-opacity:1; 
stroke-linecap:round; stroke-linejoin:round;">
<circle cx="32.8900" cy="2.4600" r="1.1250" /> 
</g>
<g style="fill:#02FFEE; fill-opacity:0.4000; 
stroke:#02FFEE; stroke-width:0.0212; stroke-opacity:1; 
stroke-linecap:round; stroke-linejoin:round;">
</g>
<g style="fill:#02FFEE; fill-opacity:0.4000; 
stroke:#02FFEE; stroke-width:0.0000; stroke-opacity:1; 
stroke-linecap:round; stroke-linejoin:round;">
<circle cx="27.8100" cy="7.5400" r="1.1250" /> 
</g>
<g style="fill:#02FFEE; fill-opacity:0.4000; 
stroke:#02FFEE; stroke-width:0.0212; stroke-opacity:1; 
stroke-linecap:round; stroke-linejoin:round;">
</g>
<g style="fill:#02FFEE; fill-opacity:0.4000; 
stroke:#02FFEE; stroke-width:0.0000; stroke-opacity:1; 
stroke-linecap:round; stroke-linejoin:round;">
<circle cx="27.8100" cy="2.4600" r="1.1250" /> 
</g>
<g style="fill:#02FFEE; fill-opacity:0.4000; 
stroke:#02FFEE; stroke-width:0.0212; stroke-opacity:1; 
stroke-linecap:round; stroke-linejoin:round;">
</g>
<g >
</g>
<g style="fill:#02FFEE; fill-opacity:0.4000; 
stroke:#02FFEE; stroke-width:0.0212; stroke-opacity:1; 
stroke-linecap:round; stroke-linejoin:round;">
</g>
<g style="fill:#02FFEE; fill-opacity:0.4000; 
stroke:#02FFEE; stroke-width:0.0000; stroke-opacity:1; 
stroke-linecap:round; stroke-linejoin:round;">
<path style="fill:#02FFEE; fill-opacity:0.4000; 
stroke:#02FFEE; stroke-width:0.0000; stroke-opacity:1; 
stroke-linecap:round; stroke-linejoin:round;fill-rule:evenodd;"
d="M 6.0250,42.6000
5.9676,42.5886
5.9189,42.5561
5.8864,42.5074
5.8750,42.4500
5.8750,42.1500
5.8864,42.0926
5.9189,42.0439
5.9676,42.0114
6.0250,42.0000
7.2750,42.0000
7.3324,42.0114
7.3811,42.0439
7.4136,42.0926
7.4250,42.1500
7.4250,42.4500
7.4136,42.5074
7.3811,42.5561
7.3324,42.5886
7.2750,42.6000
Z" /> 
<path style="fill:#02FFEE; fill-opacity:0.4000; 
stroke:#02FFEE; stroke-width:0.0000; stroke-opacity:1; 
stroke-linecap:round; stroke-linejoin:round;fill-rule:evenodd;"
d="M 6.0250,41.6000
5.9676,41.5886
5.9189,41.5561
5.8864,41.5074
5.8750,41.4500
5.8750,41.1500
5.8864,41.0926
5.9189,41.0439
5.9676,41.0114
6.0250,41.0000
7.2750,41.0000
7.3324,41.0114
7.3811,41.0439
7.4136,41.0926
7.4250,41.1500
7.4250,41.4500
7.4136,41.5074
7.3811,41.5561
7.3324,41.5886
7.2750,41.6000
Z" /> 
<path style="fill:#02FFEE; fill-opacity:0.4000; 
stroke:#02FFEE; stroke-width:0.0000; stroke-opacity:1; 
stroke-linecap:round; stroke-linejoin:round;fill-rule:evenodd;"
d="M 6.0250,40.6000
5.9676,40.5886
5.9189,40.5561
5.8864,40.5074
5.8750,40.4500
5.8750,40.1500
5.8864,40.0926
5.9189,40.0439
5.9676,40.0114
6.0250,40.0000
7.2750,40.0000
7.3324,40.0114
7.3811,40.0439
7.4136,40.0926
7.4250,40.1500
7.4250,40.4500
7.4136,40.5074
7.3811,40.5561
7.3324,40.5886
7.2750,40.6000
Z" /> 
<path style="fill:#02FFEE; fill-opacity:0.4000; 
stroke:#02FFEE; stroke-width:0.0000; stroke-opacity:1; 
stroke-linecap:round; stroke-linejoin:round;fill-rule:evenodd;"
d="M 6.0250,39.6000
5.9676,39.5886
5.9189,39.5561
5.8864,39.5074
5.8750,39.4500
5.8750,39.1500
5.8864,39.0926
5.9189,39.0439
5.9676,39.0114
6.0250,39.0000
7.2750,39.0000
7.3324,39.0114
7.3811,39.0439
7.4136,39.0926
7.4250,39.1500
7.4250,39.4500
7.4136,39.5074
7.3811,39.5561
7.3324,39.5886
7.2750,39.6000
Z" /> 
<path style="fill:#02FFEE; fill-opacity:0.4000; 
stroke:#02FFEE; stroke-width:0.0000; stroke-opacity:1; 
stroke-linecap:round; stroke-linejoin:round;fill-rule:evenodd;"
d="M 2.1250,44.2000
2.0293,44.1810
1.9482,44.1268
1.8940,44.0457
1.8750,43.9500
1.8750,43.2500
1.8940,43.1543
1.9482,43.0732
2.0293,43.0190
2.1250,43.0000
3.4250,43.0000
3.5207,43.0190
3.6018,43.0732
3.6560,43.1543
3.6750,43.2500
3.6750,43.9500
3.6560,44.0457
3.6018,44.1268
3.5207,44.1810
3.4250,44.2000
Z" /> 
<path style="fill:#02FFEE; fill-opacity:0.4000; 
stroke:#02FFEE; stroke-width:0.0000; stroke-opacity:1; 
stroke-linecap:round; stroke-linejoin:round;fill-rule:evenodd;"
d="M 2.1250,38.6000
2.0293,38.5810
1.9482,38.5268
1.8940,38.4457
1.8750,38.3500
1.8750,37.6500
1.8940,37.5543
1.9482,37.4732
2.0293,37.4190
2.1250,37.4000
3.4250,37.4000
3.5207,37.4190
3.6018,37.4732
3.6560,37.5543
3.6750,37.6500
3.6750,38.3500
3.6560,38.4457
3.6018,38.5268
3.5207,38.5810
3.4250,38.6000
Z" /> 
</g>
<g >
</g>
<g style="fill:#02FFEE; fill-opacity:0.4000; 
stroke:#02FFEE; stroke-width:0.0000; stroke-opacity:1; 
stroke-linecap:round; stroke-linejoin:round;">
<circle cx="26.3800" cy="59.8000" r="0.5000" /> 
</g>
<g style="fill:#02FFEE; fill-opacity:0.4000; 
stroke:#02FFEE; stroke-width:0.0212; stroke-opacity:1; 
stroke-linecap:round; stroke-linejoin:round;">
</g>
<g style="fill:#02FFEE; fill-opacity:0.4000; 
stroke:#02FFEE; stroke-width:0.0000; stroke-opacity:1; 
stroke-linecap:round; stroke-linejoin:round;">
<circle cx="18.4000" cy="59.8000" r="0.5000" /> 
</g>
<g style="fill:#02FFEE; fill-opacity:0.4000; 
stroke:#02FFEE; stroke-width:0.0212; stroke-opacity:1; 
stroke-linecap:round; stroke-linejoin:round;">
</g>
<g style="fill:#02FFEE; fill-opacity:0.4000; 
stroke:#02FFEE; stroke-width:0.0000; stroke-opacity:1; 
stroke-linecap:round; stroke-linejoin:round;">
<path style="fill:#02FFEE; fill-opacity:0.4000; 
stroke:#02FFEE; stroke-width:0.0000; stroke-opacity:1; 
stroke-linecap:round; stroke-linejoin:round;fill-rule:evenodd;"
d="M 18.8500,50.1000
18.8500,48.1000
19.5500,48.1000
19.5500,50.1000
Z" /> 
<path style="fill:#02FFEE; fill-opacity:0.4000; 
stroke:#02FFEE; stroke-width:0.0000; stroke-opacity:1; 
stroke-linecap:round; stroke-linejoin:round;fill-rule:evenodd;"
d="M 19.9500,50.1000
19.9500,48.1000
20.6500,48.1000
20.6500,50.1000
Z" /> 
<path style="fill:#02FFEE; fill-opacity:0.4000; 
stroke:#02FFEE; stroke-width:0.0000; stroke-opacity:1; 
stroke-linecap:round; stroke-linejoin:round;fill-rule:evenodd;"
d="M 21.0500,50.1000
21.0500,48.1000
21.7500,48.1000
21.7500,50.1000
Z" /> 
<path style="fill:#02FFEE; fill-opacity:0.4000; 
stroke:#02FFEE; stroke-width:0.0000; stroke-opacity:1; 
stroke-linecap:round; stroke-linejoin:round;fill-rule:evenodd;"
d="M 22.1500,50.1000
22.1500,48.1000
22.8500,48.1000
22.8500,50.1000
Z" /> 
<path style="fill:#02FFEE; fill-opacity:0.4000; 
stroke:#02FFEE; stroke-width:0.0000; stroke-opacity:1; 
stroke-linecap:round; stroke-linejoin:round;fill-rule:evenodd;"
d="M 23.2500,50.1000
23.2500,48.1000
23.9500,48.1000
23.9500,50.1000
Z" /> 
<path style="fill:#02FFEE; fill-opacity:0.4000; 
stroke:#02FFEE; stroke-width:0.0000; stroke-opacity:1; 
stroke-linecap:round; stroke-linejoin:round;fill-rule:evenodd;"
d="M 24.3500,50.1000
24.3500,48.1000
25.0500,48.1000
25.0500,50.1000
Z" /> 
<path style="fill:#02FFEE; fill-opacity:0.4000; 
stroke:#02FFEE; stroke-width:0.0000; stroke-opacity:1; 
stroke-linecap:round; stroke-linejoin:round;fill-rule:evenodd;"
d="M 25.4500,50.1000
25.4500,48.1000
26.1500,48.1000
26.1500,50.1000
Z" /> 
<path style="fill:#02FFEE; fill-opacity:0.4000; 
stroke:#02FFEE; stroke-width:0.0000; stroke-opacity:1; 
stroke-linecap:round; stroke-linejoin:round;fill-rule:evenodd;"
d="M 26.5500,50.1000
26.5500,48.1000
27.2500,48.1000
27.2500,50.1000
Z" /> 
<path style="fill:#02FFEE; fill-opacity:0.4000; 
stroke:#02FFEE; stroke-width:0.0000; stroke-opacity:1; 
stroke-linecap:round; stroke-linejoin:round;fill-rule:evenodd;"
d="M 27.6500,50.1000
27.6500,48.1000
28.3500,48.1000
28.3500,50.1000
Z" /> 
<path style="fill:#02FFEE; fill-opacity:0.4000; 
stroke:#02FFEE; stroke-width:0.0000; stroke-opacity:1; 
stroke-linecap:round; stroke-linejoin:round;fill-rule:evenodd;"
d="M 28.7000,50.7500
28.7000,48.8500
30.3000,48.8500
30.3000,50.7500
Z" /> 
<path style="fill:#02FFEE; fill-opacity:0.4000; 
stroke:#02FFEE; stroke-width:0.0000; stroke-opacity:1; 
stroke-linecap:round; stroke-linejoin:round;fill-rule:evenodd;"
d="M 28.6000,60.9000
28.6000,57.9000
30.3000,57.9000
30.3000,60.9000
Z" /> 
<path style="fill:#02FFEE; fill-opacity:0.4000; 
stroke:#02FFEE; stroke-width:0.0000; stroke-opacity:1; 
stroke-linecap:round; stroke-linejoin:round;fill-rule:evenodd;"
d="M 13.3000,50.5000
13.3000,48.5000
15.4000,48.5000
15.4000,50.5000
Z" /> 
<path style="fill:#02FFEE; fill-opacity:0.4000; 
stroke:#02FFEE; stroke-width:0.0000; stroke-opacity:1; 
stroke-linecap:round; stroke-linejoin:round;fill-rule:evenodd;"
d="M 12.6000,60.9000
12.6000,57.9000
14.3000,57.9000
14.3000,60.9000
Z" /> 
</g>
<g >
</g>
<g style="fill:#02FFEE; fill-opacity:0.4000; 
stroke:#02FFEE; stroke-width:0.0000; stroke-opacity:1; 
stroke-linecap:round; stroke-linejoin:round;">
</g>
<g style="fill:#02FFEE; fill-opacity:0.4000; 
stroke:#02FFEE; stroke-width:2.0000; stroke-opacity:1; 
stroke-linecap:round; stroke-linejoin:round;">
</g>
<g style="fill:#02FFEE; fill-opacity:0.0; 
stroke:#02FFEE; stroke-width:2.0000; stroke-opacity:1; 
stroke-linecap:round; stroke-linejoin:round;">
<path d="M38.0950 34.5300
L38.0950 33.0300
" />
<path d="M35.5550 34.5300
L35.5550 33.0300
" />
<path d="M33.0150 34.5300
L33.0150 33.0300
" />
<path d="M30.4750 34.5300
L30.4750 33.0300
" />
<path d="M27.9350 34.5300
L27.9350 33.0300
" />
<path d="M25.3950 34.5300
L25.3950 33.0300
" />
<path d="M22.8550 34.5300
L22.8550 33.0300
" />
<path d="M22.8550 16.7500
L22.8550 15.2500
" />
<path d="M25.3950 16.7500
L25.3950 15.2500
" />
<path d="M27.9350 16.7500
L27.9350 15.2500
" />
<path d="M30.4750 16.7500
L30.4750 15.2500
" />
<path d="M33.0150 16.7500
L33.0150 15.2500
" />
<path d="M35.5550 16.7500
L35.5550 15.2500
" />
<path d="M38.0950 16.7500
L38.0950 15.2500
" />
</g>
<g >
</g>
<g style="fill:#02FFEE; fill-opacity:0.0; 
stroke:#02FFEE; stroke-width:2.0000; stroke-opacity:1; 
stroke-linecap:round; stroke-linejoin:round;">
</g>
<g style="fill:#02FFEE; fill-opacity:0.0; 
stroke:#02FFEE; stroke-width:0.0000; stroke-opacity:1; 
stroke-linecap:round; stroke-linejoin:round;">
</g>
<g style="fill:#02FFEE; fill-opacity:0.4000; 
stroke:#02FFEE; stroke-width:0.0000; stroke-opacity:1; 
stroke-linecap:round; stroke-linejoin:round;">
<path style="fill:#02FFEE; fill-opacity:0.4000; 
stroke:#02FFEE; stroke-width:0.0000; stroke-opacity:1; 
stroke-linecap:round; stroke-linejoin:round;fill-rule:evenodd;"
d="M 6.4500,54.4500
6.4690,54.3543
6.5232,54.2732
6.6043,54.2190
6.7000,54.2000
7.2000,54.2000
7.2957,54.2190
7.3768,54.2732
7.4310,54.3543
7.4500,54.4500
7.4500,57.4500
7.4310,57.5457
7.3768,57.6268
7.2957,57.6810
7.2000,57.7000
6.7000,57.7000
6.6043,57.6810
6.5232,57.6268
6.4690,57.5457
6.4500,57.4500
Z" /> 
<path style="fill:#02FFEE; fill-opacity:0.4000; 
stroke:#02FFEE; stroke-width:0.0000; stroke-opacity:1; 
stroke-linecap:round; stroke-linejoin:round;fill-rule:evenodd;"
d="M 8.4500,54.4500
8.4690,54.3543
8.5232,54.2732
8.6043,54.2190
8.7000,54.2000
9.2000,54.2000
9.2957,54.2190
9.3768,54.2732
9.4310,54.3543
9.4500,54.4500
9.4500,57.4500
9.4310,57.5457
9.3768,57.6268
9.2957,57.6810
9.2000,57.7000
8.7000,57.7000
8.6043,57.6810
8.5232,57.6268
8.4690,57.5457
8.4500,57.4500
Z" /> 
<path style="fill:#02FFEE; fill-opacity:0.4000; 
stroke:#02FFEE; stroke-width:0.0000; stroke-opacity:1; 
stroke-linecap:round; stroke-linejoin:round;fill-rule:evenodd;"
d="M 3.8500,48.7500
3.8690,48.6543
3.9232,48.5732
4.0043,48.5190
4.1000,48.5000
5.1000,48.5000
5.1957,48.5190
5.2768,48.5732
5.3310,48.6543
5.3500,48.7500
5.3500,51.6500
5.3310,51.7457
5.2768,51.8268
5.1957,51.8810
5.1000,51.9000
4.1000,51.9000
4.0043,51.8810
3.9232,51.8268
3.8690,51.7457
3.8500,51.6500
Z" /> 
<path style="fill:#02FFEE; fill-opacity:0.4000; 
stroke:#02FFEE; stroke-width:0.0000; stroke-opacity:1; 
stroke-linecap:round; stroke-linejoin:round;fill-rule:evenodd;"
d="M 10.5500,48.7500
10.5690,48.6543
10.6232,48.5732
10.7043,48.5190
10.8000,48.5000
11.8000,48.5000
11.8957,48.5190
11.9768,48.5732
12.0310,48.6543
12.0500,48.7500
12.0500,51.6500
12.0310,51.7457
11.9768,51.8268
11.8957,51.8810
11.8000,51.9000
10.8000,51.9000
10.7043,51.8810
10.6232,51.8268
10.5690,51.7457
10.5500,51.6500
Z" /> 
</g>
<g >
</g>
<g style="fill:#02FFEE; fill-opacity:0.4000; 
stroke:#02FFEE; stroke-width:0.0000; stroke-opacity:1; 
stroke-linecap:round; stroke-linejoin:round;">
<path style="fill:#02FFEE; fill-opacity:0.4000; 
stroke:#02FFEE; stroke-width:0.0000; stroke-opacity:1; 
stroke-linecap:round; stroke-linejoin:round;fill-rule:evenodd;"
d="M 36.8750,39.0000
36.9324,39.0114
36.9811,39.0439
37.0136,39.0926
37.0250,39.1500
37.0250,39.4500
37.0136,39.5074
36.9811,39.5561
36.9324,39.5886
36.8750,39.6000
35.6250,39.6000
35.5676,39.5886
35.5189,39.5561
35.4864,39.5074
35.4750,39.4500
35.4750,39.1500
35.4864,39.0926
35.5189,39.0439
35.5676,39.0114
35.6250,39.0000
Z" /> 
<path style="fill:#02FFEE; fill-opacity:0.4000; 
stroke:#02FFEE; stroke-width:0.0000; stroke-opacity:1; 
stroke-linecap:round; stroke-linejoin:round;fill-rule:evenodd;"
d="M 36.8750,40.0000
36.9324,40.0114
36.9811,40.0439
37.0136,40.0926
37.0250,40.1500
37.0250,40.4500
37.0136,40.5074
36.9811,40.5561
36.9324,40.5886
36.8750,40.6000
35.6250,40.6000
35.5676,40.5886
35.5189,40.5561
35.4864,40.5074
35.4750,40.4500
35.4750,40.1500
35.4864,40.0926
35.5189,40.0439
35.5676,40.0114
35.6250,40.0000
Z" /> 
<path style="fill:#02FFEE; fill-opacity:0.4000; 
stroke:#02FFEE; stroke-width:0.0000; stroke-opacity:1; 
stroke-linecap:round; stroke-linejoin:round;fill-rule:evenodd;"
d="M 36.8750,41.0000
36.9324,41.0114
36.9811,41.0439
37.0136,41.0926
37.0250,41.1500
37.0250,41.4500
37.0136,41.5074
36.9811,41.5561
36.9324,41.5886
36.8750,41.6000
35.6250,41.6000
35.5676,41.5886
35.5189,41.5561
35.4864,41.5074
35.4750,41.4500
35.4750,41.1500
35.4864,41.0926
35.5189,41.0439
35.5676,41.0114
35.6250,41.0000
Z" /> 
<path style="fill:#02FFEE; fill-opacity:0.4000; 
stroke:#02FFEE; stroke-width:0.0000; stroke-opacity:1; 
stroke-linecap:round; stroke-linejoin:round;fill-rule:evenodd;"
d="M 36.8750,42.0000
36.9324,42.0114
36.9811,42.0439
37.0136,42.0926
37.0250,42.1500
37.0250,42.4500
37.0136,42.5074
36.9811,42.5561
36.9324,42.5886
36.8750,42.6000
35.6250,42.6000
35.5676,42.5886
35.5189,42.5561
35.4864,42.5074
35.4750,42.4500
35.4750,42.1500
35.4864,42.0926
35.5189,42.0439
35.5676,42.0114
35.6250,42.0000
Z" /> 
<path style="fill:#02FFEE; fill-opacity:0.4000; 
stroke:#02FFEE; stroke-width:0.0000; stroke-opacity:1; 
stroke-linecap:round; stroke-linejoin:round;fill-rule:evenodd;"
d="M 40.7750,37.4000
40.8707,37.4190
40.9518,37.4732
41.0060,37.5543
41.0250,37.6500
41.0250,38.3500
41.0060,38.4457
40.9518,38.5268
40.8707,38.5810
40.7750,38.6000
39.4750,38.6000
39.3793,38.5810
39.2982,38.5268
39.2440,38.4457
39.2250,38.3500
39.2250,37.6500
39.2440,37.5543
39.2982,37.4732
39.3793,37.4190
39.4750,37.4000
Z" /> 
<path style="fill:#02FFEE; fill-opacity:0.4000; 
stroke:#02FFEE; stroke-width:0.0000; stroke-opacity:1; 
stroke-linecap:round; stroke-linejoin:round;fill-rule:evenodd;"
d="M 40.7750,43.0000
40.8707,43.0190
40.9518,43.0732
41.0060,43.1543
41.0250,43.2500
41.0250,43.9500
41.0060,44.0457
40.9518,44.1268
40.8707,44.1810
40.7750,44.2000
39.4750,44.2000
39.3793,44.1810
39.2982,44.1268
39.2440,44.0457
39.2250,43.9500
39.2250,43.2500
39.2440,43.1543
39.2982,43.0732
39.3793,43.0190
39.4750,43.0000
Z" /> 
</g>
<g >
</g>
<g style="fill:#02FFEE; fill-opacity:0.4000; 
stroke:#02FFEE; stroke-width:0.0000; stroke-opacity:1; 
stroke-linecap:round; stroke-linejoin:round;">
<path style="fill:#02FFEE; fill-opacity:0.4000; 
stroke:#02FFEE; stroke-width:0.0000; stroke-opacity:1; 
stroke-linecap:round; stroke-linejoin:round;fill-rule:evenodd;"
d="M 4.3200,17.0200
4.4157,17.0390
4.4968,17.0932
4.5510,17.1743
4.5700,17.2700
4.5700,17.7700
4.5510,17.8657
4.4968,17.9468
4.4157,18.0010
4.3200,18.0200
2.3100,18.0200
2.2143,18.0010
2.1332,17.9468
2.0790,17.8657
2.0600,17.7700
2.0600,17.2700
2.0790,17.1743
2.1332,17.0932
2.2143,17.0390
2.3100,17.0200
Z" /> 
<path style="fill:#02FFEE; fill-opacity:0.4000; 
stroke:#02FFEE; stroke-width:0.0000; stroke-opacity:1; 
stroke-linecap:round; stroke-linejoin:round;fill-rule:evenodd;"
d="M 7.6300,19.5600
7.7257,19.5790
7.8068,19.6332
7.8610,19.7143
7.8800,19.8100
7.8800,20.3100
7.8610,20.4057
7.8068,20.4868
7.7257,20.5410
7.6300,20.5600
5.6200,20.5600
5.5243,20.5410
5.4432,20.4868
5.3890,20.4057
5.3700,20.3100
5.3700,19.8100
5.3890,19.7143
5.4432,19.6332
5.5243,19.5790
5.6200,19.5600
Z" /> 
<path style="fill:#02FFEE; fill-opacity:0.4000; 
stroke:#02FFEE; stroke-width:0.0000; stroke-opacity:1; 
stroke-linecap:round; stroke-linejoin:round;fill-rule:evenodd;"
d="M 4.3200,22.1000
4.4157,22.1190
4.4968,22.1732
4.5510,22.2543
4.5700,22.3500
4.5700,22.8500
4.5510,22.9457
4.4968,23.0268
4.4157,23.0810
4.3200,23.1000
2.3100,23.1000
2.2143,23.0810
2.1332,23.0268
2.0790,22.9457
2.0600,22.8500
2.0600,22.3500
2.0790,22.2543
2.1332,22.1732
2.2143,22.1190
2.3100,22.1000
Z" /> 
<path style="fill:#02FFEE; fill-opacity:0.4000; 
stroke:#02FFEE; stroke-width:0.0000; stroke-opacity:1; 
stroke-linecap:round; stroke-linejoin:round;fill-rule:evenodd;"
d="M 7.6300,24.6400
7.7257,24.6590
7.8068,24.7132
7.8610,24.7943
7.8800,24.8900
7.8800,25.3900
7.8610,25.4857
7.8068,25.5668
7.7257,25.6210
7.6300,25.6400
5.6200,25.6400
5.5243,25.6210
5.4432,25.5668
5.3890,25.4857
5.3700,25.3900
5.3700,24.8900
5.3890,24.7943
5.4432,24.7132
5.5243,24.6590
5.6200,24.6400
Z" /> 
<path style="fill:#02FFEE; fill-opacity:0.4000; 
stroke:#02FFEE; stroke-width:0.0000; stroke-opacity:1; 
stroke-linecap:round; stroke-linejoin:round;fill-rule:evenodd;"
d="M 4.3200,27.1800
4.4157,27.1990
4.4968,27.2532
4.5510,27.3343
4.5700,27.4300
4.5700,27.9300
4.5510,28.0257
4.4968,28.1068
4.4157,28.1610
4.3200,28.1800
2.3100,28.1800
2.2143,28.1610
2.1332,28.1068
2.0790,28.0257
2.0600,27.9300
2.0600,27.4300
2.0790,27.3343
2.1332,27.2532
2.2143,27.1990
2.3100,27.1800
Z" /> 
</g>
<g >
</g>
<g >
</g>
<g >
</g>
</g>
<g style="fill:#000000; fill-opacity:1.0000; 
stroke:#000000; stroke-width:0.0000; stroke-opacity:1; 
stroke-linecap:round; stroke-linejoin:round;">
</g>
<g style="fill:#D0D2CD; fill-opacity:1.0000; 
stroke:#D0D2CD; stroke-width:0.0000; stroke-opacity:1; 
stroke-linecap:round; stroke-linejoin:round;">
</g>
<g style="fill:#D0D2CD; fill-opacity:0.0; 
stroke:#D0D2CD; stroke-width:0.2000; stroke-opacity:1; 
stroke-linecap:round; stroke-linejoin:round;">
<path d="M1.9500 60.8000 A3.0000 3.0000 0.0 0 0 4.9500 63.8000" />
<path d="M37.9500 63.8000
L4.9500 63.8000
" />
<path d="M37.9500 63.8000 A3.0000 3.0000 0.0 0 0 40.9500 60.8000" />
<path d="M40.9500 3.8000
L40.9500 60.8000
" />
<path d="M40.9500 3.8000 A3.0000 3.0000 0.0 0 0 37.9500 0.8000" />
<path d="M4.9500 0.8000
L37.9500 0.8000
" />
<path d="M4.9500 0.8000 A3.0000 3.0000 0.0 0 0 1.9500 3.8000" />
<path d="M1.9500 7.0500
L1.9500 3.8000
" />
<path d="M4.2000 7.0500
L1.9500 7.0500
" />
<path d="M4.2000 8.5500 A0.7500 0.7500 0.0 0 0 4.2000 7.0500" />
<path d="M1.9500 8.5500
L4.2000 8.5500
" />
<path d="M1.9500 60.8000
L1.9500 8.5500
" />
<g >
</g>
<g >
</g>
<g >
</g>
<g >
</g>
<g >
</g>
<g >
</g>
<g >
</g>
<g >
</g>
<g >
</g>
<g >
</g>
<g >
</g>
<g >
</g>
<g >
</g>
<g >
</g>
<g >
</g>
<g >
</g>
<g >
</g>
<g >
</g>
<g >
</g>
<g >
</g>
<g >
</g>
<g >
</g>
<g >
</g>
</g> 
</svg>
