<?xml version="1.0" standalone="no"?>
 <!DOCTYPE svg PUBLIC "-//W3C//DTD SVG 1.1//EN" 
 "http://www.w3.org/Graphics/SVG/1.1/DTD/svg11.dtd"> 
<svg
  xmlns:svg="http://www.w3.org/2000/svg"
  xmlns="http://www.w3.org/2000/svg"
  xmlns:xlink="http://www.w3.org/1999/xlink"
  version="1.1"
  width="42.8498mm" height="64.4906mm" viewBox="0.0000 0.0000 42.8498 64.4906">
<title>SVG Image created as Wardriver-PCB-B_Paste.svg date 2023/10/29 17:36:46 </title>
  <desc>Image generated by PCBNEW </desc>
<g style="fill:#000000; fill-opacity:1.0000;stroke:#000000; stroke-opacity:1.0000;
stroke-linecap:round; stroke-linejoin:round;"
 transform="translate(0 0) scale(1 1)">
</g>
<g style="fill:#000000; fill-opacity:0.0; 
stroke:#000000; stroke-width:0.0000; stroke-opacity:1; 
stroke-linecap:round; stroke-linejoin:round;">
<g >
</g>
<g style="fill:#00C2C2; fill-opacity:0.0; 
stroke:#00C2C2; stroke-width:0.0000; stroke-opacity:1; 
stroke-linecap:round; stroke-linejoin:round;">
</g>
<g style="fill:#00C2C2; fill-opacity:0.0; 
stroke:#00C2C2; stroke-width:0.0000; stroke-opacity:1; 
stroke-linecap:round; stroke-linejoin:round;">
</g>
<g style="fill:#00C2C2; fill-opacity:0.9000; 
stroke:#00C2C2; stroke-width:0.0000; stroke-opacity:1; 
stroke-linecap:round; stroke-linejoin:round;">
<path style="fill:#00C2C2; fill-opacity:0.9000; 
stroke:#00C2C2; stroke-width:0.0000; stroke-opacity:1; 
stroke-linecap:round; stroke-linejoin:round;fill-rule:evenodd;"
d="M 29.5800,45.8000
29.5686,45.9063
29.5188,46.0396
29.4336,46.1536
29.3196,46.2388
29.1863,46.2886
29.0800,46.3000
28.0800,46.3000
27.9737,46.2886
27.8404,46.2388
27.7264,46.1536
27.6412,46.0396
27.5914,45.9063
27.5800,45.8000
27.5800,43.3000
27.5914,43.1937
27.6412,43.0604
27.7264,42.9464
27.8404,42.8612
27.9737,42.8114
28.0800,42.8000
29.0800,42.8000
29.1863,42.8114
29.3196,42.8612
29.4336,42.9464
29.5188,43.0604
29.5686,43.1937
29.5800,43.3000
Z" /> 
<path style="fill:#00C2C2; fill-opacity:0.9000; 
stroke:#00C2C2; stroke-width:0.0000; stroke-opacity:1; 
stroke-linecap:round; stroke-linejoin:round;fill-rule:evenodd;"
d="M 27.0400,45.8000
27.0286,45.9063
26.9788,46.0396
26.8936,46.1536
26.7796,46.2388
26.6463,46.2886
26.5400,46.3000
25.5400,46.3000
25.4337,46.2886
25.3004,46.2388
25.1864,46.1536
25.1012,46.0396
25.0514,45.9063
25.0400,45.8000
25.0400,43.3000
25.0514,43.1937
25.1012,43.0604
25.1864,42.9464
25.3004,42.8612
25.4337,42.8114
25.5400,42.8000
26.5400,42.8000
26.6463,42.8114
26.7796,42.8612
26.8936,42.9464
26.9788,43.0604
27.0286,43.1937
27.0400,43.3000
Z" /> 
<path style="fill:#00C2C2; fill-opacity:0.9000; 
stroke:#00C2C2; stroke-width:0.0000; stroke-opacity:1; 
stroke-linecap:round; stroke-linejoin:round;fill-rule:evenodd;"
d="M 24.5000,45.8000
24.4886,45.9063
24.4388,46.0396
24.3536,46.1536
24.2396,46.2388
24.1063,46.2886
24.0000,46.3000
23.0000,46.3000
22.8937,46.2886
22.7604,46.2388
22.6464,46.1536
22.5612,46.0396
22.5114,45.9063
22.5000,45.8000
22.5000,43.3000
22.5114,43.1937
22.5612,43.0604
22.6464,42.9464
22.7604,42.8612
22.8937,42.8114
23.0000,42.8000
24.0000,42.8000
24.1063,42.8114
24.2396,42.8612
24.3536,42.9464
24.4388,43.0604
24.4886,43.1937
24.5000,43.3000
Z" /> 
<path style="fill:#00C2C2; fill-opacity:0.9000; 
stroke:#00C2C2; stroke-width:0.0000; stroke-opacity:1; 
stroke-linecap:round; stroke-linejoin:round;fill-rule:evenodd;"
d="M 21.9600,45.8000
21.9486,45.9063
21.8988,46.0396
21.8136,46.1536
21.6996,46.2388
21.5663,46.2886
21.4600,46.3000
20.4600,46.3000
20.3537,46.2886
20.2204,46.2388
20.1064,46.1536
20.0212,46.0396
19.9714,45.9063
19.9600,45.8000
19.9600,43.3000
19.9714,43.1937
20.0212,43.0604
20.1064,42.9464
20.2204,42.8612
20.3537,42.8114
20.4600,42.8000
21.4600,42.8000
21.5663,42.8114
21.6996,42.8612
21.8136,42.9464
21.8988,43.0604
21.9486,43.1937
21.9600,43.3000
Z" /> 
<path style="fill:#00C2C2; fill-opacity:0.9000; 
stroke:#00C2C2; stroke-width:0.0000; stroke-opacity:1; 
stroke-linecap:round; stroke-linejoin:round;fill-rule:evenodd;"
d="M 19.4200,45.8000
19.4086,45.9063
19.3588,46.0396
19.2736,46.1536
19.1596,46.2388
19.0263,46.2886
18.9200,46.3000
17.9200,46.3000
17.8137,46.2886
17.6804,46.2388
17.5664,46.1536
17.4812,46.0396
17.4314,45.9063
17.4200,45.8000
17.4200,43.3000
17.4314,43.1937
17.4812,43.0604
17.5664,42.9464
17.6804,42.8612
17.8137,42.8114
17.9200,42.8000
18.9200,42.8000
19.0263,42.8114
19.1596,42.8612
19.2736,42.9464
19.3588,43.0604
19.4086,43.1937
19.4200,43.3000
Z" /> 
</g>
<g >
</g>
<g >
</g>
<g >
</g>
<g >
</g>
<g >
</g>
<g >
</g>
<g >
</g>
<g >
</g>
<g >
</g>
<g >
</g>
<g >
</g>
<g >
</g>
<g style="fill:#00C2C2; fill-opacity:0.9000; 
stroke:#00C2C2; stroke-width:0.0000; stroke-opacity:1; 
stroke-linecap:round; stroke-linejoin:round;">
<path style="fill:#00C2C2; fill-opacity:0.9000; 
stroke:#00C2C2; stroke-width:0.0000; stroke-opacity:1; 
stroke-linecap:round; stroke-linejoin:round;fill-rule:evenodd;"
d="M 36.0500,46.9900
36.0500,47.9900
33.5400,47.9900
33.5400,46.9900
Z" /> 
<path style="fill:#00C2C2; fill-opacity:0.9000; 
stroke:#00C2C2; stroke-width:0.0000; stroke-opacity:1; 
stroke-linecap:round; stroke-linejoin:round;fill-rule:evenodd;"
d="M 39.3600,49.5300
39.3600,50.5300
36.8500,50.5300
36.8500,49.5300
Z" /> 
<path style="fill:#00C2C2; fill-opacity:0.9000; 
stroke:#00C2C2; stroke-width:0.0000; stroke-opacity:1; 
stroke-linecap:round; stroke-linejoin:round;fill-rule:evenodd;"
d="M 36.0500,52.0700
36.0500,53.0700
33.5400,53.0700
33.5400,52.0700
Z" /> 
<path style="fill:#00C2C2; fill-opacity:0.9000; 
stroke:#00C2C2; stroke-width:0.0000; stroke-opacity:1; 
stroke-linecap:round; stroke-linejoin:round;fill-rule:evenodd;"
d="M 39.3600,54.6100
39.3600,55.6100
36.8500,55.6100
36.8500,54.6100
Z" /> 
</g>
<g >
</g>
<g >
</g>
<g style="fill:#00C2C2; fill-opacity:0.9000; 
stroke:#00C2C2; stroke-width:0.0000; stroke-opacity:1; 
stroke-linecap:round; stroke-linejoin:round;">
<path style="fill:#00C2C2; fill-opacity:0.9000; 
stroke:#00C2C2; stroke-width:0.0000; stroke-opacity:1; 
stroke-linecap:round; stroke-linejoin:round;fill-rule:evenodd;"
d="M 6.0250,42.6000
5.9676,42.5886
5.9189,42.5561
5.8864,42.5074
5.8750,42.4500
5.8750,42.1500
5.8864,42.0926
5.9189,42.0439
5.9676,42.0114
6.0250,42.0000
7.2750,42.0000
7.3324,42.0114
7.3811,42.0439
7.4136,42.0926
7.4250,42.1500
7.4250,42.4500
7.4136,42.5074
7.3811,42.5561
7.3324,42.5886
7.2750,42.6000
Z" /> 
<path style="fill:#00C2C2; fill-opacity:0.9000; 
stroke:#00C2C2; stroke-width:0.0000; stroke-opacity:1; 
stroke-linecap:round; stroke-linejoin:round;fill-rule:evenodd;"
d="M 6.0250,41.6000
5.9676,41.5886
5.9189,41.5561
5.8864,41.5074
5.8750,41.4500
5.8750,41.1500
5.8864,41.0926
5.9189,41.0439
5.9676,41.0114
6.0250,41.0000
7.2750,41.0000
7.3324,41.0114
7.3811,41.0439
7.4136,41.0926
7.4250,41.1500
7.4250,41.4500
7.4136,41.5074
7.3811,41.5561
7.3324,41.5886
7.2750,41.6000
Z" /> 
<path style="fill:#00C2C2; fill-opacity:0.9000; 
stroke:#00C2C2; stroke-width:0.0000; stroke-opacity:1; 
stroke-linecap:round; stroke-linejoin:round;fill-rule:evenodd;"
d="M 6.0250,40.6000
5.9676,40.5886
5.9189,40.5561
5.8864,40.5074
5.8750,40.4500
5.8750,40.1500
5.8864,40.0926
5.9189,40.0439
5.9676,40.0114
6.0250,40.0000
7.2750,40.0000
7.3324,40.0114
7.3811,40.0439
7.4136,40.0926
7.4250,40.1500
7.4250,40.4500
7.4136,40.5074
7.3811,40.5561
7.3324,40.5886
7.2750,40.6000
Z" /> 
<path style="fill:#00C2C2; fill-opacity:0.9000; 
stroke:#00C2C2; stroke-width:0.0000; stroke-opacity:1; 
stroke-linecap:round; stroke-linejoin:round;fill-rule:evenodd;"
d="M 6.0250,39.6000
5.9676,39.5886
5.9189,39.5561
5.8864,39.5074
5.8750,39.4500
5.8750,39.1500
5.8864,39.0926
5.9189,39.0439
5.9676,39.0114
6.0250,39.0000
7.2750,39.0000
7.3324,39.0114
7.3811,39.0439
7.4136,39.0926
7.4250,39.1500
7.4250,39.4500
7.4136,39.5074
7.3811,39.5561
7.3324,39.5886
7.2750,39.6000
Z" /> 
<path style="fill:#00C2C2; fill-opacity:0.9000; 
stroke:#00C2C2; stroke-width:0.0000; stroke-opacity:1; 
stroke-linecap:round; stroke-linejoin:round;fill-rule:evenodd;"
d="M 2.1250,44.2000
2.0293,44.1810
1.9482,44.1268
1.8940,44.0457
1.8750,43.9500
1.8750,43.2500
1.8940,43.1543
1.9482,43.0732
2.0293,43.0190
2.1250,43.0000
3.4250,43.0000
3.5207,43.0190
3.6018,43.0732
3.6560,43.1543
3.6750,43.2500
3.6750,43.9500
3.6560,44.0457
3.6018,44.1268
3.5207,44.1810
3.4250,44.2000
Z" /> 
<path style="fill:#00C2C2; fill-opacity:0.9000; 
stroke:#00C2C2; stroke-width:0.0000; stroke-opacity:1; 
stroke-linecap:round; stroke-linejoin:round;fill-rule:evenodd;"
d="M 2.1250,38.6000
2.0293,38.5810
1.9482,38.5268
1.8940,38.4457
1.8750,38.3500
1.8750,37.6500
1.8940,37.5543
1.9482,37.4732
2.0293,37.4190
2.1250,37.4000
3.4250,37.4000
3.5207,37.4190
3.6018,37.4732
3.6560,37.5543
3.6750,37.6500
3.6750,38.3500
3.6560,38.4457
3.6018,38.5268
3.5207,38.5810
3.4250,38.6000
Z" /> 
</g>
<g >
</g>
<g style="fill:#00C2C2; fill-opacity:0.9000; 
stroke:#00C2C2; stroke-width:0.0000; stroke-opacity:1; 
stroke-linecap:round; stroke-linejoin:round;">
<path style="fill:#00C2C2; fill-opacity:0.9000; 
stroke:#00C2C2; stroke-width:0.0000; stroke-opacity:1; 
stroke-linecap:round; stroke-linejoin:round;fill-rule:evenodd;"
d="M 18.8500,50.1000
18.8500,48.1000
19.5500,48.1000
19.5500,50.1000
Z" /> 
<path style="fill:#00C2C2; fill-opacity:0.9000; 
stroke:#00C2C2; stroke-width:0.0000; stroke-opacity:1; 
stroke-linecap:round; stroke-linejoin:round;fill-rule:evenodd;"
d="M 19.9500,50.1000
19.9500,48.1000
20.6500,48.1000
20.6500,50.1000
Z" /> 
<path style="fill:#00C2C2; fill-opacity:0.9000; 
stroke:#00C2C2; stroke-width:0.0000; stroke-opacity:1; 
stroke-linecap:round; stroke-linejoin:round;fill-rule:evenodd;"
d="M 21.0500,50.1000
21.0500,48.1000
21.7500,48.1000
21.7500,50.1000
Z" /> 
<path style="fill:#00C2C2; fill-opacity:0.9000; 
stroke:#00C2C2; stroke-width:0.0000; stroke-opacity:1; 
stroke-linecap:round; stroke-linejoin:round;fill-rule:evenodd;"
d="M 22.1500,50.1000
22.1500,48.1000
22.8500,48.1000
22.8500,50.1000
Z" /> 
<path style="fill:#00C2C2; fill-opacity:0.9000; 
stroke:#00C2C2; stroke-width:0.0000; stroke-opacity:1; 
stroke-linecap:round; stroke-linejoin:round;fill-rule:evenodd;"
d="M 23.2500,50.1000
23.2500,48.1000
23.9500,48.1000
23.9500,50.1000
Z" /> 
<path style="fill:#00C2C2; fill-opacity:0.9000; 
stroke:#00C2C2; stroke-width:0.0000; stroke-opacity:1; 
stroke-linecap:round; stroke-linejoin:round;fill-rule:evenodd;"
d="M 24.3500,50.1000
24.3500,48.1000
25.0500,48.1000
25.0500,50.1000
Z" /> 
<path style="fill:#00C2C2; fill-opacity:0.9000; 
stroke:#00C2C2; stroke-width:0.0000; stroke-opacity:1; 
stroke-linecap:round; stroke-linejoin:round;fill-rule:evenodd;"
d="M 25.4500,50.1000
25.4500,48.1000
26.1500,48.1000
26.1500,50.1000
Z" /> 
<path style="fill:#00C2C2; fill-opacity:0.9000; 
stroke:#00C2C2; stroke-width:0.0000; stroke-opacity:1; 
stroke-linecap:round; stroke-linejoin:round;fill-rule:evenodd;"
d="M 26.5500,50.1000
26.5500,48.1000
27.2500,48.1000
27.2500,50.1000
Z" /> 
<path style="fill:#00C2C2; fill-opacity:0.9000; 
stroke:#00C2C2; stroke-width:0.0000; stroke-opacity:1; 
stroke-linecap:round; stroke-linejoin:round;fill-rule:evenodd;"
d="M 27.6500,50.1000
27.6500,48.1000
28.3500,48.1000
28.3500,50.1000
Z" /> 
<path style="fill:#00C2C2; fill-opacity:0.9000; 
stroke:#00C2C2; stroke-width:0.0000; stroke-opacity:1; 
stroke-linecap:round; stroke-linejoin:round;fill-rule:evenodd;"
d="M 28.7000,50.7500
28.7000,48.8500
30.3000,48.8500
30.3000,50.7500
Z" /> 
<path style="fill:#00C2C2; fill-opacity:0.9000; 
stroke:#00C2C2; stroke-width:0.0000; stroke-opacity:1; 
stroke-linecap:round; stroke-linejoin:round;fill-rule:evenodd;"
d="M 28.6000,60.9000
28.6000,57.9000
30.3000,57.9000
30.3000,60.9000
Z" /> 
<path style="fill:#00C2C2; fill-opacity:0.9000; 
stroke:#00C2C2; stroke-width:0.0000; stroke-opacity:1; 
stroke-linecap:round; stroke-linejoin:round;fill-rule:evenodd;"
d="M 13.3000,50.5000
13.3000,48.5000
15.4000,48.5000
15.4000,50.5000
Z" /> 
<path style="fill:#00C2C2; fill-opacity:0.9000; 
stroke:#00C2C2; stroke-width:0.0000; stroke-opacity:1; 
stroke-linecap:round; stroke-linejoin:round;fill-rule:evenodd;"
d="M 12.6000,60.9000
12.6000,57.9000
14.3000,57.9000
14.3000,60.9000
Z" /> 
</g>
<g >
</g>
<g style="fill:#00C2C2; fill-opacity:0.9000; 
stroke:#00C2C2; stroke-width:0.0000; stroke-opacity:1; 
stroke-linecap:round; stroke-linejoin:round;">
</g>
<g style="fill:#00C2C2; fill-opacity:0.9000; 
stroke:#00C2C2; stroke-width:2.0000; stroke-opacity:1; 
stroke-linecap:round; stroke-linejoin:round;">
</g>
<g style="fill:#00C2C2; fill-opacity:0.0; 
stroke:#00C2C2; stroke-width:2.0000; stroke-opacity:1; 
stroke-linecap:round; stroke-linejoin:round;">
<path d="M38.0950 34.5300
L38.0950 33.0300
" />
<path d="M35.5550 34.5300
L35.5550 33.0300
" />
<path d="M33.0150 34.5300
L33.0150 33.0300
" />
<path d="M30.4750 34.5300
L30.4750 33.0300
" />
<path d="M27.9350 34.5300
L27.9350 33.0300
" />
<path d="M25.3950 34.5300
L25.3950 33.0300
" />
<path d="M22.8550 34.5300
L22.8550 33.0300
" />
<path d="M22.8550 16.7500
L22.8550 15.2500
" />
<path d="M25.3950 16.7500
L25.3950 15.2500
" />
<path d="M27.9350 16.7500
L27.9350 15.2500
" />
<path d="M30.4750 16.7500
L30.4750 15.2500
" />
<path d="M33.0150 16.7500
L33.0150 15.2500
" />
<path d="M35.5550 16.7500
L35.5550 15.2500
" />
<path d="M38.0950 16.7500
L38.0950 15.2500
" />
</g>
<g >
</g>
<g style="fill:#00C2C2; fill-opacity:0.0; 
stroke:#00C2C2; stroke-width:2.0000; stroke-opacity:1; 
stroke-linecap:round; stroke-linejoin:round;">
</g>
<g style="fill:#00C2C2; fill-opacity:0.0; 
stroke:#00C2C2; stroke-width:0.0000; stroke-opacity:1; 
stroke-linecap:round; stroke-linejoin:round;">
</g>
<g style="fill:#00C2C2; fill-opacity:0.9000; 
stroke:#00C2C2; stroke-width:0.0000; stroke-opacity:1; 
stroke-linecap:round; stroke-linejoin:round;">
<path style="fill:#00C2C2; fill-opacity:0.9000; 
stroke:#00C2C2; stroke-width:0.0000; stroke-opacity:1; 
stroke-linecap:round; stroke-linejoin:round;fill-rule:evenodd;"
d="M 6.4500,54.4500
6.4690,54.3543
6.5232,54.2732
6.6043,54.2190
6.7000,54.2000
7.2000,54.2000
7.2957,54.2190
7.3768,54.2732
7.4310,54.3543
7.4500,54.4500
7.4500,57.4500
7.4310,57.5457
7.3768,57.6268
7.2957,57.6810
7.2000,57.7000
6.7000,57.7000
6.6043,57.6810
6.5232,57.6268
6.4690,57.5457
6.4500,57.4500
Z" /> 
<path style="fill:#00C2C2; fill-opacity:0.9000; 
stroke:#00C2C2; stroke-width:0.0000; stroke-opacity:1; 
stroke-linecap:round; stroke-linejoin:round;fill-rule:evenodd;"
d="M 8.4500,54.4500
8.4690,54.3543
8.5232,54.2732
8.6043,54.2190
8.7000,54.2000
9.2000,54.2000
9.2957,54.2190
9.3768,54.2732
9.4310,54.3543
9.4500,54.4500
9.4500,57.4500
9.4310,57.5457
9.3768,57.6268
9.2957,57.6810
9.2000,57.7000
8.7000,57.7000
8.6043,57.6810
8.5232,57.6268
8.4690,57.5457
8.4500,57.4500
Z" /> 
<path style="fill:#00C2C2; fill-opacity:0.9000; 
stroke:#00C2C2; stroke-width:0.0000; stroke-opacity:1; 
stroke-linecap:round; stroke-linejoin:round;fill-rule:evenodd;"
d="M 3.8500,48.7500
3.8690,48.6543
3.9232,48.5732
4.0043,48.5190
4.1000,48.5000
5.1000,48.5000
5.1957,48.5190
5.2768,48.5732
5.3310,48.6543
5.3500,48.7500
5.3500,51.6500
5.3310,51.7457
5.2768,51.8268
5.1957,51.8810
5.1000,51.9000
4.1000,51.9000
4.0043,51.8810
3.9232,51.8268
3.8690,51.7457
3.8500,51.6500
Z" /> 
<path style="fill:#00C2C2; fill-opacity:0.9000; 
stroke:#00C2C2; stroke-width:0.0000; stroke-opacity:1; 
stroke-linecap:round; stroke-linejoin:round;fill-rule:evenodd;"
d="M 10.5500,48.7500
10.5690,48.6543
10.6232,48.5732
10.7043,48.5190
10.8000,48.5000
11.8000,48.5000
11.8957,48.5190
11.9768,48.5732
12.0310,48.6543
12.0500,48.7500
12.0500,51.6500
12.0310,51.7457
11.9768,51.8268
11.8957,51.8810
11.8000,51.9000
10.8000,51.9000
10.7043,51.8810
10.6232,51.8268
10.5690,51.7457
10.5500,51.6500
Z" /> 
</g>
<g >
</g>
<g style="fill:#00C2C2; fill-opacity:0.9000; 
stroke:#00C2C2; stroke-width:0.0000; stroke-opacity:1; 
stroke-linecap:round; stroke-linejoin:round;">
<path style="fill:#00C2C2; fill-opacity:0.9000; 
stroke:#00C2C2; stroke-width:0.0000; stroke-opacity:1; 
stroke-linecap:round; stroke-linejoin:round;fill-rule:evenodd;"
d="M 36.8750,39.0000
36.9324,39.0114
36.9811,39.0439
37.0136,39.0926
37.0250,39.1500
37.0250,39.4500
37.0136,39.5074
36.9811,39.5561
36.9324,39.5886
36.8750,39.6000
35.6250,39.6000
35.5676,39.5886
35.5189,39.5561
35.4864,39.5074
35.4750,39.4500
35.4750,39.1500
35.4864,39.0926
35.5189,39.0439
35.5676,39.0114
35.6250,39.0000
Z" /> 
<path style="fill:#00C2C2; fill-opacity:0.9000; 
stroke:#00C2C2; stroke-width:0.0000; stroke-opacity:1; 
stroke-linecap:round; stroke-linejoin:round;fill-rule:evenodd;"
d="M 36.8750,40.0000
36.9324,40.0114
36.9811,40.0439
37.0136,40.0926
37.0250,40.1500
37.0250,40.4500
37.0136,40.5074
36.9811,40.5561
36.9324,40.5886
36.8750,40.6000
35.6250,40.6000
35.5676,40.5886
35.5189,40.5561
35.4864,40.5074
35.4750,40.4500
35.4750,40.1500
35.4864,40.0926
35.5189,40.0439
35.5676,40.0114
35.6250,40.0000
Z" /> 
<path style="fill:#00C2C2; fill-opacity:0.9000; 
stroke:#00C2C2; stroke-width:0.0000; stroke-opacity:1; 
stroke-linecap:round; stroke-linejoin:round;fill-rule:evenodd;"
d="M 36.8750,41.0000
36.9324,41.0114
36.9811,41.0439
37.0136,41.0926
37.0250,41.1500
37.0250,41.4500
37.0136,41.5074
36.9811,41.5561
36.9324,41.5886
36.8750,41.6000
35.6250,41.6000
35.5676,41.5886
35.5189,41.5561
35.4864,41.5074
35.4750,41.4500
35.4750,41.1500
35.4864,41.0926
35.5189,41.0439
35.5676,41.0114
35.6250,41.0000
Z" /> 
<path style="fill:#00C2C2; fill-opacity:0.9000; 
stroke:#00C2C2; stroke-width:0.0000; stroke-opacity:1; 
stroke-linecap:round; stroke-linejoin:round;fill-rule:evenodd;"
d="M 36.8750,42.0000
36.9324,42.0114
36.9811,42.0439
37.0136,42.0926
37.0250,42.1500
37.0250,42.4500
37.0136,42.5074
36.9811,42.5561
36.9324,42.5886
36.8750,42.6000
35.6250,42.6000
35.5676,42.5886
35.5189,42.5561
35.4864,42.5074
35.4750,42.4500
35.4750,42.1500
35.4864,42.0926
35.5189,42.0439
35.5676,42.0114
35.6250,42.0000
Z" /> 
<path style="fill:#00C2C2; fill-opacity:0.9000; 
stroke:#00C2C2; stroke-width:0.0000; stroke-opacity:1; 
stroke-linecap:round; stroke-linejoin:round;fill-rule:evenodd;"
d="M 40.7750,37.4000
40.8707,37.4190
40.9518,37.4732
41.0060,37.5543
41.0250,37.6500
41.0250,38.3500
41.0060,38.4457
40.9518,38.5268
40.8707,38.5810
40.7750,38.6000
39.4750,38.6000
39.3793,38.5810
39.2982,38.5268
39.2440,38.4457
39.2250,38.3500
39.2250,37.6500
39.2440,37.5543
39.2982,37.4732
39.3793,37.4190
39.4750,37.4000
Z" /> 
<path style="fill:#00C2C2; fill-opacity:0.9000; 
stroke:#00C2C2; stroke-width:0.0000; stroke-opacity:1; 
stroke-linecap:round; stroke-linejoin:round;fill-rule:evenodd;"
d="M 40.7750,43.0000
40.8707,43.0190
40.9518,43.0732
41.0060,43.1543
41.0250,43.2500
41.0250,43.9500
41.0060,44.0457
40.9518,44.1268
40.8707,44.1810
40.7750,44.2000
39.4750,44.2000
39.3793,44.1810
39.2982,44.1268
39.2440,44.0457
39.2250,43.9500
39.2250,43.2500
39.2440,43.1543
39.2982,43.0732
39.3793,43.0190
39.4750,43.0000
Z" /> 
</g>
<g >
</g>
<g style="fill:#00C2C2; fill-opacity:0.9000; 
stroke:#00C2C2; stroke-width:0.0000; stroke-opacity:1; 
stroke-linecap:round; stroke-linejoin:round;">
<path style="fill:#00C2C2; fill-opacity:0.9000; 
stroke:#00C2C2; stroke-width:0.0000; stroke-opacity:1; 
stroke-linecap:round; stroke-linejoin:round;fill-rule:evenodd;"
d="M 4.3200,17.0200
4.4157,17.0390
4.4968,17.0932
4.5510,17.1743
4.5700,17.2700
4.5700,17.7700
4.5510,17.8657
4.4968,17.9468
4.4157,18.0010
4.3200,18.0200
2.3100,18.0200
2.2143,18.0010
2.1332,17.9468
2.0790,17.8657
2.0600,17.7700
2.0600,17.2700
2.0790,17.1743
2.1332,17.0932
2.2143,17.0390
2.3100,17.0200
Z" /> 
<path style="fill:#00C2C2; fill-opacity:0.9000; 
stroke:#00C2C2; stroke-width:0.0000; stroke-opacity:1; 
stroke-linecap:round; stroke-linejoin:round;fill-rule:evenodd;"
d="M 7.6300,19.5600
7.7257,19.5790
7.8068,19.6332
7.8610,19.7143
7.8800,19.8100
7.8800,20.3100
7.8610,20.4057
7.8068,20.4868
7.7257,20.5410
7.6300,20.5600
5.6200,20.5600
5.5243,20.5410
5.4432,20.4868
5.3890,20.4057
5.3700,20.3100
5.3700,19.8100
5.3890,19.7143
5.4432,19.6332
5.5243,19.5790
5.6200,19.5600
Z" /> 
<path style="fill:#00C2C2; fill-opacity:0.9000; 
stroke:#00C2C2; stroke-width:0.0000; stroke-opacity:1; 
stroke-linecap:round; stroke-linejoin:round;fill-rule:evenodd;"
d="M 4.3200,22.1000
4.4157,22.1190
4.4968,22.1732
4.5510,22.2543
4.5700,22.3500
4.5700,22.8500
4.5510,22.9457
4.4968,23.0268
4.4157,23.0810
4.3200,23.1000
2.3100,23.1000
2.2143,23.0810
2.1332,23.0268
2.0790,22.9457
2.0600,22.8500
2.0600,22.3500
2.0790,22.2543
2.1332,22.1732
2.2143,22.1190
2.3100,22.1000
Z" /> 
<path style="fill:#00C2C2; fill-opacity:0.9000; 
stroke:#00C2C2; stroke-width:0.0000; stroke-opacity:1; 
stroke-linecap:round; stroke-linejoin:round;fill-rule:evenodd;"
d="M 7.6300,24.6400
7.7257,24.6590
7.8068,24.7132
7.8610,24.7943
7.8800,24.8900
7.8800,25.3900
7.8610,25.4857
7.8068,25.5668
7.7257,25.6210
7.6300,25.6400
5.6200,25.6400
5.5243,25.6210
5.4432,25.5668
5.3890,25.4857
5.3700,25.3900
5.3700,24.8900
5.3890,24.7943
5.4432,24.7132
5.5243,24.6590
5.6200,24.6400
Z" /> 
<path style="fill:#00C2C2; fill-opacity:0.9000; 
stroke:#00C2C2; stroke-width:0.0000; stroke-opacity:1; 
stroke-linecap:round; stroke-linejoin:round;fill-rule:evenodd;"
d="M 4.3200,27.1800
4.4157,27.1990
4.4968,27.2532
4.5510,27.3343
4.5700,27.4300
4.5700,27.9300
4.5510,28.0257
4.4968,28.1068
4.4157,28.1610
4.3200,28.1800
2.3100,28.1800
2.2143,28.1610
2.1332,28.1068
2.0790,28.0257
2.0600,27.9300
2.0600,27.4300
2.0790,27.3343
2.1332,27.2532
2.2143,27.1990
2.3100,27.1800
Z" /> 
</g>
<g >
</g>
<g >
</g>
<g >
</g>
</g>
<g style="fill:#000000; fill-opacity:1.0000; 
stroke:#000000; stroke-width:0.0000; stroke-opacity:1; 
stroke-linecap:round; stroke-linejoin:round;">
</g>
<g style="fill:#D0D2CD; fill-opacity:1.0000; 
stroke:#D0D2CD; stroke-width:0.0000; stroke-opacity:1; 
stroke-linecap:round; stroke-linejoin:round;">
</g>
<g style="fill:#D0D2CD; fill-opacity:0.0; 
stroke:#D0D2CD; stroke-width:0.2000; stroke-opacity:1; 
stroke-linecap:round; stroke-linejoin:round;">
<path d="M1.9500 60.8000 A3.0000 3.0000 0.0 0 0 4.9500 63.8000" />
<path d="M37.9500 63.8000
L4.9500 63.8000
" />
<path d="M37.9500 63.8000 A3.0000 3.0000 0.0 0 0 40.9500 60.8000" />
<path d="M40.9500 3.8000
L40.9500 60.8000
" />
<path d="M40.9500 3.8000 A3.0000 3.0000 0.0 0 0 37.9500 0.8000" />
<path d="M4.9500 0.8000
L37.9500 0.8000
" />
<path d="M4.9500 0.8000 A3.0000 3.0000 0.0 0 0 1.9500 3.8000" />
<path d="M1.9500 7.0500
L1.9500 3.8000
" />
<path d="M4.2000 7.0500
L1.9500 7.0500
" />
<path d="M4.2000 8.5500 A0.7500 0.7500 0.0 0 0 4.2000 7.0500" />
<path d="M1.9500 8.5500
L4.2000 8.5500
" />
<path d="M1.9500 60.8000
L1.9500 8.5500
" />
<g >
</g>
<g >
</g>
<g >
</g>
<g >
</g>
<g >
</g>
<g >
</g>
<g >
</g>
<g >
</g>
<g >
</g>
<g >
</g>
<g >
</g>
<g >
</g>
<g >
</g>
<g >
</g>
<g >
</g>
<g >
</g>
<g >
</g>
<g >
</g>
<g >
</g>
<g >
</g>
<g >
</g>
<g >
</g>
<g >
</g>
</g> 
</svg>
