%TF.GenerationSoftware,KiCad,Pcbnew,7.0.7-7.0.7~ubuntu22.04.1*%
%TF.CreationDate,2023-12-23T21:18:33-08:00*%
%TF.ProjectId,Wardriver-PCB,57617264-7269-4766-9572-2d5043422e6b,rev?*%
%TF.SameCoordinates,Original*%
%TF.FileFunction,Legend,Top*%
%TF.FilePolarity,Positive*%
%FSLAX46Y46*%
G04 Gerber Fmt 4.6, Leading zero omitted, Abs format (unit mm)*
G04 Created by KiCad (PCBNEW 7.0.7-7.0.7~ubuntu22.04.1) date 2023-12-23 21:18:33*
%MOMM*%
%LPD*%
G01*
G04 APERTURE LIST*
%ADD10C,0.150000*%
%ADD11C,0.250000*%
%ADD12C,0.120000*%
G04 APERTURE END LIST*
D10*
G36*
X-16608Y-27915000D02*
G01*
X-138485Y-27915000D01*
X-213468Y-27667581D01*
X-631123Y-27667581D01*
X-706105Y-27915000D01*
X-827983Y-27915000D01*
X-718550Y-27560359D01*
X-600592Y-27560359D01*
X-243998Y-27560359D01*
X-412770Y-27006416D01*
X-432065Y-27006416D01*
X-600592Y-27560359D01*
X-718550Y-27560359D01*
X-525610Y-26935097D01*
X-318980Y-26935097D01*
X-16608Y-27915000D01*
G37*
G36*
X442812Y-27934539D02*
G01*
X429803Y-27934386D01*
X416972Y-27933928D01*
X404318Y-27933165D01*
X391842Y-27932096D01*
X379543Y-27930723D01*
X367421Y-27929043D01*
X355477Y-27927059D01*
X343710Y-27924769D01*
X332121Y-27922174D01*
X320710Y-27919274D01*
X309475Y-27916068D01*
X298419Y-27912557D01*
X287539Y-27908741D01*
X276838Y-27904619D01*
X266313Y-27900192D01*
X255966Y-27895460D01*
X245877Y-27890407D01*
X236064Y-27885080D01*
X226528Y-27879477D01*
X217269Y-27873600D01*
X208286Y-27867448D01*
X199580Y-27861022D01*
X191151Y-27854320D01*
X182999Y-27847344D01*
X175123Y-27840093D01*
X167524Y-27832568D01*
X160201Y-27824767D01*
X153155Y-27816692D01*
X146386Y-27808342D01*
X139894Y-27799717D01*
X133678Y-27790817D01*
X127739Y-27781643D01*
X122149Y-27772213D01*
X116920Y-27762546D01*
X112051Y-27752643D01*
X107543Y-27742503D01*
X103396Y-27732126D01*
X99609Y-27721513D01*
X96183Y-27710664D01*
X93117Y-27699577D01*
X90413Y-27688254D01*
X88068Y-27676695D01*
X86085Y-27664899D01*
X84462Y-27652866D01*
X83200Y-27640596D01*
X82298Y-27628090D01*
X81757Y-27615348D01*
X81577Y-27602369D01*
X81577Y-27576235D01*
X195150Y-27576235D01*
X195150Y-27601880D01*
X195417Y-27615106D01*
X196218Y-27627976D01*
X197554Y-27640492D01*
X199424Y-27652652D01*
X201828Y-27664458D01*
X204767Y-27675909D01*
X208240Y-27687005D01*
X212247Y-27697745D01*
X216788Y-27708132D01*
X221864Y-27718163D01*
X227474Y-27727839D01*
X233618Y-27737160D01*
X240297Y-27746127D01*
X247509Y-27754738D01*
X255256Y-27762995D01*
X263538Y-27770896D01*
X272281Y-27778379D01*
X281352Y-27785379D01*
X290752Y-27791896D01*
X300479Y-27797931D01*
X310535Y-27803483D01*
X320920Y-27808552D01*
X331632Y-27813138D01*
X342672Y-27817241D01*
X354041Y-27820862D01*
X365738Y-27824000D01*
X377763Y-27826655D01*
X390117Y-27828828D01*
X402798Y-27830517D01*
X415808Y-27831724D01*
X429146Y-27832448D01*
X442812Y-27832690D01*
X456600Y-27832462D01*
X469999Y-27831778D01*
X483009Y-27830637D01*
X495630Y-27829041D01*
X507861Y-27826989D01*
X519703Y-27824481D01*
X531155Y-27821517D01*
X542219Y-27818096D01*
X552893Y-27814220D01*
X563178Y-27809887D01*
X573074Y-27805099D01*
X582580Y-27799854D01*
X591697Y-27794154D01*
X600425Y-27787997D01*
X608764Y-27781384D01*
X616713Y-27774316D01*
X624225Y-27766901D01*
X631253Y-27759249D01*
X637796Y-27751361D01*
X643854Y-27743236D01*
X649428Y-27734874D01*
X654517Y-27726276D01*
X659121Y-27717441D01*
X663241Y-27708370D01*
X666876Y-27699062D01*
X670027Y-27689518D01*
X672692Y-27679736D01*
X674873Y-27669719D01*
X676570Y-27659464D01*
X677781Y-27648973D01*
X678508Y-27638246D01*
X678751Y-27627281D01*
X678751Y-27617267D01*
X678480Y-27605351D01*
X677669Y-27593872D01*
X676316Y-27582831D01*
X674423Y-27572228D01*
X671989Y-27562062D01*
X669013Y-27552335D01*
X665497Y-27543046D01*
X659967Y-27531341D01*
X653476Y-27520415D01*
X647976Y-27512732D01*
X639947Y-27503099D01*
X631245Y-27494108D01*
X621873Y-27485758D01*
X611828Y-27478049D01*
X601112Y-27470981D01*
X592634Y-27466101D01*
X583778Y-27461582D01*
X574545Y-27457423D01*
X564933Y-27453625D01*
X555034Y-27450177D01*
X544938Y-27447067D01*
X534644Y-27444297D01*
X524153Y-27441867D01*
X513464Y-27439775D01*
X502577Y-27438023D01*
X491493Y-27436610D01*
X480212Y-27435536D01*
X468733Y-27434801D01*
X457056Y-27434405D01*
X449162Y-27434330D01*
X289916Y-27434330D01*
X289916Y-27293890D01*
X664096Y-27053311D01*
X664096Y-27036946D01*
X104780Y-27036946D01*
X104780Y-26935097D01*
X783287Y-26935097D01*
X783287Y-27093367D01*
X418388Y-27328817D01*
X418388Y-27345181D01*
X487997Y-27345181D01*
X498410Y-27345299D01*
X508704Y-27345654D01*
X518880Y-27346246D01*
X528938Y-27347074D01*
X538878Y-27348139D01*
X548699Y-27349440D01*
X558402Y-27350978D01*
X572734Y-27353728D01*
X586801Y-27357011D01*
X600601Y-27360827D01*
X614135Y-27365175D01*
X627403Y-27370055D01*
X640404Y-27375467D01*
X653078Y-27381358D01*
X665271Y-27387763D01*
X676984Y-27394684D01*
X688215Y-27402120D01*
X698966Y-27410071D01*
X709235Y-27418538D01*
X719024Y-27427519D01*
X728332Y-27437016D01*
X737159Y-27447028D01*
X745505Y-27457556D01*
X750802Y-27464860D01*
X758223Y-27476215D01*
X764913Y-27488115D01*
X770874Y-27500561D01*
X776104Y-27513552D01*
X780605Y-27527088D01*
X784376Y-27541170D01*
X786485Y-27550860D01*
X788269Y-27560793D01*
X789728Y-27570968D01*
X790864Y-27581386D01*
X791675Y-27592046D01*
X792161Y-27602948D01*
X792324Y-27614092D01*
X792324Y-27628991D01*
X792155Y-27640410D01*
X791648Y-27651648D01*
X790804Y-27662705D01*
X789622Y-27673581D01*
X788102Y-27684275D01*
X786244Y-27694788D01*
X784049Y-27705120D01*
X781516Y-27715270D01*
X778645Y-27725239D01*
X775436Y-27735027D01*
X771890Y-27744633D01*
X768006Y-27754059D01*
X763784Y-27763303D01*
X759225Y-27772365D01*
X754328Y-27781247D01*
X749093Y-27789947D01*
X743549Y-27798407D01*
X737728Y-27806628D01*
X731627Y-27814611D01*
X725248Y-27822355D01*
X718591Y-27829861D01*
X711655Y-27837128D01*
X704440Y-27844157D01*
X696947Y-27850947D01*
X689175Y-27857498D01*
X681124Y-27863812D01*
X672795Y-27869886D01*
X664188Y-27875722D01*
X655301Y-27881320D01*
X646137Y-27886679D01*
X636693Y-27891799D01*
X626971Y-27896681D01*
X617035Y-27901266D01*
X606890Y-27905554D01*
X596534Y-27909547D01*
X585969Y-27913244D01*
X575194Y-27916645D01*
X564208Y-27919751D01*
X553013Y-27922561D01*
X541608Y-27925075D01*
X529993Y-27927293D01*
X518169Y-27929215D01*
X506134Y-27930842D01*
X493889Y-27932173D01*
X481435Y-27933208D01*
X468770Y-27933947D01*
X455896Y-27934391D01*
X442812Y-27934539D01*
G37*
G36*
X7233880Y-22415000D02*
G01*
X7112003Y-22415000D01*
X7037020Y-22167581D01*
X6619365Y-22167581D01*
X6544383Y-22415000D01*
X6422505Y-22415000D01*
X6531938Y-22060359D01*
X6649896Y-22060359D01*
X7006490Y-22060359D01*
X6837718Y-21506416D01*
X6818423Y-21506416D01*
X6649896Y-22060359D01*
X6531938Y-22060359D01*
X6724878Y-21435097D01*
X6931508Y-21435097D01*
X7233880Y-22415000D01*
G37*
G36*
X7343301Y-22415000D02*
G01*
X7343301Y-22312418D01*
X7343443Y-22299543D01*
X7343870Y-22286993D01*
X7344580Y-22274768D01*
X7345576Y-22262867D01*
X7346855Y-22251290D01*
X7348419Y-22240038D01*
X7350267Y-22229110D01*
X7352399Y-22218506D01*
X7354816Y-22208227D01*
X7357517Y-22198272D01*
X7360502Y-22188642D01*
X7363772Y-22179336D01*
X7369209Y-22165985D01*
X7375286Y-22153364D01*
X7379693Y-22145355D01*
X7386827Y-22133755D01*
X7394488Y-22122584D01*
X7402678Y-22111842D01*
X7411395Y-22101529D01*
X7420641Y-22091646D01*
X7430415Y-22082192D01*
X7440716Y-22073167D01*
X7451546Y-22064572D01*
X7462904Y-22056406D01*
X7474790Y-22048670D01*
X7483008Y-22043750D01*
X7495738Y-22036565D01*
X7504477Y-22031883D01*
X7513419Y-22027286D01*
X7522562Y-22022775D01*
X7531908Y-22018350D01*
X7541457Y-22014011D01*
X7551207Y-22009758D01*
X7561160Y-22005591D01*
X7571316Y-22001509D01*
X7581673Y-21997513D01*
X7592233Y-21993604D01*
X7602995Y-21989780D01*
X7613959Y-21986042D01*
X7625125Y-21982389D01*
X7636494Y-21978823D01*
X7642254Y-21977072D01*
X7719191Y-21952648D01*
X7731000Y-21948861D01*
X7742521Y-21944920D01*
X7753754Y-21940824D01*
X7764700Y-21936574D01*
X7775358Y-21932169D01*
X7785729Y-21927609D01*
X7795812Y-21922895D01*
X7805607Y-21918026D01*
X7815115Y-21913003D01*
X7824334Y-21907825D01*
X7830321Y-21904288D01*
X7839021Y-21898797D01*
X7847351Y-21893039D01*
X7855313Y-21887016D01*
X7862905Y-21880726D01*
X7872453Y-21871926D01*
X7881345Y-21862652D01*
X7889581Y-21852905D01*
X7897160Y-21842685D01*
X7904083Y-21831992D01*
X7910265Y-21820677D01*
X7914361Y-21811764D01*
X7917993Y-21802487D01*
X7921161Y-21792845D01*
X7923866Y-21782838D01*
X7926107Y-21772466D01*
X7927885Y-21761729D01*
X7929199Y-21750627D01*
X7930049Y-21739160D01*
X7930435Y-21727329D01*
X7930461Y-21723304D01*
X7930461Y-21717686D01*
X7930211Y-21706237D01*
X7929461Y-21695094D01*
X7928211Y-21684255D01*
X7926461Y-21673722D01*
X7924212Y-21663495D01*
X7921462Y-21653572D01*
X7918212Y-21643955D01*
X7914463Y-21634644D01*
X7910213Y-21625637D01*
X7905464Y-21616936D01*
X7900215Y-21608540D01*
X7894466Y-21600450D01*
X7888216Y-21592664D01*
X7881467Y-21585184D01*
X7874218Y-21578010D01*
X7866469Y-21571140D01*
X7858323Y-21564634D01*
X7849884Y-21558547D01*
X7841150Y-21552879D01*
X7832123Y-21547632D01*
X7822801Y-21542804D01*
X7813186Y-21538397D01*
X7803277Y-21534409D01*
X7793074Y-21530840D01*
X7782577Y-21527692D01*
X7771787Y-21524963D01*
X7760702Y-21522654D01*
X7749324Y-21520765D01*
X7737652Y-21519296D01*
X7725686Y-21518247D01*
X7713426Y-21517617D01*
X7700873Y-21517407D01*
X7687774Y-21517630D01*
X7674979Y-21518300D01*
X7662487Y-21519416D01*
X7650299Y-21520979D01*
X7638414Y-21522988D01*
X7626833Y-21525444D01*
X7615554Y-21528346D01*
X7604580Y-21531695D01*
X7593908Y-21535491D01*
X7583541Y-21539732D01*
X7573476Y-21544421D01*
X7563715Y-21549556D01*
X7554257Y-21555137D01*
X7545103Y-21561165D01*
X7536252Y-21567639D01*
X7527704Y-21574560D01*
X7519571Y-21581898D01*
X7511962Y-21589684D01*
X7504878Y-21597918D01*
X7498319Y-21606601D01*
X7492284Y-21615733D01*
X7486775Y-21625313D01*
X7481790Y-21635341D01*
X7477329Y-21645818D01*
X7473394Y-21656743D01*
X7469983Y-21668116D01*
X7467097Y-21679938D01*
X7464735Y-21692209D01*
X7462899Y-21704927D01*
X7461587Y-21718095D01*
X7460800Y-21731710D01*
X7460538Y-21745774D01*
X7460538Y-21766046D01*
X7349163Y-21766046D01*
X7349163Y-21746507D01*
X7349340Y-21733353D01*
X7349873Y-21720453D01*
X7350760Y-21707807D01*
X7352002Y-21695414D01*
X7353599Y-21683276D01*
X7355551Y-21671391D01*
X7357858Y-21659760D01*
X7360520Y-21648382D01*
X7363537Y-21637259D01*
X7366909Y-21626389D01*
X7370635Y-21615773D01*
X7374717Y-21605411D01*
X7379153Y-21595302D01*
X7383945Y-21585448D01*
X7389091Y-21575847D01*
X7394592Y-21566500D01*
X7400435Y-21557417D01*
X7406545Y-21548609D01*
X7412922Y-21540076D01*
X7419566Y-21531817D01*
X7426477Y-21523834D01*
X7433656Y-21516125D01*
X7441101Y-21508691D01*
X7448814Y-21501531D01*
X7456794Y-21494647D01*
X7465041Y-21488037D01*
X7473555Y-21481702D01*
X7482336Y-21475642D01*
X7491385Y-21469856D01*
X7500700Y-21464345D01*
X7510283Y-21459109D01*
X7520133Y-21454148D01*
X7530198Y-21449446D01*
X7540428Y-21445046D01*
X7550822Y-21440950D01*
X7561379Y-21437158D01*
X7572101Y-21433669D01*
X7582987Y-21430483D01*
X7594037Y-21427601D01*
X7605251Y-21425022D01*
X7616630Y-21422747D01*
X7628172Y-21420775D01*
X7639879Y-21419106D01*
X7651749Y-21417741D01*
X7663784Y-21416679D01*
X7675983Y-21415920D01*
X7688346Y-21415465D01*
X7700873Y-21415314D01*
X7713391Y-21415460D01*
X7725728Y-21415901D01*
X7737884Y-21416636D01*
X7749858Y-21417664D01*
X7761652Y-21418987D01*
X7773264Y-21420603D01*
X7784695Y-21422513D01*
X7795944Y-21424717D01*
X7807012Y-21427215D01*
X7817899Y-21430006D01*
X7828605Y-21433092D01*
X7839129Y-21436471D01*
X7849472Y-21440144D01*
X7859634Y-21444111D01*
X7869615Y-21448372D01*
X7879414Y-21452927D01*
X7888989Y-21457715D01*
X7898297Y-21462739D01*
X7907338Y-21467997D01*
X7916112Y-21473489D01*
X7924618Y-21479216D01*
X7932857Y-21485178D01*
X7940830Y-21491375D01*
X7948535Y-21497807D01*
X7955973Y-21504473D01*
X7963144Y-21511373D01*
X7970047Y-21518509D01*
X7976684Y-21525879D01*
X7983053Y-21533484D01*
X7989155Y-21541324D01*
X7994991Y-21549398D01*
X8000559Y-21557707D01*
X8005823Y-21566220D01*
X8010748Y-21574907D01*
X8015333Y-21583768D01*
X8019579Y-21592802D01*
X8023485Y-21602010D01*
X8027051Y-21611391D01*
X8030278Y-21620946D01*
X8033165Y-21630675D01*
X8035712Y-21640577D01*
X8037920Y-21650653D01*
X8039788Y-21660903D01*
X8041317Y-21671326D01*
X8042505Y-21681923D01*
X8043354Y-21692693D01*
X8043864Y-21703637D01*
X8044034Y-21714755D01*
X8044034Y-21727944D01*
X8043887Y-21739662D01*
X8043446Y-21751125D01*
X8042711Y-21762331D01*
X8041683Y-21773282D01*
X8040361Y-21783977D01*
X8038744Y-21794417D01*
X8036834Y-21804600D01*
X8034630Y-21814528D01*
X8032133Y-21824201D01*
X8029341Y-21833618D01*
X8024603Y-21847263D01*
X8019203Y-21860334D01*
X8013142Y-21872829D01*
X8006420Y-21884748D01*
X7999154Y-21896181D01*
X7991368Y-21907214D01*
X7983062Y-21917848D01*
X7974238Y-21928082D01*
X7964893Y-21937918D01*
X7955029Y-21947354D01*
X7944646Y-21956390D01*
X7933743Y-21965028D01*
X7922320Y-21973266D01*
X7910379Y-21981105D01*
X7902129Y-21986109D01*
X7889429Y-21993388D01*
X7880743Y-21998135D01*
X7871882Y-22002799D01*
X7862845Y-22007378D01*
X7853632Y-22011874D01*
X7844244Y-22016285D01*
X7834680Y-22020613D01*
X7824941Y-22024857D01*
X7815026Y-22029017D01*
X7804936Y-22033092D01*
X7794670Y-22037084D01*
X7784229Y-22040992D01*
X7773612Y-22044816D01*
X7762820Y-22048556D01*
X7751852Y-22052212D01*
X7746302Y-22054009D01*
X7670831Y-22077212D01*
X7657671Y-22081401D01*
X7644936Y-22085632D01*
X7632626Y-22089907D01*
X7620742Y-22094225D01*
X7609282Y-22098585D01*
X7598248Y-22102989D01*
X7587638Y-22107435D01*
X7577454Y-22111925D01*
X7567694Y-22116457D01*
X7558360Y-22121032D01*
X7552373Y-22124106D01*
X7543784Y-22128848D01*
X7532967Y-22135530D01*
X7522875Y-22142624D01*
X7513507Y-22150131D01*
X7504866Y-22158050D01*
X7496949Y-22166381D01*
X7489757Y-22175124D01*
X7483290Y-22184279D01*
X7481787Y-22186632D01*
X7476234Y-22196452D01*
X7471422Y-22207103D01*
X7467350Y-22218586D01*
X7464018Y-22230901D01*
X7462005Y-22240684D01*
X7460409Y-22250934D01*
X7459229Y-22261652D01*
X7458465Y-22272839D01*
X7458118Y-22284493D01*
X7458095Y-22288482D01*
X7458095Y-22313150D01*
X8035485Y-22313150D01*
X8035485Y-22415000D01*
X7343301Y-22415000D01*
G37*
G36*
X612694Y18152368D02*
G01*
X602020Y18152487D01*
X591493Y18152844D01*
X581113Y18153440D01*
X570879Y18154273D01*
X560792Y18155345D01*
X550851Y18156654D01*
X541057Y18158202D01*
X531410Y18159988D01*
X521909Y18162012D01*
X512554Y18164275D01*
X503346Y18166775D01*
X494285Y18169514D01*
X485370Y18172491D01*
X476602Y18175705D01*
X467980Y18179158D01*
X459505Y18182849D01*
X451238Y18186778D01*
X443195Y18190943D01*
X435375Y18195345D01*
X427777Y18199983D01*
X420403Y18204858D01*
X413251Y18209970D01*
X406322Y18215318D01*
X399616Y18220903D01*
X393133Y18226724D01*
X386873Y18232782D01*
X380835Y18239076D01*
X375021Y18245608D01*
X369429Y18252375D01*
X364061Y18259380D01*
X358915Y18266621D01*
X353992Y18274099D01*
X349354Y18281838D01*
X345016Y18289816D01*
X340977Y18298031D01*
X337237Y18306485D01*
X333796Y18315177D01*
X330654Y18324107D01*
X327812Y18333276D01*
X325269Y18342682D01*
X323025Y18352327D01*
X321080Y18362209D01*
X319434Y18372330D01*
X318088Y18382689D01*
X317041Y18393286D01*
X316293Y18404121D01*
X315844Y18415195D01*
X315694Y18426506D01*
X315694Y18450735D01*
X408897Y18450735D01*
X408897Y18426506D01*
X409119Y18414515D01*
X409783Y18402915D01*
X410889Y18391708D01*
X412439Y18380894D01*
X414431Y18370471D01*
X416866Y18360441D01*
X419743Y18350804D01*
X423063Y18341558D01*
X426826Y18332705D01*
X431032Y18324245D01*
X435680Y18316176D01*
X440771Y18308500D01*
X446305Y18301216D01*
X452281Y18294325D01*
X458700Y18287826D01*
X465562Y18281719D01*
X472800Y18276017D01*
X480299Y18270682D01*
X488059Y18265716D01*
X496080Y18261117D01*
X504362Y18256886D01*
X512905Y18253023D01*
X521709Y18249529D01*
X530775Y18246401D01*
X540101Y18243642D01*
X549688Y18241251D01*
X559536Y18239228D01*
X569646Y18237572D01*
X580016Y18236284D01*
X590648Y18235365D01*
X601540Y18234813D01*
X612694Y18234629D01*
X623932Y18234788D01*
X634834Y18235267D01*
X645401Y18236065D01*
X655632Y18237181D01*
X665526Y18238617D01*
X675085Y18240372D01*
X684309Y18242445D01*
X693196Y18244838D01*
X701748Y18247550D01*
X709963Y18250581D01*
X717843Y18253931D01*
X725387Y18257600D01*
X732595Y18261588D01*
X739468Y18265895D01*
X746004Y18270521D01*
X752205Y18275466D01*
X758049Y18280684D01*
X766109Y18288842D01*
X773320Y18297399D01*
X779683Y18306355D01*
X785197Y18315708D01*
X789863Y18325461D01*
X793681Y18335611D01*
X796650Y18346160D01*
X798771Y18357108D01*
X800043Y18368453D01*
X800468Y18380198D01*
X800277Y18388075D01*
X799430Y18398124D01*
X797905Y18407654D01*
X795702Y18416665D01*
X792821Y18425157D01*
X789263Y18433130D01*
X785027Y18440584D01*
X780113Y18447519D01*
X778779Y18449172D01*
X773082Y18455559D01*
X766835Y18461628D01*
X760039Y18467380D01*
X752694Y18472815D01*
X744798Y18477931D01*
X736354Y18482731D01*
X727360Y18487213D01*
X717816Y18491377D01*
X710333Y18494352D01*
X702614Y18497269D01*
X694658Y18500127D01*
X686464Y18502927D01*
X678034Y18505668D01*
X669366Y18508351D01*
X660462Y18510976D01*
X651321Y18513542D01*
X641942Y18516050D01*
X632327Y18518499D01*
X625785Y18520100D01*
X567362Y18534559D01*
X558852Y18536742D01*
X550467Y18538992D01*
X542207Y18541309D01*
X534072Y18543694D01*
X526062Y18546145D01*
X518178Y18548664D01*
X510418Y18551250D01*
X502784Y18553903D01*
X495275Y18556623D01*
X487892Y18559411D01*
X477051Y18563718D01*
X466491Y18568176D01*
X456214Y18572785D01*
X446218Y18577546D01*
X436563Y18582524D01*
X427311Y18587788D01*
X418460Y18593337D01*
X410012Y18599171D01*
X401965Y18605289D01*
X394320Y18611693D01*
X387077Y18618382D01*
X380235Y18625356D01*
X373796Y18632616D01*
X367758Y18640160D01*
X363957Y18645348D01*
X358684Y18653438D01*
X353930Y18661953D01*
X349694Y18670895D01*
X345977Y18680262D01*
X342779Y18690056D01*
X340100Y18700275D01*
X337939Y18710920D01*
X336296Y18721991D01*
X335172Y18733488D01*
X334711Y18741389D01*
X334481Y18749480D01*
X334452Y18753596D01*
X334583Y18761781D01*
X334974Y18769826D01*
X335627Y18777730D01*
X336540Y18785494D01*
X338400Y18796877D01*
X340848Y18807943D01*
X343882Y18818694D01*
X347504Y18829128D01*
X351713Y18839247D01*
X356510Y18849049D01*
X361893Y18858536D01*
X367865Y18867706D01*
X374356Y18876558D01*
X381301Y18885015D01*
X388699Y18893077D01*
X396551Y18900743D01*
X404856Y18908015D01*
X413614Y18914892D01*
X422826Y18921374D01*
X432491Y18927460D01*
X442610Y18933152D01*
X449607Y18936727D01*
X456806Y18940127D01*
X460481Y18941761D01*
X467984Y18944908D01*
X475643Y18947852D01*
X483457Y18950593D01*
X491427Y18953130D01*
X499553Y18955465D01*
X507834Y18957597D01*
X516271Y18959526D01*
X524864Y18961251D01*
X533612Y18962774D01*
X542517Y18964094D01*
X551576Y18965210D01*
X560792Y18966124D01*
X570163Y18966835D01*
X579690Y18967342D01*
X589373Y18967647D01*
X599211Y18967748D01*
X609041Y18967641D01*
X618745Y18967321D01*
X628324Y18966787D01*
X637777Y18966039D01*
X647106Y18965077D01*
X656309Y18963901D01*
X665387Y18962512D01*
X674341Y18960909D01*
X683168Y18959093D01*
X691871Y18957063D01*
X700449Y18954819D01*
X708901Y18952361D01*
X717228Y18949690D01*
X725430Y18946804D01*
X733507Y18943706D01*
X741458Y18940393D01*
X749267Y18936871D01*
X756867Y18933145D01*
X764258Y18929214D01*
X771439Y18925079D01*
X778412Y18920739D01*
X785175Y18916195D01*
X791729Y18911446D01*
X798074Y18906492D01*
X804210Y18901334D01*
X810136Y18895971D01*
X815854Y18890404D01*
X821362Y18884632D01*
X826662Y18878656D01*
X831752Y18872475D01*
X836633Y18866090D01*
X841305Y18859500D01*
X845753Y18852727D01*
X849914Y18845743D01*
X853789Y18838548D01*
X857376Y18831143D01*
X860676Y18823527D01*
X863690Y18815701D01*
X866416Y18807664D01*
X868856Y18799416D01*
X871008Y18790958D01*
X872873Y18782289D01*
X874452Y18773409D01*
X875743Y18764318D01*
X876748Y18755017D01*
X877465Y18745506D01*
X877896Y18735783D01*
X878039Y18725850D01*
X878039Y18678760D01*
X785031Y18678760D01*
X785031Y18725850D01*
X784818Y18736284D01*
X784180Y18746337D01*
X783115Y18756008D01*
X781624Y18765298D01*
X779708Y18774207D01*
X777365Y18782735D01*
X774597Y18790882D01*
X771403Y18798647D01*
X767782Y18806031D01*
X763736Y18813033D01*
X760802Y18817490D01*
X756138Y18823920D01*
X751158Y18830020D01*
X745862Y18835790D01*
X740249Y18841230D01*
X734321Y18846341D01*
X728077Y18851122D01*
X721517Y18855574D01*
X714641Y18859695D01*
X707448Y18863487D01*
X699940Y18866949D01*
X694759Y18869074D01*
X686781Y18872007D01*
X678600Y18874652D01*
X670217Y18877008D01*
X661631Y18879076D01*
X652842Y18880855D01*
X643851Y18882346D01*
X634657Y18883548D01*
X625260Y18884461D01*
X615661Y18885087D01*
X605859Y18885423D01*
X599211Y18885487D01*
X589634Y18885354D01*
X580295Y18884956D01*
X571194Y18884292D01*
X562331Y18883362D01*
X553706Y18882167D01*
X545319Y18880706D01*
X537171Y18878980D01*
X529260Y18876988D01*
X521588Y18874730D01*
X514154Y18872207D01*
X503449Y18867924D01*
X493280Y18863043D01*
X483647Y18857565D01*
X474550Y18851489D01*
X466169Y18844861D01*
X458613Y18837729D01*
X451881Y18830092D01*
X445973Y18821951D01*
X440890Y18813304D01*
X436631Y18804152D01*
X433197Y18794496D01*
X430586Y18784334D01*
X428800Y18773668D01*
X427838Y18762497D01*
X427655Y18754769D01*
X427964Y18744565D01*
X428889Y18734863D01*
X430430Y18725661D01*
X432589Y18716960D01*
X435364Y18708759D01*
X438756Y18701060D01*
X442765Y18693860D01*
X447390Y18687162D01*
X452638Y18680916D01*
X458418Y18674974D01*
X464728Y18669338D01*
X471570Y18664008D01*
X478943Y18658983D01*
X486847Y18654263D01*
X495283Y18649848D01*
X504250Y18645739D01*
X513760Y18641834D01*
X521193Y18638973D01*
X528884Y18636171D01*
X536832Y18633427D01*
X545038Y18630742D01*
X553502Y18628115D01*
X562223Y18625546D01*
X571202Y18623036D01*
X580438Y18620585D01*
X589932Y18618191D01*
X593154Y18617406D01*
X651577Y18603143D01*
X660024Y18601151D01*
X668366Y18599085D01*
X676602Y18596944D01*
X684733Y18594728D01*
X692759Y18592438D01*
X700679Y18590073D01*
X708494Y18587632D01*
X716204Y18585117D01*
X723808Y18582528D01*
X731307Y18579863D01*
X738701Y18577124D01*
X749594Y18572875D01*
X760250Y18568457D01*
X770669Y18563871D01*
X774089Y18562305D01*
X784150Y18557421D01*
X793816Y18552221D01*
X803086Y18546705D01*
X811962Y18540873D01*
X820443Y18534725D01*
X828529Y18528261D01*
X836220Y18521481D01*
X843515Y18514385D01*
X850416Y18506973D01*
X856922Y18499245D01*
X861040Y18493917D01*
X866836Y18485592D01*
X872063Y18476810D01*
X876719Y18467572D01*
X880805Y18457876D01*
X884321Y18447724D01*
X887267Y18437115D01*
X889642Y18426049D01*
X891448Y18414526D01*
X892335Y18406590D01*
X892968Y18398452D01*
X893348Y18390110D01*
X893475Y18381565D01*
X893339Y18372964D01*
X892932Y18364502D01*
X892252Y18356179D01*
X891301Y18347994D01*
X890079Y18339949D01*
X888584Y18332042D01*
X886818Y18324274D01*
X884780Y18316646D01*
X882471Y18309156D01*
X878497Y18298182D01*
X873911Y18287520D01*
X868715Y18277171D01*
X862907Y18267134D01*
X858695Y18260616D01*
X851925Y18251182D01*
X844656Y18242149D01*
X836890Y18233519D01*
X828626Y18225290D01*
X822839Y18220027D01*
X816832Y18214943D01*
X810603Y18210038D01*
X804153Y18205311D01*
X797481Y18200762D01*
X790588Y18196393D01*
X783474Y18192202D01*
X776138Y18188189D01*
X768581Y18184355D01*
X760802Y18180700D01*
X752828Y18177269D01*
X744682Y18174060D01*
X736366Y18171072D01*
X727879Y18168305D01*
X719220Y18165759D01*
X710391Y18163435D01*
X701390Y18161332D01*
X692219Y18159451D01*
X682877Y18157791D01*
X673364Y18156352D01*
X663679Y18155135D01*
X653824Y18154139D01*
X643798Y18153364D01*
X633601Y18152811D01*
X623233Y18152479D01*
X612694Y18152368D01*
G37*
G36*
X1321389Y18152368D02*
G01*
X1312700Y18152447D01*
X1304122Y18152685D01*
X1295655Y18153081D01*
X1287298Y18153635D01*
X1279053Y18154348D01*
X1270917Y18155219D01*
X1262893Y18156248D01*
X1254979Y18157436D01*
X1247176Y18158782D01*
X1239483Y18160287D01*
X1224430Y18163771D01*
X1209820Y18167889D01*
X1195652Y18172640D01*
X1181928Y18178025D01*
X1168645Y18184043D01*
X1155806Y18190695D01*
X1143409Y18197980D01*
X1131455Y18205899D01*
X1119943Y18214451D01*
X1108874Y18223637D01*
X1098248Y18233457D01*
X1088192Y18243906D01*
X1078785Y18254932D01*
X1070027Y18266535D01*
X1061917Y18278715D01*
X1054456Y18291472D01*
X1047644Y18304806D01*
X1041481Y18318717D01*
X1035966Y18333205D01*
X1033452Y18340666D01*
X1031101Y18348271D01*
X1028911Y18356020D01*
X1026884Y18363913D01*
X1025018Y18371950D01*
X1023315Y18380132D01*
X1021775Y18388458D01*
X1020396Y18396928D01*
X1019180Y18405543D01*
X1018125Y18414302D01*
X1017233Y18423205D01*
X1016503Y18432252D01*
X1015936Y18441443D01*
X1015530Y18450779D01*
X1015287Y18460259D01*
X1015206Y18469884D01*
X1015206Y18650037D01*
X1015287Y18659673D01*
X1015530Y18669164D01*
X1015936Y18678511D01*
X1016503Y18687712D01*
X1017233Y18696768D01*
X1018125Y18705679D01*
X1019180Y18714445D01*
X1020396Y18723066D01*
X1021775Y18731542D01*
X1023315Y18739873D01*
X1025018Y18748059D01*
X1026884Y18756100D01*
X1028911Y18763996D01*
X1031101Y18771746D01*
X1033452Y18779352D01*
X1035966Y18786813D01*
X1041481Y18801300D01*
X1047644Y18815206D01*
X1054456Y18828533D01*
X1061917Y18841279D01*
X1070027Y18853446D01*
X1078785Y18865032D01*
X1088192Y18876038D01*
X1098248Y18886464D01*
X1108874Y18896307D01*
X1119943Y18905515D01*
X1131455Y18914088D01*
X1143409Y18922026D01*
X1155806Y18929329D01*
X1168645Y18935997D01*
X1181928Y18942030D01*
X1195652Y18947427D01*
X1209820Y18952190D01*
X1224430Y18956318D01*
X1239483Y18959810D01*
X1247176Y18961319D01*
X1254979Y18962668D01*
X1262893Y18963859D01*
X1270917Y18964891D01*
X1279053Y18965764D01*
X1287298Y18966478D01*
X1295655Y18967034D01*
X1304122Y18967431D01*
X1312700Y18967669D01*
X1321389Y18967748D01*
X1330008Y18967673D01*
X1338501Y18967446D01*
X1346867Y18967068D01*
X1355106Y18966539D01*
X1363219Y18965859D01*
X1371205Y18965028D01*
X1379064Y18964046D01*
X1394403Y18961628D01*
X1409234Y18958605D01*
X1423559Y18954978D01*
X1437377Y18950747D01*
X1450689Y18945911D01*
X1463493Y18940470D01*
X1475791Y18934425D01*
X1487581Y18927776D01*
X1498865Y18920522D01*
X1509643Y18912663D01*
X1519913Y18904200D01*
X1529677Y18895133D01*
X1534368Y18890372D01*
X1543360Y18880480D01*
X1551771Y18870146D01*
X1559602Y18859371D01*
X1566853Y18848155D01*
X1573524Y18836498D01*
X1579614Y18824399D01*
X1585125Y18811860D01*
X1590056Y18798879D01*
X1594406Y18785457D01*
X1598177Y18771594D01*
X1601367Y18757290D01*
X1603978Y18742544D01*
X1606008Y18727358D01*
X1607458Y18711730D01*
X1607966Y18703751D01*
X1608328Y18695661D01*
X1608546Y18687461D01*
X1608618Y18679151D01*
X1608618Y18673289D01*
X1515611Y18673289D01*
X1515611Y18682082D01*
X1515425Y18693020D01*
X1514869Y18703706D01*
X1513941Y18714141D01*
X1512643Y18724324D01*
X1510974Y18734254D01*
X1508934Y18743933D01*
X1506522Y18753360D01*
X1503740Y18762535D01*
X1500587Y18771459D01*
X1497063Y18780130D01*
X1493168Y18788550D01*
X1488903Y18796717D01*
X1484266Y18804633D01*
X1479258Y18812297D01*
X1473879Y18819709D01*
X1468130Y18826869D01*
X1462015Y18833683D01*
X1455493Y18840058D01*
X1448564Y18845993D01*
X1441226Y18851489D01*
X1433482Y18856545D01*
X1425329Y18861161D01*
X1416769Y18865337D01*
X1407802Y18869074D01*
X1398427Y18872371D01*
X1388644Y18875229D01*
X1378454Y18877647D01*
X1367856Y18879625D01*
X1356850Y18881164D01*
X1345437Y18882263D01*
X1333617Y18882923D01*
X1321389Y18883143D01*
X1309077Y18882904D01*
X1297105Y18882190D01*
X1285471Y18880999D01*
X1274177Y18879332D01*
X1263221Y18877189D01*
X1252604Y18874570D01*
X1242326Y18871474D01*
X1232387Y18867902D01*
X1222786Y18863853D01*
X1213525Y18859329D01*
X1204602Y18854328D01*
X1196019Y18848851D01*
X1187774Y18842897D01*
X1179868Y18836468D01*
X1172301Y18829562D01*
X1165073Y18822180D01*
X1158259Y18814395D01*
X1151884Y18806234D01*
X1145949Y18797695D01*
X1140454Y18788779D01*
X1135398Y18779487D01*
X1130782Y18769817D01*
X1126605Y18759770D01*
X1122868Y18749346D01*
X1119571Y18738545D01*
X1116713Y18727368D01*
X1114295Y18715813D01*
X1112317Y18703881D01*
X1110778Y18691571D01*
X1109679Y18678885D01*
X1109020Y18665822D01*
X1108800Y18652382D01*
X1108800Y18467734D01*
X1109020Y18454316D01*
X1109679Y18441271D01*
X1110778Y18428597D01*
X1112317Y18416297D01*
X1114295Y18404369D01*
X1116713Y18392813D01*
X1119571Y18381630D01*
X1122868Y18370819D01*
X1126605Y18360380D01*
X1130782Y18350315D01*
X1135398Y18340621D01*
X1140454Y18331300D01*
X1145949Y18322352D01*
X1151884Y18313776D01*
X1158259Y18305572D01*
X1165073Y18297741D01*
X1172301Y18290359D01*
X1179868Y18283453D01*
X1187774Y18277023D01*
X1196019Y18271070D01*
X1204602Y18265593D01*
X1213525Y18260592D01*
X1222786Y18256067D01*
X1232387Y18252019D01*
X1242326Y18248447D01*
X1252604Y18245351D01*
X1263221Y18242732D01*
X1274177Y18240588D01*
X1285471Y18238922D01*
X1297105Y18237731D01*
X1309077Y18237016D01*
X1321389Y18236778D01*
X1333617Y18236999D01*
X1345437Y18237661D01*
X1356850Y18238764D01*
X1367856Y18240308D01*
X1378454Y18242293D01*
X1388644Y18244719D01*
X1398427Y18247587D01*
X1407802Y18250896D01*
X1416769Y18254645D01*
X1425329Y18258836D01*
X1433482Y18263469D01*
X1441226Y18268542D01*
X1448564Y18274057D01*
X1455493Y18280012D01*
X1462015Y18286409D01*
X1468130Y18293247D01*
X1473879Y18300430D01*
X1479258Y18307862D01*
X1484266Y18315543D01*
X1488903Y18323472D01*
X1493168Y18331651D01*
X1497063Y18340078D01*
X1500587Y18348754D01*
X1503740Y18357678D01*
X1506522Y18366852D01*
X1508934Y18376275D01*
X1510974Y18385946D01*
X1512643Y18395866D01*
X1513941Y18406035D01*
X1514869Y18416452D01*
X1515425Y18427119D01*
X1515611Y18438034D01*
X1515611Y18455815D01*
X1608618Y18455815D01*
X1608618Y18440770D01*
X1608546Y18432472D01*
X1608328Y18424284D01*
X1607966Y18416205D01*
X1607458Y18408237D01*
X1606806Y18400378D01*
X1605065Y18384991D01*
X1602745Y18370043D01*
X1599845Y18355535D01*
X1596364Y18341467D01*
X1592304Y18327838D01*
X1587663Y18314649D01*
X1582442Y18301900D01*
X1576642Y18289590D01*
X1570261Y18277719D01*
X1563300Y18266289D01*
X1555759Y18255298D01*
X1547638Y18244747D01*
X1538937Y18234635D01*
X1534368Y18229744D01*
X1524858Y18220374D01*
X1514841Y18211609D01*
X1504317Y18203448D01*
X1493287Y18195892D01*
X1481749Y18188940D01*
X1469705Y18182593D01*
X1457154Y18176850D01*
X1444096Y18171712D01*
X1430532Y18167178D01*
X1416460Y18163249D01*
X1401882Y18159924D01*
X1386797Y18157204D01*
X1371205Y18155088D01*
X1363219Y18154257D01*
X1355106Y18153577D01*
X1346867Y18153048D01*
X1338501Y18152670D01*
X1330008Y18152444D01*
X1321389Y18152368D01*
G37*
G36*
X1756923Y18168000D02*
G01*
X1756923Y18951921D01*
X1850712Y18951921D01*
X1850712Y18253191D01*
X2247167Y18253191D01*
X2247167Y18168000D01*
X1756923Y18168000D01*
G37*
G36*
X3101892Y18152368D02*
G01*
X3091218Y18152487D01*
X3080691Y18152844D01*
X3070311Y18153440D01*
X3060077Y18154273D01*
X3049990Y18155345D01*
X3040049Y18156654D01*
X3030255Y18158202D01*
X3020608Y18159988D01*
X3011107Y18162012D01*
X3001752Y18164275D01*
X2992544Y18166775D01*
X2983483Y18169514D01*
X2974568Y18172491D01*
X2965800Y18175705D01*
X2957178Y18179158D01*
X2948703Y18182849D01*
X2940436Y18186778D01*
X2932393Y18190943D01*
X2924573Y18195345D01*
X2916975Y18199983D01*
X2909601Y18204858D01*
X2902449Y18209970D01*
X2895520Y18215318D01*
X2888814Y18220903D01*
X2882331Y18226724D01*
X2876071Y18232782D01*
X2870033Y18239076D01*
X2864219Y18245608D01*
X2858627Y18252375D01*
X2853259Y18259380D01*
X2848113Y18266621D01*
X2843190Y18274099D01*
X2838552Y18281838D01*
X2834214Y18289816D01*
X2830175Y18298031D01*
X2826435Y18306485D01*
X2822994Y18315177D01*
X2819852Y18324107D01*
X2817010Y18333276D01*
X2814467Y18342682D01*
X2812223Y18352327D01*
X2810278Y18362209D01*
X2808632Y18372330D01*
X2807286Y18382689D01*
X2806239Y18393286D01*
X2805491Y18404121D01*
X2805042Y18415195D01*
X2804892Y18426506D01*
X2804892Y18450735D01*
X2898095Y18450735D01*
X2898095Y18426506D01*
X2898317Y18414515D01*
X2898981Y18402915D01*
X2900087Y18391708D01*
X2901637Y18380894D01*
X2903629Y18370471D01*
X2906064Y18360441D01*
X2908941Y18350804D01*
X2912261Y18341558D01*
X2916024Y18332705D01*
X2920230Y18324245D01*
X2924878Y18316176D01*
X2929969Y18308500D01*
X2935503Y18301216D01*
X2941479Y18294325D01*
X2947898Y18287826D01*
X2954760Y18281719D01*
X2961998Y18276017D01*
X2969497Y18270682D01*
X2977257Y18265716D01*
X2985278Y18261117D01*
X2993560Y18256886D01*
X3002103Y18253023D01*
X3010907Y18249529D01*
X3019973Y18246401D01*
X3029299Y18243642D01*
X3038886Y18241251D01*
X3048734Y18239228D01*
X3058844Y18237572D01*
X3069214Y18236284D01*
X3079846Y18235365D01*
X3090738Y18234813D01*
X3101892Y18234629D01*
X3113130Y18234788D01*
X3124032Y18235267D01*
X3134599Y18236065D01*
X3144830Y18237181D01*
X3154724Y18238617D01*
X3164283Y18240372D01*
X3173507Y18242445D01*
X3182394Y18244838D01*
X3190946Y18247550D01*
X3199161Y18250581D01*
X3207041Y18253931D01*
X3214585Y18257600D01*
X3221793Y18261588D01*
X3228666Y18265895D01*
X3235202Y18270521D01*
X3241403Y18275466D01*
X3247247Y18280684D01*
X3255307Y18288842D01*
X3262518Y18297399D01*
X3268881Y18306355D01*
X3274395Y18315708D01*
X3279061Y18325461D01*
X3282879Y18335611D01*
X3285848Y18346160D01*
X3287969Y18357108D01*
X3289241Y18368453D01*
X3289666Y18380198D01*
X3289475Y18388075D01*
X3288628Y18398124D01*
X3287103Y18407654D01*
X3284900Y18416665D01*
X3282019Y18425157D01*
X3278461Y18433130D01*
X3274225Y18440584D01*
X3269311Y18447519D01*
X3267977Y18449172D01*
X3262280Y18455559D01*
X3256033Y18461628D01*
X3249237Y18467380D01*
X3241892Y18472815D01*
X3233996Y18477931D01*
X3225552Y18482731D01*
X3216558Y18487213D01*
X3207014Y18491377D01*
X3199531Y18494352D01*
X3191812Y18497269D01*
X3183856Y18500127D01*
X3175662Y18502927D01*
X3167232Y18505668D01*
X3158564Y18508351D01*
X3149660Y18510976D01*
X3140519Y18513542D01*
X3131140Y18516050D01*
X3121525Y18518499D01*
X3114983Y18520100D01*
X3056560Y18534559D01*
X3048050Y18536742D01*
X3039665Y18538992D01*
X3031405Y18541309D01*
X3023270Y18543694D01*
X3015260Y18546145D01*
X3007376Y18548664D01*
X2999616Y18551250D01*
X2991982Y18553903D01*
X2984473Y18556623D01*
X2977090Y18559411D01*
X2966249Y18563718D01*
X2955689Y18568176D01*
X2945412Y18572785D01*
X2935416Y18577546D01*
X2925761Y18582524D01*
X2916509Y18587788D01*
X2907658Y18593337D01*
X2899210Y18599171D01*
X2891163Y18605289D01*
X2883518Y18611693D01*
X2876275Y18618382D01*
X2869433Y18625356D01*
X2862994Y18632616D01*
X2856956Y18640160D01*
X2853155Y18645348D01*
X2847882Y18653438D01*
X2843128Y18661953D01*
X2838892Y18670895D01*
X2835175Y18680262D01*
X2831977Y18690056D01*
X2829298Y18700275D01*
X2827137Y18710920D01*
X2825494Y18721991D01*
X2824370Y18733488D01*
X2823909Y18741389D01*
X2823679Y18749480D01*
X2823650Y18753596D01*
X2823781Y18761781D01*
X2824172Y18769826D01*
X2824825Y18777730D01*
X2825738Y18785494D01*
X2827598Y18796877D01*
X2830046Y18807943D01*
X2833080Y18818694D01*
X2836702Y18829128D01*
X2840911Y18839247D01*
X2845708Y18849049D01*
X2851091Y18858536D01*
X2857063Y18867706D01*
X2863554Y18876558D01*
X2870499Y18885015D01*
X2877897Y18893077D01*
X2885749Y18900743D01*
X2894054Y18908015D01*
X2902812Y18914892D01*
X2912024Y18921374D01*
X2921689Y18927460D01*
X2931808Y18933152D01*
X2938805Y18936727D01*
X2946004Y18940127D01*
X2949679Y18941761D01*
X2957182Y18944908D01*
X2964841Y18947852D01*
X2972655Y18950593D01*
X2980625Y18953130D01*
X2988751Y18955465D01*
X2997032Y18957597D01*
X3005469Y18959526D01*
X3014062Y18961251D01*
X3022810Y18962774D01*
X3031715Y18964094D01*
X3040774Y18965210D01*
X3049990Y18966124D01*
X3059361Y18966835D01*
X3068888Y18967342D01*
X3078571Y18967647D01*
X3088409Y18967748D01*
X3098239Y18967641D01*
X3107943Y18967321D01*
X3117522Y18966787D01*
X3126975Y18966039D01*
X3136304Y18965077D01*
X3145507Y18963901D01*
X3154585Y18962512D01*
X3163539Y18960909D01*
X3172366Y18959093D01*
X3181069Y18957063D01*
X3189647Y18954819D01*
X3198099Y18952361D01*
X3206426Y18949690D01*
X3214628Y18946804D01*
X3222705Y18943706D01*
X3230656Y18940393D01*
X3238465Y18936871D01*
X3246065Y18933145D01*
X3253456Y18929214D01*
X3260637Y18925079D01*
X3267610Y18920739D01*
X3274373Y18916195D01*
X3280927Y18911446D01*
X3287272Y18906492D01*
X3293408Y18901334D01*
X3299334Y18895971D01*
X3305052Y18890404D01*
X3310560Y18884632D01*
X3315860Y18878656D01*
X3320950Y18872475D01*
X3325831Y18866090D01*
X3330503Y18859500D01*
X3334951Y18852727D01*
X3339112Y18845743D01*
X3342987Y18838548D01*
X3346574Y18831143D01*
X3349874Y18823527D01*
X3352888Y18815701D01*
X3355614Y18807664D01*
X3358054Y18799416D01*
X3360206Y18790958D01*
X3362071Y18782289D01*
X3363650Y18773409D01*
X3364941Y18764318D01*
X3365946Y18755017D01*
X3366663Y18745506D01*
X3367094Y18735783D01*
X3367237Y18725850D01*
X3367237Y18678760D01*
X3274229Y18678760D01*
X3274229Y18725850D01*
X3274016Y18736284D01*
X3273378Y18746337D01*
X3272313Y18756008D01*
X3270822Y18765298D01*
X3268906Y18774207D01*
X3266563Y18782735D01*
X3263795Y18790882D01*
X3260601Y18798647D01*
X3256980Y18806031D01*
X3252934Y18813033D01*
X3250000Y18817490D01*
X3245336Y18823920D01*
X3240356Y18830020D01*
X3235060Y18835790D01*
X3229447Y18841230D01*
X3223519Y18846341D01*
X3217275Y18851122D01*
X3210715Y18855574D01*
X3203839Y18859695D01*
X3196646Y18863487D01*
X3189138Y18866949D01*
X3183957Y18869074D01*
X3175979Y18872007D01*
X3167798Y18874652D01*
X3159415Y18877008D01*
X3150829Y18879076D01*
X3142040Y18880855D01*
X3133049Y18882346D01*
X3123855Y18883548D01*
X3114458Y18884461D01*
X3104859Y18885087D01*
X3095057Y18885423D01*
X3088409Y18885487D01*
X3078832Y18885354D01*
X3069493Y18884956D01*
X3060392Y18884292D01*
X3051529Y18883362D01*
X3042904Y18882167D01*
X3034517Y18880706D01*
X3026369Y18878980D01*
X3018458Y18876988D01*
X3010786Y18874730D01*
X3003352Y18872207D01*
X2992647Y18867924D01*
X2982478Y18863043D01*
X2972845Y18857565D01*
X2963748Y18851489D01*
X2955367Y18844861D01*
X2947811Y18837729D01*
X2941079Y18830092D01*
X2935171Y18821951D01*
X2930088Y18813304D01*
X2925829Y18804152D01*
X2922395Y18794496D01*
X2919784Y18784334D01*
X2917998Y18773668D01*
X2917036Y18762497D01*
X2916853Y18754769D01*
X2917162Y18744565D01*
X2918087Y18734863D01*
X2919628Y18725661D01*
X2921787Y18716960D01*
X2924562Y18708759D01*
X2927954Y18701060D01*
X2931963Y18693860D01*
X2936588Y18687162D01*
X2941836Y18680916D01*
X2947616Y18674974D01*
X2953926Y18669338D01*
X2960768Y18664008D01*
X2968141Y18658983D01*
X2976045Y18654263D01*
X2984481Y18649848D01*
X2993448Y18645739D01*
X3002958Y18641834D01*
X3010391Y18638973D01*
X3018082Y18636171D01*
X3026030Y18633427D01*
X3034236Y18630742D01*
X3042700Y18628115D01*
X3051421Y18625546D01*
X3060400Y18623036D01*
X3069636Y18620585D01*
X3079130Y18618191D01*
X3082352Y18617406D01*
X3140775Y18603143D01*
X3149222Y18601151D01*
X3157564Y18599085D01*
X3165800Y18596944D01*
X3173931Y18594728D01*
X3181957Y18592438D01*
X3189877Y18590073D01*
X3197692Y18587632D01*
X3205402Y18585117D01*
X3213006Y18582528D01*
X3220505Y18579863D01*
X3227899Y18577124D01*
X3238792Y18572875D01*
X3249448Y18568457D01*
X3259867Y18563871D01*
X3263287Y18562305D01*
X3273348Y18557421D01*
X3283014Y18552221D01*
X3292284Y18546705D01*
X3301160Y18540873D01*
X3309641Y18534725D01*
X3317727Y18528261D01*
X3325418Y18521481D01*
X3332713Y18514385D01*
X3339614Y18506973D01*
X3346120Y18499245D01*
X3350238Y18493917D01*
X3356034Y18485592D01*
X3361261Y18476810D01*
X3365917Y18467572D01*
X3370003Y18457876D01*
X3373519Y18447724D01*
X3376465Y18437115D01*
X3378840Y18426049D01*
X3380646Y18414526D01*
X3381533Y18406590D01*
X3382166Y18398452D01*
X3382546Y18390110D01*
X3382673Y18381565D01*
X3382537Y18372964D01*
X3382130Y18364502D01*
X3381450Y18356179D01*
X3380499Y18347994D01*
X3379277Y18339949D01*
X3377782Y18332042D01*
X3376016Y18324274D01*
X3373978Y18316646D01*
X3371669Y18309156D01*
X3367695Y18298182D01*
X3363109Y18287520D01*
X3357913Y18277171D01*
X3352105Y18267134D01*
X3347893Y18260616D01*
X3341123Y18251182D01*
X3333854Y18242149D01*
X3326088Y18233519D01*
X3317824Y18225290D01*
X3312037Y18220027D01*
X3306030Y18214943D01*
X3299801Y18210038D01*
X3293351Y18205311D01*
X3286679Y18200762D01*
X3279786Y18196393D01*
X3272672Y18192202D01*
X3265336Y18188189D01*
X3257779Y18184355D01*
X3250000Y18180700D01*
X3242026Y18177269D01*
X3233880Y18174060D01*
X3225564Y18171072D01*
X3217077Y18168305D01*
X3208418Y18165759D01*
X3199589Y18163435D01*
X3190588Y18161332D01*
X3181417Y18159451D01*
X3172075Y18157791D01*
X3162562Y18156352D01*
X3152877Y18155135D01*
X3143022Y18154139D01*
X3132996Y18153364D01*
X3122799Y18152811D01*
X3112431Y18152479D01*
X3101892Y18152368D01*
G37*
G36*
X3800260Y18951845D02*
G01*
X3809726Y18951615D01*
X3819056Y18951231D01*
X3828248Y18950694D01*
X3837304Y18950004D01*
X3846222Y18949160D01*
X3855004Y18948163D01*
X3863648Y18947012D01*
X3872156Y18945708D01*
X3880526Y18944251D01*
X3888760Y18942640D01*
X3896856Y18940875D01*
X3904816Y18938958D01*
X3912638Y18936887D01*
X3920324Y18934662D01*
X3927872Y18932284D01*
X3935284Y18929753D01*
X3949695Y18924230D01*
X3963559Y18918093D01*
X3976875Y18911343D01*
X3989643Y18903979D01*
X4001863Y18896002D01*
X4013534Y18887410D01*
X4024658Y18878205D01*
X4030014Y18873373D01*
X4040283Y18863249D01*
X4049890Y18852466D01*
X4058834Y18841023D01*
X4067115Y18828921D01*
X4074734Y18816159D01*
X4081690Y18802738D01*
X4087984Y18788657D01*
X4090882Y18781370D01*
X4093615Y18773917D01*
X4096183Y18766300D01*
X4098584Y18758518D01*
X4100820Y18750571D01*
X4102890Y18742459D01*
X4104795Y18734182D01*
X4106534Y18725740D01*
X4108108Y18717134D01*
X4109515Y18708362D01*
X4110758Y18699426D01*
X4111834Y18690325D01*
X4112745Y18681059D01*
X4113491Y18671628D01*
X4114070Y18662033D01*
X4114484Y18652272D01*
X4114733Y18642347D01*
X4114816Y18632256D01*
X4114816Y18486883D01*
X4114733Y18476793D01*
X4114484Y18466868D01*
X4114070Y18457108D01*
X4113491Y18447514D01*
X4112745Y18438085D01*
X4111834Y18428821D01*
X4110758Y18419722D01*
X4109515Y18410789D01*
X4108108Y18402021D01*
X4106534Y18393418D01*
X4104795Y18384980D01*
X4102890Y18376708D01*
X4100820Y18368601D01*
X4098584Y18360659D01*
X4096183Y18352882D01*
X4093615Y18345271D01*
X4090882Y18337825D01*
X4087984Y18330544D01*
X4081690Y18316478D01*
X4074734Y18303073D01*
X4067115Y18290329D01*
X4058834Y18278245D01*
X4049890Y18266823D01*
X4040283Y18256062D01*
X4030014Y18245962D01*
X4019165Y18236521D01*
X4007767Y18227689D01*
X3995821Y18219467D01*
X3983327Y18211853D01*
X3970286Y18204849D01*
X3956696Y18198454D01*
X3942558Y18192667D01*
X3927872Y18187490D01*
X3920324Y18185130D01*
X3912638Y18182922D01*
X3904816Y18180866D01*
X3896856Y18178963D01*
X3888760Y18177212D01*
X3880526Y18175613D01*
X3872156Y18174166D01*
X3863648Y18172872D01*
X3855004Y18171730D01*
X3846222Y18170740D01*
X3837304Y18169903D01*
X3828248Y18169218D01*
X3819056Y18168685D01*
X3809726Y18168304D01*
X3800260Y18168076D01*
X3790656Y18168000D01*
X3485646Y18168000D01*
X3485646Y18251824D01*
X3595067Y18251824D01*
X3595067Y18866143D01*
X3688856Y18866143D01*
X3688856Y18253191D01*
X3791243Y18253191D01*
X3805216Y18253409D01*
X3818757Y18254062D01*
X3831863Y18255149D01*
X3844536Y18256672D01*
X3856776Y18258630D01*
X3868582Y18261022D01*
X3879955Y18263850D01*
X3890894Y18267113D01*
X3901399Y18270811D01*
X3911471Y18274944D01*
X3921110Y18279512D01*
X3930315Y18284516D01*
X3939086Y18289954D01*
X3947424Y18295827D01*
X3955328Y18302135D01*
X3962799Y18308879D01*
X3969850Y18316108D01*
X3976446Y18323826D01*
X3982587Y18332033D01*
X3988273Y18340728D01*
X3993505Y18349912D01*
X3998281Y18359584D01*
X4002603Y18369744D01*
X4006469Y18380393D01*
X4009881Y18391531D01*
X4012838Y18403157D01*
X4015340Y18415271D01*
X4017387Y18427874D01*
X4018979Y18440965D01*
X4020117Y18454545D01*
X4020799Y18468614D01*
X4021026Y18483170D01*
X4021026Y18635969D01*
X4020799Y18650688D01*
X4020117Y18664902D01*
X4018979Y18678611D01*
X4017387Y18691815D01*
X4015340Y18704513D01*
X4012838Y18716706D01*
X4009881Y18728394D01*
X4006469Y18739577D01*
X4002603Y18750254D01*
X3998281Y18760426D01*
X3993505Y18770092D01*
X3988273Y18779254D01*
X3982587Y18787910D01*
X3976446Y18796061D01*
X3969850Y18803706D01*
X3962799Y18810847D01*
X3955328Y18817543D01*
X3947424Y18823807D01*
X3939086Y18829639D01*
X3930315Y18835039D01*
X3921110Y18840007D01*
X3911471Y18844543D01*
X3901399Y18848647D01*
X3890894Y18852319D01*
X3879955Y18855559D01*
X3868582Y18858367D01*
X3856776Y18860743D01*
X3844536Y18862687D01*
X3831863Y18864199D01*
X3818757Y18865279D01*
X3805216Y18865927D01*
X3791243Y18866143D01*
X3688856Y18866143D01*
X3595067Y18866143D01*
X3595067Y18868293D01*
X3485646Y18868293D01*
X3485646Y18951921D01*
X3790656Y18951921D01*
X3800260Y18951845D01*
G37*
G36*
X4841291Y18168000D02*
G01*
X4743790Y18168000D01*
X4683804Y18365934D01*
X4349679Y18365934D01*
X4289693Y18168000D01*
X4192192Y18168000D01*
X4279738Y18451712D01*
X4374104Y18451712D01*
X4659379Y18451712D01*
X4524362Y18894866D01*
X4508926Y18894866D01*
X4374104Y18451712D01*
X4279738Y18451712D01*
X4434090Y18951921D01*
X4599393Y18951921D01*
X4841291Y18168000D01*
G37*
G36*
X-2019727Y18152368D02*
G01*
X-2030517Y18152510D01*
X-2041150Y18152936D01*
X-2051626Y18153646D01*
X-2061944Y18154639D01*
X-2072106Y18155917D01*
X-2082110Y18157479D01*
X-2091957Y18159324D01*
X-2101646Y18161454D01*
X-2111179Y18163867D01*
X-2120554Y18166565D01*
X-2129771Y18169546D01*
X-2138832Y18172811D01*
X-2147736Y18176360D01*
X-2156482Y18180193D01*
X-2165071Y18184310D01*
X-2173502Y18188711D01*
X-2181717Y18193389D01*
X-2189705Y18198334D01*
X-2197465Y18203549D01*
X-2204998Y18209032D01*
X-2212303Y18214784D01*
X-2219380Y18220805D01*
X-2226231Y18227094D01*
X-2232853Y18233652D01*
X-2239249Y18240479D01*
X-2245417Y18247574D01*
X-2251357Y18254938D01*
X-2257070Y18262570D01*
X-2262556Y18270472D01*
X-2267814Y18278642D01*
X-2272844Y18287080D01*
X-2277648Y18295787D01*
X-2282167Y18304779D01*
X-2286395Y18314023D01*
X-2290331Y18323519D01*
X-2293975Y18333266D01*
X-2297328Y18343266D01*
X-2300390Y18353517D01*
X-2303159Y18364020D01*
X-2305638Y18374775D01*
X-2307825Y18385782D01*
X-2309720Y18397041D01*
X-2311323Y18408552D01*
X-2312635Y18420315D01*
X-2313656Y18432329D01*
X-2314385Y18444595D01*
X-2314822Y18457114D01*
X-2314968Y18469884D01*
X-2314968Y18650037D01*
X-2314887Y18659673D01*
X-2314643Y18669164D01*
X-2314238Y18678511D01*
X-2313670Y18687712D01*
X-2312940Y18696768D01*
X-2312048Y18705679D01*
X-2310994Y18714445D01*
X-2309778Y18723066D01*
X-2308399Y18731542D01*
X-2306858Y18739873D01*
X-2305155Y18748059D01*
X-2303290Y18756100D01*
X-2301263Y18763996D01*
X-2299073Y18771746D01*
X-2296721Y18779352D01*
X-2294207Y18786813D01*
X-2288693Y18801300D01*
X-2282529Y18815206D01*
X-2275717Y18828533D01*
X-2268256Y18841279D01*
X-2260147Y18853446D01*
X-2251388Y18865032D01*
X-2241981Y18876038D01*
X-2231925Y18886464D01*
X-2221299Y18896307D01*
X-2210230Y18905515D01*
X-2198719Y18914088D01*
X-2186765Y18922026D01*
X-2174368Y18929329D01*
X-2161528Y18935997D01*
X-2148246Y18942030D01*
X-2134521Y18947427D01*
X-2120354Y18952190D01*
X-2105743Y18956318D01*
X-2090690Y18959810D01*
X-2082998Y18961319D01*
X-2075195Y18962668D01*
X-2067281Y18963859D01*
X-2059256Y18964891D01*
X-2051121Y18965764D01*
X-2042875Y18966478D01*
X-2034519Y18967034D01*
X-2026051Y18967431D01*
X-2017474Y18967669D01*
X-2008785Y18967748D01*
X-2000167Y18967674D01*
X-1991679Y18967450D01*
X-1983320Y18967077D01*
X-1975092Y18966555D01*
X-1966993Y18965883D01*
X-1959024Y18965062D01*
X-1951184Y18964092D01*
X-1935895Y18961705D01*
X-1921124Y18958721D01*
X-1906872Y18955139D01*
X-1893140Y18950961D01*
X-1879926Y18946186D01*
X-1867232Y18940815D01*
X-1855056Y18934846D01*
X-1843400Y18928280D01*
X-1832262Y18921118D01*
X-1821644Y18913359D01*
X-1811544Y18905002D01*
X-1801964Y18896049D01*
X-1797368Y18891349D01*
X-1788567Y18881598D01*
X-1780332Y18871446D01*
X-1772666Y18860893D01*
X-1765568Y18849938D01*
X-1759038Y18838581D01*
X-1753075Y18826823D01*
X-1747680Y18814664D01*
X-1742853Y18802103D01*
X-1738594Y18789140D01*
X-1734903Y18775776D01*
X-1731780Y18762011D01*
X-1729225Y18747844D01*
X-1727237Y18733276D01*
X-1725817Y18718306D01*
X-1724966Y18702935D01*
X-1724753Y18695099D01*
X-1724682Y18687162D01*
X-1724682Y18681886D01*
X-1817689Y18681886D01*
X-1817689Y18690093D01*
X-1817868Y18700428D01*
X-1818404Y18710550D01*
X-1819297Y18720459D01*
X-1820547Y18730155D01*
X-1822154Y18739638D01*
X-1824119Y18748908D01*
X-1826441Y18757965D01*
X-1829120Y18766810D01*
X-1832156Y18775441D01*
X-1835550Y18783859D01*
X-1838010Y18789353D01*
X-1841978Y18797360D01*
X-1846334Y18805041D01*
X-1851078Y18812395D01*
X-1856210Y18819423D01*
X-1861730Y18826124D01*
X-1867638Y18832500D01*
X-1873934Y18838549D01*
X-1880619Y18844271D01*
X-1887691Y18849668D01*
X-1895152Y18854738D01*
X-1900341Y18857937D01*
X-1908466Y18862441D01*
X-1917013Y18866503D01*
X-1925983Y18870121D01*
X-1935375Y18873297D01*
X-1945189Y18876029D01*
X-1955426Y18878318D01*
X-1966086Y18880164D01*
X-1977168Y18881567D01*
X-1988672Y18882527D01*
X-1996577Y18882921D01*
X-2004669Y18883118D01*
X-2008785Y18883143D01*
X-2021096Y18882904D01*
X-2033069Y18882190D01*
X-2044702Y18880999D01*
X-2055997Y18879332D01*
X-2066953Y18877189D01*
X-2077570Y18874570D01*
X-2087848Y18871474D01*
X-2097787Y18867902D01*
X-2107387Y18863853D01*
X-2116649Y18859329D01*
X-2125571Y18854328D01*
X-2134155Y18848851D01*
X-2142400Y18842897D01*
X-2150305Y18836468D01*
X-2157872Y18829562D01*
X-2165100Y18822180D01*
X-2171915Y18814395D01*
X-2178290Y18806234D01*
X-2184225Y18797695D01*
X-2189720Y18788779D01*
X-2194776Y18779487D01*
X-2199392Y18769817D01*
X-2203569Y18759770D01*
X-2207306Y18749346D01*
X-2210603Y18738545D01*
X-2213461Y18727368D01*
X-2215879Y18715813D01*
X-2217857Y18703881D01*
X-2219396Y18691571D01*
X-2220495Y18678885D01*
X-2221154Y18665822D01*
X-2221374Y18652382D01*
X-2221374Y18467734D01*
X-2221154Y18454315D01*
X-2220495Y18441268D01*
X-2219396Y18428591D01*
X-2217857Y18416285D01*
X-2215879Y18404349D01*
X-2213461Y18392785D01*
X-2210603Y18381592D01*
X-2207306Y18370770D01*
X-2203569Y18360319D01*
X-2199392Y18350238D01*
X-2194776Y18340529D01*
X-2189720Y18331190D01*
X-2184225Y18322223D01*
X-2178290Y18313626D01*
X-2171915Y18305401D01*
X-2165100Y18297546D01*
X-2157870Y18290116D01*
X-2150296Y18283166D01*
X-2142379Y18276695D01*
X-2134118Y18270704D01*
X-2125514Y18265191D01*
X-2116566Y18260158D01*
X-2107275Y18255605D01*
X-2097641Y18251531D01*
X-2087662Y18247936D01*
X-2077341Y18244820D01*
X-2066676Y18242184D01*
X-2055667Y18240027D01*
X-2044316Y18238349D01*
X-2032620Y18237151D01*
X-2020581Y18236432D01*
X-2008199Y18236192D01*
X-1996021Y18236411D01*
X-1984254Y18237068D01*
X-1972897Y18238164D01*
X-1961951Y18239697D01*
X-1951416Y18241668D01*
X-1941292Y18244078D01*
X-1931578Y18246926D01*
X-1922274Y18250212D01*
X-1913381Y18253936D01*
X-1904899Y18258098D01*
X-1896828Y18262698D01*
X-1889167Y18267736D01*
X-1881917Y18273212D01*
X-1875077Y18279127D01*
X-1868648Y18285480D01*
X-1862630Y18292270D01*
X-1856999Y18299424D01*
X-1851731Y18306864D01*
X-1846826Y18314591D01*
X-1842285Y18322605D01*
X-1838107Y18330906D01*
X-1834292Y18339495D01*
X-1830840Y18348370D01*
X-1827752Y18357532D01*
X-1825027Y18366981D01*
X-1822666Y18376717D01*
X-1820668Y18386740D01*
X-1819033Y18397050D01*
X-1817761Y18407648D01*
X-1816853Y18418532D01*
X-1816308Y18429703D01*
X-1816126Y18441161D01*
X-1816126Y18460309D01*
X-2053726Y18460309D01*
X-2053726Y18541203D01*
X-1724682Y18541203D01*
X-1724682Y18168000D01*
X-1810460Y18168000D01*
X-1810460Y18252605D01*
X-1825701Y18252605D01*
X-1829683Y18244945D01*
X-1834180Y18237351D01*
X-1839193Y18229825D01*
X-1844721Y18222365D01*
X-1850764Y18214972D01*
X-1855970Y18209105D01*
X-1860090Y18204734D01*
X-1865955Y18199058D01*
X-1872314Y18193657D01*
X-1879168Y18188531D01*
X-1886517Y18183680D01*
X-1894360Y18179103D01*
X-1902698Y18174802D01*
X-1911531Y18170775D01*
X-1920858Y18167023D01*
X-1928234Y18164404D01*
X-1936002Y18162042D01*
X-1944162Y18159939D01*
X-1952713Y18158092D01*
X-1961656Y18156504D01*
X-1970990Y18155173D01*
X-1980716Y18154100D01*
X-1990833Y18153284D01*
X-2001342Y18152726D01*
X-2012243Y18152425D01*
X-2019727Y18152368D01*
G37*
G36*
X-1553712Y18168000D02*
G01*
X-1553712Y18951921D01*
X-1371214Y18951921D01*
X-1098638Y18227399D01*
X-1083202Y18227399D01*
X-1083202Y18951921D01*
X-990195Y18951921D01*
X-990195Y18168000D01*
X-1172693Y18168000D01*
X-1445268Y18893303D01*
X-1460704Y18893303D01*
X-1460704Y18168000D01*
X-1553712Y18168000D01*
G37*
G36*
X-532552Y18951845D02*
G01*
X-523086Y18951615D01*
X-513756Y18951231D01*
X-504564Y18950694D01*
X-495508Y18950004D01*
X-486590Y18949160D01*
X-477808Y18948163D01*
X-469164Y18947012D01*
X-460656Y18945708D01*
X-452286Y18944251D01*
X-444052Y18942640D01*
X-435956Y18940875D01*
X-427996Y18938958D01*
X-420174Y18936887D01*
X-412488Y18934662D01*
X-404940Y18932284D01*
X-397529Y18929753D01*
X-383117Y18924230D01*
X-369253Y18918093D01*
X-355937Y18911343D01*
X-343169Y18903979D01*
X-330949Y18896002D01*
X-319278Y18887410D01*
X-308154Y18878205D01*
X-302798Y18873373D01*
X-292529Y18863249D01*
X-282922Y18852466D01*
X-273978Y18841023D01*
X-265697Y18828921D01*
X-258078Y18816159D01*
X-251122Y18802738D01*
X-244828Y18788657D01*
X-241930Y18781370D01*
X-239197Y18773917D01*
X-236630Y18766300D01*
X-234228Y18758518D01*
X-231992Y18750571D01*
X-229922Y18742459D01*
X-228017Y18734182D01*
X-226278Y18725740D01*
X-224704Y18717134D01*
X-223297Y18708362D01*
X-222054Y18699426D01*
X-220978Y18690325D01*
X-220067Y18681059D01*
X-219321Y18671628D01*
X-218742Y18662033D01*
X-218328Y18652272D01*
X-218079Y18642347D01*
X-217996Y18632256D01*
X-217996Y18486883D01*
X-218079Y18476793D01*
X-218328Y18466868D01*
X-218742Y18457108D01*
X-219321Y18447514D01*
X-220067Y18438085D01*
X-220978Y18428821D01*
X-222054Y18419722D01*
X-223297Y18410789D01*
X-224704Y18402021D01*
X-226278Y18393418D01*
X-228017Y18384980D01*
X-229922Y18376708D01*
X-231992Y18368601D01*
X-234228Y18360659D01*
X-236630Y18352882D01*
X-239197Y18345271D01*
X-241930Y18337825D01*
X-244828Y18330544D01*
X-251122Y18316478D01*
X-258078Y18303073D01*
X-265697Y18290329D01*
X-273978Y18278245D01*
X-282922Y18266823D01*
X-292529Y18256062D01*
X-302798Y18245962D01*
X-313647Y18236521D01*
X-325045Y18227689D01*
X-336991Y18219467D01*
X-349485Y18211853D01*
X-362526Y18204849D01*
X-376116Y18198454D01*
X-390254Y18192667D01*
X-404940Y18187490D01*
X-412488Y18185130D01*
X-420174Y18182922D01*
X-427996Y18180866D01*
X-435956Y18178963D01*
X-444052Y18177212D01*
X-452286Y18175613D01*
X-460656Y18174166D01*
X-469164Y18172872D01*
X-477808Y18171730D01*
X-486590Y18170740D01*
X-495508Y18169903D01*
X-504564Y18169218D01*
X-513756Y18168685D01*
X-523086Y18168304D01*
X-532552Y18168076D01*
X-542156Y18168000D01*
X-847166Y18168000D01*
X-847166Y18251824D01*
X-737745Y18251824D01*
X-737745Y18866143D01*
X-643956Y18866143D01*
X-643956Y18253191D01*
X-541569Y18253191D01*
X-527596Y18253409D01*
X-514055Y18254062D01*
X-500949Y18255149D01*
X-488276Y18256672D01*
X-476036Y18258630D01*
X-464230Y18261022D01*
X-452857Y18263850D01*
X-441918Y18267113D01*
X-431413Y18270811D01*
X-421341Y18274944D01*
X-411702Y18279512D01*
X-402498Y18284516D01*
X-393726Y18289954D01*
X-385388Y18295827D01*
X-377484Y18302135D01*
X-370013Y18308879D01*
X-362962Y18316108D01*
X-356366Y18323826D01*
X-350225Y18332033D01*
X-344539Y18340728D01*
X-339307Y18349912D01*
X-334531Y18359584D01*
X-330209Y18369744D01*
X-326343Y18380393D01*
X-322931Y18391531D01*
X-319974Y18403157D01*
X-317472Y18415271D01*
X-315425Y18427874D01*
X-313833Y18440965D01*
X-312696Y18454545D01*
X-312013Y18468614D01*
X-311786Y18483170D01*
X-311786Y18635969D01*
X-312013Y18650688D01*
X-312696Y18664902D01*
X-313833Y18678611D01*
X-315425Y18691815D01*
X-317472Y18704513D01*
X-319974Y18716706D01*
X-322931Y18728394D01*
X-326343Y18739577D01*
X-330209Y18750254D01*
X-334531Y18760426D01*
X-339307Y18770092D01*
X-344539Y18779254D01*
X-350225Y18787910D01*
X-356366Y18796061D01*
X-362962Y18803706D01*
X-370013Y18810847D01*
X-377484Y18817543D01*
X-385388Y18823807D01*
X-393726Y18829639D01*
X-402498Y18835039D01*
X-411702Y18840007D01*
X-421341Y18844543D01*
X-431413Y18848647D01*
X-441918Y18852319D01*
X-452857Y18855559D01*
X-464230Y18858367D01*
X-476036Y18860743D01*
X-488276Y18862687D01*
X-500949Y18864199D01*
X-514055Y18865279D01*
X-527596Y18865927D01*
X-541569Y18866143D01*
X-643956Y18866143D01*
X-737745Y18866143D01*
X-737745Y18868293D01*
X-847166Y18868293D01*
X-847166Y18951921D01*
X-542156Y18951921D01*
X-532552Y18951845D01*
G37*
G36*
X-4601932Y18168000D02*
G01*
X-4838555Y18951921D01*
X-4741053Y18951921D01*
X-4526901Y18225055D01*
X-4512832Y18225055D01*
X-4298485Y18951921D01*
X-4200983Y18951921D01*
X-4437801Y18168000D01*
X-4601932Y18168000D01*
G37*
G36*
X-3818010Y18152368D02*
G01*
X-3826699Y18152447D01*
X-3835277Y18152685D01*
X-3843744Y18153081D01*
X-3852101Y18153635D01*
X-3860346Y18154348D01*
X-3868482Y18155219D01*
X-3876506Y18156248D01*
X-3884420Y18157436D01*
X-3892223Y18158782D01*
X-3899916Y18160287D01*
X-3914969Y18163771D01*
X-3929579Y18167889D01*
X-3943747Y18172640D01*
X-3957472Y18178025D01*
X-3970754Y18184043D01*
X-3983593Y18190695D01*
X-3995990Y18197980D01*
X-4007944Y18205899D01*
X-4019456Y18214451D01*
X-4030525Y18223637D01*
X-4041151Y18233457D01*
X-4051207Y18243906D01*
X-4060614Y18254932D01*
X-4069372Y18266535D01*
X-4077482Y18278715D01*
X-4084943Y18291472D01*
X-4091755Y18304806D01*
X-4097918Y18318717D01*
X-4103433Y18333205D01*
X-4105947Y18340666D01*
X-4108298Y18348271D01*
X-4110488Y18356020D01*
X-4112515Y18363913D01*
X-4114381Y18371950D01*
X-4116084Y18380132D01*
X-4117624Y18388458D01*
X-4119003Y18396928D01*
X-4120220Y18405543D01*
X-4121274Y18414302D01*
X-4122166Y18423205D01*
X-4122896Y18432252D01*
X-4123463Y18441443D01*
X-4123869Y18450779D01*
X-4124112Y18460259D01*
X-4124193Y18469884D01*
X-4124193Y18650037D01*
X-4124112Y18659673D01*
X-4123869Y18669164D01*
X-4123463Y18678511D01*
X-4122896Y18687712D01*
X-4122166Y18696768D01*
X-4121274Y18705679D01*
X-4120220Y18714445D01*
X-4119003Y18723066D01*
X-4117624Y18731542D01*
X-4116084Y18739873D01*
X-4114381Y18748059D01*
X-4112515Y18756100D01*
X-4110488Y18763996D01*
X-4108298Y18771746D01*
X-4105947Y18779352D01*
X-4103433Y18786813D01*
X-4097918Y18801300D01*
X-4091755Y18815206D01*
X-4084943Y18828533D01*
X-4077482Y18841279D01*
X-4069372Y18853446D01*
X-4060614Y18865032D01*
X-4051207Y18876038D01*
X-4041151Y18886464D01*
X-4030525Y18896307D01*
X-4019456Y18905515D01*
X-4007944Y18914088D01*
X-3995990Y18922026D01*
X-3983593Y18929329D01*
X-3970754Y18935997D01*
X-3957472Y18942030D01*
X-3943747Y18947427D01*
X-3929579Y18952190D01*
X-3914969Y18956318D01*
X-3899916Y18959810D01*
X-3892223Y18961319D01*
X-3884420Y18962668D01*
X-3876506Y18963859D01*
X-3868482Y18964891D01*
X-3860346Y18965764D01*
X-3852101Y18966478D01*
X-3843744Y18967034D01*
X-3835277Y18967431D01*
X-3826699Y18967669D01*
X-3818010Y18967748D01*
X-3809391Y18967673D01*
X-3800898Y18967446D01*
X-3792532Y18967068D01*
X-3784293Y18966539D01*
X-3776180Y18965859D01*
X-3768194Y18965028D01*
X-3760335Y18964046D01*
X-3744996Y18961628D01*
X-3730165Y18958605D01*
X-3715840Y18954978D01*
X-3702022Y18950747D01*
X-3688711Y18945911D01*
X-3675906Y18940470D01*
X-3663608Y18934425D01*
X-3651818Y18927776D01*
X-3640534Y18920522D01*
X-3629756Y18912663D01*
X-3619486Y18904200D01*
X-3609722Y18895133D01*
X-3605031Y18890372D01*
X-3596039Y18880480D01*
X-3587628Y18870146D01*
X-3579797Y18859371D01*
X-3572546Y18848155D01*
X-3565875Y18836498D01*
X-3559785Y18824399D01*
X-3554274Y18811860D01*
X-3549343Y18798879D01*
X-3544993Y18785457D01*
X-3541222Y18771594D01*
X-3538032Y18757290D01*
X-3535421Y18742544D01*
X-3533391Y18727358D01*
X-3531941Y18711730D01*
X-3531433Y18703751D01*
X-3531071Y18695661D01*
X-3530853Y18687461D01*
X-3530781Y18679151D01*
X-3530781Y18673289D01*
X-3623788Y18673289D01*
X-3623788Y18682082D01*
X-3623974Y18693020D01*
X-3624530Y18703706D01*
X-3625458Y18714141D01*
X-3626756Y18724324D01*
X-3628425Y18734254D01*
X-3630465Y18743933D01*
X-3632877Y18753360D01*
X-3635659Y18762535D01*
X-3638812Y18771459D01*
X-3642336Y18780130D01*
X-3646231Y18788550D01*
X-3650496Y18796717D01*
X-3655133Y18804633D01*
X-3660141Y18812297D01*
X-3665520Y18819709D01*
X-3671269Y18826869D01*
X-3677384Y18833683D01*
X-3683906Y18840058D01*
X-3690835Y18845993D01*
X-3698173Y18851489D01*
X-3705917Y18856545D01*
X-3714070Y18861161D01*
X-3722630Y18865337D01*
X-3731597Y18869074D01*
X-3740972Y18872371D01*
X-3750755Y18875229D01*
X-3760945Y18877647D01*
X-3771543Y18879625D01*
X-3782549Y18881164D01*
X-3793962Y18882263D01*
X-3805782Y18882923D01*
X-3818010Y18883143D01*
X-3830322Y18882904D01*
X-3842294Y18882190D01*
X-3853928Y18880999D01*
X-3865223Y18879332D01*
X-3876178Y18877189D01*
X-3886795Y18874570D01*
X-3897073Y18871474D01*
X-3907013Y18867902D01*
X-3916613Y18863853D01*
X-3925874Y18859329D01*
X-3934797Y18854328D01*
X-3943380Y18848851D01*
X-3951625Y18842897D01*
X-3959531Y18836468D01*
X-3967098Y18829562D01*
X-3974326Y18822180D01*
X-3981140Y18814395D01*
X-3987515Y18806234D01*
X-3993450Y18797695D01*
X-3998946Y18788779D01*
X-4004001Y18779487D01*
X-4008618Y18769817D01*
X-4012794Y18759770D01*
X-4016531Y18749346D01*
X-4019828Y18738545D01*
X-4022686Y18727368D01*
X-4025104Y18715813D01*
X-4027082Y18703881D01*
X-4028621Y18691571D01*
X-4029720Y18678885D01*
X-4030380Y18665822D01*
X-4030599Y18652382D01*
X-4030599Y18467734D01*
X-4030380Y18454316D01*
X-4029720Y18441271D01*
X-4028621Y18428597D01*
X-4027082Y18416297D01*
X-4025104Y18404369D01*
X-4022686Y18392813D01*
X-4019828Y18381630D01*
X-4016531Y18370819D01*
X-4012794Y18360380D01*
X-4008618Y18350315D01*
X-4004001Y18340621D01*
X-3998946Y18331300D01*
X-3993450Y18322352D01*
X-3987515Y18313776D01*
X-3981140Y18305572D01*
X-3974326Y18297741D01*
X-3967098Y18290359D01*
X-3959531Y18283453D01*
X-3951625Y18277023D01*
X-3943380Y18271070D01*
X-3934797Y18265593D01*
X-3925874Y18260592D01*
X-3916613Y18256067D01*
X-3907013Y18252019D01*
X-3897073Y18248447D01*
X-3886795Y18245351D01*
X-3876178Y18242732D01*
X-3865223Y18240588D01*
X-3853928Y18238922D01*
X-3842294Y18237731D01*
X-3830322Y18237016D01*
X-3818010Y18236778D01*
X-3805782Y18236999D01*
X-3793962Y18237661D01*
X-3782549Y18238764D01*
X-3771543Y18240308D01*
X-3760945Y18242293D01*
X-3750755Y18244719D01*
X-3740972Y18247587D01*
X-3731597Y18250896D01*
X-3722630Y18254645D01*
X-3714070Y18258836D01*
X-3705917Y18263469D01*
X-3698173Y18268542D01*
X-3690835Y18274057D01*
X-3683906Y18280012D01*
X-3677384Y18286409D01*
X-3671269Y18293247D01*
X-3665520Y18300430D01*
X-3660141Y18307862D01*
X-3655133Y18315543D01*
X-3650496Y18323472D01*
X-3646231Y18331651D01*
X-3642336Y18340078D01*
X-3638812Y18348754D01*
X-3635659Y18357678D01*
X-3632877Y18366852D01*
X-3630465Y18376275D01*
X-3628425Y18385946D01*
X-3626756Y18395866D01*
X-3625458Y18406035D01*
X-3624530Y18416452D01*
X-3623974Y18427119D01*
X-3623788Y18438034D01*
X-3623788Y18455815D01*
X-3530781Y18455815D01*
X-3530781Y18440770D01*
X-3530853Y18432472D01*
X-3531071Y18424284D01*
X-3531433Y18416205D01*
X-3531941Y18408237D01*
X-3532594Y18400378D01*
X-3534334Y18384991D01*
X-3536654Y18370043D01*
X-3539554Y18355535D01*
X-3543035Y18341467D01*
X-3547095Y18327838D01*
X-3551736Y18314649D01*
X-3556957Y18301900D01*
X-3562758Y18289590D01*
X-3569138Y18277719D01*
X-3576099Y18266289D01*
X-3583640Y18255298D01*
X-3591761Y18244747D01*
X-3600463Y18234635D01*
X-3605031Y18229744D01*
X-3614541Y18220374D01*
X-3624558Y18211609D01*
X-3635082Y18203448D01*
X-3646112Y18195892D01*
X-3657650Y18188940D01*
X-3669694Y18182593D01*
X-3682245Y18176850D01*
X-3695303Y18171712D01*
X-3708867Y18167178D01*
X-3722939Y18163249D01*
X-3737517Y18159924D01*
X-3752602Y18157204D01*
X-3768194Y18155088D01*
X-3776180Y18154257D01*
X-3784293Y18153577D01*
X-3792532Y18153048D01*
X-3800898Y18152670D01*
X-3809391Y18152444D01*
X-3818010Y18152368D01*
G37*
G36*
X-3098959Y18152368D02*
G01*
X-3107648Y18152447D01*
X-3116226Y18152685D01*
X-3124693Y18153081D01*
X-3133050Y18153635D01*
X-3141296Y18154348D01*
X-3149431Y18155219D01*
X-3157455Y18156248D01*
X-3165369Y18157436D01*
X-3173172Y18158782D01*
X-3180865Y18160287D01*
X-3195918Y18163771D01*
X-3210528Y18167889D01*
X-3224696Y18172640D01*
X-3238421Y18178025D01*
X-3251703Y18184043D01*
X-3264542Y18190695D01*
X-3276939Y18197980D01*
X-3288893Y18205899D01*
X-3300405Y18214451D01*
X-3311474Y18223637D01*
X-3322100Y18233457D01*
X-3332156Y18243906D01*
X-3341563Y18254932D01*
X-3350321Y18266535D01*
X-3358431Y18278715D01*
X-3365892Y18291472D01*
X-3372704Y18304806D01*
X-3378867Y18318717D01*
X-3384382Y18333205D01*
X-3386896Y18340666D01*
X-3389247Y18348271D01*
X-3391437Y18356020D01*
X-3393464Y18363913D01*
X-3395330Y18371950D01*
X-3397033Y18380132D01*
X-3398574Y18388458D01*
X-3399952Y18396928D01*
X-3401169Y18405543D01*
X-3402223Y18414302D01*
X-3403115Y18423205D01*
X-3403845Y18432252D01*
X-3404412Y18441443D01*
X-3404818Y18450779D01*
X-3405061Y18460259D01*
X-3405142Y18469884D01*
X-3405142Y18650037D01*
X-3405061Y18659673D01*
X-3404818Y18669164D01*
X-3404412Y18678511D01*
X-3403845Y18687712D01*
X-3403115Y18696768D01*
X-3402223Y18705679D01*
X-3401169Y18714445D01*
X-3399952Y18723066D01*
X-3398574Y18731542D01*
X-3397033Y18739873D01*
X-3395330Y18748059D01*
X-3393464Y18756100D01*
X-3391437Y18763996D01*
X-3389247Y18771746D01*
X-3386896Y18779352D01*
X-3384382Y18786813D01*
X-3378867Y18801300D01*
X-3372704Y18815206D01*
X-3365892Y18828533D01*
X-3358431Y18841279D01*
X-3350321Y18853446D01*
X-3341563Y18865032D01*
X-3332156Y18876038D01*
X-3322100Y18886464D01*
X-3311474Y18896307D01*
X-3300405Y18905515D01*
X-3288893Y18914088D01*
X-3276939Y18922026D01*
X-3264542Y18929329D01*
X-3251703Y18935997D01*
X-3238421Y18942030D01*
X-3224696Y18947427D01*
X-3210528Y18952190D01*
X-3195918Y18956318D01*
X-3180865Y18959810D01*
X-3173172Y18961319D01*
X-3165369Y18962668D01*
X-3157455Y18963859D01*
X-3149431Y18964891D01*
X-3141296Y18965764D01*
X-3133050Y18966478D01*
X-3124693Y18967034D01*
X-3116226Y18967431D01*
X-3107648Y18967669D01*
X-3098959Y18967748D01*
X-3090340Y18967673D01*
X-3081847Y18967446D01*
X-3073481Y18967068D01*
X-3065242Y18966539D01*
X-3057129Y18965859D01*
X-3049143Y18965028D01*
X-3041284Y18964046D01*
X-3025945Y18961628D01*
X-3011114Y18958605D01*
X-2996789Y18954978D01*
X-2982971Y18950747D01*
X-2969660Y18945911D01*
X-2956855Y18940470D01*
X-2944558Y18934425D01*
X-2932767Y18927776D01*
X-2921483Y18920522D01*
X-2910705Y18912663D01*
X-2900435Y18904200D01*
X-2890671Y18895133D01*
X-2885980Y18890372D01*
X-2876989Y18880480D01*
X-2868577Y18870146D01*
X-2860746Y18859371D01*
X-2853495Y18848155D01*
X-2846825Y18836498D01*
X-2840734Y18824399D01*
X-2835223Y18811860D01*
X-2830292Y18798879D01*
X-2825942Y18785457D01*
X-2822171Y18771594D01*
X-2818981Y18757290D01*
X-2816370Y18742544D01*
X-2814340Y18727358D01*
X-2812890Y18711730D01*
X-2812382Y18703751D01*
X-2812020Y18695661D01*
X-2811802Y18687461D01*
X-2811730Y18679151D01*
X-2811730Y18673289D01*
X-2904738Y18673289D01*
X-2904738Y18682082D01*
X-2904923Y18693020D01*
X-2905479Y18703706D01*
X-2906407Y18714141D01*
X-2907705Y18724324D01*
X-2909374Y18734254D01*
X-2911415Y18743933D01*
X-2913826Y18753360D01*
X-2916608Y18762535D01*
X-2919761Y18771459D01*
X-2923285Y18780130D01*
X-2927180Y18788550D01*
X-2931446Y18796717D01*
X-2936082Y18804633D01*
X-2941090Y18812297D01*
X-2946469Y18819709D01*
X-2952218Y18826869D01*
X-2958333Y18833683D01*
X-2964855Y18840058D01*
X-2971785Y18845993D01*
X-2979122Y18851489D01*
X-2986867Y18856545D01*
X-2995019Y18861161D01*
X-3003579Y18865337D01*
X-3012546Y18869074D01*
X-3021921Y18872371D01*
X-3031704Y18875229D01*
X-3041894Y18877647D01*
X-3052492Y18879625D01*
X-3063498Y18881164D01*
X-3074911Y18882263D01*
X-3086731Y18882923D01*
X-3098959Y18883143D01*
X-3111271Y18882904D01*
X-3123243Y18882190D01*
X-3134877Y18880999D01*
X-3146172Y18879332D01*
X-3157127Y18877189D01*
X-3167744Y18874570D01*
X-3178022Y18871474D01*
X-3187962Y18867902D01*
X-3197562Y18863853D01*
X-3206823Y18859329D01*
X-3215746Y18854328D01*
X-3224329Y18848851D01*
X-3232574Y18842897D01*
X-3240480Y18836468D01*
X-3248047Y18829562D01*
X-3255275Y18822180D01*
X-3262089Y18814395D01*
X-3268464Y18806234D01*
X-3274399Y18797695D01*
X-3279895Y18788779D01*
X-3284950Y18779487D01*
X-3289567Y18769817D01*
X-3293743Y18759770D01*
X-3297480Y18749346D01*
X-3300777Y18738545D01*
X-3303635Y18727368D01*
X-3306053Y18715813D01*
X-3308031Y18703881D01*
X-3309570Y18691571D01*
X-3310669Y18678885D01*
X-3311329Y18665822D01*
X-3311548Y18652382D01*
X-3311548Y18467734D01*
X-3311329Y18454316D01*
X-3310669Y18441271D01*
X-3309570Y18428597D01*
X-3308031Y18416297D01*
X-3306053Y18404369D01*
X-3303635Y18392813D01*
X-3300777Y18381630D01*
X-3297480Y18370819D01*
X-3293743Y18360380D01*
X-3289567Y18350315D01*
X-3284950Y18340621D01*
X-3279895Y18331300D01*
X-3274399Y18322352D01*
X-3268464Y18313776D01*
X-3262089Y18305572D01*
X-3255275Y18297741D01*
X-3248047Y18290359D01*
X-3240480Y18283453D01*
X-3232574Y18277023D01*
X-3224329Y18271070D01*
X-3215746Y18265593D01*
X-3206823Y18260592D01*
X-3197562Y18256067D01*
X-3187962Y18252019D01*
X-3178022Y18248447D01*
X-3167744Y18245351D01*
X-3157127Y18242732D01*
X-3146172Y18240588D01*
X-3134877Y18238922D01*
X-3123243Y18237731D01*
X-3111271Y18237016D01*
X-3098959Y18236778D01*
X-3086731Y18236999D01*
X-3074911Y18237661D01*
X-3063498Y18238764D01*
X-3052492Y18240308D01*
X-3041894Y18242293D01*
X-3031704Y18244719D01*
X-3021921Y18247587D01*
X-3012546Y18250896D01*
X-3003579Y18254645D01*
X-2995019Y18258836D01*
X-2986867Y18263469D01*
X-2979122Y18268542D01*
X-2971785Y18274057D01*
X-2964855Y18280012D01*
X-2958333Y18286409D01*
X-2952218Y18293247D01*
X-2946469Y18300430D01*
X-2941090Y18307862D01*
X-2936082Y18315543D01*
X-2931446Y18323472D01*
X-2927180Y18331651D01*
X-2923285Y18340078D01*
X-2919761Y18348754D01*
X-2916608Y18357678D01*
X-2913826Y18366852D01*
X-2911415Y18376275D01*
X-2909374Y18385946D01*
X-2907705Y18395866D01*
X-2906407Y18406035D01*
X-2905479Y18416452D01*
X-2904923Y18427119D01*
X-2904738Y18438034D01*
X-2904738Y18455815D01*
X-2811730Y18455815D01*
X-2811730Y18440770D01*
X-2811802Y18432472D01*
X-2812020Y18424284D01*
X-2812382Y18416205D01*
X-2812890Y18408237D01*
X-2813543Y18400378D01*
X-2815283Y18384991D01*
X-2817603Y18370043D01*
X-2820504Y18355535D01*
X-2823984Y18341467D01*
X-2828045Y18327838D01*
X-2832685Y18314649D01*
X-2837906Y18301900D01*
X-2843707Y18289590D01*
X-2850087Y18277719D01*
X-2857048Y18266289D01*
X-2864589Y18255298D01*
X-2872710Y18244747D01*
X-2881412Y18234635D01*
X-2885980Y18229744D01*
X-2895490Y18220374D01*
X-2905507Y18211609D01*
X-2916031Y18203448D01*
X-2927061Y18195892D01*
X-2938599Y18188940D01*
X-2950643Y18182593D01*
X-2963194Y18176850D01*
X-2976252Y18171712D01*
X-2989817Y18167178D01*
X-3003888Y18163249D01*
X-3018466Y18159924D01*
X-3033551Y18157204D01*
X-3049143Y18155088D01*
X-3057129Y18154257D01*
X-3065242Y18153577D01*
X-3073481Y18153048D01*
X-3081847Y18152670D01*
X-3090340Y18152444D01*
X-3098959Y18152368D01*
G37*
D11*
G36*
X1361302Y4031121D02*
G01*
X1375580Y4030579D01*
X1389481Y4029496D01*
X1403005Y4027872D01*
X1416152Y4025706D01*
X1428922Y4022999D01*
X1441315Y4019751D01*
X1453332Y4015961D01*
X1464972Y4011629D01*
X1481725Y4004117D01*
X1497630Y3995386D01*
X1512687Y3985437D01*
X1526896Y3974270D01*
X1540257Y3961885D01*
X1548649Y3953003D01*
X1556500Y3943609D01*
X1563809Y3933702D01*
X1570577Y3923283D01*
X1576804Y3912350D01*
X1582489Y3900905D01*
X1587633Y3888947D01*
X1592235Y3876476D01*
X1596296Y3863492D01*
X1599815Y3849996D01*
X1602793Y3835986D01*
X1605229Y3821464D01*
X1607124Y3806429D01*
X1608478Y3790881D01*
X1609290Y3774821D01*
X1609561Y3758247D01*
X1609561Y3432793D01*
X1609318Y3416394D01*
X1608588Y3400474D01*
X1607371Y3385034D01*
X1605668Y3370073D01*
X1603479Y3355591D01*
X1600802Y3341589D01*
X1597640Y3328066D01*
X1593990Y3315023D01*
X1589854Y3302459D01*
X1585232Y3290374D01*
X1580123Y3278769D01*
X1574527Y3267643D01*
X1568445Y3256997D01*
X1558409Y3241927D01*
X1547279Y3227935D01*
X1543338Y3223521D01*
X1530702Y3211119D01*
X1516848Y3199979D01*
X1501776Y3190100D01*
X1491051Y3184214D01*
X1479784Y3178889D01*
X1467976Y3174125D01*
X1455627Y3169921D01*
X1442736Y3166278D01*
X1429304Y3163195D01*
X1415331Y3160673D01*
X1400816Y3158711D01*
X1385759Y3157309D01*
X1370161Y3156469D01*
X1354022Y3156188D01*
X1338318Y3156458D01*
X1323110Y3157267D01*
X1308398Y3158614D01*
X1294182Y3160501D01*
X1280463Y3162927D01*
X1267239Y3165891D01*
X1254512Y3169395D01*
X1242281Y3173438D01*
X1230546Y3178020D01*
X1219307Y3183141D01*
X1203378Y3191833D01*
X1188566Y3201738D01*
X1174871Y3212856D01*
X1162291Y3225187D01*
X1150888Y3238788D01*
X1140606Y3253602D01*
X1134375Y3264151D01*
X1128642Y3275240D01*
X1123408Y3286868D01*
X1118672Y3299035D01*
X1114435Y3311741D01*
X1110696Y3324986D01*
X1107456Y3338770D01*
X1104714Y3353093D01*
X1102471Y3367955D01*
X1100726Y3383356D01*
X1099480Y3399296D01*
X1098732Y3415775D01*
X1098483Y3432793D01*
X1098483Y3758247D01*
X1098746Y3774203D01*
X1099537Y3789708D01*
X1100855Y3804762D01*
X1102700Y3819365D01*
X1105072Y3833518D01*
X1107971Y3847219D01*
X1111397Y3860470D01*
X1115351Y3873270D01*
X1119831Y3885619D01*
X1124839Y3897518D01*
X1130374Y3908966D01*
X1136436Y3919963D01*
X1143025Y3930509D01*
X1150141Y3940604D01*
X1157784Y3950248D01*
X1165955Y3959442D01*
X1170224Y3963856D01*
X1183653Y3976258D01*
X1198016Y3987398D01*
X1213313Y3997277D01*
X1224029Y4003163D01*
X1235161Y4008487D01*
X1246708Y4013252D01*
X1258669Y4017456D01*
X1271046Y4021099D01*
X1283838Y4024182D01*
X1297044Y4026704D01*
X1310666Y4028666D01*
X1324703Y4030067D01*
X1339155Y4030908D01*
X1354022Y4031188D01*
X1361302Y4031121D01*
G37*
G36*
X2474485Y3593663D02*
G01*
X2487981Y3593278D01*
X2501118Y3592432D01*
X2513895Y3591124D01*
X2526313Y3589355D01*
X2538371Y3587124D01*
X2553889Y3583432D01*
X2568767Y3578919D01*
X2583007Y3573586D01*
X2596607Y3567432D01*
X2609578Y3560539D01*
X2621776Y3552988D01*
X2633201Y3544778D01*
X2643853Y3535910D01*
X2653732Y3526383D01*
X2662839Y3516199D01*
X2671173Y3505356D01*
X2678734Y3493854D01*
X2685532Y3481823D01*
X2691423Y3469239D01*
X2696408Y3456101D01*
X2700487Y3442411D01*
X2703659Y3428166D01*
X2705925Y3413369D01*
X2707285Y3398017D01*
X2707738Y3382113D01*
X2707738Y3368069D01*
X2707488Y3356197D01*
X2706180Y3338948D01*
X2703750Y3322369D01*
X2700198Y3306461D01*
X2695524Y3291224D01*
X2689729Y3276658D01*
X2682813Y3262763D01*
X2674774Y3249539D01*
X2665614Y3236985D01*
X2655333Y3225103D01*
X2643929Y3213891D01*
X2639896Y3210341D01*
X2627252Y3200367D01*
X2613793Y3191407D01*
X2599517Y3183462D01*
X2584426Y3176531D01*
X2568519Y3170614D01*
X2551797Y3165712D01*
X2534259Y3161823D01*
X2522113Y3159795D01*
X2509605Y3158217D01*
X2496735Y3157090D01*
X2483502Y3156414D01*
X2469906Y3156188D01*
X2456310Y3156414D01*
X2443073Y3157090D01*
X2430197Y3158217D01*
X2417680Y3159795D01*
X2399581Y3163007D01*
X2382293Y3167233D01*
X2365814Y3172474D01*
X2350146Y3178728D01*
X2335289Y3185998D01*
X2321241Y3194281D01*
X2308004Y3203579D01*
X2295578Y3213891D01*
X2287851Y3221291D01*
X2277196Y3232950D01*
X2267662Y3245280D01*
X2259250Y3258281D01*
X2251959Y3271952D01*
X2245790Y3286295D01*
X2240743Y3301308D01*
X2236817Y3316992D01*
X2234013Y3333347D01*
X2232330Y3350373D01*
X2231770Y3368069D01*
X2231770Y3382113D01*
X2232218Y3398017D01*
X2233563Y3413369D01*
X2235805Y3428166D01*
X2238944Y3442411D01*
X2242980Y3456101D01*
X2247912Y3469239D01*
X2253742Y3481823D01*
X2260468Y3493854D01*
X2268115Y3505356D01*
X2276554Y3516199D01*
X2285784Y3526383D01*
X2295807Y3535910D01*
X2306621Y3544778D01*
X2318228Y3552988D01*
X2330626Y3560539D01*
X2343816Y3567432D01*
X2347229Y3569048D01*
X2361223Y3574996D01*
X2375761Y3580124D01*
X2390842Y3584432D01*
X2406468Y3587919D01*
X2418544Y3589996D01*
X2430926Y3591612D01*
X2443613Y3592765D01*
X2456607Y3593458D01*
X2469906Y3593688D01*
X2474485Y3593663D01*
G37*
G36*
X3110402Y2778254D02*
G01*
X-3120169Y2778254D01*
X-3120169Y3380281D01*
X-2941598Y3380281D01*
X-2941360Y3363792D01*
X-2940644Y3347604D01*
X-2939452Y3331717D01*
X-2937782Y3316129D01*
X-2935635Y3300843D01*
X-2933012Y3285857D01*
X-2929911Y3271171D01*
X-2926333Y3256786D01*
X-2922278Y3242701D01*
X-2917746Y3228917D01*
X-2912738Y3215434D01*
X-2907252Y3202251D01*
X-2901289Y3189369D01*
X-2894849Y3176787D01*
X-2887932Y3164506D01*
X-2880538Y3152525D01*
X-2872683Y3140903D01*
X-2864461Y3129622D01*
X-2855872Y3118683D01*
X-2846916Y3108084D01*
X-2837592Y3097827D01*
X-2827901Y3087910D01*
X-2817843Y3078335D01*
X-2807417Y3069101D01*
X-2796624Y3060207D01*
X-2785464Y3051655D01*
X-2773937Y3043444D01*
X-2762042Y3035574D01*
X-2749779Y3028046D01*
X-2737150Y3020858D01*
X-2724153Y3014011D01*
X-2710789Y3007506D01*
X-2697074Y3001369D01*
X-2683102Y2995627D01*
X-2668872Y2990282D01*
X-2654384Y2985333D01*
X-2639639Y2980780D01*
X-2624636Y2976622D01*
X-2609376Y2972861D01*
X-2593858Y2969495D01*
X-2578082Y2966526D01*
X-2562049Y2963952D01*
X-2545758Y2961774D01*
X-2529210Y2959993D01*
X-2512404Y2958607D01*
X-2495340Y2957617D01*
X-2478019Y2957023D01*
X-2460440Y2956825D01*
X-2442879Y2957012D01*
X-2425611Y2957574D01*
X-2408637Y2958510D01*
X-2391956Y2959821D01*
X-2375569Y2961506D01*
X-2359475Y2963566D01*
X-2343674Y2966000D01*
X-2328167Y2968808D01*
X-2312953Y2971991D01*
X-2298033Y2975549D01*
X-2283406Y2979481D01*
X-2269072Y2983787D01*
X-2255031Y2988468D01*
X-2241284Y2993524D01*
X-2227831Y2998954D01*
X-2214671Y3004758D01*
X-2201805Y3010931D01*
X-2189311Y3017390D01*
X-2177190Y3024135D01*
X-2165440Y3031167D01*
X-2154063Y3038484D01*
X-2143058Y3046088D01*
X-2132425Y3053979D01*
X-2122164Y3062155D01*
X-2112275Y3070618D01*
X-2102758Y3079366D01*
X-2093613Y3088402D01*
X-2084840Y3097723D01*
X-2076440Y3107330D01*
X-2068411Y3117224D01*
X-2060755Y3127404D01*
X-2053470Y3137870D01*
X-2046594Y3148586D01*
X-2040161Y3159513D01*
X-2034172Y3170653D01*
X-2028626Y3182006D01*
X-2023524Y3193570D01*
X-2018866Y3205347D01*
X-2014651Y3217336D01*
X-2010880Y3229538D01*
X-2007553Y3241951D01*
X-2004669Y3254577D01*
X-2002229Y3267416D01*
X-2000233Y3280466D01*
X-1998680Y3293729D01*
X-1997571Y3307204D01*
X-1996906Y3320891D01*
X-1996684Y3334791D01*
X-1996896Y3348639D01*
X-1997533Y3362173D01*
X-1998594Y3375392D01*
X-2000080Y3388295D01*
X-2001991Y3400884D01*
X-2004326Y3413159D01*
X-2007086Y3425118D01*
X-2012021Y3442467D01*
X-2017912Y3459107D01*
X-2024758Y3475039D01*
X-2032559Y3490262D01*
X-2041316Y3504777D01*
X-2051028Y3518584D01*
X-2057951Y3527442D01*
X-2068966Y3540319D01*
X-2080738Y3552701D01*
X-2093266Y3564590D01*
X-2106551Y3575986D01*
X-2120593Y3586887D01*
X-2135392Y3597295D01*
X-2145678Y3603959D01*
X-2156300Y3610404D01*
X-2167259Y3616629D01*
X-2178554Y3622635D01*
X-2190185Y3628421D01*
X-2202153Y3633989D01*
X-2214422Y3639385D01*
X-2226959Y3644660D01*
X-2239763Y3649813D01*
X-2252833Y3654845D01*
X-2266171Y3659754D01*
X-2279777Y3664543D01*
X-2293649Y3669209D01*
X-2307788Y3673754D01*
X-2322195Y3678178D01*
X-2336868Y3682479D01*
X-2351809Y3686659D01*
X-2367017Y3690718D01*
X-2382492Y3694654D01*
X-2398234Y3698470D01*
X-2414244Y3702163D01*
X-2430520Y3705735D01*
X-2470820Y3714589D01*
X-2484385Y3717556D01*
X-2497489Y3720621D01*
X-2510131Y3723782D01*
X-2522312Y3727039D01*
X-2537834Y3731533D01*
X-2552537Y3736198D01*
X-2566418Y3741036D01*
X-2579480Y3746044D01*
X-2591720Y3751225D01*
X-2600332Y3755266D01*
X-2611180Y3760938D01*
X-2623720Y3768484D01*
X-2635127Y3776537D01*
X-2645401Y3785097D01*
X-2654543Y3794164D01*
X-2662551Y3803737D01*
X-2663997Y3805716D01*
X-2671711Y3818167D01*
X-2676876Y3829297D01*
X-2680894Y3841113D01*
X-2683763Y3853614D01*
X-2685485Y3866801D01*
X-2686059Y3880674D01*
X-2686011Y3884920D01*
X-2685282Y3897318D01*
X-2682949Y3913055D01*
X-2679061Y3927886D01*
X-2673618Y3941811D01*
X-2666620Y3954829D01*
X-2658067Y3966941D01*
X-2647958Y3978147D01*
X-2636295Y3988446D01*
X-2633131Y3990869D01*
X-2622990Y3997677D01*
X-2611879Y4003792D01*
X-2599795Y4009215D01*
X-2586741Y4013946D01*
X-2572715Y4017984D01*
X-2557718Y4021330D01*
X-2541750Y4023984D01*
X-2524810Y4025946D01*
X-2506899Y4027215D01*
X-2494418Y4027676D01*
X-2481506Y4027830D01*
X-2472805Y4027751D01*
X-2460039Y4027338D01*
X-2447617Y4026571D01*
X-2431589Y4024997D01*
X-2416171Y4022793D01*
X-2401364Y4019959D01*
X-2387167Y4016496D01*
X-2373581Y4012403D01*
X-2360606Y4007680D01*
X-2348303Y4002285D01*
X-2336735Y3996174D01*
X-2325901Y3989348D01*
X-2315802Y3981806D01*
X-2306438Y3973548D01*
X-2297809Y3964575D01*
X-2289914Y3954886D01*
X-2282753Y3944482D01*
X-2279463Y3939033D01*
X-2273519Y3927499D01*
X-2268424Y3915115D01*
X-2264179Y3901882D01*
X-2260782Y3887800D01*
X-2258235Y3872868D01*
X-2256536Y3857088D01*
X-2255820Y3844695D01*
X-2255581Y3831825D01*
X-2255581Y3779313D01*
X-2028130Y3779313D01*
X-2028130Y3831825D01*
X-2028359Y3848252D01*
X-2029046Y3864331D01*
X-2030191Y3880061D01*
X-2031794Y3895443D01*
X-2033854Y3910477D01*
X-2036373Y3925162D01*
X-2039350Y3939500D01*
X-2042785Y3953489D01*
X-2046677Y3967130D01*
X-2051028Y3980422D01*
X-2055836Y3993367D01*
X-2061103Y4005963D01*
X-2066827Y4018211D01*
X-2073010Y4030110D01*
X-2079650Y4041662D01*
X-2086748Y4052865D01*
X-2094247Y4063761D01*
X-2102090Y4074313D01*
X-2110276Y4084521D01*
X-2118805Y4094386D01*
X-2127678Y4103908D01*
X-2136894Y4113086D01*
X-2146454Y4121921D01*
X-2156358Y4130412D01*
X-2166604Y4138560D01*
X-2177195Y4146364D01*
X-2188128Y4153825D01*
X-2199405Y4160942D01*
X-2211026Y4167716D01*
X-2222990Y4174147D01*
X-2235298Y4180234D01*
X-2247949Y4185977D01*
X-2260847Y4191412D01*
X-2273971Y4196496D01*
X-2287322Y4201229D01*
X-2300900Y4205612D01*
X-2302663Y4206127D01*
X-1825714Y4206127D01*
X-1825714Y2981250D01*
X-1594599Y2981250D01*
X-1594599Y3490496D01*
X-1139697Y3490496D01*
X-1139697Y2981250D01*
X-908582Y2981250D01*
X-908582Y3653223D01*
X-772111Y3653223D01*
X-537638Y3653223D01*
X-373079Y4041874D01*
X-341633Y4041874D01*
X-341633Y2981250D01*
X-117540Y2981250D01*
X-117540Y3653223D01*
X18013Y3653223D01*
X252487Y3653223D01*
X417045Y4041874D01*
X448491Y4041874D01*
X448491Y2981250D01*
X672584Y2981250D01*
X672584Y3439815D01*
X874695Y3439815D01*
X874755Y3432793D01*
X874823Y3424728D01*
X875207Y3409881D01*
X875846Y3395276D01*
X876742Y3380911D01*
X877893Y3366787D01*
X879300Y3352904D01*
X880963Y3339262D01*
X882881Y3325861D01*
X885056Y3312701D01*
X887486Y3299781D01*
X890172Y3287103D01*
X893114Y3274665D01*
X896311Y3262469D01*
X899765Y3250513D01*
X907439Y3227324D01*
X916137Y3205099D01*
X925857Y3183837D01*
X936601Y3163540D01*
X948369Y3144205D01*
X961159Y3125835D01*
X974973Y3108428D01*
X989810Y3091984D01*
X1005670Y3076504D01*
X1013959Y3069141D01*
X1031040Y3055116D01*
X1048790Y3042026D01*
X1067211Y3029871D01*
X1086302Y3018652D01*
X1106063Y3008367D01*
X1126495Y2999017D01*
X1147596Y2990602D01*
X1169368Y2983122D01*
X1191810Y2976577D01*
X1214923Y2970967D01*
X1238706Y2966292D01*
X1250848Y2964305D01*
X1263158Y2962552D01*
X1275636Y2961033D01*
X1288282Y2959747D01*
X1301095Y2958695D01*
X1314075Y2957877D01*
X1327223Y2957293D01*
X1340539Y2956942D01*
X1354022Y2956825D01*
X1367617Y2956942D01*
X1381039Y2957293D01*
X1394288Y2957877D01*
X1407364Y2958695D01*
X1420267Y2959747D01*
X1432998Y2961033D01*
X1445555Y2962552D01*
X1457939Y2964305D01*
X1470151Y2966292D01*
X1482190Y2968513D01*
X1505748Y2973655D01*
X1528615Y2979733D01*
X1550790Y2986745D01*
X1572273Y2994692D01*
X1593065Y3003575D01*
X1613165Y3013392D01*
X1632573Y3024145D01*
X1651290Y3035832D01*
X1669314Y3048454D01*
X1686648Y3062012D01*
X1703289Y3076504D01*
X1711310Y3084124D01*
X1726587Y3100085D01*
X1740845Y3117011D01*
X1754085Y3134899D01*
X1766307Y3153752D01*
X1777510Y3173568D01*
X1787695Y3194348D01*
X1796861Y3216091D01*
X1805009Y3238798D01*
X1808701Y3250513D01*
X1812138Y3262469D01*
X1815321Y3274665D01*
X1818249Y3287103D01*
X1820923Y3299781D01*
X1823342Y3312701D01*
X1825506Y3325861D01*
X1827416Y3339262D01*
X1829071Y3352904D01*
X1830471Y3366787D01*
X1830575Y3368069D01*
X2007982Y3368069D01*
X2008200Y3353066D01*
X2008855Y3338283D01*
X2009946Y3323719D01*
X2011474Y3309375D01*
X2013438Y3295249D01*
X2015839Y3281344D01*
X2018676Y3267658D01*
X2021950Y3254191D01*
X2025660Y3240944D01*
X2029806Y3227916D01*
X2034390Y3215107D01*
X2039409Y3202518D01*
X2044865Y3190149D01*
X2050758Y3177999D01*
X2057087Y3166068D01*
X2063853Y3154357D01*
X2071021Y3142949D01*
X2078560Y3131855D01*
X2086468Y3121073D01*
X2094745Y3110603D01*
X2103393Y3100445D01*
X2112410Y3090601D01*
X2121797Y3081068D01*
X2131554Y3071848D01*
X2141680Y3062941D01*
X2152176Y3054346D01*
X2163042Y3046063D01*
X2174277Y3038093D01*
X2185882Y3030436D01*
X2197857Y3023090D01*
X2210201Y3016058D01*
X2222916Y3009337D01*
X2235995Y3002979D01*
X2249358Y2997030D01*
X2263005Y2991491D01*
X2276935Y2986363D01*
X2291150Y2981645D01*
X2305648Y2977338D01*
X2320430Y2973440D01*
X2335496Y2969953D01*
X2350846Y2966876D01*
X2366480Y2964210D01*
X2382397Y2961953D01*
X2398599Y2960107D01*
X2415084Y2958671D01*
X2431853Y2957646D01*
X2448906Y2957030D01*
X2466243Y2956825D01*
X2483622Y2957027D01*
X2500728Y2957631D01*
X2517559Y2958639D01*
X2534115Y2960050D01*
X2550398Y2961864D01*
X2566406Y2964081D01*
X2582140Y2966701D01*
X2597599Y2969724D01*
X2612785Y2973151D01*
X2627696Y2976980D01*
X2642332Y2981213D01*
X2656695Y2985848D01*
X2670783Y2990887D01*
X2684597Y2996329D01*
X2698136Y3002174D01*
X2711401Y3008422D01*
X2724345Y3015028D01*
X2736918Y3021950D01*
X2749122Y3029187D01*
X2760956Y3036738D01*
X2772420Y3044605D01*
X2783515Y3052786D01*
X2794240Y3061282D01*
X2804595Y3070093D01*
X2814581Y3079219D01*
X2824197Y3088659D01*
X2833443Y3098415D01*
X2842319Y3108485D01*
X2850826Y3118870D01*
X2858963Y3129570D01*
X2866731Y3140585D01*
X2874128Y3151914D01*
X2881116Y3163513D01*
X2887652Y3175337D01*
X2893738Y3187384D01*
X2899373Y3199656D01*
X2904557Y3212152D01*
X2909291Y3224872D01*
X2913573Y3237817D01*
X2917405Y3250985D01*
X2920786Y3264378D01*
X2923716Y3277995D01*
X2926196Y3291836D01*
X2928224Y3305902D01*
X2929802Y3320191D01*
X2930929Y3334705D01*
X2931605Y3349443D01*
X2931831Y3364405D01*
X2931831Y3385471D01*
X2931611Y3400635D01*
X2930953Y3415520D01*
X2929856Y3430126D01*
X2928320Y3444452D01*
X2926345Y3458500D01*
X2923931Y3472268D01*
X2921078Y3485758D01*
X2917787Y3498968D01*
X2914056Y3511899D01*
X2909887Y3524551D01*
X2905279Y3536925D01*
X2900232Y3549019D01*
X2894746Y3560834D01*
X2888821Y3572370D01*
X2882457Y3583627D01*
X2875655Y3594604D01*
X2868537Y3605282D01*
X2861153Y3615637D01*
X2853501Y3625670D01*
X2845582Y3635381D01*
X2837396Y3644771D01*
X2828943Y3653838D01*
X2820223Y3662583D01*
X2811236Y3671007D01*
X2801981Y3679108D01*
X2792459Y3686887D01*
X2782671Y3694344D01*
X2772615Y3701480D01*
X2762292Y3708293D01*
X2751701Y3714784D01*
X2740844Y3720954D01*
X2729720Y3726801D01*
X2718396Y3732309D01*
X2706941Y3737463D01*
X2695355Y3742260D01*
X2683638Y3746703D01*
X2671789Y3750790D01*
X2659810Y3754521D01*
X2647699Y3757898D01*
X2635457Y3760918D01*
X2623084Y3763584D01*
X2610580Y3765894D01*
X2597944Y3767849D01*
X2585177Y3769448D01*
X2572280Y3770692D01*
X2559251Y3771580D01*
X2546090Y3772113D01*
X2532799Y3772291D01*
X2525526Y3772260D01*
X2511308Y3772015D01*
X2497526Y3771523D01*
X2484181Y3770786D01*
X2471273Y3769804D01*
X2458801Y3768575D01*
X2440911Y3766272D01*
X2424003Y3763416D01*
X2408078Y3760007D01*
X2393134Y3756046D01*
X2379173Y3751532D01*
X2366193Y3746465D01*
X2354196Y3740845D01*
X2343021Y3734916D01*
X2328972Y3726912D01*
X2315897Y3718793D01*
X2303794Y3710559D01*
X2292665Y3702211D01*
X2282509Y3693748D01*
X2273326Y3685171D01*
X2263216Y3674289D01*
X2231770Y3674289D01*
X2231770Y3800379D01*
X2232019Y3813742D01*
X2232767Y3826735D01*
X2234013Y3839359D01*
X2235758Y3851613D01*
X2239309Y3869300D01*
X2243983Y3886156D01*
X2249778Y3902180D01*
X2256695Y3917372D01*
X2264733Y3931733D01*
X2273893Y3945261D01*
X2284175Y3957958D01*
X2295578Y3969822D01*
X2308066Y3980789D01*
X2321488Y3990677D01*
X2335844Y3999487D01*
X2351134Y4007217D01*
X2367357Y4013869D01*
X2384514Y4019443D01*
X2396471Y4022559D01*
X2408843Y4025196D01*
X2421630Y4027353D01*
X2434832Y4029031D01*
X2448449Y4030230D01*
X2462481Y4030949D01*
X2476928Y4031188D01*
X2484303Y4031135D01*
X2498653Y4030711D01*
X2512468Y4029862D01*
X2525748Y4028588D01*
X2538495Y4026890D01*
X2550707Y4024767D01*
X2568023Y4020787D01*
X2584138Y4015851D01*
X2599050Y4009960D01*
X2612760Y4003114D01*
X2625268Y3995313D01*
X2636573Y3986556D01*
X2646677Y3976844D01*
X2652814Y3970013D01*
X2661277Y3959480D01*
X2668850Y3948604D01*
X2675531Y3937384D01*
X2681322Y3925821D01*
X2686222Y3913914D01*
X2690230Y3901663D01*
X2693349Y3889070D01*
X2695576Y3876132D01*
X2696912Y3862852D01*
X2697357Y3849228D01*
X2924809Y3849228D01*
X2924593Y3863981D01*
X2923945Y3878475D01*
X2922866Y3892708D01*
X2921355Y3906682D01*
X2919412Y3920395D01*
X2917038Y3933849D01*
X2914231Y3947043D01*
X2910994Y3959976D01*
X2907324Y3972650D01*
X2903223Y3985064D01*
X2898690Y3997217D01*
X2893725Y4009111D01*
X2888328Y4020745D01*
X2882500Y4032119D01*
X2876240Y4043232D01*
X2869549Y4054086D01*
X2862500Y4064653D01*
X2855094Y4074904D01*
X2847331Y4084841D01*
X2839209Y4094463D01*
X2830730Y4103770D01*
X2821893Y4112762D01*
X2812698Y4121439D01*
X2803145Y4129801D01*
X2793235Y4137849D01*
X2782966Y4145582D01*
X2772340Y4153000D01*
X2761357Y4160103D01*
X2750015Y4166891D01*
X2738316Y4173364D01*
X2726259Y4179523D01*
X2713844Y4185367D01*
X2701147Y4190875D01*
X2688170Y4196029D01*
X2674910Y4200826D01*
X2661370Y4205269D01*
X2647548Y4209356D01*
X2633444Y4213087D01*
X2619059Y4216464D01*
X2604392Y4219484D01*
X2589445Y4222150D01*
X2574215Y4224460D01*
X2558704Y4226415D01*
X2542912Y4228014D01*
X2526838Y4229258D01*
X2510483Y4230146D01*
X2493846Y4230679D01*
X2476928Y4230857D01*
X2459989Y4230665D01*
X2443288Y4230089D01*
X2426825Y4229129D01*
X2410601Y4227785D01*
X2394616Y4226057D01*
X2378869Y4223945D01*
X2363360Y4221449D01*
X2348090Y4218568D01*
X2333059Y4215304D01*
X2318266Y4211656D01*
X2303711Y4207624D01*
X2289396Y4203208D01*
X2275318Y4198408D01*
X2261479Y4193224D01*
X2247879Y4187655D01*
X2234517Y4181703D01*
X2221452Y4175401D01*
X2208743Y4168709D01*
X2196389Y4161625D01*
X2184390Y4154149D01*
X2172747Y4146283D01*
X2161459Y4138026D01*
X2150527Y4129377D01*
X2139949Y4120337D01*
X2129728Y4110906D01*
X2119861Y4101084D01*
X2110351Y4090871D01*
X2101195Y4080266D01*
X2092395Y4069270D01*
X2083950Y4057883D01*
X2075861Y4046105D01*
X2068127Y4033936D01*
X2060844Y4021377D01*
X2054030Y4008429D01*
X2047687Y3995092D01*
X2041813Y3981367D01*
X2036410Y3967252D01*
X2031476Y3952749D01*
X2027012Y3937857D01*
X2023018Y3922577D01*
X2019494Y3906907D01*
X2016440Y3890849D01*
X2013856Y3874402D01*
X2011741Y3857566D01*
X2010096Y3840342D01*
X2008922Y3822728D01*
X2008217Y3804726D01*
X2007982Y3786335D01*
X2007982Y3368069D01*
X1830575Y3368069D01*
X1831617Y3380911D01*
X1832508Y3395276D01*
X1833144Y3409881D01*
X1833526Y3424728D01*
X1833654Y3439815D01*
X1833654Y3747867D01*
X1833526Y3762507D01*
X1833144Y3776927D01*
X1832508Y3791127D01*
X1831617Y3805106D01*
X1830471Y3818866D01*
X1829071Y3832406D01*
X1827416Y3845726D01*
X1825506Y3858825D01*
X1823342Y3871705D01*
X1820923Y3884365D01*
X1818249Y3896804D01*
X1815321Y3909024D01*
X1812138Y3921024D01*
X1808701Y3932803D01*
X1801063Y3955702D01*
X1792405Y3977721D01*
X1782730Y3998860D01*
X1772036Y4019118D01*
X1760324Y4038497D01*
X1747593Y4056995D01*
X1733843Y4074613D01*
X1719075Y4091351D01*
X1703289Y4107209D01*
X1686648Y4122182D01*
X1669314Y4136189D01*
X1651290Y4149230D01*
X1632573Y4161305D01*
X1613165Y4172414D01*
X1593065Y4182557D01*
X1572273Y4191734D01*
X1550790Y4199945D01*
X1528615Y4207190D01*
X1505748Y4213469D01*
X1482190Y4218782D01*
X1470151Y4221076D01*
X1457939Y4223129D01*
X1445555Y4224940D01*
X1432998Y4226510D01*
X1420267Y4227838D01*
X1407364Y4228925D01*
X1394288Y4229770D01*
X1381039Y4230374D01*
X1367617Y4230736D01*
X1354022Y4230857D01*
X1340539Y4230736D01*
X1327223Y4230374D01*
X1314075Y4229770D01*
X1301095Y4228925D01*
X1288282Y4227838D01*
X1275636Y4226510D01*
X1263158Y4224940D01*
X1250848Y4223129D01*
X1226730Y4218782D01*
X1203283Y4213469D01*
X1180506Y4207190D01*
X1158399Y4199945D01*
X1136962Y4191734D01*
X1116195Y4182557D01*
X1096099Y4172414D01*
X1076673Y4161305D01*
X1057917Y4149230D01*
X1039831Y4136189D01*
X1022416Y4122182D01*
X1005670Y4107209D01*
X989810Y4091351D01*
X974973Y4074613D01*
X961159Y4056995D01*
X948369Y4038497D01*
X936601Y4019118D01*
X925857Y3998860D01*
X916137Y3977721D01*
X907439Y3955702D01*
X899765Y3932803D01*
X896311Y3921024D01*
X893114Y3909024D01*
X890172Y3896804D01*
X887486Y3884365D01*
X885056Y3871705D01*
X882881Y3858825D01*
X880963Y3845726D01*
X879300Y3832406D01*
X877893Y3818866D01*
X876742Y3805106D01*
X875846Y3791127D01*
X875207Y3776927D01*
X874823Y3762507D01*
X874695Y3747867D01*
X874695Y3439815D01*
X672584Y3439815D01*
X672584Y4206127D01*
X268057Y4206127D01*
X18013Y3653223D01*
X-117540Y3653223D01*
X-117540Y4206127D01*
X-522068Y4206127D01*
X-772111Y3653223D01*
X-908582Y3653223D01*
X-908582Y4206127D01*
X-1139697Y4206127D01*
X-1139697Y3700545D01*
X-1594599Y3700545D01*
X-1594599Y4206127D01*
X-1825714Y4206127D01*
X-2302663Y4206127D01*
X-2314704Y4209644D01*
X-2328735Y4213326D01*
X-2342992Y4216657D01*
X-2357476Y4219637D01*
X-2372187Y4222267D01*
X-2387124Y4224546D01*
X-2402288Y4226474D01*
X-2417678Y4228052D01*
X-2433295Y4229279D01*
X-2449139Y4230156D01*
X-2465209Y4230682D01*
X-2481506Y4230857D01*
X-2497747Y4230689D01*
X-2513725Y4230184D01*
X-2529441Y4229344D01*
X-2544894Y4228166D01*
X-2560086Y4226653D01*
X-2575015Y4224803D01*
X-2589681Y4222617D01*
X-2604085Y4220095D01*
X-2618227Y4217236D01*
X-2632106Y4214041D01*
X-2645723Y4210510D01*
X-2659078Y4206643D01*
X-2672170Y4202439D01*
X-2685000Y4197898D01*
X-2697568Y4193022D01*
X-2709873Y4187809D01*
X-2721838Y4182322D01*
X-2733462Y4176546D01*
X-2744745Y4170482D01*
X-2755688Y4164129D01*
X-2766288Y4157488D01*
X-2776548Y4150557D01*
X-2786467Y4143339D01*
X-2800706Y4131969D01*
X-2814177Y4119951D01*
X-2826881Y4107283D01*
X-2838817Y4093965D01*
X-2849986Y4079999D01*
X-2860388Y4065382D01*
X-2869881Y4050157D01*
X-2878441Y4034363D01*
X-2886067Y4018000D01*
X-2892759Y4001068D01*
X-2896702Y3989464D01*
X-2900230Y3977608D01*
X-2903342Y3965498D01*
X-2906040Y3953136D01*
X-2908323Y3940520D01*
X-2910190Y3927652D01*
X-2911643Y3914531D01*
X-2912680Y3901158D01*
X-2913303Y3887531D01*
X-2913510Y3873652D01*
X-2913464Y3866690D01*
X-2913089Y3853013D01*
X-2912340Y3839666D01*
X-2911217Y3826648D01*
X-2909719Y3813958D01*
X-2907846Y3801598D01*
X-2904336Y3783676D01*
X-2899983Y3766493D01*
X-2894787Y3750052D01*
X-2888748Y3734350D01*
X-2881867Y3719390D01*
X-2874144Y3705170D01*
X-2865578Y3691691D01*
X-2856165Y3678818D01*
X-2846018Y3666417D01*
X-2835135Y3654489D01*
X-2823517Y3643033D01*
X-2811164Y3632049D01*
X-2798076Y3621538D01*
X-2784252Y3611499D01*
X-2769693Y3601932D01*
X-2754399Y3592837D01*
X-2738370Y3584214D01*
X-2727275Y3578729D01*
X-2715876Y3573443D01*
X-2704196Y3568272D01*
X-2692234Y3563215D01*
X-2679991Y3558273D01*
X-2667467Y3553446D01*
X-2654661Y3548732D01*
X-2641573Y3544134D01*
X-2628204Y3539650D01*
X-2614554Y3535280D01*
X-2600622Y3531025D01*
X-2586409Y3526884D01*
X-2571914Y3522858D01*
X-2557138Y3518946D01*
X-2542080Y3515149D01*
X-2526741Y3511466D01*
X-2511120Y3507898D01*
X-2470820Y3499350D01*
X-2461067Y3497127D01*
X-2446787Y3493756D01*
X-2432924Y3490343D01*
X-2419481Y3486887D01*
X-2406456Y3483388D01*
X-2393850Y3479846D01*
X-2381662Y3476261D01*
X-2366063Y3471414D01*
X-2351208Y3466491D01*
X-2337097Y3461492D01*
X-2333669Y3460240D01*
X-2320477Y3455000D01*
X-2308115Y3449387D01*
X-2296582Y3443403D01*
X-2285880Y3437047D01*
X-2273669Y3428578D01*
X-2262756Y3419527D01*
X-2253139Y3409896D01*
X-2247955Y3403830D01*
X-2240450Y3392970D01*
X-2234360Y3381171D01*
X-2229686Y3368433D01*
X-2226429Y3354755D01*
X-2224588Y3340139D01*
X-2224135Y3327769D01*
X-2224364Y3318674D01*
X-2225566Y3305417D01*
X-2227799Y3292621D01*
X-2231062Y3280287D01*
X-2235355Y3268414D01*
X-2240679Y3257002D01*
X-2247033Y3246053D01*
X-2254417Y3235564D01*
X-2262832Y3225538D01*
X-2272277Y3215972D01*
X-2282753Y3206869D01*
X-2290317Y3201175D01*
X-2302547Y3193324D01*
X-2315840Y3186299D01*
X-2330196Y3180101D01*
X-2345615Y3174728D01*
X-2362096Y3170183D01*
X-2379639Y3166464D01*
X-2391925Y3164444D01*
X-2404684Y3162791D01*
X-2417914Y3161505D01*
X-2431617Y3160587D01*
X-2445792Y3160036D01*
X-2460440Y3159852D01*
X-2474904Y3160067D01*
X-2488986Y3160711D01*
X-2502686Y3161784D01*
X-2516005Y3163287D01*
X-2528942Y3165219D01*
X-2541498Y3167580D01*
X-2553672Y3170371D01*
X-2571217Y3175362D01*
X-2587904Y3181319D01*
X-2603732Y3188242D01*
X-2618702Y3196131D01*
X-2632812Y3204986D01*
X-2646064Y3214807D01*
X-2658232Y3225651D01*
X-2669202Y3237461D01*
X-2678976Y3250237D01*
X-2687552Y3263980D01*
X-2694932Y3278688D01*
X-2701116Y3294362D01*
X-2706102Y3311002D01*
X-2709892Y3328609D01*
X-2711754Y3340883D01*
X-2713083Y3353586D01*
X-2713881Y3366719D01*
X-2714147Y3380281D01*
X-2714147Y3429130D01*
X-2941598Y3429130D01*
X-2941598Y3380281D01*
X-3120169Y3380281D01*
X-3120169Y4409428D01*
X3110402Y4409428D01*
X3110402Y2778254D01*
G37*
D10*
G36*
X-42497Y-16915000D02*
G01*
X-164374Y-16915000D01*
X-239357Y-16667581D01*
X-657012Y-16667581D01*
X-731994Y-16915000D01*
X-853872Y-16915000D01*
X-744439Y-16560359D01*
X-626481Y-16560359D01*
X-269887Y-16560359D01*
X-438659Y-16006416D01*
X-457954Y-16006416D01*
X-626481Y-16560359D01*
X-744439Y-16560359D01*
X-551499Y-15935097D01*
X-344869Y-15935097D01*
X-42497Y-16915000D01*
G37*
G36*
X451293Y-15915411D02*
G01*
X461591Y-15915704D01*
X471752Y-15916192D01*
X481777Y-15916874D01*
X491666Y-15917752D01*
X501418Y-15918825D01*
X520513Y-15921557D01*
X539062Y-15925069D01*
X557065Y-15929361D01*
X574523Y-15934434D01*
X591435Y-15940287D01*
X607801Y-15946921D01*
X623621Y-15954335D01*
X638896Y-15962530D01*
X653625Y-15971505D01*
X667808Y-15981260D01*
X681446Y-15991796D01*
X694537Y-16003112D01*
X707084Y-16015209D01*
X719003Y-16028037D01*
X730153Y-16041610D01*
X740534Y-16055927D01*
X750147Y-16070988D01*
X758990Y-16086793D01*
X767064Y-16103342D01*
X774370Y-16120636D01*
X780906Y-16138674D01*
X786673Y-16157456D01*
X789269Y-16167126D01*
X791672Y-16176982D01*
X793883Y-16187024D01*
X795901Y-16197252D01*
X797727Y-16207666D01*
X799362Y-16218266D01*
X800803Y-16229053D01*
X802053Y-16240025D01*
X803110Y-16251183D01*
X803975Y-16262528D01*
X804648Y-16274058D01*
X805129Y-16285775D01*
X805417Y-16297677D01*
X805513Y-16309766D01*
X805513Y-16540331D01*
X805417Y-16552524D01*
X805129Y-16564526D01*
X804648Y-16576338D01*
X803975Y-16587958D01*
X803110Y-16599388D01*
X802053Y-16610627D01*
X800803Y-16621675D01*
X799362Y-16632533D01*
X797727Y-16643199D01*
X795901Y-16653675D01*
X793883Y-16663960D01*
X791672Y-16674054D01*
X789269Y-16683957D01*
X786673Y-16693670D01*
X783886Y-16703191D01*
X780906Y-16712522D01*
X774370Y-16730611D01*
X767064Y-16747937D01*
X758990Y-16764500D01*
X750147Y-16780300D01*
X740534Y-16795336D01*
X730153Y-16809609D01*
X719003Y-16823118D01*
X707084Y-16835865D01*
X694537Y-16847814D01*
X681446Y-16858992D01*
X667808Y-16869399D01*
X653625Y-16879035D01*
X638896Y-16887900D01*
X623621Y-16895994D01*
X607801Y-16903318D01*
X591435Y-16909870D01*
X574523Y-16915652D01*
X557065Y-16920663D01*
X539062Y-16924903D01*
X520513Y-16928372D01*
X501418Y-16931070D01*
X491666Y-16932130D01*
X481777Y-16932997D01*
X471752Y-16933672D01*
X461591Y-16934153D01*
X451293Y-16934443D01*
X440859Y-16934539D01*
X430439Y-16934443D01*
X420155Y-16934153D01*
X410007Y-16933672D01*
X399994Y-16932997D01*
X390116Y-16932130D01*
X380374Y-16931070D01*
X361297Y-16928372D01*
X342761Y-16924903D01*
X324767Y-16920663D01*
X307315Y-16915652D01*
X290405Y-16909870D01*
X274037Y-16903318D01*
X258211Y-16895994D01*
X242927Y-16887900D01*
X228184Y-16879035D01*
X213984Y-16869399D01*
X200325Y-16858992D01*
X187209Y-16847814D01*
X174634Y-16835865D01*
X162715Y-16823118D01*
X151565Y-16809609D01*
X141183Y-16795336D01*
X131571Y-16780300D01*
X122728Y-16764500D01*
X114653Y-16747937D01*
X107348Y-16730611D01*
X100812Y-16712522D01*
X97832Y-16703191D01*
X95044Y-16693670D01*
X92449Y-16683957D01*
X90046Y-16674054D01*
X87835Y-16663960D01*
X85817Y-16653675D01*
X83990Y-16643199D01*
X82356Y-16632533D01*
X80914Y-16621675D01*
X79665Y-16610627D01*
X78607Y-16599388D01*
X77742Y-16587958D01*
X77069Y-16576338D01*
X76589Y-16564526D01*
X76300Y-16552524D01*
X76248Y-16545949D01*
X189777Y-16545949D01*
X190023Y-16562746D01*
X190762Y-16579066D01*
X191993Y-16594910D01*
X193716Y-16610276D01*
X195931Y-16625165D01*
X198639Y-16639578D01*
X201839Y-16653513D01*
X205531Y-16666971D01*
X209715Y-16679952D01*
X214392Y-16692456D01*
X219561Y-16704483D01*
X225223Y-16716033D01*
X231377Y-16727106D01*
X238023Y-16737702D01*
X245161Y-16747821D01*
X252792Y-16757463D01*
X260911Y-16766572D01*
X269515Y-16775094D01*
X278603Y-16783028D01*
X288176Y-16790375D01*
X298234Y-16797133D01*
X308777Y-16803304D01*
X319804Y-16808887D01*
X331316Y-16813883D01*
X343312Y-16818291D01*
X355794Y-16822111D01*
X368759Y-16825343D01*
X382210Y-16827988D01*
X396145Y-16830045D01*
X410565Y-16831514D01*
X425470Y-16832396D01*
X440859Y-16832690D01*
X456335Y-16832394D01*
X471317Y-16831507D01*
X485804Y-16830028D01*
X499798Y-16827957D01*
X513297Y-16825296D01*
X526302Y-16822042D01*
X538813Y-16818197D01*
X550829Y-16813761D01*
X562351Y-16808733D01*
X573380Y-16803113D01*
X583914Y-16796902D01*
X593953Y-16790100D01*
X603499Y-16782706D01*
X612550Y-16774720D01*
X621107Y-16766143D01*
X629170Y-16756974D01*
X636771Y-16747249D01*
X643882Y-16737061D01*
X650502Y-16726412D01*
X656632Y-16715300D01*
X662272Y-16703728D01*
X667421Y-16691693D01*
X672079Y-16679196D01*
X676248Y-16666238D01*
X679926Y-16652818D01*
X683113Y-16638936D01*
X685811Y-16624593D01*
X688017Y-16609788D01*
X689734Y-16594520D01*
X690960Y-16578792D01*
X691695Y-16562601D01*
X691940Y-16545949D01*
X691940Y-16303415D01*
X691690Y-16286678D01*
X690937Y-16270416D01*
X689682Y-16254629D01*
X687926Y-16239317D01*
X685667Y-16224480D01*
X682907Y-16210118D01*
X679645Y-16196232D01*
X675881Y-16182821D01*
X671616Y-16169884D01*
X666848Y-16157423D01*
X661579Y-16145437D01*
X655808Y-16133926D01*
X649535Y-16122890D01*
X642760Y-16112330D01*
X635483Y-16102244D01*
X627705Y-16092634D01*
X619447Y-16083524D01*
X610734Y-16075003D01*
X601564Y-16067068D01*
X591938Y-16059722D01*
X581857Y-16052963D01*
X571319Y-16046793D01*
X560325Y-16041209D01*
X548875Y-16036214D01*
X536969Y-16031806D01*
X524607Y-16027986D01*
X511789Y-16024753D01*
X498515Y-16022109D01*
X484785Y-16020052D01*
X470599Y-16018582D01*
X455957Y-16017701D01*
X440859Y-16017407D01*
X425644Y-16017703D01*
X410897Y-16018590D01*
X396617Y-16020069D01*
X382805Y-16022139D01*
X369461Y-16024801D01*
X356584Y-16028054D01*
X344174Y-16031899D01*
X332232Y-16036336D01*
X320757Y-16041364D01*
X309750Y-16046983D01*
X299210Y-16053194D01*
X289138Y-16059997D01*
X279534Y-16067391D01*
X270396Y-16075377D01*
X261727Y-16083954D01*
X253525Y-16093122D01*
X245805Y-16102817D01*
X238584Y-16112971D01*
X231860Y-16123585D01*
X225635Y-16134659D01*
X219908Y-16146193D01*
X214678Y-16158186D01*
X209947Y-16170640D01*
X205714Y-16183553D01*
X201979Y-16196926D01*
X198742Y-16210760D01*
X196002Y-16225053D01*
X193761Y-16239805D01*
X192018Y-16255018D01*
X190773Y-16270691D01*
X190026Y-16286823D01*
X189777Y-16303415D01*
X189777Y-16545949D01*
X76248Y-16545949D01*
X76204Y-16540331D01*
X76204Y-16309766D01*
X76300Y-16297677D01*
X76589Y-16285775D01*
X77069Y-16274058D01*
X77742Y-16262528D01*
X78607Y-16251183D01*
X79665Y-16240025D01*
X80914Y-16229053D01*
X82356Y-16218266D01*
X83990Y-16207666D01*
X85817Y-16197252D01*
X87835Y-16187024D01*
X90046Y-16176982D01*
X92449Y-16167126D01*
X95044Y-16157456D01*
X97832Y-16147972D01*
X103984Y-16129562D01*
X110905Y-16111896D01*
X118594Y-16094975D01*
X127053Y-16078797D01*
X136281Y-16063364D01*
X146278Y-16048675D01*
X157044Y-16034731D01*
X168578Y-16021530D01*
X174634Y-16015209D01*
X187209Y-16003112D01*
X200325Y-15991796D01*
X213984Y-15981260D01*
X228184Y-15971505D01*
X242927Y-15962530D01*
X258211Y-15954335D01*
X274037Y-15946921D01*
X290405Y-15940287D01*
X307315Y-15934434D01*
X324767Y-15929361D01*
X342761Y-15925069D01*
X361297Y-15921557D01*
X380374Y-15918825D01*
X390116Y-15917752D01*
X399994Y-15916874D01*
X410007Y-15916192D01*
X420155Y-15915704D01*
X430439Y-15915411D01*
X440859Y-15915314D01*
X451293Y-15915411D01*
G37*
G36*
X-7136671Y-22415000D02*
G01*
X-7258548Y-22415000D01*
X-7333531Y-22167581D01*
X-7751186Y-22167581D01*
X-7826168Y-22415000D01*
X-7948046Y-22415000D01*
X-7838613Y-22060359D01*
X-7720655Y-22060359D01*
X-7364061Y-22060359D01*
X-7532833Y-21506416D01*
X-7552128Y-21506416D01*
X-7720655Y-22060359D01*
X-7838613Y-22060359D01*
X-7645673Y-21435097D01*
X-7439043Y-21435097D01*
X-7136671Y-22415000D01*
G37*
G36*
X-6742707Y-22415000D02*
G01*
X-6742707Y-21510812D01*
X-6762979Y-21510812D01*
X-6953244Y-21859591D01*
X-7077320Y-21859591D01*
X-6843335Y-21435097D01*
X-6629134Y-21435097D01*
X-6629134Y-22415000D01*
X-6742707Y-22415000D01*
G37*
D12*
%TO.C,REF\u002A\u002A*%
X-13000000Y29600000D02*
X3000000Y29600000D01*
X3000000Y29600000D02*
X3000000Y23600000D01*
X3000000Y23600000D02*
X-13000000Y23600000D01*
X-13000000Y23600000D02*
X-13000000Y29600000D01*
%TO.C,SW4*%
X3000000Y-24500000D02*
X-3000000Y-24500000D01*
X-3000000Y-24500000D02*
X-3000000Y-30500000D01*
X-3000000Y-30500000D02*
X3000000Y-30500000D01*
X3000000Y-30500000D02*
X3000000Y-24500000D01*
%TO.C,SW3*%
X10250000Y-19000000D02*
X4250000Y-19000000D01*
X4250000Y-19000000D02*
X4250000Y-25000000D01*
X4250000Y-25000000D02*
X10250000Y-25000000D01*
X10250000Y-25000000D02*
X10250000Y-19000000D01*
%TO.C,J4*%
X-17700000Y21750000D02*
X17700000Y21750000D01*
X-17700000Y-11750000D02*
X-17700000Y21750000D01*
X-17700000Y-11750000D02*
X17700000Y-11750000D01*
X17700000Y21750000D02*
X17700000Y-11750000D01*
%TO.C,SW1*%
X3000000Y-13500000D02*
X-3000000Y-13500000D01*
X-3000000Y-13500000D02*
X-3000000Y-19500000D01*
X-3000000Y-19500000D02*
X3000000Y-19500000D01*
X3000000Y-19500000D02*
X3000000Y-13500000D01*
%TO.C,SW2*%
X-4250000Y-19000000D02*
X-10250000Y-19000000D01*
X-10250000Y-19000000D02*
X-10250000Y-25000000D01*
X-10250000Y-25000000D02*
X-4250000Y-25000000D01*
X-4250000Y-25000000D02*
X-4250000Y-19000000D01*
%TD*%
M02*
