%TF.GenerationSoftware,KiCad,Pcbnew,7.0.7-7.0.7~ubuntu22.04.1*%
%TF.CreationDate,2023-10-29T19:45:52-07:00*%
%TF.ProjectId,Wardriver-PCB,57617264-7269-4766-9572-2d5043422e6b,rev?*%
%TF.SameCoordinates,Original*%
%TF.FileFunction,Paste,Bot*%
%TF.FilePolarity,Positive*%
%FSLAX46Y46*%
G04 Gerber Fmt 4.6, Leading zero omitted, Abs format (unit mm)*
G04 Created by KiCad (PCBNEW 7.0.7-7.0.7~ubuntu22.04.1) date 2023-10-29 19:45:52*
%MOMM*%
%LPD*%
G01*
G04 APERTURE LIST*
G04 Aperture macros list*
%AMRoundRect*
0 Rectangle with rounded corners*
0 $1 Rounding radius*
0 $2 $3 $4 $5 $6 $7 $8 $9 X,Y pos of 4 corners*
0 Add a 4 corners polygon primitive as box body*
4,1,4,$2,$3,$4,$5,$6,$7,$8,$9,$2,$3,0*
0 Add four circle primitives for the rounded corners*
1,1,$1+$1,$2,$3*
1,1,$1+$1,$4,$5*
1,1,$1+$1,$6,$7*
1,1,$1+$1,$8,$9*
0 Add four rect primitives between the rounded corners*
20,1,$1+$1,$2,$3,$4,$5,0*
20,1,$1+$1,$4,$5,$6,$7,0*
20,1,$1+$1,$6,$7,$8,$9,0*
20,1,$1+$1,$8,$9,$2,$3,0*%
G04 Aperture macros list end*
%ADD10O,2.000000X3.500000*%
%ADD11RoundRect,0.500000X0.500000X1.250000X-0.500000X1.250000X-0.500000X-1.250000X0.500000X-1.250000X0*%
%ADD12R,2.510000X1.000000*%
%ADD13RoundRect,0.150000X0.625000X-0.150000X0.625000X0.150000X-0.625000X0.150000X-0.625000X-0.150000X0*%
%ADD14RoundRect,0.250000X0.650000X-0.350000X0.650000X0.350000X-0.650000X0.350000X-0.650000X-0.350000X0*%
%ADD15R,0.700000X2.000000*%
%ADD16R,1.600000X1.900000*%
%ADD17R,1.700000X3.000000*%
%ADD18R,2.100000X2.000000*%
%ADD19RoundRect,0.250000X-0.250000X-1.500000X0.250000X-1.500000X0.250000X1.500000X-0.250000X1.500000X0*%
%ADD20RoundRect,0.250001X-0.499999X-1.449999X0.499999X-1.449999X0.499999X1.449999X-0.499999X1.449999X0*%
%ADD21RoundRect,0.150000X-0.625000X0.150000X-0.625000X-0.150000X0.625000X-0.150000X0.625000X0.150000X0*%
%ADD22RoundRect,0.250000X-0.650000X0.350000X-0.650000X-0.350000X0.650000X-0.350000X0.650000X0.350000X0*%
%ADD23RoundRect,0.250000X-1.005000X0.250000X-1.005000X-0.250000X1.005000X-0.250000X1.005000X0.250000X0*%
G04 APERTURE END LIST*
D10*
%TO.C,U1*%
X16645000Y-1480000D03*
X14105000Y-1480000D03*
X11565000Y-1480000D03*
X9025000Y-1480000D03*
X6485000Y-1480000D03*
X3945000Y-1480000D03*
X1405000Y-1480000D03*
X1405000Y16300000D03*
X3945000Y16300000D03*
X6485000Y16300000D03*
X9025000Y16300000D03*
X11565000Y16300000D03*
X14105000Y16300000D03*
X16645000Y16300000D03*
%TD*%
D11*
%TO.C,REF\u002A\u002A*%
X7130000Y-12250000D03*
X4590000Y-12250000D03*
X2050000Y-12250000D03*
X-490000Y-12250000D03*
X-3030000Y-12250000D03*
%TD*%
D12*
%TO.C,J5*%
X13345000Y-15190000D03*
X16655000Y-17730000D03*
X13345000Y-20270000D03*
X16655000Y-22810000D03*
%TD*%
D13*
%TO.C,J3*%
X-14800000Y-10000000D03*
X-14800000Y-9000000D03*
X-14800000Y-8000000D03*
X-14800000Y-7000000D03*
D14*
X-18675000Y-11300000D03*
X-18675000Y-5700000D03*
%TD*%
D15*
%TO.C,J1*%
X-2250000Y-16800000D03*
X-1150000Y-16800000D03*
X-50000Y-16800000D03*
X1050000Y-16800000D03*
X2150000Y-16800000D03*
X3250000Y-16800000D03*
X4350000Y-16800000D03*
X5450000Y-16800000D03*
X6550000Y-16800000D03*
D16*
X8050000Y-17500000D03*
D17*
X8000000Y-27100000D03*
D18*
X-7100000Y-17200000D03*
D17*
X-8000000Y-27100000D03*
%TD*%
D19*
%TO.C,J2*%
X-14500000Y-23650000D03*
X-12500000Y-23650000D03*
D20*
X-16850000Y-17900000D03*
X-10150000Y-17900000D03*
%TD*%
D21*
%TO.C,J3*%
X14800000Y-7000000D03*
X14800000Y-8000000D03*
X14800000Y-9000000D03*
X14800000Y-10000000D03*
D22*
X18675000Y-5700000D03*
X18675000Y-11300000D03*
%TD*%
D23*
%TO.C,U2*%
X-18135000Y14780000D03*
X-14825000Y12240000D03*
X-18135000Y9700000D03*
X-14825000Y7160000D03*
X-18135000Y4620000D03*
%TD*%
M02*
