M48
INCH,TZ
T1C0.0118
T2C0.0157
T3C0.0315
T4C0.0394
T5C0.0591
T6C0.0669
T7C0.1063
%
G90
G05
T1
X854Y-4598
X1335Y-4594
X5118Y-8465
X5370Y-8858
T2
X-6618Y7240
X-6102Y7236
X-4618Y7240
X-3618Y7240
X-2610Y7240
X-2150Y264
X-2150Y264
X-1618Y7240
X-1051Y264
T3
X-7327Y-8291
X-5083Y-1480
X-4760Y-7091
X-3764Y1295
X-3748Y-2280
X-3049Y-8465
X-1768Y-4661
X339Y-7390
X1110Y2535
X5862Y-7134
T4
X-1500Y8110
X-500Y8110
X500Y8110
X1500Y8110
T5
X3248Y10748
T6
X2248Y11748
X2248Y9748
X4248Y11748
X4248Y9748
T7
X-6496Y11220
X-6496Y-11220
X6496Y11220
X6496Y-11220
T0
M30
