%TF.GenerationSoftware,KiCad,Pcbnew,7.0.7-7.0.7~ubuntu22.04.1*%
%TF.CreationDate,2023-10-29T19:45:52-07:00*%
%TF.ProjectId,Wardriver-PCB,57617264-7269-4766-9572-2d5043422e6b,rev?*%
%TF.SameCoordinates,Original*%
%TF.FileFunction,Legend,Top*%
%TF.FilePolarity,Positive*%
%FSLAX46Y46*%
G04 Gerber Fmt 4.6, Leading zero omitted, Abs format (unit mm)*
G04 Created by KiCad (PCBNEW 7.0.7-7.0.7~ubuntu22.04.1) date 2023-10-29 19:45:52*
%MOMM*%
%LPD*%
G01*
G04 APERTURE LIST*
%ADD10C,0.150000*%
%ADD11C,0.250000*%
%ADD12C,0.120000*%
G04 APERTURE END LIST*
D10*
G36*
X5416015Y-30330000D02*
G01*
X5416015Y-29350097D01*
X5526657Y-29350097D01*
X5526657Y-30330000D01*
X5416015Y-30330000D01*
G37*
G36*
X5841486Y-30609902D02*
G01*
X5841486Y-30511716D01*
X6233251Y-30511716D01*
X6245143Y-30510691D01*
X6255019Y-30507614D01*
X6264209Y-30501214D01*
X6270497Y-30491860D01*
X6273521Y-30481809D01*
X6274528Y-30469706D01*
X6274528Y-30220090D01*
X6255233Y-30220090D01*
X6250179Y-30229648D01*
X6244481Y-30239086D01*
X6238139Y-30248405D01*
X6231152Y-30257604D01*
X6223522Y-30266685D01*
X6215248Y-30275646D01*
X6211758Y-30279197D01*
X6204396Y-30286116D01*
X6196478Y-30292707D01*
X6188002Y-30298969D01*
X6178968Y-30304904D01*
X6169378Y-30310510D01*
X6159231Y-30315788D01*
X6148526Y-30320737D01*
X6137264Y-30325359D01*
X6125411Y-30329538D01*
X6116030Y-30332306D01*
X6106228Y-30334761D01*
X6096006Y-30336903D01*
X6085362Y-30338731D01*
X6074298Y-30340246D01*
X6062814Y-30341447D01*
X6050908Y-30342335D01*
X6038582Y-30342910D01*
X6025835Y-30343171D01*
X6021493Y-30343189D01*
X6007504Y-30342903D01*
X5993747Y-30342047D01*
X5980221Y-30340619D01*
X5966927Y-30338621D01*
X5953866Y-30336051D01*
X5941036Y-30332910D01*
X5928438Y-30329199D01*
X5916072Y-30324916D01*
X5903937Y-30320063D01*
X5892035Y-30314638D01*
X5884228Y-30310704D01*
X5872868Y-30304304D01*
X5861957Y-30297375D01*
X5851498Y-30289918D01*
X5841490Y-30281933D01*
X5831932Y-30273420D01*
X5822825Y-30264379D01*
X5814169Y-30254810D01*
X5805964Y-30244713D01*
X5798209Y-30234088D01*
X5790906Y-30222934D01*
X5786287Y-30215205D01*
X5779827Y-30203141D01*
X5774002Y-30190579D01*
X5768813Y-30177518D01*
X5764259Y-30163960D01*
X5760341Y-30149904D01*
X5758082Y-30140256D01*
X5756105Y-30130387D01*
X5754410Y-30120297D01*
X5752998Y-30109985D01*
X5751869Y-30099452D01*
X5751022Y-30088698D01*
X5750457Y-30077722D01*
X5750174Y-30066525D01*
X5750139Y-30060844D01*
X5750139Y-29645631D01*
X5861025Y-29645631D01*
X5861025Y-30053028D01*
X5861224Y-30065453D01*
X5861819Y-30077449D01*
X5862811Y-30089015D01*
X5864200Y-30100152D01*
X5865987Y-30110859D01*
X5868169Y-30121138D01*
X5870749Y-30130986D01*
X5873726Y-30140406D01*
X5878935Y-30153730D01*
X5885037Y-30166089D01*
X5892033Y-30177481D01*
X5899921Y-30187907D01*
X5908702Y-30197368D01*
X5911828Y-30200307D01*
X5921717Y-30208556D01*
X5932241Y-30215994D01*
X5943401Y-30222621D01*
X5955196Y-30228436D01*
X5967627Y-30233440D01*
X5980693Y-30237633D01*
X5994394Y-30241014D01*
X6008731Y-30243583D01*
X6018642Y-30244846D01*
X6028835Y-30245747D01*
X6039311Y-30246288D01*
X6050069Y-30246468D01*
X6062203Y-30246218D01*
X6074059Y-30245465D01*
X6085635Y-30244210D01*
X6096933Y-30242454D01*
X6107953Y-30240195D01*
X6118694Y-30237435D01*
X6129156Y-30234173D01*
X6139340Y-30230409D01*
X6149245Y-30226144D01*
X6158872Y-30221376D01*
X6168220Y-30216107D01*
X6177289Y-30210336D01*
X6186080Y-30204063D01*
X6194592Y-30197288D01*
X6202826Y-30190011D01*
X6210781Y-30182233D01*
X6218382Y-30173927D01*
X6225493Y-30165132D01*
X6232113Y-30155846D01*
X6238243Y-30146069D01*
X6243883Y-30135803D01*
X6249032Y-30125045D01*
X6253691Y-30113798D01*
X6257859Y-30102060D01*
X6261537Y-30089832D01*
X6264724Y-30077113D01*
X6267422Y-30063904D01*
X6269628Y-30050204D01*
X6271345Y-30036014D01*
X6272571Y-30021334D01*
X6273306Y-30006163D01*
X6273551Y-29990502D01*
X6273551Y-29645631D01*
X6384438Y-29645631D01*
X6384438Y-30489002D01*
X6384161Y-30499368D01*
X6383330Y-30509309D01*
X6381361Y-30521903D01*
X6378407Y-30533741D01*
X6374469Y-30544823D01*
X6369546Y-30555150D01*
X6363638Y-30564722D01*
X6356746Y-30573537D01*
X6352930Y-30577662D01*
X6344622Y-30585218D01*
X6335452Y-30591767D01*
X6325419Y-30597308D01*
X6314523Y-30601842D01*
X6302765Y-30605368D01*
X6290145Y-30607887D01*
X6280113Y-30609115D01*
X6269597Y-30609776D01*
X6262316Y-30609902D01*
X5841486Y-30609902D01*
G37*
G36*
X6615736Y-30330000D02*
G01*
X6615736Y-29645631D01*
X6723691Y-29645631D01*
X6723691Y-29761402D01*
X6742742Y-29761402D01*
X6747319Y-29752235D01*
X6752442Y-29743236D01*
X6758110Y-29734404D01*
X6764323Y-29725739D01*
X6771082Y-29717242D01*
X6778385Y-29708912D01*
X6786234Y-29700750D01*
X6794628Y-29692755D01*
X6803568Y-29684927D01*
X6813052Y-29677267D01*
X6819678Y-29672254D01*
X6830289Y-29665139D01*
X6841789Y-29658724D01*
X6854178Y-29653009D01*
X6867455Y-29647993D01*
X6876800Y-29645039D01*
X6886540Y-29642395D01*
X6896675Y-29640062D01*
X6907205Y-29638040D01*
X6918130Y-29636330D01*
X6929450Y-29634930D01*
X6941165Y-29633842D01*
X6953276Y-29633064D01*
X6965781Y-29632597D01*
X6978681Y-29632442D01*
X6992838Y-29632730D01*
X7006733Y-29633593D01*
X7020367Y-29635031D01*
X7033738Y-29637044D01*
X7046848Y-29639633D01*
X7059696Y-29642797D01*
X7072282Y-29646537D01*
X7084606Y-29650852D01*
X7096668Y-29655742D01*
X7108468Y-29661207D01*
X7116189Y-29665170D01*
X7127504Y-29671532D01*
X7138369Y-29678434D01*
X7148782Y-29685877D01*
X7158745Y-29693861D01*
X7168257Y-29702386D01*
X7177318Y-29711453D01*
X7185928Y-29721060D01*
X7194088Y-29731208D01*
X7201796Y-29741897D01*
X7209054Y-29753127D01*
X7213642Y-29760914D01*
X7220102Y-29772980D01*
X7225927Y-29785549D01*
X7231116Y-29798620D01*
X7235670Y-29812193D01*
X7239588Y-29826269D01*
X7241847Y-29835932D01*
X7243824Y-29845818D01*
X7245519Y-29855927D01*
X7246931Y-29866260D01*
X7248060Y-29876816D01*
X7248908Y-29887595D01*
X7249472Y-29898597D01*
X7249755Y-29909823D01*
X7249790Y-29915519D01*
X7249790Y-30330000D01*
X7139148Y-30330000D01*
X7139148Y-29923579D01*
X7138949Y-29911036D01*
X7138351Y-29898930D01*
X7137354Y-29887261D01*
X7135958Y-29876028D01*
X7134163Y-29865233D01*
X7131970Y-29854875D01*
X7129377Y-29844953D01*
X7126386Y-29835469D01*
X7121152Y-29822061D01*
X7115021Y-29809637D01*
X7107992Y-29798196D01*
X7100065Y-29787738D01*
X7091242Y-29778264D01*
X7088101Y-29775324D01*
X7078254Y-29767074D01*
X7067762Y-29759636D01*
X7056627Y-29753009D01*
X7044848Y-29747194D01*
X7032424Y-29742190D01*
X7019357Y-29737998D01*
X7005645Y-29734617D01*
X6991290Y-29732047D01*
X6981362Y-29730785D01*
X6971147Y-29729883D01*
X6960647Y-29729342D01*
X6949860Y-29729162D01*
X6937755Y-29729415D01*
X6925924Y-29730173D01*
X6914368Y-29731438D01*
X6903087Y-29733207D01*
X6892081Y-29735483D01*
X6881350Y-29738264D01*
X6870893Y-29741551D01*
X6860711Y-29745343D01*
X6850804Y-29749641D01*
X6841172Y-29754445D01*
X6831814Y-29759754D01*
X6822732Y-29765570D01*
X6813924Y-29771890D01*
X6805390Y-29778717D01*
X6797132Y-29786049D01*
X6789148Y-29793886D01*
X6781547Y-29802222D01*
X6774436Y-29811048D01*
X6767816Y-29820365D01*
X6761686Y-29830172D01*
X6756047Y-29840469D01*
X6750897Y-29851257D01*
X6746239Y-29862535D01*
X6742070Y-29874303D01*
X6738392Y-29886562D01*
X6735205Y-29899312D01*
X6732508Y-29912551D01*
X6730301Y-29926281D01*
X6728584Y-29940502D01*
X6727359Y-29955213D01*
X6726623Y-29970414D01*
X6726378Y-29986106D01*
X6726378Y-30330000D01*
X6615736Y-30330000D01*
G37*
G36*
X8142742Y-30330000D02*
G01*
X8034787Y-30330000D01*
X8034787Y-30217159D01*
X8015491Y-30217159D01*
X8010000Y-30226640D01*
X8003968Y-30235941D01*
X7997395Y-30245062D01*
X7990281Y-30254002D01*
X7982626Y-30262762D01*
X7974430Y-30271341D01*
X7965693Y-30279740D01*
X7956415Y-30287959D01*
X7946596Y-30295998D01*
X7936237Y-30303856D01*
X7929030Y-30308995D01*
X7917614Y-30316240D01*
X7905347Y-30322773D01*
X7892231Y-30328594D01*
X7883015Y-30332078D01*
X7873421Y-30335245D01*
X7863449Y-30338096D01*
X7853099Y-30340630D01*
X7842371Y-30342848D01*
X7831266Y-30344748D01*
X7819783Y-30346332D01*
X7807922Y-30347599D01*
X7795683Y-30348549D01*
X7783066Y-30349183D01*
X7770072Y-30349499D01*
X7763433Y-30349539D01*
X7752409Y-30349374D01*
X7741501Y-30348879D01*
X7730709Y-30348053D01*
X7720034Y-30346898D01*
X7709475Y-30345413D01*
X7699033Y-30343597D01*
X7688707Y-30341451D01*
X7678497Y-30338975D01*
X7668404Y-30336169D01*
X7658428Y-30333033D01*
X7648567Y-30329567D01*
X7638823Y-30325771D01*
X7629196Y-30321645D01*
X7619684Y-30317188D01*
X7610290Y-30312402D01*
X7601011Y-30307285D01*
X7591937Y-30301859D01*
X7583094Y-30296145D01*
X7574481Y-30290143D01*
X7566100Y-30283853D01*
X7557949Y-30277275D01*
X7550029Y-30270408D01*
X7542341Y-30263253D01*
X7534883Y-30255811D01*
X7527656Y-30248080D01*
X7520659Y-30240061D01*
X7513894Y-30231754D01*
X7507359Y-30223159D01*
X7501056Y-30214275D01*
X7494983Y-30205104D01*
X7489141Y-30195644D01*
X7483531Y-30185896D01*
X7478236Y-30175856D01*
X7473284Y-30165578D01*
X7468673Y-30155064D01*
X7464403Y-30144314D01*
X7460475Y-30133327D01*
X7456889Y-30122103D01*
X7453644Y-30110643D01*
X7450741Y-30098946D01*
X7448179Y-30087012D01*
X7445959Y-30074842D01*
X7444081Y-30062435D01*
X7442544Y-30049792D01*
X7441348Y-30036912D01*
X7440494Y-30023795D01*
X7439982Y-30010442D01*
X7439811Y-29996852D01*
X7439811Y-29993677D01*
X7552651Y-29993677D01*
X7552915Y-30008701D01*
X7553705Y-30023303D01*
X7555021Y-30037483D01*
X7556864Y-30051242D01*
X7559234Y-30064579D01*
X7562131Y-30077494D01*
X7565554Y-30089988D01*
X7569504Y-30102060D01*
X7573981Y-30113710D01*
X7578984Y-30124939D01*
X7584514Y-30135745D01*
X7590570Y-30146130D01*
X7597153Y-30156094D01*
X7604263Y-30165636D01*
X7611899Y-30174756D01*
X7620062Y-30183454D01*
X7628665Y-30191676D01*
X7637560Y-30199368D01*
X7646747Y-30206529D01*
X7656226Y-30213160D01*
X7665996Y-30219260D01*
X7676059Y-30224830D01*
X7686413Y-30229869D01*
X7697060Y-30234378D01*
X7707998Y-30238357D01*
X7719229Y-30241805D01*
X7730751Y-30244722D01*
X7742565Y-30247110D01*
X7754672Y-30248966D01*
X7767070Y-30250292D01*
X7779760Y-30251088D01*
X7792742Y-30251353D01*
X7805840Y-30251088D01*
X7818632Y-30250292D01*
X7831119Y-30248966D01*
X7843300Y-30247110D01*
X7855177Y-30244722D01*
X7866748Y-30241805D01*
X7878013Y-30238357D01*
X7888974Y-30234378D01*
X7899629Y-30229869D01*
X7909979Y-30224830D01*
X7920023Y-30219260D01*
X7929762Y-30213160D01*
X7939196Y-30206529D01*
X7948325Y-30199368D01*
X7957148Y-30191676D01*
X7965666Y-30183454D01*
X7973799Y-30174756D01*
X7981408Y-30165636D01*
X7988492Y-30156094D01*
X7995051Y-30146130D01*
X8001086Y-30135745D01*
X8006596Y-30124939D01*
X8011581Y-30113710D01*
X8016041Y-30102060D01*
X8019977Y-30089988D01*
X8023387Y-30077494D01*
X8026273Y-30064579D01*
X8028635Y-30051242D01*
X8030471Y-30037483D01*
X8031783Y-30023303D01*
X8032570Y-30008701D01*
X8032833Y-29993677D01*
X8032833Y-29981709D01*
X8032571Y-29966715D01*
X8031787Y-29952141D01*
X8030480Y-29937986D01*
X8028650Y-29924251D01*
X8026297Y-29910936D01*
X8023422Y-29898041D01*
X8020023Y-29885565D01*
X8016102Y-29873510D01*
X8011658Y-29861874D01*
X8006691Y-29850658D01*
X8001201Y-29839861D01*
X7995189Y-29829485D01*
X7988653Y-29819528D01*
X7981595Y-29809991D01*
X7974014Y-29800874D01*
X7965910Y-29792177D01*
X7957420Y-29783955D01*
X7948619Y-29776263D01*
X7939506Y-29769102D01*
X7930083Y-29762471D01*
X7920348Y-29756370D01*
X7910303Y-29750800D01*
X7899946Y-29745761D01*
X7889279Y-29741252D01*
X7878300Y-29737274D01*
X7867011Y-29733826D01*
X7855410Y-29730908D01*
X7843499Y-29728521D01*
X7831276Y-29726664D01*
X7818742Y-29725338D01*
X7805898Y-29724542D01*
X7792742Y-29724277D01*
X7779760Y-29724542D01*
X7767070Y-29725338D01*
X7754672Y-29726664D01*
X7742565Y-29728521D01*
X7730751Y-29730908D01*
X7719229Y-29733826D01*
X7707998Y-29737274D01*
X7697060Y-29741252D01*
X7686413Y-29745761D01*
X7676059Y-29750800D01*
X7665996Y-29756370D01*
X7656226Y-29762471D01*
X7646747Y-29769102D01*
X7637560Y-29776263D01*
X7628665Y-29783955D01*
X7620062Y-29792177D01*
X7611899Y-29800874D01*
X7604263Y-29809991D01*
X7597153Y-29819528D01*
X7590570Y-29829485D01*
X7584514Y-29839861D01*
X7578984Y-29850658D01*
X7573981Y-29861874D01*
X7569504Y-29873510D01*
X7565554Y-29885565D01*
X7562131Y-29898041D01*
X7559234Y-29910936D01*
X7556864Y-29924251D01*
X7555021Y-29937986D01*
X7553705Y-29952141D01*
X7552915Y-29966715D01*
X7552651Y-29981709D01*
X7552651Y-29993677D01*
X7439811Y-29993677D01*
X7439811Y-29978534D01*
X7439980Y-29964975D01*
X7440487Y-29951652D01*
X7441331Y-29938566D01*
X7442513Y-29925717D01*
X7444033Y-29913104D01*
X7445890Y-29900727D01*
X7448086Y-29888588D01*
X7450619Y-29876685D01*
X7453490Y-29865018D01*
X7456698Y-29853589D01*
X7460244Y-29842395D01*
X7464129Y-29831439D01*
X7468350Y-29820719D01*
X7472910Y-29810235D01*
X7477807Y-29799989D01*
X7483042Y-29789979D01*
X7488595Y-29780201D01*
X7494384Y-29770714D01*
X7500410Y-29761517D01*
X7506673Y-29752609D01*
X7513172Y-29743992D01*
X7519907Y-29735665D01*
X7526880Y-29727628D01*
X7534089Y-29719881D01*
X7541534Y-29712424D01*
X7549217Y-29705257D01*
X7557135Y-29698380D01*
X7565291Y-29691793D01*
X7573683Y-29685496D01*
X7582312Y-29679489D01*
X7591177Y-29673772D01*
X7600279Y-29668346D01*
X7609588Y-29663199D01*
X7619017Y-29658385D01*
X7628563Y-29653903D01*
X7638228Y-29649753D01*
X7648011Y-29645934D01*
X7657912Y-29642448D01*
X7667932Y-29639294D01*
X7678070Y-29636472D01*
X7688326Y-29633982D01*
X7698701Y-29631824D01*
X7709194Y-29629998D01*
X7719805Y-29628504D01*
X7730534Y-29627341D01*
X7741382Y-29626511D01*
X7752348Y-29626013D01*
X7763433Y-29625847D01*
X7776697Y-29626013D01*
X7789562Y-29626509D01*
X7802028Y-29627335D01*
X7814094Y-29628492D01*
X7825761Y-29629980D01*
X7837029Y-29631798D01*
X7847898Y-29633947D01*
X7858367Y-29636426D01*
X7868437Y-29639236D01*
X7878108Y-29642377D01*
X7884333Y-29644654D01*
X7896381Y-29649459D01*
X7907857Y-29654592D01*
X7918760Y-29660053D01*
X7929091Y-29665842D01*
X7938849Y-29671960D01*
X7948035Y-29678405D01*
X7956648Y-29685179D01*
X7964689Y-29692281D01*
X7972226Y-29699536D01*
X7979328Y-29706890D01*
X7985995Y-29714343D01*
X7992227Y-29721896D01*
X7999406Y-29731476D01*
X8005904Y-29741211D01*
X8011723Y-29751101D01*
X8012805Y-29753098D01*
X8031856Y-29753098D01*
X8031856Y-29350097D01*
X8142742Y-29350097D01*
X8142742Y-30330000D01*
G37*
G36*
X8374284Y-30330000D02*
G01*
X8374284Y-29350097D01*
X8484926Y-29350097D01*
X8484926Y-30330000D01*
X8374284Y-30330000D01*
G37*
G36*
X9007684Y-29626112D02*
G01*
X9023428Y-29626904D01*
X9038718Y-29628226D01*
X9053554Y-29630076D01*
X9067936Y-29632454D01*
X9081863Y-29635361D01*
X9095337Y-29638797D01*
X9108356Y-29642761D01*
X9120921Y-29647254D01*
X9133032Y-29652275D01*
X9144689Y-29657825D01*
X9155892Y-29663903D01*
X9166640Y-29670510D01*
X9176935Y-29677646D01*
X9186775Y-29685310D01*
X9196161Y-29693503D01*
X9205034Y-29702177D01*
X9213335Y-29711287D01*
X9221063Y-29720831D01*
X9228218Y-29730811D01*
X9234801Y-29741225D01*
X9240812Y-29752075D01*
X9246250Y-29763360D01*
X9251116Y-29775080D01*
X9255409Y-29787235D01*
X9259130Y-29799825D01*
X9262279Y-29812850D01*
X9264855Y-29826310D01*
X9266858Y-29840205D01*
X9268289Y-29854535D01*
X9269148Y-29869300D01*
X9269434Y-29884501D01*
X9269434Y-30194200D01*
X9270049Y-30204047D01*
X9272545Y-30214508D01*
X9278075Y-30224354D01*
X9286369Y-30231246D01*
X9297429Y-30235185D01*
X9308757Y-30236210D01*
X9371528Y-30236210D01*
X9371528Y-30330000D01*
X9273831Y-30330000D01*
X9262691Y-30329599D01*
X9252108Y-30328397D01*
X9242083Y-30326393D01*
X9232615Y-30323588D01*
X9221563Y-30318955D01*
X9211382Y-30313069D01*
X9202071Y-30305932D01*
X9200314Y-30304354D01*
X9192363Y-30295893D01*
X9185759Y-30286537D01*
X9180503Y-30276286D01*
X9176595Y-30265142D01*
X9174439Y-30255582D01*
X9173145Y-30245449D01*
X9172714Y-30234745D01*
X9172714Y-30227173D01*
X9155129Y-30227173D01*
X9149313Y-30237317D01*
X9143836Y-30245875D01*
X9137787Y-30254528D01*
X9131166Y-30263277D01*
X9123972Y-30272122D01*
X9116206Y-30281061D01*
X9114584Y-30282861D01*
X9107757Y-30289909D01*
X9100342Y-30296645D01*
X9092339Y-30303068D01*
X9083749Y-30309178D01*
X9074570Y-30314975D01*
X9064805Y-30320459D01*
X9054451Y-30325630D01*
X9043510Y-30330488D01*
X9031870Y-30334953D01*
X9019421Y-30338823D01*
X9009554Y-30341334D01*
X8999231Y-30343511D01*
X8988453Y-30345353D01*
X8977221Y-30346860D01*
X8965533Y-30348032D01*
X8953390Y-30348869D01*
X8940792Y-30349371D01*
X8927739Y-30349539D01*
X8914305Y-30349320D01*
X8901117Y-30348663D01*
X8888173Y-30347568D01*
X8875474Y-30346036D01*
X8863020Y-30344065D01*
X8850811Y-30341656D01*
X8838846Y-30338810D01*
X8827126Y-30335525D01*
X8815650Y-30331803D01*
X8804420Y-30327643D01*
X8797069Y-30324626D01*
X8786382Y-30319751D01*
X8776120Y-30314468D01*
X8766283Y-30308777D01*
X8756872Y-30302679D01*
X8747885Y-30296172D01*
X8739323Y-30289258D01*
X8731187Y-30281935D01*
X8723475Y-30274205D01*
X8716189Y-30266067D01*
X8709327Y-30257521D01*
X8704989Y-30251598D01*
X8698965Y-30242396D01*
X8693534Y-30232833D01*
X8688696Y-30222910D01*
X8684450Y-30212626D01*
X8680796Y-30201981D01*
X8677735Y-30190976D01*
X8675266Y-30179610D01*
X8673390Y-30167883D01*
X8672106Y-30155796D01*
X8671415Y-30143348D01*
X8671284Y-30134849D01*
X8671340Y-30132407D01*
X8782170Y-30132407D01*
X8782554Y-30142992D01*
X8783707Y-30153130D01*
X8785628Y-30162821D01*
X8789385Y-30175048D01*
X8794509Y-30186482D01*
X8800998Y-30197122D01*
X8808854Y-30206968D01*
X8818076Y-30216020D01*
X8825889Y-30222288D01*
X8834327Y-30228050D01*
X8843246Y-30233245D01*
X8852645Y-30237873D01*
X8862526Y-30241935D01*
X8872887Y-30245429D01*
X8883729Y-30248358D01*
X8895052Y-30250719D01*
X8906856Y-30252513D01*
X8919140Y-30253741D01*
X8931906Y-30254403D01*
X8940683Y-30254528D01*
X8952781Y-30254301D01*
X8964589Y-30253620D01*
X8976106Y-30252485D01*
X8987334Y-30250895D01*
X8998271Y-30248852D01*
X9008919Y-30246354D01*
X9019276Y-30243402D01*
X9029344Y-30239996D01*
X9039121Y-30236136D01*
X9048608Y-30231822D01*
X9057805Y-30227053D01*
X9066713Y-30221830D01*
X9075330Y-30216154D01*
X9083657Y-30210023D01*
X9091694Y-30203438D01*
X9099441Y-30196399D01*
X9106806Y-30188923D01*
X9113695Y-30181088D01*
X9120109Y-30172894D01*
X9126048Y-30164342D01*
X9131512Y-30155431D01*
X9136501Y-30146161D01*
X9141015Y-30136532D01*
X9145054Y-30126545D01*
X9148617Y-30116199D01*
X9151705Y-30105495D01*
X9154319Y-30094431D01*
X9156457Y-30083009D01*
X9158120Y-30071228D01*
X9159307Y-30059088D01*
X9160020Y-30046590D01*
X9160258Y-30033733D01*
X9160258Y-30017613D01*
X8932868Y-30017613D01*
X8920709Y-30017864D01*
X8908962Y-30018618D01*
X8897628Y-30019873D01*
X8886706Y-30021631D01*
X8876196Y-30023892D01*
X8866098Y-30026655D01*
X8856412Y-30029920D01*
X8847138Y-30033687D01*
X8838277Y-30037957D01*
X8827103Y-30044431D01*
X8824424Y-30046189D01*
X8814521Y-30053788D01*
X8805938Y-30062294D01*
X8798675Y-30071709D01*
X8792733Y-30082032D01*
X8788112Y-30093263D01*
X8784811Y-30105403D01*
X8783201Y-30115104D01*
X8782335Y-30125315D01*
X8782170Y-30132407D01*
X8671340Y-30132407D01*
X8671580Y-30122052D01*
X8672468Y-30109671D01*
X8673950Y-30097706D01*
X8676023Y-30086157D01*
X8678690Y-30075025D01*
X8681948Y-30064310D01*
X8685799Y-30054011D01*
X8690243Y-30044129D01*
X8695279Y-30034662D01*
X8700908Y-30025613D01*
X8704989Y-30019811D01*
X8711569Y-30011403D01*
X8718579Y-30003399D01*
X8726018Y-29995798D01*
X8733886Y-29988601D01*
X8742184Y-29981808D01*
X8750911Y-29975418D01*
X8760067Y-29969432D01*
X8769652Y-29963849D01*
X8779667Y-29958670D01*
X8790111Y-29953894D01*
X8797313Y-29950935D01*
X8808382Y-29946832D01*
X8819701Y-29943132D01*
X8831269Y-29939836D01*
X8843085Y-29936944D01*
X8855151Y-29934455D01*
X8867466Y-29932370D01*
X8880030Y-29930689D01*
X8892842Y-29929411D01*
X8905904Y-29928536D01*
X8919215Y-29928065D01*
X8928227Y-29927976D01*
X9160258Y-29927976D01*
X9160258Y-29877662D01*
X9159882Y-29864287D01*
X9158755Y-29851458D01*
X9156877Y-29839174D01*
X9154247Y-29827435D01*
X9150866Y-29816242D01*
X9146734Y-29805594D01*
X9141850Y-29795491D01*
X9136215Y-29785933D01*
X9129829Y-29776921D01*
X9122691Y-29768454D01*
X9117515Y-29763112D01*
X9109138Y-29755604D01*
X9100036Y-29748835D01*
X9090207Y-29742804D01*
X9079654Y-29737512D01*
X9068374Y-29732958D01*
X9056370Y-29729143D01*
X9043639Y-29726066D01*
X9030183Y-29723728D01*
X9016002Y-29722128D01*
X9006144Y-29721471D01*
X8995964Y-29721143D01*
X8990753Y-29721102D01*
X8980545Y-29721259D01*
X8970618Y-29721728D01*
X8956259Y-29723019D01*
X8942534Y-29725014D01*
X8929445Y-29727713D01*
X8916992Y-29731116D01*
X8905174Y-29735223D01*
X8893991Y-29740035D01*
X8883444Y-29745550D01*
X8873532Y-29751770D01*
X8864255Y-29758694D01*
X8861304Y-29761158D01*
X8852872Y-29768900D01*
X8844975Y-29777106D01*
X8837616Y-29785776D01*
X8830793Y-29794909D01*
X8824507Y-29804506D01*
X8818758Y-29814567D01*
X8813545Y-29825091D01*
X8808869Y-29836079D01*
X8804729Y-29847531D01*
X8801126Y-29859447D01*
X8799023Y-29867648D01*
X8694242Y-29834919D01*
X8697576Y-29824117D01*
X8701258Y-29813507D01*
X8705287Y-29803091D01*
X8709664Y-29792867D01*
X8714389Y-29782838D01*
X8719461Y-29773001D01*
X8724882Y-29763357D01*
X8730650Y-29753907D01*
X8736766Y-29744650D01*
X8743229Y-29735586D01*
X8747732Y-29729651D01*
X8754813Y-29720977D01*
X8762320Y-29712635D01*
X8770252Y-29704623D01*
X8778609Y-29696941D01*
X8787391Y-29689590D01*
X8796598Y-29682570D01*
X8806230Y-29675880D01*
X8816287Y-29669521D01*
X8826770Y-29663492D01*
X8837677Y-29657795D01*
X8845184Y-29654180D01*
X8856804Y-29649116D01*
X8868858Y-29644551D01*
X8881345Y-29640484D01*
X8894266Y-29636915D01*
X8907620Y-29633843D01*
X8921408Y-29631270D01*
X8935630Y-29629195D01*
X8945352Y-29628088D01*
X8955267Y-29627203D01*
X8965374Y-29626539D01*
X8975674Y-29626096D01*
X8986167Y-29625875D01*
X8991486Y-29625847D01*
X9007684Y-29626112D01*
G37*
G36*
X9632868Y-29753098D02*
G01*
X9652163Y-29753098D01*
X9657910Y-29743177D01*
X9664313Y-29733411D01*
X9671372Y-29723799D01*
X9679087Y-29714343D01*
X9685731Y-29706890D01*
X9692795Y-29699536D01*
X9700279Y-29692281D01*
X9708323Y-29685179D01*
X9716948Y-29678405D01*
X9726153Y-29671960D01*
X9735938Y-29665842D01*
X9746303Y-29660053D01*
X9757248Y-29654592D01*
X9768773Y-29649459D01*
X9780879Y-29644654D01*
X9790406Y-29641293D01*
X9800302Y-29638263D01*
X9810567Y-29635563D01*
X9821202Y-29633194D01*
X9832206Y-29631155D01*
X9843579Y-29629447D01*
X9855321Y-29628070D01*
X9867432Y-29627023D01*
X9879913Y-29626307D01*
X9892763Y-29625921D01*
X9901535Y-29625847D01*
X9912705Y-29626013D01*
X9923746Y-29626511D01*
X9934656Y-29627341D01*
X9945437Y-29628504D01*
X9956089Y-29629998D01*
X9966610Y-29631824D01*
X9977002Y-29633982D01*
X9987264Y-29636472D01*
X9997396Y-29639294D01*
X10007399Y-29642448D01*
X10017272Y-29645934D01*
X10027015Y-29649753D01*
X10036628Y-29653903D01*
X10046111Y-29658385D01*
X10055465Y-29663199D01*
X10064689Y-29668346D01*
X10073761Y-29673772D01*
X10082599Y-29679489D01*
X10091202Y-29685496D01*
X10099570Y-29691793D01*
X10107703Y-29698380D01*
X10115602Y-29705257D01*
X10123266Y-29712424D01*
X10130696Y-29719881D01*
X10137890Y-29727628D01*
X10144850Y-29735665D01*
X10151575Y-29743992D01*
X10158066Y-29752609D01*
X10164322Y-29761517D01*
X10170343Y-29770714D01*
X10176130Y-29780201D01*
X10181681Y-29789979D01*
X10186946Y-29799989D01*
X10191871Y-29810235D01*
X10196456Y-29820719D01*
X10200702Y-29831439D01*
X10204608Y-29842395D01*
X10208174Y-29853589D01*
X10211401Y-29865018D01*
X10214288Y-29876685D01*
X10216835Y-29888588D01*
X10219043Y-29900727D01*
X10220911Y-29913104D01*
X10222439Y-29925717D01*
X10223628Y-29938566D01*
X10224477Y-29951652D01*
X10224987Y-29964975D01*
X10225157Y-29978534D01*
X10225157Y-29996852D01*
X10224985Y-30010442D01*
X10224470Y-30023795D01*
X10223611Y-30036912D01*
X10222409Y-30049792D01*
X10220863Y-30062435D01*
X10218974Y-30074842D01*
X10216742Y-30087012D01*
X10214166Y-30098946D01*
X10211246Y-30110643D01*
X10207983Y-30122103D01*
X10204377Y-30133327D01*
X10200427Y-30144314D01*
X10196134Y-30155064D01*
X10191497Y-30165578D01*
X10186517Y-30175856D01*
X10181193Y-30185896D01*
X10175582Y-30195644D01*
X10169740Y-30205104D01*
X10163667Y-30214275D01*
X10157364Y-30223159D01*
X10150829Y-30231754D01*
X10144064Y-30240061D01*
X10137068Y-30248080D01*
X10129841Y-30255811D01*
X10122383Y-30263253D01*
X10114694Y-30270408D01*
X10106774Y-30277275D01*
X10098623Y-30283853D01*
X10090242Y-30290143D01*
X10081629Y-30296145D01*
X10072786Y-30301859D01*
X10063712Y-30307285D01*
X10054492Y-30312402D01*
X10045150Y-30317188D01*
X10035685Y-30321645D01*
X10026099Y-30325771D01*
X10016390Y-30329567D01*
X10006559Y-30333033D01*
X9996606Y-30336169D01*
X9986531Y-30338975D01*
X9976334Y-30341451D01*
X9966015Y-30343597D01*
X9955573Y-30345413D01*
X9945010Y-30346898D01*
X9934324Y-30348053D01*
X9923517Y-30348879D01*
X9912587Y-30349374D01*
X9901535Y-30349539D01*
X9888380Y-30349381D01*
X9875599Y-30348905D01*
X9863192Y-30348114D01*
X9851160Y-30347005D01*
X9839501Y-30345580D01*
X9828216Y-30343837D01*
X9817305Y-30341778D01*
X9806769Y-30339403D01*
X9796606Y-30336710D01*
X9786817Y-30333701D01*
X9777402Y-30330375D01*
X9763981Y-30324793D01*
X9751402Y-30318497D01*
X9739664Y-30311489D01*
X9735938Y-30308995D01*
X9725174Y-30301257D01*
X9714955Y-30293338D01*
X9705282Y-30285240D01*
X9696153Y-30276961D01*
X9687570Y-30268501D01*
X9679532Y-30259862D01*
X9672040Y-30251042D01*
X9665092Y-30242042D01*
X9658690Y-30232861D01*
X9652834Y-30223500D01*
X9649232Y-30217159D01*
X9630181Y-30217159D01*
X9630181Y-30330000D01*
X9522226Y-30330000D01*
X9522226Y-29993677D01*
X9632135Y-29993677D01*
X9632398Y-30008701D01*
X9633188Y-30023303D01*
X9634505Y-30037483D01*
X9636348Y-30051242D01*
X9638718Y-30064579D01*
X9641615Y-30077494D01*
X9645038Y-30089988D01*
X9648988Y-30102060D01*
X9653464Y-30113710D01*
X9658467Y-30124939D01*
X9663997Y-30135745D01*
X9670054Y-30146130D01*
X9676637Y-30156094D01*
X9683746Y-30165636D01*
X9691383Y-30174756D01*
X9699546Y-30183454D01*
X9708149Y-30191676D01*
X9717044Y-30199368D01*
X9726230Y-30206529D01*
X9735709Y-30213160D01*
X9745480Y-30219260D01*
X9755542Y-30224830D01*
X9765897Y-30229869D01*
X9776543Y-30234378D01*
X9787482Y-30238357D01*
X9798712Y-30241805D01*
X9810235Y-30244722D01*
X9822049Y-30247110D01*
X9834155Y-30248966D01*
X9846553Y-30250292D01*
X9859244Y-30251088D01*
X9872226Y-30251353D01*
X9885323Y-30251088D01*
X9898115Y-30250292D01*
X9910602Y-30248966D01*
X9922784Y-30247110D01*
X9934660Y-30244722D01*
X9946231Y-30241805D01*
X9957497Y-30238357D01*
X9968457Y-30234378D01*
X9979112Y-30229869D01*
X9989462Y-30224830D01*
X9999507Y-30219260D01*
X10009246Y-30213160D01*
X10018680Y-30206529D01*
X10027808Y-30199368D01*
X10036632Y-30191676D01*
X10045150Y-30183454D01*
X10053283Y-30174756D01*
X10060892Y-30165636D01*
X10067976Y-30156094D01*
X10074535Y-30146130D01*
X10080570Y-30135745D01*
X10086079Y-30124939D01*
X10091064Y-30113710D01*
X10095525Y-30102060D01*
X10099460Y-30089988D01*
X10102871Y-30077494D01*
X10105757Y-30064579D01*
X10108118Y-30051242D01*
X10109955Y-30037483D01*
X10111267Y-30023303D01*
X10112054Y-30008701D01*
X10112316Y-29993677D01*
X10112316Y-29981709D01*
X10112055Y-29966715D01*
X10111271Y-29952141D01*
X10109964Y-29937986D01*
X10108134Y-29924251D01*
X10105781Y-29910936D01*
X10102905Y-29898041D01*
X10099507Y-29885565D01*
X10095586Y-29873510D01*
X10091142Y-29861874D01*
X10086175Y-29850658D01*
X10080685Y-29839861D01*
X10074672Y-29829485D01*
X10068137Y-29819528D01*
X10061079Y-29809991D01*
X10053498Y-29800874D01*
X10045394Y-29792177D01*
X10036903Y-29783955D01*
X10028102Y-29776263D01*
X10018990Y-29769102D01*
X10009566Y-29762471D01*
X9999832Y-29756370D01*
X9989787Y-29750800D01*
X9979430Y-29745761D01*
X9968763Y-29741252D01*
X9957784Y-29737274D01*
X9946495Y-29733826D01*
X9934894Y-29730908D01*
X9922982Y-29728521D01*
X9910760Y-29726664D01*
X9898226Y-29725338D01*
X9885381Y-29724542D01*
X9872226Y-29724277D01*
X9859244Y-29724542D01*
X9846553Y-29725338D01*
X9834155Y-29726664D01*
X9822049Y-29728521D01*
X9810235Y-29730908D01*
X9798712Y-29733826D01*
X9787482Y-29737274D01*
X9776543Y-29741252D01*
X9765897Y-29745761D01*
X9755542Y-29750800D01*
X9745480Y-29756370D01*
X9735709Y-29762471D01*
X9726230Y-29769102D01*
X9717044Y-29776263D01*
X9708149Y-29783955D01*
X9699546Y-29792177D01*
X9691383Y-29800874D01*
X9683746Y-29809991D01*
X9676637Y-29819528D01*
X9670054Y-29829485D01*
X9663997Y-29839861D01*
X9658467Y-29850658D01*
X9653464Y-29861874D01*
X9648988Y-29873510D01*
X9645038Y-29885565D01*
X9641615Y-29898041D01*
X9638718Y-29910936D01*
X9636348Y-29924251D01*
X9634505Y-29937986D01*
X9633188Y-29952141D01*
X9632398Y-29966715D01*
X9632135Y-29981709D01*
X9632135Y-29993677D01*
X9522226Y-29993677D01*
X9522226Y-29350097D01*
X9632868Y-29350097D01*
X9632868Y-29753098D01*
G37*
G36*
X10698255Y-30349539D02*
G01*
X10682563Y-30349310D01*
X10667179Y-30348623D01*
X10652102Y-30347478D01*
X10637332Y-30345875D01*
X10622869Y-30343814D01*
X10608713Y-30341296D01*
X10594865Y-30338319D01*
X10581324Y-30334884D01*
X10568090Y-30330992D01*
X10555163Y-30326641D01*
X10542543Y-30321833D01*
X10530231Y-30316566D01*
X10518226Y-30310842D01*
X10506528Y-30304659D01*
X10495137Y-30298019D01*
X10484054Y-30290921D01*
X10473421Y-30283292D01*
X10463320Y-30275121D01*
X10453752Y-30266409D01*
X10444716Y-30257154D01*
X10436212Y-30247358D01*
X10428241Y-30237019D01*
X10420802Y-30226139D01*
X10413895Y-30214717D01*
X10407521Y-30202753D01*
X10401679Y-30190247D01*
X10396370Y-30177199D01*
X10391593Y-30163609D01*
X10387348Y-30149477D01*
X10383636Y-30134804D01*
X10380456Y-30119588D01*
X10377808Y-30103831D01*
X10483565Y-30080872D01*
X10485759Y-30093169D01*
X10488308Y-30104963D01*
X10491214Y-30116255D01*
X10494476Y-30127045D01*
X10498095Y-30137333D01*
X10502070Y-30147118D01*
X10506401Y-30156401D01*
X10511089Y-30165181D01*
X10517893Y-30176107D01*
X10525331Y-30186140D01*
X10533307Y-30195384D01*
X10541726Y-30203940D01*
X10550587Y-30211809D01*
X10559891Y-30218991D01*
X10569638Y-30225486D01*
X10579828Y-30231295D01*
X10590460Y-30236416D01*
X10601535Y-30240851D01*
X10612930Y-30244686D01*
X10624524Y-30248010D01*
X10636316Y-30250823D01*
X10648307Y-30253124D01*
X10660496Y-30254914D01*
X10672884Y-30256192D01*
X10685470Y-30256959D01*
X10698255Y-30257215D01*
X10712528Y-30256947D01*
X10726222Y-30256142D01*
X10739336Y-30254800D01*
X10751870Y-30252922D01*
X10763825Y-30250507D01*
X10775200Y-30247555D01*
X10785996Y-30244067D01*
X10796212Y-30240042D01*
X10805848Y-30235480D01*
X10814905Y-30230382D01*
X10820621Y-30226685D01*
X10828652Y-30220728D01*
X10838132Y-30212204D01*
X10846207Y-30203016D01*
X10852878Y-30193165D01*
X10858144Y-30182649D01*
X10862006Y-30171469D01*
X10864464Y-30159625D01*
X10865517Y-30147117D01*
X10865561Y-30143886D01*
X10864897Y-30131121D01*
X10862905Y-30119325D01*
X10859585Y-30108498D01*
X10854937Y-30098640D01*
X10848960Y-30089752D01*
X10841656Y-30081834D01*
X10833024Y-30074884D01*
X10823063Y-30068904D01*
X10811939Y-30063546D01*
X10802939Y-30059708D01*
X10793377Y-30056024D01*
X10783253Y-30052495D01*
X10772566Y-30049120D01*
X10761317Y-30045900D01*
X10749505Y-30042835D01*
X10737131Y-30039924D01*
X10724194Y-30037168D01*
X10710695Y-30034566D01*
X10706071Y-30033733D01*
X10648918Y-30023719D01*
X10636525Y-30021374D01*
X10624351Y-30018827D01*
X10612397Y-30016079D01*
X10600661Y-30013129D01*
X10589144Y-30009977D01*
X10577846Y-30006623D01*
X10566767Y-30003067D01*
X10555907Y-29999310D01*
X10545266Y-29995351D01*
X10534844Y-29991190D01*
X10528018Y-29988304D01*
X10518046Y-29983716D01*
X10508466Y-29978836D01*
X10499276Y-29973663D01*
X10490477Y-29968200D01*
X10482068Y-29962444D01*
X10474050Y-29956396D01*
X10466423Y-29950056D01*
X10459187Y-29943424D01*
X10450146Y-29934128D01*
X10441800Y-29924312D01*
X10434301Y-29913848D01*
X10427802Y-29902727D01*
X10422302Y-29890950D01*
X10418834Y-29881687D01*
X10415928Y-29872054D01*
X10413585Y-29862052D01*
X10411804Y-29851680D01*
X10410585Y-29840940D01*
X10409929Y-29829830D01*
X10409804Y-29822219D01*
X10410082Y-29810807D01*
X10410915Y-29799714D01*
X10412303Y-29788940D01*
X10414246Y-29778484D01*
X10416745Y-29768347D01*
X10419799Y-29758528D01*
X10423408Y-29749029D01*
X10427573Y-29739848D01*
X10432293Y-29730985D01*
X10437568Y-29722442D01*
X10443398Y-29714217D01*
X10449784Y-29706310D01*
X10456724Y-29698722D01*
X10464221Y-29691453D01*
X10472272Y-29684503D01*
X10480879Y-29677871D01*
X10489973Y-29671571D01*
X10499426Y-29665678D01*
X10509238Y-29660191D01*
X10519408Y-29655111D01*
X10529937Y-29650437D01*
X10540825Y-29646169D01*
X10552072Y-29642308D01*
X10563677Y-29638853D01*
X10575641Y-29635805D01*
X10587964Y-29633163D01*
X10600646Y-29630928D01*
X10613686Y-29629099D01*
X10627085Y-29627676D01*
X10640843Y-29626660D01*
X10654959Y-29626051D01*
X10669434Y-29625847D01*
X10683766Y-29626052D01*
X10697759Y-29626668D01*
X10711412Y-29627694D01*
X10724725Y-29629129D01*
X10737698Y-29630976D01*
X10750332Y-29633232D01*
X10762626Y-29635899D01*
X10774581Y-29638975D01*
X10786196Y-29642463D01*
X10797471Y-29646360D01*
X10808407Y-29650668D01*
X10819002Y-29655385D01*
X10829259Y-29660514D01*
X10839175Y-29666052D01*
X10848752Y-29672001D01*
X10857990Y-29678360D01*
X10866851Y-29685059D01*
X10875300Y-29692091D01*
X10883338Y-29699454D01*
X10890963Y-29707150D01*
X10898175Y-29715177D01*
X10904976Y-29723537D01*
X10911364Y-29732228D01*
X10917341Y-29741252D01*
X10922905Y-29750608D01*
X10928057Y-29760295D01*
X10932797Y-29770315D01*
X10937124Y-29780667D01*
X10941040Y-29791351D01*
X10944543Y-29802366D01*
X10947634Y-29813714D01*
X10950314Y-29825394D01*
X10847243Y-29852016D01*
X10844470Y-29838699D01*
X10841095Y-29826133D01*
X10837119Y-29814319D01*
X10832543Y-29803255D01*
X10827365Y-29792944D01*
X10821586Y-29783383D01*
X10815206Y-29774574D01*
X10808225Y-29766516D01*
X10800643Y-29759209D01*
X10792460Y-29752654D01*
X10786671Y-29748702D01*
X10777630Y-29743245D01*
X10768187Y-29738326D01*
X10758339Y-29733943D01*
X10748088Y-29730097D01*
X10737433Y-29726788D01*
X10726375Y-29724015D01*
X10714914Y-29721779D01*
X10703048Y-29720079D01*
X10690779Y-29718917D01*
X10678107Y-29718290D01*
X10669434Y-29718171D01*
X10656682Y-29718401D01*
X10644436Y-29719090D01*
X10632696Y-29720238D01*
X10621463Y-29721846D01*
X10610737Y-29723913D01*
X10600518Y-29726440D01*
X10590805Y-29729426D01*
X10581598Y-29732872D01*
X10570111Y-29738180D01*
X10559525Y-29744305D01*
X10550022Y-29751148D01*
X10541787Y-29758731D01*
X10534818Y-29767054D01*
X10529117Y-29776118D01*
X10524682Y-29785922D01*
X10521515Y-29796466D01*
X10519614Y-29807751D01*
X10518981Y-29819776D01*
X10519572Y-29831759D01*
X10521347Y-29842918D01*
X10524304Y-29853253D01*
X10528445Y-29862763D01*
X10533769Y-29871449D01*
X10540276Y-29879310D01*
X10547965Y-29886348D01*
X10556838Y-29892561D01*
X10566791Y-29898117D01*
X10577599Y-29903307D01*
X10589262Y-29908131D01*
X10598569Y-29911508D01*
X10608358Y-29914680D01*
X10618628Y-29917645D01*
X10629378Y-29920404D01*
X10640610Y-29922957D01*
X10652322Y-29925304D01*
X10660397Y-29926755D01*
X10717550Y-29936769D01*
X10730981Y-29939103D01*
X10744163Y-29941617D01*
X10757096Y-29944312D01*
X10769780Y-29947187D01*
X10782215Y-29950242D01*
X10794401Y-29953478D01*
X10806338Y-29956894D01*
X10818025Y-29960491D01*
X10829464Y-29964267D01*
X10840654Y-29968224D01*
X10847976Y-29970963D01*
X10858708Y-29975245D01*
X10869016Y-29979850D01*
X10878898Y-29984776D01*
X10888356Y-29990025D01*
X10897388Y-29995596D01*
X10905996Y-30001488D01*
X10914178Y-30007703D01*
X10921936Y-30014239D01*
X10929268Y-30021098D01*
X10936175Y-30028278D01*
X10940544Y-30033244D01*
X10946655Y-30041033D01*
X10952164Y-30049284D01*
X10957073Y-30058000D01*
X10961381Y-30067179D01*
X10965087Y-30076822D01*
X10968193Y-30086928D01*
X10970697Y-30097498D01*
X10972601Y-30108532D01*
X10973903Y-30120030D01*
X10974604Y-30131991D01*
X10974738Y-30140223D01*
X10974446Y-30152591D01*
X10973570Y-30164601D01*
X10972110Y-30176252D01*
X10970067Y-30187545D01*
X10967439Y-30198479D01*
X10964228Y-30209053D01*
X10960432Y-30219270D01*
X10956053Y-30229127D01*
X10951090Y-30238626D01*
X10945543Y-30247766D01*
X10939412Y-30256547D01*
X10932698Y-30264970D01*
X10925399Y-30273034D01*
X10917516Y-30280739D01*
X10909050Y-30288085D01*
X10900000Y-30295073D01*
X10890482Y-30301668D01*
X10880552Y-30307838D01*
X10870210Y-30313583D01*
X10859455Y-30318902D01*
X10848289Y-30323795D01*
X10836710Y-30328263D01*
X10824719Y-30332305D01*
X10812316Y-30335922D01*
X10799501Y-30339114D01*
X10786274Y-30341880D01*
X10772634Y-30344220D01*
X10758583Y-30346135D01*
X10744119Y-30347624D01*
X10729243Y-30348688D01*
X10713955Y-30349326D01*
X10698255Y-30349539D01*
G37*
G36*
X11221667Y-30349539D02*
G01*
X11211569Y-30349123D01*
X11199570Y-30347433D01*
X11188261Y-30344443D01*
X11177645Y-30340153D01*
X11167720Y-30334564D01*
X11158487Y-30327674D01*
X11153279Y-30322916D01*
X11145469Y-30314157D01*
X11138983Y-30304670D01*
X11133820Y-30294455D01*
X11129981Y-30283513D01*
X11127466Y-30271844D01*
X11126407Y-30261984D01*
X11126168Y-30254284D01*
X11126592Y-30244079D01*
X11127863Y-30234348D01*
X11130643Y-30222849D01*
X11134746Y-30212089D01*
X11140174Y-30202069D01*
X11146925Y-30192788D01*
X11153279Y-30185896D01*
X11162097Y-30178227D01*
X11171607Y-30171857D01*
X11181809Y-30166787D01*
X11192702Y-30163018D01*
X11204286Y-30160548D01*
X11214052Y-30159508D01*
X11221667Y-30159274D01*
X11231761Y-30159694D01*
X11243746Y-30161399D01*
X11255027Y-30164416D01*
X11265604Y-30168745D01*
X11275477Y-30174386D01*
X11284647Y-30181339D01*
X11289811Y-30186140D01*
X11297551Y-30194830D01*
X11303979Y-30204258D01*
X11309095Y-30214426D01*
X11312900Y-30225334D01*
X11315392Y-30236981D01*
X11316442Y-30246831D01*
X11316678Y-30254528D01*
X11316258Y-30264733D01*
X11314999Y-30274465D01*
X11312244Y-30285964D01*
X11308177Y-30296723D01*
X11302798Y-30306743D01*
X11296108Y-30316024D01*
X11289811Y-30322916D01*
X11281063Y-30330586D01*
X11271612Y-30336956D01*
X11261457Y-30342025D01*
X11250599Y-30345795D01*
X11239036Y-30348265D01*
X11229280Y-30349305D01*
X11221667Y-30349539D01*
G37*
G36*
X11514270Y-30330000D02*
G01*
X11514270Y-29645631D01*
X11624912Y-29645631D01*
X11624912Y-30330000D01*
X11514270Y-30330000D01*
G37*
G36*
X11569958Y-29538408D02*
G01*
X11559088Y-29537830D01*
X11548768Y-29536095D01*
X11538996Y-29533203D01*
X11529772Y-29529154D01*
X11521097Y-29523948D01*
X11512971Y-29517586D01*
X11509874Y-29514717D01*
X11502838Y-29506933D01*
X11496994Y-29498541D01*
X11492343Y-29489540D01*
X11488884Y-29479931D01*
X11486618Y-29469714D01*
X11485545Y-29458889D01*
X11485450Y-29454389D01*
X11486046Y-29442987D01*
X11487835Y-29432288D01*
X11490816Y-29422293D01*
X11494990Y-29413001D01*
X11500357Y-29404413D01*
X11506916Y-29396529D01*
X11509874Y-29393572D01*
X11517781Y-29386818D01*
X11526236Y-29381208D01*
X11535240Y-29376743D01*
X11544793Y-29373422D01*
X11554894Y-29371247D01*
X11565544Y-29370217D01*
X11569958Y-29370125D01*
X11581231Y-29370698D01*
X11591849Y-29372415D01*
X11601811Y-29375277D01*
X11611116Y-29379284D01*
X11619766Y-29384436D01*
X11627760Y-29390733D01*
X11630774Y-29393572D01*
X11637599Y-29401175D01*
X11643268Y-29409482D01*
X11647779Y-29418492D01*
X11651134Y-29428205D01*
X11653332Y-29438623D01*
X11654373Y-29449744D01*
X11654466Y-29454389D01*
X11653887Y-29465457D01*
X11652152Y-29475918D01*
X11649260Y-29485770D01*
X11645211Y-29495013D01*
X11640005Y-29503649D01*
X11633643Y-29511676D01*
X11630774Y-29514717D01*
X11623043Y-29521542D01*
X11614655Y-29527210D01*
X11605612Y-29531722D01*
X11595912Y-29535077D01*
X11585557Y-29537275D01*
X11574546Y-29538316D01*
X11569958Y-29538408D01*
G37*
G36*
X12186331Y-29626018D02*
G01*
X12198990Y-29626530D01*
X12211458Y-29627384D01*
X12223735Y-29628580D01*
X12235821Y-29630117D01*
X12247716Y-29631995D01*
X12259421Y-29634216D01*
X12270935Y-29636777D01*
X12282258Y-29639680D01*
X12293390Y-29642925D01*
X12304331Y-29646512D01*
X12315081Y-29650440D01*
X12325641Y-29654709D01*
X12336010Y-29659320D01*
X12346188Y-29664273D01*
X12356175Y-29669567D01*
X12365931Y-29675141D01*
X12375413Y-29680997D01*
X12384623Y-29687132D01*
X12393560Y-29693548D01*
X12402224Y-29700245D01*
X12410615Y-29707222D01*
X12418733Y-29714480D01*
X12426578Y-29722018D01*
X12434151Y-29729837D01*
X12441450Y-29737936D01*
X12448477Y-29746315D01*
X12455231Y-29754976D01*
X12461712Y-29763916D01*
X12467920Y-29773137D01*
X12473856Y-29782639D01*
X12479518Y-29792421D01*
X12484871Y-29802422D01*
X12489879Y-29812640D01*
X12494542Y-29823075D01*
X12498859Y-29833729D01*
X12502831Y-29844599D01*
X12506457Y-29855688D01*
X12509738Y-29866993D01*
X12512674Y-29878517D01*
X12515264Y-29890257D01*
X12517509Y-29902216D01*
X12519409Y-29914392D01*
X12520963Y-29926785D01*
X12522172Y-29939396D01*
X12523035Y-29952225D01*
X12523553Y-29965271D01*
X12523726Y-29978534D01*
X12523726Y-29996852D01*
X12523553Y-30010146D01*
X12523035Y-30023223D01*
X12522172Y-30036082D01*
X12520963Y-30048723D01*
X12519409Y-30061147D01*
X12517509Y-30073354D01*
X12515264Y-30085343D01*
X12512674Y-30097114D01*
X12509738Y-30108668D01*
X12506457Y-30120004D01*
X12502831Y-30131123D01*
X12498859Y-30142024D01*
X12494542Y-30152708D01*
X12489879Y-30163174D01*
X12484871Y-30173423D01*
X12479518Y-30183454D01*
X12473856Y-30193206D01*
X12467920Y-30202680D01*
X12461712Y-30211876D01*
X12455231Y-30220792D01*
X12448477Y-30229431D01*
X12441450Y-30237790D01*
X12434151Y-30245871D01*
X12426578Y-30253674D01*
X12418733Y-30261197D01*
X12410615Y-30268443D01*
X12402224Y-30275409D01*
X12393560Y-30282097D01*
X12384623Y-30288507D01*
X12375413Y-30294638D01*
X12365931Y-30300490D01*
X12356175Y-30306064D01*
X12346188Y-30311328D01*
X12336010Y-30316253D01*
X12325641Y-30320838D01*
X12315081Y-30325084D01*
X12304331Y-30328990D01*
X12293390Y-30332556D01*
X12282258Y-30335783D01*
X12270935Y-30338670D01*
X12259421Y-30341217D01*
X12247716Y-30343425D01*
X12235821Y-30345293D01*
X12223735Y-30346822D01*
X12211458Y-30348011D01*
X12198990Y-30348860D01*
X12186331Y-30349369D01*
X12173482Y-30349539D01*
X12160632Y-30349369D01*
X12147974Y-30348860D01*
X12135506Y-30348011D01*
X12123229Y-30346822D01*
X12111143Y-30345293D01*
X12099247Y-30343425D01*
X12087543Y-30341217D01*
X12076029Y-30338670D01*
X12064706Y-30335783D01*
X12053574Y-30332556D01*
X12042632Y-30328990D01*
X12031882Y-30325084D01*
X12021322Y-30320838D01*
X12010953Y-30316253D01*
X12000775Y-30311328D01*
X11990788Y-30306064D01*
X11981033Y-30300490D01*
X11971550Y-30294638D01*
X11962340Y-30288507D01*
X11953404Y-30282097D01*
X11944740Y-30275409D01*
X11936349Y-30268443D01*
X11928230Y-30261197D01*
X11920385Y-30253674D01*
X11912813Y-30245871D01*
X11905513Y-30237790D01*
X11898486Y-30229431D01*
X11891732Y-30220792D01*
X11885251Y-30211876D01*
X11879043Y-30202680D01*
X11873108Y-30193206D01*
X11867445Y-30183454D01*
X11862122Y-30173423D01*
X11857141Y-30163174D01*
X11852505Y-30152708D01*
X11848211Y-30142024D01*
X11844261Y-30131123D01*
X11840655Y-30120004D01*
X11837392Y-30108668D01*
X11834473Y-30097114D01*
X11831897Y-30085343D01*
X11829664Y-30073354D01*
X11827775Y-30061147D01*
X11826229Y-30048723D01*
X11825027Y-30036082D01*
X11824169Y-30023223D01*
X11823653Y-30010146D01*
X11823482Y-29996852D01*
X11823482Y-29993677D01*
X11934368Y-29993677D01*
X11934624Y-30008233D01*
X11935391Y-30022410D01*
X11936669Y-30036207D01*
X11938459Y-30049624D01*
X11940760Y-30062661D01*
X11943573Y-30075319D01*
X11946897Y-30087597D01*
X11950732Y-30099495D01*
X11955079Y-30111014D01*
X11959937Y-30122153D01*
X11965307Y-30132912D01*
X11971188Y-30143291D01*
X11977580Y-30153291D01*
X11984484Y-30162911D01*
X11991899Y-30172151D01*
X11999825Y-30181011D01*
X12008203Y-30189411D01*
X12016911Y-30197269D01*
X12025949Y-30204585D01*
X12035317Y-30211359D01*
X12045015Y-30217591D01*
X12055043Y-30223281D01*
X12065401Y-30228429D01*
X12076090Y-30233035D01*
X12087108Y-30237099D01*
X12098457Y-30240622D01*
X12110136Y-30243602D01*
X12122145Y-30246041D01*
X12134484Y-30247938D01*
X12147153Y-30249293D01*
X12160152Y-30250105D01*
X12173482Y-30250376D01*
X12186956Y-30250105D01*
X12200085Y-30249293D01*
X12212869Y-30247938D01*
X12225307Y-30246041D01*
X12237400Y-30243602D01*
X12249147Y-30240622D01*
X12260550Y-30237099D01*
X12271606Y-30233035D01*
X12282318Y-30228429D01*
X12292684Y-30223281D01*
X12302704Y-30217591D01*
X12312380Y-30211359D01*
X12321709Y-30204585D01*
X12330694Y-30197269D01*
X12339333Y-30189411D01*
X12347627Y-30181011D01*
X12355524Y-30172151D01*
X12362911Y-30162911D01*
X12369789Y-30153291D01*
X12376157Y-30143291D01*
X12382016Y-30132912D01*
X12387366Y-30122153D01*
X12392206Y-30111014D01*
X12396536Y-30099495D01*
X12400358Y-30087597D01*
X12403669Y-30075319D01*
X12406471Y-30062661D01*
X12408764Y-30049624D01*
X12410547Y-30036207D01*
X12411821Y-30022410D01*
X12412585Y-30008233D01*
X12412840Y-29993677D01*
X12412840Y-29981709D01*
X12412586Y-29967182D01*
X12411825Y-29953034D01*
X12410556Y-29939262D01*
X12408779Y-29925869D01*
X12406495Y-29912854D01*
X12403703Y-29900216D01*
X12400404Y-29887956D01*
X12396598Y-29876074D01*
X12392283Y-29864570D01*
X12387461Y-29853444D01*
X12382132Y-29842695D01*
X12376295Y-29832324D01*
X12369950Y-29822331D01*
X12363098Y-29812716D01*
X12355738Y-29803479D01*
X12347871Y-29794619D01*
X12339576Y-29786190D01*
X12330934Y-29778305D01*
X12321945Y-29770963D01*
X12312609Y-29764165D01*
X12302925Y-29757911D01*
X12292894Y-29752201D01*
X12282515Y-29747035D01*
X12271789Y-29742412D01*
X12260716Y-29738334D01*
X12249296Y-29734799D01*
X12237529Y-29731808D01*
X12225414Y-29729361D01*
X12212952Y-29727457D01*
X12200142Y-29726098D01*
X12186986Y-29725282D01*
X12173482Y-29725010D01*
X12160152Y-29725282D01*
X12147153Y-29726098D01*
X12134484Y-29727457D01*
X12122145Y-29729361D01*
X12110136Y-29731808D01*
X12098457Y-29734799D01*
X12087108Y-29738334D01*
X12076090Y-29742412D01*
X12065401Y-29747035D01*
X12055043Y-29752201D01*
X12045015Y-29757911D01*
X12035317Y-29764165D01*
X12025949Y-29770963D01*
X12016911Y-29778305D01*
X12008203Y-29786190D01*
X11999825Y-29794619D01*
X11991899Y-29803479D01*
X11984484Y-29812716D01*
X11977580Y-29822331D01*
X11971188Y-29832324D01*
X11965307Y-29842695D01*
X11959937Y-29853444D01*
X11955079Y-29864570D01*
X11950732Y-29876074D01*
X11946897Y-29887956D01*
X11943573Y-29900216D01*
X11940760Y-29912854D01*
X11938459Y-29925869D01*
X11936669Y-29939262D01*
X11935391Y-29953034D01*
X11934624Y-29967182D01*
X11934368Y-29981709D01*
X11934368Y-29993677D01*
X11823482Y-29993677D01*
X11823482Y-29978534D01*
X11823653Y-29965271D01*
X11824169Y-29952225D01*
X11825027Y-29939396D01*
X11826229Y-29926785D01*
X11827775Y-29914392D01*
X11829664Y-29902216D01*
X11831897Y-29890257D01*
X11834473Y-29878517D01*
X11837392Y-29866993D01*
X11840655Y-29855688D01*
X11844261Y-29844599D01*
X11848211Y-29833729D01*
X11852505Y-29823075D01*
X11857141Y-29812640D01*
X11862122Y-29802422D01*
X11867445Y-29792421D01*
X11873108Y-29782639D01*
X11879043Y-29773137D01*
X11885251Y-29763916D01*
X11891732Y-29754976D01*
X11898486Y-29746315D01*
X11905513Y-29737936D01*
X11912813Y-29729837D01*
X11920385Y-29722018D01*
X11928230Y-29714480D01*
X11936349Y-29707222D01*
X11944740Y-29700245D01*
X11953404Y-29693548D01*
X11962340Y-29687132D01*
X11971550Y-29680997D01*
X11981033Y-29675141D01*
X11990788Y-29669567D01*
X12000775Y-29664273D01*
X12010953Y-29659320D01*
X12021322Y-29654709D01*
X12031882Y-29650440D01*
X12042632Y-29646512D01*
X12053574Y-29642925D01*
X12064706Y-29639680D01*
X12076029Y-29636777D01*
X12087543Y-29634216D01*
X12099247Y-29631995D01*
X12111143Y-29630117D01*
X12123229Y-29628580D01*
X12135506Y-29627384D01*
X12147974Y-29626530D01*
X12160632Y-29626018D01*
X12173482Y-29625847D01*
X12186331Y-29626018D01*
G37*
G36*
X-12520865Y-29330413D02*
G01*
X-12510084Y-29330710D01*
X-12499442Y-29331207D01*
X-12488940Y-29331901D01*
X-12478578Y-29332794D01*
X-12468356Y-29333886D01*
X-12458274Y-29335175D01*
X-12448331Y-29336664D01*
X-12438528Y-29338351D01*
X-12428865Y-29340236D01*
X-12409958Y-29344602D01*
X-12391611Y-29349761D01*
X-12373822Y-29355715D01*
X-12356592Y-29362462D01*
X-12339922Y-29370003D01*
X-12323810Y-29378338D01*
X-12308258Y-29387466D01*
X-12293265Y-29397389D01*
X-12278831Y-29408105D01*
X-12264955Y-29419615D01*
X-12251639Y-29431919D01*
X-12239010Y-29444951D01*
X-12227196Y-29458709D01*
X-12216197Y-29473192D01*
X-12206012Y-29488400D01*
X-12196642Y-29504333D01*
X-12188087Y-29520991D01*
X-12180346Y-29538374D01*
X-12173421Y-29556482D01*
X-12170263Y-29565808D01*
X-12167310Y-29575316D01*
X-12164560Y-29585004D01*
X-12162014Y-29594874D01*
X-12159671Y-29604925D01*
X-12157532Y-29615158D01*
X-12155597Y-29625572D01*
X-12153866Y-29636167D01*
X-12152338Y-29646943D01*
X-12151014Y-29657900D01*
X-12149894Y-29669039D01*
X-12148977Y-29680359D01*
X-12148264Y-29691861D01*
X-12147755Y-29703543D01*
X-12147450Y-29715407D01*
X-12147348Y-29727452D01*
X-12147348Y-29952644D01*
X-12147450Y-29964675D01*
X-12147755Y-29976525D01*
X-12148264Y-29988195D01*
X-12148977Y-29999684D01*
X-12149894Y-30010993D01*
X-12151014Y-30022122D01*
X-12152338Y-30033070D01*
X-12153866Y-30043838D01*
X-12155597Y-30054426D01*
X-12157532Y-30064834D01*
X-12159671Y-30075061D01*
X-12162014Y-30085108D01*
X-12164560Y-30094974D01*
X-12167310Y-30104661D01*
X-12170263Y-30114167D01*
X-12173421Y-30123492D01*
X-12180346Y-30141602D01*
X-12188087Y-30158991D01*
X-12196642Y-30175659D01*
X-12206012Y-30191605D01*
X-12216197Y-30206831D01*
X-12227196Y-30221334D01*
X-12239010Y-30235117D01*
X-12251639Y-30248178D01*
X-12264955Y-30260452D01*
X-12278831Y-30271935D01*
X-12293265Y-30282625D01*
X-12308258Y-30292523D01*
X-12323810Y-30301630D01*
X-12339922Y-30309945D01*
X-12356592Y-30317468D01*
X-12373822Y-30324199D01*
X-12391611Y-30330138D01*
X-12409958Y-30335285D01*
X-12428865Y-30339640D01*
X-12438528Y-30341521D01*
X-12448331Y-30343204D01*
X-12458274Y-30344689D01*
X-12468356Y-30345975D01*
X-12474877Y-30346669D01*
X-12474877Y-30418171D01*
X-12474267Y-30428017D01*
X-12471786Y-30438479D01*
X-12466291Y-30448325D01*
X-12458048Y-30455217D01*
X-12447057Y-30459155D01*
X-12435799Y-30460181D01*
X-12343230Y-30460181D01*
X-12343230Y-30556168D01*
X-12475366Y-30556168D01*
X-12487937Y-30555680D01*
X-12499882Y-30554214D01*
X-12511201Y-30551772D01*
X-12521894Y-30548353D01*
X-12531962Y-30543956D01*
X-12541403Y-30538583D01*
X-12550219Y-30532233D01*
X-12558408Y-30524905D01*
X-12565736Y-30516727D01*
X-12572086Y-30507824D01*
X-12577459Y-30498195D01*
X-12581856Y-30487841D01*
X-12585275Y-30476763D01*
X-12587718Y-30464959D01*
X-12589183Y-30452430D01*
X-12589641Y-30442558D01*
X-12589672Y-30439176D01*
X-12589672Y-30346565D01*
X-12595216Y-30345975D01*
X-12605298Y-30344689D01*
X-12615241Y-30343204D01*
X-12625044Y-30341521D01*
X-12634707Y-30339640D01*
X-12653614Y-30335285D01*
X-12671961Y-30330138D01*
X-12689750Y-30324199D01*
X-12706980Y-30317468D01*
X-12723650Y-30309945D01*
X-12739762Y-30301630D01*
X-12755314Y-30292523D01*
X-12770307Y-30282625D01*
X-12784741Y-30271935D01*
X-12798617Y-30260452D01*
X-12811933Y-30248178D01*
X-12824532Y-30235117D01*
X-12836319Y-30221334D01*
X-12847292Y-30206831D01*
X-12857453Y-30191605D01*
X-12866801Y-30175659D01*
X-12875336Y-30158991D01*
X-12883059Y-30141602D01*
X-12889968Y-30123492D01*
X-12893118Y-30114167D01*
X-12896065Y-30104661D01*
X-12898808Y-30094974D01*
X-12901348Y-30085108D01*
X-12903685Y-30075061D01*
X-12905819Y-30064834D01*
X-12907750Y-30054426D01*
X-12909477Y-30043838D01*
X-12911001Y-30033070D01*
X-12912322Y-30022122D01*
X-12913440Y-30010993D01*
X-12914354Y-29999684D01*
X-12915065Y-29988195D01*
X-12915574Y-29976525D01*
X-12915878Y-29964675D01*
X-12915949Y-29956308D01*
X-12798988Y-29956308D01*
X-12798712Y-29973020D01*
X-12797885Y-29989269D01*
X-12796506Y-30005054D01*
X-12794576Y-30020376D01*
X-12792094Y-30035234D01*
X-12789061Y-30049628D01*
X-12785477Y-30063558D01*
X-12781341Y-30077025D01*
X-12776654Y-30090028D01*
X-12771415Y-30102567D01*
X-12765625Y-30114643D01*
X-12759283Y-30126255D01*
X-12752390Y-30137404D01*
X-12744945Y-30148088D01*
X-12736949Y-30158309D01*
X-12728401Y-30168066D01*
X-12719362Y-30177265D01*
X-12709889Y-30185870D01*
X-12699982Y-30193881D01*
X-12689643Y-30201299D01*
X-12678871Y-30208123D01*
X-12667665Y-30214354D01*
X-12656026Y-30219992D01*
X-12643954Y-30225036D01*
X-12631449Y-30229487D01*
X-12618511Y-30233344D01*
X-12605140Y-30236608D01*
X-12591335Y-30239279D01*
X-12577098Y-30241356D01*
X-12562427Y-30242839D01*
X-12547323Y-30243729D01*
X-12531786Y-30244026D01*
X-12516074Y-30243729D01*
X-12500813Y-30242839D01*
X-12486002Y-30241356D01*
X-12471641Y-30239279D01*
X-12457731Y-30236608D01*
X-12444271Y-30233344D01*
X-12431261Y-30229487D01*
X-12418702Y-30225036D01*
X-12406592Y-30219992D01*
X-12394934Y-30214354D01*
X-12383725Y-30208123D01*
X-12372967Y-30201299D01*
X-12362659Y-30193881D01*
X-12352802Y-30185870D01*
X-12343395Y-30177265D01*
X-12334438Y-30168066D01*
X-12325979Y-30158309D01*
X-12318066Y-30148088D01*
X-12310698Y-30137404D01*
X-12303877Y-30126255D01*
X-12297601Y-30114643D01*
X-12291871Y-30102567D01*
X-12286686Y-30090028D01*
X-12282048Y-30077025D01*
X-12277955Y-30063558D01*
X-12274407Y-30049628D01*
X-12271406Y-30035234D01*
X-12268950Y-30020376D01*
X-12267040Y-30005054D01*
X-12265676Y-29989269D01*
X-12264857Y-29973020D01*
X-12264584Y-29956308D01*
X-12264584Y-29723789D01*
X-12264857Y-29707077D01*
X-12265676Y-29690831D01*
X-12267040Y-29675051D01*
X-12268950Y-29659736D01*
X-12271406Y-29644887D01*
X-12274407Y-29630503D01*
X-12277955Y-29616585D01*
X-12282048Y-29603133D01*
X-12286686Y-29590146D01*
X-12291871Y-29577625D01*
X-12297601Y-29565569D01*
X-12303877Y-29553979D01*
X-12310698Y-29542854D01*
X-12318066Y-29532196D01*
X-12325979Y-29522002D01*
X-12334438Y-29512274D01*
X-12343395Y-29503047D01*
X-12352802Y-29494414D01*
X-12362659Y-29486377D01*
X-12372967Y-29478935D01*
X-12383725Y-29472089D01*
X-12394934Y-29465838D01*
X-12406592Y-29460182D01*
X-12418702Y-29455122D01*
X-12431261Y-29450657D01*
X-12444271Y-29446787D01*
X-12457731Y-29443512D01*
X-12471641Y-29440833D01*
X-12486002Y-29438750D01*
X-12500813Y-29437261D01*
X-12516074Y-29436368D01*
X-12531786Y-29436071D01*
X-12547323Y-29436368D01*
X-12562427Y-29437261D01*
X-12577098Y-29438750D01*
X-12591335Y-29440833D01*
X-12605140Y-29443512D01*
X-12618511Y-29446787D01*
X-12631449Y-29450657D01*
X-12643954Y-29455122D01*
X-12656026Y-29460182D01*
X-12667665Y-29465838D01*
X-12678871Y-29472089D01*
X-12689643Y-29478935D01*
X-12699982Y-29486377D01*
X-12709889Y-29494414D01*
X-12719362Y-29503047D01*
X-12728401Y-29512274D01*
X-12736949Y-29522002D01*
X-12744945Y-29532196D01*
X-12752390Y-29542854D01*
X-12759283Y-29553979D01*
X-12765625Y-29565569D01*
X-12771415Y-29577625D01*
X-12776654Y-29590146D01*
X-12781341Y-29603133D01*
X-12785477Y-29616585D01*
X-12789061Y-29630503D01*
X-12792094Y-29644887D01*
X-12794576Y-29659736D01*
X-12796506Y-29675051D01*
X-12797885Y-29690831D01*
X-12798712Y-29707077D01*
X-12798988Y-29723789D01*
X-12798988Y-29956308D01*
X-12915949Y-29956308D01*
X-12915980Y-29952644D01*
X-12915980Y-29727452D01*
X-12915878Y-29715407D01*
X-12915574Y-29703543D01*
X-12915065Y-29691861D01*
X-12914354Y-29680359D01*
X-12913440Y-29669039D01*
X-12912322Y-29657900D01*
X-12911001Y-29646943D01*
X-12909477Y-29636167D01*
X-12907750Y-29625572D01*
X-12905819Y-29615158D01*
X-12903685Y-29604925D01*
X-12901348Y-29594874D01*
X-12898808Y-29585004D01*
X-12896065Y-29575316D01*
X-12893118Y-29565808D01*
X-12889968Y-29556482D01*
X-12883059Y-29538374D01*
X-12875336Y-29520991D01*
X-12866801Y-29504333D01*
X-12857453Y-29488400D01*
X-12847292Y-29473192D01*
X-12836319Y-29458709D01*
X-12824532Y-29444951D01*
X-12811933Y-29431919D01*
X-12798617Y-29419615D01*
X-12784741Y-29408105D01*
X-12770307Y-29397389D01*
X-12755314Y-29387466D01*
X-12739762Y-29378338D01*
X-12723650Y-29370003D01*
X-12706980Y-29362462D01*
X-12689750Y-29355715D01*
X-12671961Y-29349761D01*
X-12653614Y-29344602D01*
X-12634707Y-29340236D01*
X-12625044Y-29338351D01*
X-12615241Y-29336664D01*
X-12605298Y-29335175D01*
X-12595216Y-29333886D01*
X-12584993Y-29332794D01*
X-12574632Y-29331901D01*
X-12564130Y-29331207D01*
X-12553488Y-29330710D01*
X-12542707Y-29330413D01*
X-12531786Y-29330314D01*
X-12520865Y-29330413D01*
G37*
G36*
X-11754117Y-30330000D02*
G01*
X-11754117Y-29456343D01*
X-12069434Y-29456343D01*
X-12069434Y-29350097D01*
X-11321318Y-29350097D01*
X-11321318Y-29456343D01*
X-11636880Y-29456343D01*
X-11636880Y-30330000D01*
X-11754117Y-30330000D01*
G37*
G36*
X-10760293Y-30330000D02*
G01*
X-10919783Y-29350097D01*
X-10802058Y-29350097D01*
X-10663084Y-30254773D01*
X-10643789Y-30254773D01*
X-10464026Y-29350097D01*
X-10254221Y-29350097D01*
X-10074214Y-30254773D01*
X-10055163Y-30254773D01*
X-9916189Y-29350097D01*
X-9798464Y-29350097D01*
X-9957955Y-30330000D01*
X-10168736Y-30330000D01*
X-10349476Y-29419462D01*
X-10368771Y-29419462D01*
X-10549511Y-30330000D01*
X-10760293Y-30330000D01*
G37*
G36*
X-9354841Y-29626112D02*
G01*
X-9339097Y-29626904D01*
X-9323807Y-29628226D01*
X-9308971Y-29630076D01*
X-9294589Y-29632454D01*
X-9280662Y-29635361D01*
X-9267188Y-29638797D01*
X-9254169Y-29642761D01*
X-9241604Y-29647254D01*
X-9229493Y-29652275D01*
X-9217836Y-29657825D01*
X-9206633Y-29663903D01*
X-9195885Y-29670510D01*
X-9185590Y-29677646D01*
X-9175750Y-29685310D01*
X-9166364Y-29693503D01*
X-9157491Y-29702177D01*
X-9149190Y-29711287D01*
X-9141462Y-29720831D01*
X-9134307Y-29730811D01*
X-9127724Y-29741225D01*
X-9121713Y-29752075D01*
X-9116275Y-29763360D01*
X-9111409Y-29775080D01*
X-9107116Y-29787235D01*
X-9103395Y-29799825D01*
X-9100246Y-29812850D01*
X-9097670Y-29826310D01*
X-9095667Y-29840205D01*
X-9094236Y-29854535D01*
X-9093377Y-29869300D01*
X-9093091Y-29884501D01*
X-9093091Y-30194200D01*
X-9092476Y-30204047D01*
X-9089980Y-30214508D01*
X-9084451Y-30224354D01*
X-9076156Y-30231246D01*
X-9065096Y-30235185D01*
X-9053768Y-30236210D01*
X-8990997Y-30236210D01*
X-8990997Y-30330000D01*
X-9088695Y-30330000D01*
X-9099834Y-30329599D01*
X-9110417Y-30328397D01*
X-9120442Y-30326393D01*
X-9129911Y-30323588D01*
X-9140962Y-30318955D01*
X-9151143Y-30313069D01*
X-9160454Y-30305932D01*
X-9162212Y-30304354D01*
X-9170163Y-30295893D01*
X-9176766Y-30286537D01*
X-9182022Y-30276286D01*
X-9185930Y-30265142D01*
X-9188086Y-30255582D01*
X-9189380Y-30245449D01*
X-9189811Y-30234745D01*
X-9189811Y-30227173D01*
X-9207397Y-30227173D01*
X-9213213Y-30237317D01*
X-9218689Y-30245875D01*
X-9224738Y-30254528D01*
X-9231359Y-30263277D01*
X-9238553Y-30272122D01*
X-9246319Y-30281061D01*
X-9247941Y-30282861D01*
X-9254768Y-30289909D01*
X-9262183Y-30296645D01*
X-9270186Y-30303068D01*
X-9278777Y-30309178D01*
X-9287955Y-30314975D01*
X-9297721Y-30320459D01*
X-9308074Y-30325630D01*
X-9319016Y-30330488D01*
X-9330655Y-30334953D01*
X-9343104Y-30338823D01*
X-9352972Y-30341334D01*
X-9363294Y-30343511D01*
X-9374072Y-30345353D01*
X-9385305Y-30346860D01*
X-9396992Y-30348032D01*
X-9409135Y-30348869D01*
X-9421734Y-30349371D01*
X-9434787Y-30349539D01*
X-9448220Y-30349320D01*
X-9461408Y-30348663D01*
X-9474352Y-30347568D01*
X-9487051Y-30346036D01*
X-9499505Y-30344065D01*
X-9511715Y-30341656D01*
X-9523679Y-30338810D01*
X-9535399Y-30335525D01*
X-9546875Y-30331803D01*
X-9558105Y-30327643D01*
X-9565457Y-30324626D01*
X-9576143Y-30319751D01*
X-9586405Y-30314468D01*
X-9596242Y-30308777D01*
X-9605654Y-30302679D01*
X-9614640Y-30296172D01*
X-9623202Y-30289258D01*
X-9631338Y-30281935D01*
X-9639050Y-30274205D01*
X-9646337Y-30266067D01*
X-9653198Y-30257521D01*
X-9657536Y-30251598D01*
X-9663560Y-30242396D01*
X-9668991Y-30232833D01*
X-9673829Y-30222910D01*
X-9678075Y-30212626D01*
X-9681729Y-30201981D01*
X-9684790Y-30190976D01*
X-9687259Y-30179610D01*
X-9689135Y-30167883D01*
X-9690419Y-30155796D01*
X-9691110Y-30143348D01*
X-9691242Y-30134849D01*
X-9691185Y-30132407D01*
X-9580355Y-30132407D01*
X-9579971Y-30142992D01*
X-9578818Y-30153130D01*
X-9576897Y-30162821D01*
X-9573140Y-30175048D01*
X-9568017Y-30186482D01*
X-9561527Y-30197122D01*
X-9553671Y-30206968D01*
X-9544449Y-30216020D01*
X-9536636Y-30222288D01*
X-9528198Y-30228050D01*
X-9519279Y-30233245D01*
X-9509880Y-30237873D01*
X-9500000Y-30241935D01*
X-9489638Y-30245429D01*
X-9478796Y-30248358D01*
X-9467473Y-30250719D01*
X-9455669Y-30252513D01*
X-9443385Y-30253741D01*
X-9430619Y-30254403D01*
X-9421842Y-30254528D01*
X-9409744Y-30254301D01*
X-9397937Y-30253620D01*
X-9386419Y-30252485D01*
X-9375191Y-30250895D01*
X-9364254Y-30248852D01*
X-9353606Y-30246354D01*
X-9343249Y-30243402D01*
X-9333182Y-30239996D01*
X-9323404Y-30236136D01*
X-9313917Y-30231822D01*
X-9304720Y-30227053D01*
X-9295812Y-30221830D01*
X-9287195Y-30216154D01*
X-9278868Y-30210023D01*
X-9270831Y-30203438D01*
X-9263084Y-30196399D01*
X-9255719Y-30188923D01*
X-9248830Y-30181088D01*
X-9242416Y-30172894D01*
X-9236477Y-30164342D01*
X-9231013Y-30155431D01*
X-9226024Y-30146161D01*
X-9221510Y-30136532D01*
X-9217472Y-30126545D01*
X-9213908Y-30116199D01*
X-9210820Y-30105495D01*
X-9208207Y-30094431D01*
X-9206068Y-30083009D01*
X-9204406Y-30071228D01*
X-9203218Y-30059088D01*
X-9202505Y-30046590D01*
X-9202267Y-30033733D01*
X-9202267Y-30017613D01*
X-9429658Y-30017613D01*
X-9441816Y-30017864D01*
X-9453563Y-30018618D01*
X-9464897Y-30019873D01*
X-9475819Y-30021631D01*
X-9486330Y-30023892D01*
X-9496427Y-30026655D01*
X-9506113Y-30029920D01*
X-9515387Y-30033687D01*
X-9524248Y-30037957D01*
X-9535422Y-30044431D01*
X-9538101Y-30046189D01*
X-9548005Y-30053788D01*
X-9556588Y-30062294D01*
X-9563850Y-30071709D01*
X-9569792Y-30082032D01*
X-9574413Y-30093263D01*
X-9577715Y-30105403D01*
X-9579324Y-30115104D01*
X-9580190Y-30125315D01*
X-9580355Y-30132407D01*
X-9691185Y-30132407D01*
X-9690945Y-30122052D01*
X-9690057Y-30109671D01*
X-9688575Y-30097706D01*
X-9686502Y-30086157D01*
X-9683836Y-30075025D01*
X-9680577Y-30064310D01*
X-9676726Y-30054011D01*
X-9672282Y-30044129D01*
X-9667246Y-30034662D01*
X-9661618Y-30025613D01*
X-9657536Y-30019811D01*
X-9650956Y-30011403D01*
X-9643946Y-30003399D01*
X-9636507Y-29995798D01*
X-9628639Y-29988601D01*
X-9620342Y-29981808D01*
X-9611615Y-29975418D01*
X-9602458Y-29969432D01*
X-9592873Y-29963849D01*
X-9582858Y-29958670D01*
X-9572414Y-29953894D01*
X-9565212Y-29950935D01*
X-9554143Y-29946832D01*
X-9542824Y-29943132D01*
X-9531256Y-29939836D01*
X-9519440Y-29936944D01*
X-9507374Y-29934455D01*
X-9495059Y-29932370D01*
X-9482496Y-29930689D01*
X-9469683Y-29929411D01*
X-9456621Y-29928536D01*
X-9443310Y-29928065D01*
X-9434298Y-29927976D01*
X-9202267Y-29927976D01*
X-9202267Y-29877662D01*
X-9202643Y-29864287D01*
X-9203770Y-29851458D01*
X-9205648Y-29839174D01*
X-9208278Y-29827435D01*
X-9211659Y-29816242D01*
X-9215791Y-29805594D01*
X-9220675Y-29795491D01*
X-9226310Y-29785933D01*
X-9232696Y-29776921D01*
X-9239834Y-29768454D01*
X-9245010Y-29763112D01*
X-9253387Y-29755604D01*
X-9262490Y-29748835D01*
X-9272318Y-29742804D01*
X-9282871Y-29737512D01*
X-9294151Y-29732958D01*
X-9306156Y-29729143D01*
X-9318886Y-29726066D01*
X-9332342Y-29723728D01*
X-9346524Y-29722128D01*
X-9356381Y-29721471D01*
X-9366561Y-29721143D01*
X-9371772Y-29721102D01*
X-9381981Y-29721259D01*
X-9391907Y-29721728D01*
X-9406267Y-29723019D01*
X-9419991Y-29725014D01*
X-9433080Y-29727713D01*
X-9445533Y-29731116D01*
X-9457351Y-29735223D01*
X-9468534Y-29740035D01*
X-9479081Y-29745550D01*
X-9488993Y-29751770D01*
X-9498270Y-29758694D01*
X-9501221Y-29761158D01*
X-9509654Y-29768900D01*
X-9517550Y-29777106D01*
X-9524909Y-29785776D01*
X-9531732Y-29794909D01*
X-9538018Y-29804506D01*
X-9543768Y-29814567D01*
X-9548980Y-29825091D01*
X-9553657Y-29836079D01*
X-9557796Y-29847531D01*
X-9561399Y-29859447D01*
X-9563503Y-29867648D01*
X-9668283Y-29834919D01*
X-9664949Y-29824117D01*
X-9661268Y-29813507D01*
X-9657238Y-29803091D01*
X-9652861Y-29792867D01*
X-9648136Y-29782838D01*
X-9643064Y-29773001D01*
X-9637643Y-29763357D01*
X-9631875Y-29753907D01*
X-9625760Y-29744650D01*
X-9619296Y-29735586D01*
X-9614794Y-29729651D01*
X-9607712Y-29720977D01*
X-9600205Y-29712635D01*
X-9592273Y-29704623D01*
X-9583916Y-29696941D01*
X-9575134Y-29689590D01*
X-9565927Y-29682570D01*
X-9556295Y-29675880D01*
X-9546238Y-29669521D01*
X-9535756Y-29663492D01*
X-9524848Y-29657795D01*
X-9517341Y-29654180D01*
X-9505721Y-29649116D01*
X-9493667Y-29644551D01*
X-9481180Y-29640484D01*
X-9468259Y-29636915D01*
X-9454905Y-29633843D01*
X-9441117Y-29631270D01*
X-9426895Y-29629195D01*
X-9417173Y-29628088D01*
X-9407259Y-29627203D01*
X-9397151Y-29626539D01*
X-9386851Y-29626096D01*
X-9376358Y-29625875D01*
X-9371039Y-29625847D01*
X-9354841Y-29626112D01*
G37*
G36*
X-8840300Y-30330000D02*
G01*
X-8840300Y-29645631D01*
X-8732344Y-29645631D01*
X-8732344Y-29728918D01*
X-8713293Y-29728918D01*
X-8708355Y-29718064D01*
X-8702821Y-29707974D01*
X-8696692Y-29698647D01*
X-8689968Y-29690083D01*
X-8682648Y-29682283D01*
X-8674733Y-29675245D01*
X-8666223Y-29668971D01*
X-8657117Y-29663461D01*
X-8647325Y-29658595D01*
X-8636754Y-29654378D01*
X-8625404Y-29650810D01*
X-8613276Y-29647890D01*
X-8600369Y-29645620D01*
X-8590178Y-29644342D01*
X-8579549Y-29643430D01*
X-8568483Y-29642883D01*
X-8556978Y-29642700D01*
X-8475889Y-29642700D01*
X-8475889Y-29743817D01*
X-8564794Y-29743817D01*
X-8578419Y-29744179D01*
X-8591541Y-29745268D01*
X-8604161Y-29747082D01*
X-8616279Y-29749621D01*
X-8627895Y-29752886D01*
X-8639008Y-29756877D01*
X-8649619Y-29761593D01*
X-8659728Y-29767035D01*
X-8669334Y-29773202D01*
X-8678438Y-29780095D01*
X-8684228Y-29785094D01*
X-8692347Y-29793193D01*
X-8699667Y-29802104D01*
X-8706189Y-29811826D01*
X-8711912Y-29822360D01*
X-8716836Y-29833705D01*
X-8720962Y-29845862D01*
X-8724289Y-29858830D01*
X-8726818Y-29872609D01*
X-8728548Y-29887200D01*
X-8729258Y-29897378D01*
X-8729613Y-29907917D01*
X-8729658Y-29913321D01*
X-8729658Y-30330000D01*
X-8840300Y-30330000D01*
G37*
G36*
X-7668911Y-30330000D02*
G01*
X-7776866Y-30330000D01*
X-7776866Y-30217159D01*
X-7796161Y-30217159D01*
X-7801653Y-30226640D01*
X-7807685Y-30235941D01*
X-7814258Y-30245062D01*
X-7821372Y-30254002D01*
X-7829027Y-30262762D01*
X-7837223Y-30271341D01*
X-7845960Y-30279740D01*
X-7855238Y-30287959D01*
X-7865056Y-30295998D01*
X-7875416Y-30303856D01*
X-7882623Y-30308995D01*
X-7894039Y-30316240D01*
X-7906305Y-30322773D01*
X-7919422Y-30328594D01*
X-7928638Y-30332078D01*
X-7938232Y-30335245D01*
X-7948204Y-30338096D01*
X-7958554Y-30340630D01*
X-7969281Y-30342848D01*
X-7980387Y-30344748D01*
X-7991870Y-30346332D01*
X-8003731Y-30347599D01*
X-8015970Y-30348549D01*
X-8028587Y-30349183D01*
X-8041581Y-30349499D01*
X-8048220Y-30349539D01*
X-8059244Y-30349374D01*
X-8070152Y-30348879D01*
X-8080944Y-30348053D01*
X-8091619Y-30346898D01*
X-8102178Y-30345413D01*
X-8112620Y-30343597D01*
X-8122946Y-30341451D01*
X-8133155Y-30338975D01*
X-8143249Y-30336169D01*
X-8153225Y-30333033D01*
X-8163086Y-30329567D01*
X-8172830Y-30325771D01*
X-8182457Y-30321645D01*
X-8191968Y-30317188D01*
X-8201363Y-30312402D01*
X-8210642Y-30307285D01*
X-8219716Y-30301859D01*
X-8228559Y-30296145D01*
X-8237171Y-30290143D01*
X-8245553Y-30283853D01*
X-8253704Y-30277275D01*
X-8261623Y-30270408D01*
X-8269312Y-30263253D01*
X-8276770Y-30255811D01*
X-8283997Y-30248080D01*
X-8290994Y-30240061D01*
X-8297759Y-30231754D01*
X-8304293Y-30223159D01*
X-8310597Y-30214275D01*
X-8316670Y-30205104D01*
X-8322511Y-30195644D01*
X-8328122Y-30185896D01*
X-8333416Y-30175856D01*
X-8338369Y-30165578D01*
X-8342980Y-30155064D01*
X-8347250Y-30144314D01*
X-8351178Y-30133327D01*
X-8354764Y-30122103D01*
X-8358009Y-30110643D01*
X-8360912Y-30098946D01*
X-8363474Y-30087012D01*
X-8365694Y-30074842D01*
X-8367572Y-30062435D01*
X-8369109Y-30049792D01*
X-8370305Y-30036912D01*
X-8371159Y-30023795D01*
X-8371671Y-30010442D01*
X-8371842Y-29996852D01*
X-8371842Y-29993677D01*
X-8259002Y-29993677D01*
X-8258738Y-30008701D01*
X-8257948Y-30023303D01*
X-8256632Y-30037483D01*
X-8254788Y-30051242D01*
X-8252418Y-30064579D01*
X-8249522Y-30077494D01*
X-8246099Y-30089988D01*
X-8242149Y-30102060D01*
X-8237672Y-30113710D01*
X-8232669Y-30124939D01*
X-8227139Y-30135745D01*
X-8221083Y-30146130D01*
X-8214500Y-30156094D01*
X-8207390Y-30165636D01*
X-8199754Y-30174756D01*
X-8191591Y-30183454D01*
X-8182988Y-30191676D01*
X-8174093Y-30199368D01*
X-8164906Y-30206529D01*
X-8155427Y-30213160D01*
X-8145657Y-30219260D01*
X-8135594Y-30224830D01*
X-8125240Y-30229869D01*
X-8114593Y-30234378D01*
X-8103655Y-30238357D01*
X-8092424Y-30241805D01*
X-8080902Y-30244722D01*
X-8069088Y-30247110D01*
X-8056981Y-30248966D01*
X-8044583Y-30250292D01*
X-8031893Y-30251088D01*
X-8018911Y-30251353D01*
X-8005813Y-30251088D01*
X-7993021Y-30250292D01*
X-7980534Y-30248966D01*
X-7968353Y-30247110D01*
X-7956476Y-30244722D01*
X-7944905Y-30241805D01*
X-7933640Y-30238357D01*
X-7922679Y-30234378D01*
X-7912024Y-30229869D01*
X-7901674Y-30224830D01*
X-7891630Y-30219260D01*
X-7881891Y-30213160D01*
X-7872457Y-30206529D01*
X-7863328Y-30199368D01*
X-7854505Y-30191676D01*
X-7845987Y-30183454D01*
X-7837853Y-30174756D01*
X-7830245Y-30165636D01*
X-7823161Y-30156094D01*
X-7816601Y-30146130D01*
X-7810567Y-30135745D01*
X-7805057Y-30124939D01*
X-7800072Y-30113710D01*
X-7795612Y-30102060D01*
X-7791676Y-30089988D01*
X-7788265Y-30077494D01*
X-7785379Y-30064579D01*
X-7783018Y-30051242D01*
X-7781181Y-30037483D01*
X-7779870Y-30023303D01*
X-7779083Y-30008701D01*
X-7778820Y-29993677D01*
X-7778820Y-29981709D01*
X-7779082Y-29966715D01*
X-7779866Y-29952141D01*
X-7781173Y-29937986D01*
X-7783003Y-29924251D01*
X-7785356Y-29910936D01*
X-7788231Y-29898041D01*
X-7791630Y-29885565D01*
X-7795551Y-29873510D01*
X-7799995Y-29861874D01*
X-7804962Y-29850658D01*
X-7810452Y-29839861D01*
X-7816464Y-29829485D01*
X-7822999Y-29819528D01*
X-7830058Y-29809991D01*
X-7837639Y-29800874D01*
X-7845743Y-29792177D01*
X-7854233Y-29783955D01*
X-7863034Y-29776263D01*
X-7872147Y-29769102D01*
X-7881570Y-29762471D01*
X-7891304Y-29756370D01*
X-7901350Y-29750800D01*
X-7911706Y-29745761D01*
X-7922374Y-29741252D01*
X-7933352Y-29737274D01*
X-7944642Y-29733826D01*
X-7956243Y-29730908D01*
X-7968154Y-29728521D01*
X-7980377Y-29726664D01*
X-7992910Y-29725338D01*
X-8005755Y-29724542D01*
X-8018911Y-29724277D01*
X-8031893Y-29724542D01*
X-8044583Y-29725338D01*
X-8056981Y-29726664D01*
X-8069088Y-29728521D01*
X-8080902Y-29730908D01*
X-8092424Y-29733826D01*
X-8103655Y-29737274D01*
X-8114593Y-29741252D01*
X-8125240Y-29745761D01*
X-8135594Y-29750800D01*
X-8145657Y-29756370D01*
X-8155427Y-29762471D01*
X-8164906Y-29769102D01*
X-8174093Y-29776263D01*
X-8182988Y-29783955D01*
X-8191591Y-29792177D01*
X-8199754Y-29800874D01*
X-8207390Y-29809991D01*
X-8214500Y-29819528D01*
X-8221083Y-29829485D01*
X-8227139Y-29839861D01*
X-8232669Y-29850658D01*
X-8237672Y-29861874D01*
X-8242149Y-29873510D01*
X-8246099Y-29885565D01*
X-8249522Y-29898041D01*
X-8252418Y-29910936D01*
X-8254788Y-29924251D01*
X-8256632Y-29937986D01*
X-8257948Y-29952141D01*
X-8258738Y-29966715D01*
X-8259002Y-29981709D01*
X-8259002Y-29993677D01*
X-8371842Y-29993677D01*
X-8371842Y-29978534D01*
X-8371673Y-29964975D01*
X-8371166Y-29951652D01*
X-8370322Y-29938566D01*
X-8369140Y-29925717D01*
X-8367620Y-29913104D01*
X-8365762Y-29900727D01*
X-8363567Y-29888588D01*
X-8361034Y-29876685D01*
X-8358163Y-29865018D01*
X-8354955Y-29853589D01*
X-8351408Y-29842395D01*
X-8347524Y-29831439D01*
X-8343303Y-29820719D01*
X-8338743Y-29810235D01*
X-8333846Y-29799989D01*
X-8328611Y-29789979D01*
X-8323058Y-29780201D01*
X-8317269Y-29770714D01*
X-8311243Y-29761517D01*
X-8304980Y-29752609D01*
X-8298481Y-29743992D01*
X-8291745Y-29735665D01*
X-8284773Y-29727628D01*
X-8277564Y-29719881D01*
X-8270118Y-29712424D01*
X-8262436Y-29705257D01*
X-8254517Y-29698380D01*
X-8246362Y-29691793D01*
X-8237970Y-29685496D01*
X-8229341Y-29679489D01*
X-8220476Y-29673772D01*
X-8211374Y-29668346D01*
X-8202064Y-29663199D01*
X-8192636Y-29658385D01*
X-8183090Y-29653903D01*
X-8173425Y-29649753D01*
X-8163642Y-29645934D01*
X-8153741Y-29642448D01*
X-8143721Y-29639294D01*
X-8133583Y-29636472D01*
X-8123327Y-29633982D01*
X-8112952Y-29631824D01*
X-8102459Y-29629998D01*
X-8091848Y-29628504D01*
X-8081118Y-29627341D01*
X-8070271Y-29626511D01*
X-8059304Y-29626013D01*
X-8048220Y-29625847D01*
X-8034956Y-29626013D01*
X-8022091Y-29626509D01*
X-8009625Y-29627335D01*
X-7997559Y-29628492D01*
X-7985892Y-29629980D01*
X-7974624Y-29631798D01*
X-7963755Y-29633947D01*
X-7953286Y-29636426D01*
X-7943216Y-29639236D01*
X-7933545Y-29642377D01*
X-7927320Y-29644654D01*
X-7915272Y-29649459D01*
X-7903796Y-29654592D01*
X-7892893Y-29660053D01*
X-7882562Y-29665842D01*
X-7872804Y-29671960D01*
X-7863618Y-29678405D01*
X-7855005Y-29685179D01*
X-7846964Y-29692281D01*
X-7839427Y-29699536D01*
X-7832325Y-29706890D01*
X-7825658Y-29714343D01*
X-7819426Y-29721896D01*
X-7812247Y-29731476D01*
X-7805749Y-29741211D01*
X-7799930Y-29751101D01*
X-7798848Y-29753098D01*
X-7779797Y-29753098D01*
X-7779797Y-29350097D01*
X-7668911Y-29350097D01*
X-7668911Y-30330000D01*
G37*
G36*
X-7437369Y-30330000D02*
G01*
X-7437369Y-29645631D01*
X-7329413Y-29645631D01*
X-7329413Y-29728918D01*
X-7310362Y-29728918D01*
X-7305424Y-29718064D01*
X-7299890Y-29707974D01*
X-7293761Y-29698647D01*
X-7287037Y-29690083D01*
X-7279718Y-29682283D01*
X-7271803Y-29675245D01*
X-7263292Y-29668971D01*
X-7254187Y-29663461D01*
X-7244394Y-29658595D01*
X-7233823Y-29654378D01*
X-7222473Y-29650810D01*
X-7210345Y-29647890D01*
X-7197438Y-29645620D01*
X-7187247Y-29644342D01*
X-7176618Y-29643430D01*
X-7165552Y-29642883D01*
X-7154047Y-29642700D01*
X-7072958Y-29642700D01*
X-7072958Y-29743817D01*
X-7161863Y-29743817D01*
X-7175488Y-29744179D01*
X-7188610Y-29745268D01*
X-7201230Y-29747082D01*
X-7213348Y-29749621D01*
X-7224964Y-29752886D01*
X-7236077Y-29756877D01*
X-7246688Y-29761593D01*
X-7256797Y-29767035D01*
X-7266403Y-29773202D01*
X-7275507Y-29780095D01*
X-7281297Y-29785094D01*
X-7289416Y-29793193D01*
X-7296736Y-29802104D01*
X-7303258Y-29811826D01*
X-7308981Y-29822360D01*
X-7313905Y-29833705D01*
X-7318031Y-29845862D01*
X-7321359Y-29858830D01*
X-7323887Y-29872609D01*
X-7325618Y-29887200D01*
X-7326327Y-29897378D01*
X-7326682Y-29907917D01*
X-7326727Y-29913321D01*
X-7326727Y-30330000D01*
X-7437369Y-30330000D01*
G37*
G36*
X-6909804Y-30330000D02*
G01*
X-6909804Y-29645631D01*
X-6799162Y-29645631D01*
X-6799162Y-30330000D01*
X-6909804Y-30330000D01*
G37*
G36*
X-6854117Y-29538408D02*
G01*
X-6864986Y-29537830D01*
X-6875307Y-29536095D01*
X-6885079Y-29533203D01*
X-6894302Y-29529154D01*
X-6902977Y-29523948D01*
X-6911104Y-29517586D01*
X-6914200Y-29514717D01*
X-6921237Y-29506933D01*
X-6927080Y-29498541D01*
X-6931732Y-29489540D01*
X-6935190Y-29479931D01*
X-6937456Y-29469714D01*
X-6938529Y-29458889D01*
X-6938625Y-29454389D01*
X-6938028Y-29442987D01*
X-6936240Y-29432288D01*
X-6933258Y-29422293D01*
X-6929084Y-29413001D01*
X-6923717Y-29404413D01*
X-6917158Y-29396529D01*
X-6914200Y-29393572D01*
X-6906294Y-29386818D01*
X-6897838Y-29381208D01*
X-6888834Y-29376743D01*
X-6879281Y-29373422D01*
X-6869180Y-29371247D01*
X-6858530Y-29370217D01*
X-6854117Y-29370125D01*
X-6842843Y-29370698D01*
X-6832226Y-29372415D01*
X-6822264Y-29375277D01*
X-6812958Y-29379284D01*
X-6804308Y-29384436D01*
X-6796314Y-29390733D01*
X-6793300Y-29393572D01*
X-6786475Y-29401175D01*
X-6780807Y-29409482D01*
X-6776295Y-29418492D01*
X-6772940Y-29428205D01*
X-6770742Y-29438623D01*
X-6769701Y-29449744D01*
X-6769609Y-29454389D01*
X-6770187Y-29465457D01*
X-6771922Y-29475918D01*
X-6774814Y-29485770D01*
X-6778863Y-29495013D01*
X-6784069Y-29503649D01*
X-6790431Y-29511676D01*
X-6793300Y-29514717D01*
X-6801032Y-29521542D01*
X-6809419Y-29527210D01*
X-6818463Y-29531722D01*
X-6828162Y-29535077D01*
X-6838517Y-29537275D01*
X-6849529Y-29538316D01*
X-6854117Y-29538408D01*
G37*
G36*
X-6393475Y-30330000D02*
G01*
X-6638695Y-29645631D01*
X-6520725Y-29645631D01*
X-6314829Y-30246957D01*
X-6295533Y-30246957D01*
X-6089881Y-29645631D01*
X-5971912Y-29645631D01*
X-6216887Y-30330000D01*
X-6393475Y-30330000D01*
G37*
G36*
X-5522412Y-29626010D02*
G01*
X-5510533Y-29626496D01*
X-5498835Y-29627307D01*
X-5487318Y-29628442D01*
X-5475983Y-29629902D01*
X-5464829Y-29631686D01*
X-5453856Y-29633795D01*
X-5443065Y-29636228D01*
X-5432454Y-29638985D01*
X-5422026Y-29642067D01*
X-5411778Y-29645473D01*
X-5401711Y-29649203D01*
X-5391826Y-29653258D01*
X-5382122Y-29657637D01*
X-5372600Y-29662341D01*
X-5363258Y-29667369D01*
X-5354103Y-29672696D01*
X-5345200Y-29678299D01*
X-5336548Y-29684176D01*
X-5328148Y-29690327D01*
X-5320001Y-29696754D01*
X-5312105Y-29703456D01*
X-5304461Y-29710432D01*
X-5297069Y-29717683D01*
X-5289928Y-29725208D01*
X-5283040Y-29733009D01*
X-5276403Y-29741084D01*
X-5270019Y-29749434D01*
X-5263886Y-29758059D01*
X-5258005Y-29766959D01*
X-5252376Y-29776133D01*
X-5246999Y-29785582D01*
X-5241912Y-29795247D01*
X-5237153Y-29805129D01*
X-5232722Y-29815229D01*
X-5228620Y-29825546D01*
X-5224845Y-29836081D01*
X-5221399Y-29846834D01*
X-5218281Y-29857804D01*
X-5215491Y-29868991D01*
X-5213030Y-29880396D01*
X-5210897Y-29892019D01*
X-5209092Y-29903859D01*
X-5207615Y-29915916D01*
X-5206466Y-29928191D01*
X-5205645Y-29940684D01*
X-5205153Y-29953394D01*
X-5204989Y-29966322D01*
X-5204989Y-30015659D01*
X-5763084Y-30015659D01*
X-5762380Y-30029359D01*
X-5761183Y-30042678D01*
X-5759495Y-30055616D01*
X-5757314Y-30068171D01*
X-5754640Y-30080345D01*
X-5751475Y-30092137D01*
X-5747817Y-30103548D01*
X-5743667Y-30114577D01*
X-5739024Y-30125225D01*
X-5733889Y-30135491D01*
X-5728262Y-30145375D01*
X-5722143Y-30154877D01*
X-5715531Y-30163998D01*
X-5708427Y-30172738D01*
X-5700831Y-30181095D01*
X-5692742Y-30189071D01*
X-5684245Y-30196613D01*
X-5675485Y-30203669D01*
X-5666461Y-30210238D01*
X-5657174Y-30216320D01*
X-5647624Y-30221915D01*
X-5637810Y-30227024D01*
X-5627733Y-30231647D01*
X-5617393Y-30235783D01*
X-5606790Y-30239432D01*
X-5595923Y-30242595D01*
X-5584792Y-30245271D01*
X-5573399Y-30247461D01*
X-5561742Y-30249164D01*
X-5549822Y-30250380D01*
X-5537638Y-30251110D01*
X-5525191Y-30251353D01*
X-5514211Y-30251197D01*
X-5503557Y-30250727D01*
X-5493229Y-30249945D01*
X-5483227Y-30248850D01*
X-5473552Y-30247442D01*
X-5459651Y-30244743D01*
X-5446484Y-30241339D01*
X-5434051Y-30237232D01*
X-5422353Y-30232421D01*
X-5411388Y-30226905D01*
X-5401158Y-30220686D01*
X-5391662Y-30213762D01*
X-5388660Y-30211297D01*
X-5379927Y-30203602D01*
X-5371589Y-30195627D01*
X-5363647Y-30187373D01*
X-5356099Y-30178840D01*
X-5348946Y-30170028D01*
X-5342189Y-30160937D01*
X-5335826Y-30151567D01*
X-5329858Y-30141917D01*
X-5324285Y-30131989D01*
X-5319108Y-30121782D01*
X-5315875Y-30114822D01*
X-5220376Y-30160739D01*
X-5225822Y-30171555D01*
X-5231779Y-30182385D01*
X-5238248Y-30193231D01*
X-5245228Y-30204092D01*
X-5250799Y-30212248D01*
X-5256657Y-30220413D01*
X-5262803Y-30228586D01*
X-5269236Y-30236767D01*
X-5275958Y-30244958D01*
X-5278262Y-30247690D01*
X-5285379Y-30255758D01*
X-5292899Y-30263569D01*
X-5300823Y-30271123D01*
X-5309151Y-30278418D01*
X-5317882Y-30285457D01*
X-5327017Y-30292237D01*
X-5336555Y-30298760D01*
X-5346497Y-30305026D01*
X-5356843Y-30311033D01*
X-5367592Y-30316784D01*
X-5374982Y-30320474D01*
X-5386442Y-30325668D01*
X-5398472Y-30330352D01*
X-5411074Y-30334524D01*
X-5424247Y-30338185D01*
X-5437990Y-30341336D01*
X-5452305Y-30343976D01*
X-5462165Y-30345452D01*
X-5472279Y-30346701D01*
X-5482647Y-30347722D01*
X-5493269Y-30348517D01*
X-5504145Y-30349085D01*
X-5515274Y-30349425D01*
X-5526657Y-30349539D01*
X-5539621Y-30349367D01*
X-5552379Y-30348852D01*
X-5564930Y-30347993D01*
X-5577276Y-30346791D01*
X-5589416Y-30345246D01*
X-5601349Y-30343357D01*
X-5613077Y-30341124D01*
X-5624598Y-30338548D01*
X-5635914Y-30335629D01*
X-5647023Y-30332366D01*
X-5657926Y-30328759D01*
X-5668623Y-30324809D01*
X-5679114Y-30320516D01*
X-5689399Y-30315879D01*
X-5699478Y-30310899D01*
X-5709351Y-30305575D01*
X-5718986Y-30299910D01*
X-5728352Y-30293966D01*
X-5737449Y-30287744D01*
X-5746277Y-30281243D01*
X-5754836Y-30274463D01*
X-5763126Y-30267405D01*
X-5771147Y-30260068D01*
X-5778899Y-30252452D01*
X-5786381Y-30244558D01*
X-5793595Y-30236386D01*
X-5800540Y-30227935D01*
X-5807216Y-30219205D01*
X-5813622Y-30210196D01*
X-5819760Y-30200910D01*
X-5825628Y-30191344D01*
X-5831228Y-30181500D01*
X-5836492Y-30171388D01*
X-5841417Y-30161079D01*
X-5846002Y-30150574D01*
X-5850248Y-30139872D01*
X-5854154Y-30128973D01*
X-5857720Y-30117878D01*
X-5860947Y-30106587D01*
X-5863834Y-30095099D01*
X-5866381Y-30083414D01*
X-5868589Y-30071533D01*
X-5870457Y-30059456D01*
X-5871986Y-30047182D01*
X-5873174Y-30034711D01*
X-5874024Y-30022044D01*
X-5874533Y-30009180D01*
X-5874703Y-29996120D01*
X-5874703Y-29979267D01*
X-5874534Y-29966120D01*
X-5874027Y-29953179D01*
X-5873183Y-29940444D01*
X-5872001Y-29927915D01*
X-5871737Y-29925778D01*
X-5761618Y-29925778D01*
X-5317585Y-29925778D01*
X-5318496Y-29913948D01*
X-5319825Y-29902456D01*
X-5321572Y-29891302D01*
X-5323737Y-29880486D01*
X-5326320Y-29870007D01*
X-5329320Y-29859866D01*
X-5332739Y-29850063D01*
X-5336575Y-29840598D01*
X-5340829Y-29831470D01*
X-5345501Y-29822680D01*
X-5350591Y-29814228D01*
X-5356099Y-29806114D01*
X-5362025Y-29798337D01*
X-5368368Y-29790898D01*
X-5375130Y-29783797D01*
X-5382309Y-29777034D01*
X-5389832Y-29770645D01*
X-5397624Y-29764669D01*
X-5405685Y-29759105D01*
X-5414015Y-29753953D01*
X-5422614Y-29749213D01*
X-5431482Y-29744885D01*
X-5440619Y-29740970D01*
X-5450026Y-29737466D01*
X-5459701Y-29734375D01*
X-5469645Y-29731696D01*
X-5479859Y-29729429D01*
X-5490341Y-29727575D01*
X-5501092Y-29726132D01*
X-5512113Y-29725102D01*
X-5523403Y-29724483D01*
X-5534961Y-29724277D01*
X-5546493Y-29724483D01*
X-5557763Y-29725102D01*
X-5568773Y-29726132D01*
X-5579520Y-29727575D01*
X-5590006Y-29729429D01*
X-5600231Y-29731696D01*
X-5610195Y-29734375D01*
X-5619897Y-29737466D01*
X-5629337Y-29740970D01*
X-5638516Y-29744885D01*
X-5647434Y-29749213D01*
X-5656090Y-29753953D01*
X-5664485Y-29759105D01*
X-5672619Y-29764669D01*
X-5680491Y-29770645D01*
X-5688101Y-29777034D01*
X-5695401Y-29783797D01*
X-5702340Y-29790898D01*
X-5708918Y-29798337D01*
X-5715136Y-29806114D01*
X-5720993Y-29814228D01*
X-5726489Y-29822680D01*
X-5731625Y-29831470D01*
X-5736400Y-29840598D01*
X-5740815Y-29850063D01*
X-5744869Y-29859866D01*
X-5748562Y-29870007D01*
X-5751895Y-29880486D01*
X-5754867Y-29891302D01*
X-5757478Y-29902456D01*
X-5759728Y-29913948D01*
X-5761618Y-29925778D01*
X-5871737Y-29925778D01*
X-5870481Y-29915592D01*
X-5868624Y-29903475D01*
X-5866428Y-29891565D01*
X-5863895Y-29879860D01*
X-5861024Y-29868361D01*
X-5857816Y-29857069D01*
X-5854270Y-29845983D01*
X-5850385Y-29835102D01*
X-5846164Y-29824428D01*
X-5841604Y-29813960D01*
X-5836707Y-29803698D01*
X-5831472Y-29793642D01*
X-5825907Y-29783829D01*
X-5820080Y-29774294D01*
X-5813992Y-29765037D01*
X-5807643Y-29756059D01*
X-5801032Y-29747360D01*
X-5794160Y-29738939D01*
X-5787026Y-29730797D01*
X-5779631Y-29722934D01*
X-5771975Y-29715349D01*
X-5764057Y-29708043D01*
X-5755878Y-29701015D01*
X-5747437Y-29694266D01*
X-5738735Y-29687795D01*
X-5729772Y-29681603D01*
X-5720547Y-29675690D01*
X-5711060Y-29670055D01*
X-5701354Y-29664702D01*
X-5691471Y-29659694D01*
X-5681410Y-29655032D01*
X-5671172Y-29650714D01*
X-5660757Y-29646743D01*
X-5650164Y-29643116D01*
X-5639393Y-29639835D01*
X-5628445Y-29636899D01*
X-5617320Y-29634309D01*
X-5606017Y-29632064D01*
X-5594536Y-29630165D01*
X-5582879Y-29628610D01*
X-5571043Y-29627402D01*
X-5559030Y-29626538D01*
X-5546840Y-29626020D01*
X-5534473Y-29625847D01*
X-5522412Y-29626010D01*
G37*
G36*
X-5012526Y-30330000D02*
G01*
X-5012526Y-29645631D01*
X-4904570Y-29645631D01*
X-4904570Y-29728918D01*
X-4885519Y-29728918D01*
X-4880581Y-29718064D01*
X-4875047Y-29707974D01*
X-4868919Y-29698647D01*
X-4862194Y-29690083D01*
X-4854875Y-29682283D01*
X-4846960Y-29675245D01*
X-4838449Y-29668971D01*
X-4829344Y-29663461D01*
X-4819551Y-29658595D01*
X-4808980Y-29654378D01*
X-4797630Y-29650810D01*
X-4785502Y-29647890D01*
X-4772595Y-29645620D01*
X-4762404Y-29644342D01*
X-4751775Y-29643430D01*
X-4740709Y-29642883D01*
X-4729204Y-29642700D01*
X-4648115Y-29642700D01*
X-4648115Y-29743817D01*
X-4737020Y-29743817D01*
X-4750645Y-29744179D01*
X-4763767Y-29745268D01*
X-4776387Y-29747082D01*
X-4788505Y-29749621D01*
X-4800121Y-29752886D01*
X-4811234Y-29756877D01*
X-4821845Y-29761593D01*
X-4831954Y-29767035D01*
X-4841560Y-29773202D01*
X-4850664Y-29780095D01*
X-4856454Y-29785094D01*
X-4864573Y-29793193D01*
X-4871893Y-29802104D01*
X-4878415Y-29811826D01*
X-4884138Y-29822360D01*
X-4889062Y-29833705D01*
X-4893188Y-29845862D01*
X-4896516Y-29858830D01*
X-4899044Y-29872609D01*
X-4900775Y-29887200D01*
X-4901484Y-29897378D01*
X-4901839Y-29907917D01*
X-4901884Y-29913321D01*
X-4901884Y-30330000D01*
X-5012526Y-30330000D01*
G37*
G36*
X-243998Y-27185359D02*
G01*
X-600592Y-27185359D01*
X-432065Y-26631416D01*
X-412770Y-26631416D01*
X-243998Y-27185359D01*
G37*
G36*
X935181Y-27702396D02*
G01*
X-970840Y-27702396D01*
X-970840Y-27540000D01*
X-827983Y-27540000D01*
X-706105Y-27540000D01*
X-631123Y-27292581D01*
X-213468Y-27292581D01*
X-138485Y-27540000D01*
X-16608Y-27540000D01*
X-113078Y-27227369D01*
X81577Y-27227369D01*
X81757Y-27240348D01*
X82298Y-27253090D01*
X83200Y-27265596D01*
X84462Y-27277866D01*
X86085Y-27289899D01*
X88068Y-27301695D01*
X90413Y-27313254D01*
X93117Y-27324577D01*
X96183Y-27335664D01*
X99609Y-27346513D01*
X103396Y-27357126D01*
X107543Y-27367503D01*
X112051Y-27377643D01*
X116920Y-27387546D01*
X122149Y-27397213D01*
X127739Y-27406643D01*
X133678Y-27415817D01*
X139894Y-27424717D01*
X146386Y-27433342D01*
X153155Y-27441692D01*
X160201Y-27449767D01*
X167524Y-27457568D01*
X175123Y-27465093D01*
X182999Y-27472344D01*
X191151Y-27479320D01*
X199580Y-27486022D01*
X208286Y-27492448D01*
X217269Y-27498600D01*
X226528Y-27504477D01*
X236064Y-27510080D01*
X245877Y-27515407D01*
X255966Y-27520460D01*
X266313Y-27525192D01*
X276838Y-27529619D01*
X287539Y-27533741D01*
X298419Y-27537557D01*
X309475Y-27541068D01*
X320710Y-27544274D01*
X332121Y-27547174D01*
X343710Y-27549769D01*
X355477Y-27552059D01*
X367421Y-27554043D01*
X379543Y-27555723D01*
X391842Y-27557096D01*
X404318Y-27558165D01*
X416972Y-27558928D01*
X429803Y-27559386D01*
X442812Y-27559539D01*
X455896Y-27559391D01*
X468770Y-27558947D01*
X481435Y-27558208D01*
X493889Y-27557173D01*
X506134Y-27555842D01*
X518169Y-27554215D01*
X529993Y-27552293D01*
X541608Y-27550075D01*
X553013Y-27547561D01*
X564208Y-27544751D01*
X575194Y-27541645D01*
X585969Y-27538244D01*
X596534Y-27534547D01*
X606890Y-27530554D01*
X617035Y-27526266D01*
X626971Y-27521681D01*
X636693Y-27516799D01*
X646137Y-27511679D01*
X655301Y-27506320D01*
X664188Y-27500722D01*
X672795Y-27494886D01*
X681124Y-27488812D01*
X689175Y-27482498D01*
X696947Y-27475947D01*
X704440Y-27469157D01*
X711655Y-27462128D01*
X718591Y-27454861D01*
X725248Y-27447355D01*
X731627Y-27439611D01*
X737728Y-27431628D01*
X743549Y-27423407D01*
X749093Y-27414947D01*
X754328Y-27406247D01*
X759225Y-27397365D01*
X763784Y-27388303D01*
X768006Y-27379059D01*
X771890Y-27369633D01*
X775436Y-27360027D01*
X778645Y-27350239D01*
X781516Y-27340270D01*
X784049Y-27330120D01*
X786244Y-27319788D01*
X788102Y-27309275D01*
X789622Y-27298581D01*
X790804Y-27287705D01*
X791648Y-27276648D01*
X792155Y-27265410D01*
X792324Y-27253991D01*
X792324Y-27239092D01*
X792161Y-27227948D01*
X791675Y-27217046D01*
X790864Y-27206386D01*
X789728Y-27195968D01*
X788269Y-27185793D01*
X786485Y-27175860D01*
X784376Y-27166170D01*
X780605Y-27152088D01*
X776104Y-27138552D01*
X770874Y-27125561D01*
X764913Y-27113115D01*
X758223Y-27101215D01*
X750802Y-27089860D01*
X745505Y-27082556D01*
X737159Y-27072028D01*
X728332Y-27062016D01*
X719024Y-27052519D01*
X709235Y-27043538D01*
X698966Y-27035071D01*
X688215Y-27027120D01*
X676984Y-27019684D01*
X665271Y-27012763D01*
X653078Y-27006358D01*
X640404Y-27000467D01*
X627403Y-26995055D01*
X614135Y-26990175D01*
X600601Y-26985827D01*
X586801Y-26982011D01*
X572734Y-26978728D01*
X558402Y-26975978D01*
X548699Y-26974440D01*
X538878Y-26973139D01*
X528938Y-26972074D01*
X518880Y-26971246D01*
X508704Y-26970654D01*
X498410Y-26970299D01*
X487997Y-26970181D01*
X418388Y-26970181D01*
X418388Y-26953817D01*
X783287Y-26718367D01*
X783287Y-26560097D01*
X104780Y-26560097D01*
X104780Y-26661946D01*
X664096Y-26661946D01*
X664096Y-26678311D01*
X289916Y-26918890D01*
X289916Y-27059330D01*
X449162Y-27059330D01*
X457056Y-27059405D01*
X468733Y-27059801D01*
X480212Y-27060536D01*
X491493Y-27061610D01*
X502577Y-27063023D01*
X513464Y-27064775D01*
X524153Y-27066867D01*
X534644Y-27069297D01*
X544938Y-27072067D01*
X555034Y-27075177D01*
X564933Y-27078625D01*
X574545Y-27082423D01*
X583778Y-27086582D01*
X592634Y-27091101D01*
X601112Y-27095981D01*
X611828Y-27103049D01*
X621873Y-27110758D01*
X631245Y-27119108D01*
X639947Y-27128099D01*
X647976Y-27137732D01*
X653476Y-27145415D01*
X659967Y-27156341D01*
X665497Y-27168046D01*
X669013Y-27177335D01*
X671989Y-27187062D01*
X674423Y-27197228D01*
X676316Y-27207831D01*
X677669Y-27218872D01*
X678480Y-27230351D01*
X678751Y-27242267D01*
X678751Y-27252281D01*
X678508Y-27263246D01*
X677781Y-27273973D01*
X676570Y-27284464D01*
X674873Y-27294719D01*
X672692Y-27304736D01*
X670027Y-27314518D01*
X666876Y-27324062D01*
X663241Y-27333370D01*
X659121Y-27342441D01*
X654517Y-27351276D01*
X649428Y-27359874D01*
X643854Y-27368236D01*
X637796Y-27376361D01*
X631253Y-27384249D01*
X624225Y-27391901D01*
X616713Y-27399316D01*
X608764Y-27406384D01*
X600425Y-27412997D01*
X591697Y-27419154D01*
X582580Y-27424854D01*
X573074Y-27430099D01*
X563178Y-27434887D01*
X552893Y-27439220D01*
X542219Y-27443096D01*
X531155Y-27446517D01*
X519703Y-27449481D01*
X507861Y-27451989D01*
X495630Y-27454041D01*
X483009Y-27455637D01*
X469999Y-27456778D01*
X456600Y-27457462D01*
X442812Y-27457690D01*
X429146Y-27457448D01*
X415808Y-27456724D01*
X402798Y-27455517D01*
X390117Y-27453828D01*
X377763Y-27451655D01*
X365738Y-27449000D01*
X354041Y-27445862D01*
X342672Y-27442241D01*
X331632Y-27438138D01*
X320920Y-27433552D01*
X310535Y-27428483D01*
X300479Y-27422931D01*
X290752Y-27416896D01*
X281352Y-27410379D01*
X272281Y-27403379D01*
X263538Y-27395896D01*
X255256Y-27387995D01*
X247509Y-27379738D01*
X240297Y-27371127D01*
X233618Y-27362160D01*
X227474Y-27352839D01*
X221864Y-27343163D01*
X216788Y-27333132D01*
X212247Y-27322745D01*
X208240Y-27312005D01*
X204767Y-27300909D01*
X201828Y-27289458D01*
X199424Y-27277652D01*
X197554Y-27265492D01*
X196218Y-27252976D01*
X195417Y-27240106D01*
X195150Y-27226880D01*
X195150Y-27201235D01*
X81577Y-27201235D01*
X81577Y-27227369D01*
X-113078Y-27227369D01*
X-318980Y-26560097D01*
X-525610Y-26560097D01*
X-718550Y-27185359D01*
X-827983Y-27540000D01*
X-970840Y-27540000D01*
X-970840Y-26417240D01*
X935181Y-26417240D01*
X935181Y-27702396D01*
G37*
G36*
X7006490Y-21435359D02*
G01*
X6649896Y-21435359D01*
X6818423Y-20881416D01*
X6837718Y-20881416D01*
X7006490Y-21435359D01*
G37*
G36*
X8186891Y-21932857D02*
G01*
X6279648Y-21932857D01*
X6279648Y-21790000D01*
X6422505Y-21790000D01*
X6544383Y-21790000D01*
X6619365Y-21542581D01*
X7037020Y-21542581D01*
X7112003Y-21790000D01*
X7233880Y-21790000D01*
X7343301Y-21790000D01*
X8035485Y-21790000D01*
X8035485Y-21688150D01*
X7458095Y-21688150D01*
X7458095Y-21663482D01*
X7458118Y-21659493D01*
X7458465Y-21647839D01*
X7459229Y-21636652D01*
X7460409Y-21625934D01*
X7462005Y-21615684D01*
X7464018Y-21605901D01*
X7467350Y-21593586D01*
X7471422Y-21582103D01*
X7476234Y-21571452D01*
X7481787Y-21561632D01*
X7483290Y-21559279D01*
X7489757Y-21550124D01*
X7496949Y-21541381D01*
X7504866Y-21533050D01*
X7513507Y-21525131D01*
X7522875Y-21517624D01*
X7532967Y-21510530D01*
X7543784Y-21503848D01*
X7552373Y-21499106D01*
X7558360Y-21496032D01*
X7567694Y-21491457D01*
X7577454Y-21486925D01*
X7587638Y-21482435D01*
X7598248Y-21477989D01*
X7609282Y-21473585D01*
X7620742Y-21469225D01*
X7632626Y-21464907D01*
X7644936Y-21460632D01*
X7657671Y-21456401D01*
X7670831Y-21452212D01*
X7746302Y-21429009D01*
X7751852Y-21427212D01*
X7762820Y-21423556D01*
X7773612Y-21419816D01*
X7784229Y-21415992D01*
X7794670Y-21412084D01*
X7804936Y-21408092D01*
X7815026Y-21404017D01*
X7824941Y-21399857D01*
X7834680Y-21395613D01*
X7844244Y-21391285D01*
X7853632Y-21386874D01*
X7862845Y-21382378D01*
X7871882Y-21377799D01*
X7880743Y-21373135D01*
X7889429Y-21368388D01*
X7902129Y-21361109D01*
X7910379Y-21356105D01*
X7922320Y-21348266D01*
X7933743Y-21340028D01*
X7944646Y-21331390D01*
X7955029Y-21322354D01*
X7964893Y-21312918D01*
X7974238Y-21303082D01*
X7983062Y-21292848D01*
X7991368Y-21282214D01*
X7999154Y-21271181D01*
X8006420Y-21259748D01*
X8013142Y-21247829D01*
X8019203Y-21235334D01*
X8024603Y-21222263D01*
X8029341Y-21208618D01*
X8032133Y-21199201D01*
X8034630Y-21189528D01*
X8036834Y-21179600D01*
X8038744Y-21169417D01*
X8040361Y-21158977D01*
X8041683Y-21148282D01*
X8042711Y-21137331D01*
X8043446Y-21126125D01*
X8043887Y-21114662D01*
X8044034Y-21102944D01*
X8044034Y-21089755D01*
X8043864Y-21078637D01*
X8043354Y-21067693D01*
X8042505Y-21056923D01*
X8041317Y-21046326D01*
X8039788Y-21035903D01*
X8037920Y-21025653D01*
X8035712Y-21015577D01*
X8033165Y-21005675D01*
X8030278Y-20995946D01*
X8027051Y-20986391D01*
X8023485Y-20977010D01*
X8019579Y-20967802D01*
X8015333Y-20958768D01*
X8010748Y-20949907D01*
X8005823Y-20941220D01*
X8000559Y-20932707D01*
X7994991Y-20924398D01*
X7989155Y-20916324D01*
X7983053Y-20908484D01*
X7976684Y-20900879D01*
X7970047Y-20893509D01*
X7963144Y-20886373D01*
X7955973Y-20879473D01*
X7948535Y-20872807D01*
X7940830Y-20866375D01*
X7932857Y-20860178D01*
X7924618Y-20854216D01*
X7916112Y-20848489D01*
X7907338Y-20842997D01*
X7898297Y-20837739D01*
X7888989Y-20832715D01*
X7879414Y-20827927D01*
X7869615Y-20823372D01*
X7859634Y-20819111D01*
X7849472Y-20815144D01*
X7839129Y-20811471D01*
X7828605Y-20808092D01*
X7817899Y-20805006D01*
X7807012Y-20802215D01*
X7795944Y-20799717D01*
X7784695Y-20797513D01*
X7773264Y-20795603D01*
X7761652Y-20793987D01*
X7749858Y-20792664D01*
X7737884Y-20791636D01*
X7725728Y-20790901D01*
X7713391Y-20790460D01*
X7700873Y-20790314D01*
X7688346Y-20790465D01*
X7675983Y-20790920D01*
X7663784Y-20791679D01*
X7651749Y-20792741D01*
X7639879Y-20794106D01*
X7628172Y-20795775D01*
X7616630Y-20797747D01*
X7605251Y-20800022D01*
X7594037Y-20802601D01*
X7582987Y-20805483D01*
X7572101Y-20808669D01*
X7561379Y-20812158D01*
X7550822Y-20815950D01*
X7540428Y-20820046D01*
X7530198Y-20824446D01*
X7520133Y-20829148D01*
X7510283Y-20834109D01*
X7500700Y-20839345D01*
X7491385Y-20844856D01*
X7482336Y-20850642D01*
X7473555Y-20856702D01*
X7465041Y-20863037D01*
X7456794Y-20869647D01*
X7448814Y-20876531D01*
X7441101Y-20883691D01*
X7433656Y-20891125D01*
X7426477Y-20898834D01*
X7419566Y-20906817D01*
X7412922Y-20915076D01*
X7406545Y-20923609D01*
X7400435Y-20932417D01*
X7394592Y-20941500D01*
X7389091Y-20950847D01*
X7383945Y-20960448D01*
X7379153Y-20970302D01*
X7374717Y-20980411D01*
X7370635Y-20990773D01*
X7366909Y-21001389D01*
X7363537Y-21012259D01*
X7360520Y-21023382D01*
X7357858Y-21034760D01*
X7355551Y-21046391D01*
X7353599Y-21058276D01*
X7352002Y-21070414D01*
X7350760Y-21082807D01*
X7349873Y-21095453D01*
X7349340Y-21108353D01*
X7349163Y-21121507D01*
X7349163Y-21141046D01*
X7460538Y-21141046D01*
X7460538Y-21120774D01*
X7460800Y-21106710D01*
X7461587Y-21093095D01*
X7462899Y-21079927D01*
X7464735Y-21067209D01*
X7467097Y-21054938D01*
X7469983Y-21043116D01*
X7473394Y-21031743D01*
X7477329Y-21020818D01*
X7481790Y-21010341D01*
X7486775Y-21000313D01*
X7492284Y-20990733D01*
X7498319Y-20981601D01*
X7504878Y-20972918D01*
X7511962Y-20964684D01*
X7519571Y-20956898D01*
X7527704Y-20949560D01*
X7536252Y-20942639D01*
X7545103Y-20936165D01*
X7554257Y-20930137D01*
X7563715Y-20924556D01*
X7573476Y-20919421D01*
X7583541Y-20914732D01*
X7593908Y-20910491D01*
X7604580Y-20906695D01*
X7615554Y-20903346D01*
X7626833Y-20900444D01*
X7638414Y-20897988D01*
X7650299Y-20895979D01*
X7662487Y-20894416D01*
X7674979Y-20893300D01*
X7687774Y-20892630D01*
X7700873Y-20892407D01*
X7713426Y-20892617D01*
X7725686Y-20893247D01*
X7737652Y-20894296D01*
X7749324Y-20895765D01*
X7760702Y-20897654D01*
X7771787Y-20899963D01*
X7782577Y-20902692D01*
X7793074Y-20905840D01*
X7803277Y-20909409D01*
X7813186Y-20913397D01*
X7822801Y-20917804D01*
X7832123Y-20922632D01*
X7841150Y-20927879D01*
X7849884Y-20933547D01*
X7858323Y-20939634D01*
X7866469Y-20946140D01*
X7874218Y-20953010D01*
X7881467Y-20960184D01*
X7888216Y-20967664D01*
X7894466Y-20975450D01*
X7900215Y-20983540D01*
X7905464Y-20991936D01*
X7910213Y-21000637D01*
X7914463Y-21009644D01*
X7918212Y-21018955D01*
X7921462Y-21028572D01*
X7924212Y-21038495D01*
X7926461Y-21048722D01*
X7928211Y-21059255D01*
X7929461Y-21070094D01*
X7930211Y-21081237D01*
X7930461Y-21092686D01*
X7930461Y-21098304D01*
X7930435Y-21102329D01*
X7930049Y-21114160D01*
X7929199Y-21125627D01*
X7927885Y-21136729D01*
X7926107Y-21147466D01*
X7923866Y-21157838D01*
X7921161Y-21167845D01*
X7917993Y-21177487D01*
X7914361Y-21186764D01*
X7910265Y-21195677D01*
X7904083Y-21206992D01*
X7897160Y-21217685D01*
X7889581Y-21227905D01*
X7881345Y-21237652D01*
X7872453Y-21246926D01*
X7862905Y-21255726D01*
X7855313Y-21262016D01*
X7847351Y-21268039D01*
X7839021Y-21273797D01*
X7830321Y-21279288D01*
X7824334Y-21282825D01*
X7815115Y-21288003D01*
X7805607Y-21293026D01*
X7795812Y-21297895D01*
X7785729Y-21302609D01*
X7775358Y-21307169D01*
X7764700Y-21311574D01*
X7753754Y-21315824D01*
X7742521Y-21319920D01*
X7731000Y-21323861D01*
X7719191Y-21327648D01*
X7642254Y-21352072D01*
X7636494Y-21353823D01*
X7625125Y-21357389D01*
X7613959Y-21361042D01*
X7602995Y-21364780D01*
X7592233Y-21368604D01*
X7581673Y-21372513D01*
X7571316Y-21376509D01*
X7561160Y-21380591D01*
X7551207Y-21384758D01*
X7541457Y-21389011D01*
X7531908Y-21393350D01*
X7522562Y-21397775D01*
X7513419Y-21402286D01*
X7504477Y-21406883D01*
X7495738Y-21411565D01*
X7483008Y-21418750D01*
X7474790Y-21423670D01*
X7462904Y-21431406D01*
X7451546Y-21439572D01*
X7440716Y-21448167D01*
X7430415Y-21457192D01*
X7420641Y-21466646D01*
X7411395Y-21476529D01*
X7402678Y-21486842D01*
X7394488Y-21497584D01*
X7386827Y-21508755D01*
X7379693Y-21520355D01*
X7375286Y-21528364D01*
X7369209Y-21540985D01*
X7363772Y-21554336D01*
X7360502Y-21563642D01*
X7357517Y-21573272D01*
X7354816Y-21583227D01*
X7352399Y-21593506D01*
X7350267Y-21604110D01*
X7348419Y-21615038D01*
X7346855Y-21626290D01*
X7345576Y-21637867D01*
X7344580Y-21649768D01*
X7343870Y-21661993D01*
X7343443Y-21674543D01*
X7343301Y-21687418D01*
X7343301Y-21790000D01*
X7233880Y-21790000D01*
X6931508Y-20810097D01*
X6724878Y-20810097D01*
X6531938Y-21435359D01*
X6422505Y-21790000D01*
X6279648Y-21790000D01*
X6279648Y-20647457D01*
X8186891Y-20647457D01*
X8186891Y-21932857D01*
G37*
G36*
X612694Y17502368D02*
G01*
X602020Y17502487D01*
X591493Y17502844D01*
X581113Y17503440D01*
X570879Y17504273D01*
X560792Y17505345D01*
X550851Y17506654D01*
X541057Y17508202D01*
X531410Y17509988D01*
X521909Y17512012D01*
X512554Y17514275D01*
X503346Y17516775D01*
X494285Y17519514D01*
X485370Y17522491D01*
X476602Y17525705D01*
X467980Y17529158D01*
X459505Y17532849D01*
X451238Y17536778D01*
X443195Y17540943D01*
X435375Y17545345D01*
X427777Y17549983D01*
X420403Y17554858D01*
X413251Y17559970D01*
X406322Y17565318D01*
X399616Y17570903D01*
X393133Y17576724D01*
X386873Y17582782D01*
X380835Y17589076D01*
X375021Y17595608D01*
X369429Y17602375D01*
X364061Y17609380D01*
X358915Y17616621D01*
X353992Y17624099D01*
X349354Y17631838D01*
X345016Y17639816D01*
X340977Y17648031D01*
X337237Y17656485D01*
X333796Y17665177D01*
X330654Y17674107D01*
X327812Y17683276D01*
X325269Y17692682D01*
X323025Y17702327D01*
X321080Y17712209D01*
X319434Y17722330D01*
X318088Y17732689D01*
X317041Y17743286D01*
X316293Y17754121D01*
X315844Y17765195D01*
X315694Y17776506D01*
X315694Y17800735D01*
X408897Y17800735D01*
X408897Y17776506D01*
X409119Y17764515D01*
X409783Y17752915D01*
X410889Y17741708D01*
X412439Y17730894D01*
X414431Y17720471D01*
X416866Y17710441D01*
X419743Y17700804D01*
X423063Y17691558D01*
X426826Y17682705D01*
X431032Y17674245D01*
X435680Y17666176D01*
X440771Y17658500D01*
X446305Y17651216D01*
X452281Y17644325D01*
X458700Y17637826D01*
X465562Y17631719D01*
X472800Y17626017D01*
X480299Y17620682D01*
X488059Y17615716D01*
X496080Y17611117D01*
X504362Y17606886D01*
X512905Y17603023D01*
X521709Y17599529D01*
X530775Y17596401D01*
X540101Y17593642D01*
X549688Y17591251D01*
X559536Y17589228D01*
X569646Y17587572D01*
X580016Y17586284D01*
X590648Y17585365D01*
X601540Y17584813D01*
X612694Y17584629D01*
X623932Y17584788D01*
X634834Y17585267D01*
X645401Y17586065D01*
X655632Y17587181D01*
X665526Y17588617D01*
X675085Y17590372D01*
X684309Y17592445D01*
X693196Y17594838D01*
X701748Y17597550D01*
X709963Y17600581D01*
X717843Y17603931D01*
X725387Y17607600D01*
X732595Y17611588D01*
X739468Y17615895D01*
X746004Y17620521D01*
X752205Y17625466D01*
X758049Y17630684D01*
X766109Y17638842D01*
X773320Y17647399D01*
X779683Y17656355D01*
X785197Y17665708D01*
X789863Y17675461D01*
X793681Y17685611D01*
X796650Y17696160D01*
X798771Y17707108D01*
X800043Y17718453D01*
X800468Y17730198D01*
X800277Y17738075D01*
X799430Y17748124D01*
X797905Y17757654D01*
X795702Y17766665D01*
X792821Y17775157D01*
X789263Y17783130D01*
X785027Y17790584D01*
X780113Y17797519D01*
X778779Y17799172D01*
X773082Y17805559D01*
X766835Y17811628D01*
X760039Y17817380D01*
X752694Y17822815D01*
X744798Y17827931D01*
X736354Y17832731D01*
X727360Y17837213D01*
X717816Y17841377D01*
X710333Y17844352D01*
X702614Y17847269D01*
X694658Y17850127D01*
X686464Y17852927D01*
X678034Y17855668D01*
X669366Y17858351D01*
X660462Y17860976D01*
X651321Y17863542D01*
X641942Y17866050D01*
X632327Y17868499D01*
X625785Y17870100D01*
X567362Y17884559D01*
X558852Y17886742D01*
X550467Y17888992D01*
X542207Y17891309D01*
X534072Y17893694D01*
X526062Y17896145D01*
X518178Y17898664D01*
X510418Y17901250D01*
X502784Y17903903D01*
X495275Y17906623D01*
X487892Y17909411D01*
X477051Y17913718D01*
X466491Y17918176D01*
X456214Y17922785D01*
X446218Y17927546D01*
X436563Y17932524D01*
X427311Y17937788D01*
X418460Y17943337D01*
X410012Y17949171D01*
X401965Y17955289D01*
X394320Y17961693D01*
X387077Y17968382D01*
X380235Y17975356D01*
X373796Y17982616D01*
X367758Y17990160D01*
X363957Y17995348D01*
X358684Y18003438D01*
X353930Y18011953D01*
X349694Y18020895D01*
X345977Y18030262D01*
X342779Y18040056D01*
X340100Y18050275D01*
X337939Y18060920D01*
X336296Y18071991D01*
X335172Y18083488D01*
X334711Y18091389D01*
X334481Y18099480D01*
X334452Y18103596D01*
X334583Y18111781D01*
X334974Y18119826D01*
X335627Y18127730D01*
X336540Y18135494D01*
X338400Y18146877D01*
X340848Y18157943D01*
X343882Y18168694D01*
X347504Y18179128D01*
X351713Y18189247D01*
X356510Y18199049D01*
X361893Y18208536D01*
X367865Y18217706D01*
X374356Y18226558D01*
X381301Y18235015D01*
X388699Y18243077D01*
X396551Y18250743D01*
X404856Y18258015D01*
X413614Y18264892D01*
X422826Y18271374D01*
X432491Y18277460D01*
X442610Y18283152D01*
X449607Y18286727D01*
X456806Y18290127D01*
X460481Y18291761D01*
X467984Y18294908D01*
X475643Y18297852D01*
X483457Y18300593D01*
X491427Y18303130D01*
X499553Y18305465D01*
X507834Y18307597D01*
X516271Y18309526D01*
X524864Y18311251D01*
X533612Y18312774D01*
X542517Y18314094D01*
X551576Y18315210D01*
X560792Y18316124D01*
X570163Y18316835D01*
X579690Y18317342D01*
X589373Y18317647D01*
X599211Y18317748D01*
X609041Y18317641D01*
X618745Y18317321D01*
X628324Y18316787D01*
X637777Y18316039D01*
X647106Y18315077D01*
X656309Y18313901D01*
X665387Y18312512D01*
X674341Y18310909D01*
X683168Y18309093D01*
X691871Y18307063D01*
X700449Y18304819D01*
X708901Y18302361D01*
X717228Y18299690D01*
X725430Y18296804D01*
X733507Y18293706D01*
X741458Y18290393D01*
X749267Y18286871D01*
X756867Y18283145D01*
X764258Y18279214D01*
X771439Y18275079D01*
X778412Y18270739D01*
X785175Y18266195D01*
X791729Y18261446D01*
X798074Y18256492D01*
X804210Y18251334D01*
X810136Y18245971D01*
X815854Y18240404D01*
X821362Y18234632D01*
X826662Y18228656D01*
X831752Y18222475D01*
X836633Y18216090D01*
X841305Y18209500D01*
X845753Y18202727D01*
X849914Y18195743D01*
X853789Y18188548D01*
X857376Y18181143D01*
X860676Y18173527D01*
X863690Y18165701D01*
X866416Y18157664D01*
X868856Y18149416D01*
X871008Y18140958D01*
X872873Y18132289D01*
X874452Y18123409D01*
X875743Y18114318D01*
X876748Y18105017D01*
X877465Y18095506D01*
X877896Y18085783D01*
X878039Y18075850D01*
X878039Y18028760D01*
X785031Y18028760D01*
X785031Y18075850D01*
X784818Y18086284D01*
X784180Y18096337D01*
X783115Y18106008D01*
X781624Y18115298D01*
X779708Y18124207D01*
X777365Y18132735D01*
X774597Y18140882D01*
X771403Y18148647D01*
X767782Y18156031D01*
X763736Y18163033D01*
X760802Y18167490D01*
X756138Y18173920D01*
X751158Y18180020D01*
X745862Y18185790D01*
X740249Y18191230D01*
X734321Y18196341D01*
X728077Y18201122D01*
X721517Y18205574D01*
X714641Y18209695D01*
X707448Y18213487D01*
X699940Y18216949D01*
X694759Y18219074D01*
X686781Y18222007D01*
X678600Y18224652D01*
X670217Y18227008D01*
X661631Y18229076D01*
X652842Y18230855D01*
X643851Y18232346D01*
X634657Y18233548D01*
X625260Y18234461D01*
X615661Y18235087D01*
X605859Y18235423D01*
X599211Y18235487D01*
X589634Y18235354D01*
X580295Y18234956D01*
X571194Y18234292D01*
X562331Y18233362D01*
X553706Y18232167D01*
X545319Y18230706D01*
X537171Y18228980D01*
X529260Y18226988D01*
X521588Y18224730D01*
X514154Y18222207D01*
X503449Y18217924D01*
X493280Y18213043D01*
X483647Y18207565D01*
X474550Y18201489D01*
X466169Y18194861D01*
X458613Y18187729D01*
X451881Y18180092D01*
X445973Y18171951D01*
X440890Y18163304D01*
X436631Y18154152D01*
X433197Y18144496D01*
X430586Y18134334D01*
X428800Y18123668D01*
X427838Y18112497D01*
X427655Y18104769D01*
X427964Y18094565D01*
X428889Y18084863D01*
X430430Y18075661D01*
X432589Y18066960D01*
X435364Y18058759D01*
X438756Y18051060D01*
X442765Y18043860D01*
X447390Y18037162D01*
X452638Y18030916D01*
X458418Y18024974D01*
X464728Y18019338D01*
X471570Y18014008D01*
X478943Y18008983D01*
X486847Y18004263D01*
X495283Y17999848D01*
X504250Y17995739D01*
X513760Y17991834D01*
X521193Y17988973D01*
X528884Y17986171D01*
X536832Y17983427D01*
X545038Y17980742D01*
X553502Y17978115D01*
X562223Y17975546D01*
X571202Y17973036D01*
X580438Y17970585D01*
X589932Y17968191D01*
X593154Y17967406D01*
X651577Y17953143D01*
X660024Y17951151D01*
X668366Y17949085D01*
X676602Y17946944D01*
X684733Y17944728D01*
X692759Y17942438D01*
X700679Y17940073D01*
X708494Y17937632D01*
X716204Y17935117D01*
X723808Y17932528D01*
X731307Y17929863D01*
X738701Y17927124D01*
X749594Y17922875D01*
X760250Y17918457D01*
X770669Y17913871D01*
X774089Y17912305D01*
X784150Y17907421D01*
X793816Y17902221D01*
X803086Y17896705D01*
X811962Y17890873D01*
X820443Y17884725D01*
X828529Y17878261D01*
X836220Y17871481D01*
X843515Y17864385D01*
X850416Y17856973D01*
X856922Y17849245D01*
X861040Y17843917D01*
X866836Y17835592D01*
X872063Y17826810D01*
X876719Y17817572D01*
X880805Y17807876D01*
X884321Y17797724D01*
X887267Y17787115D01*
X889642Y17776049D01*
X891448Y17764526D01*
X892335Y17756590D01*
X892968Y17748452D01*
X893348Y17740110D01*
X893475Y17731565D01*
X893339Y17722964D01*
X892932Y17714502D01*
X892252Y17706179D01*
X891301Y17697994D01*
X890079Y17689949D01*
X888584Y17682042D01*
X886818Y17674274D01*
X884780Y17666646D01*
X882471Y17659156D01*
X878497Y17648182D01*
X873911Y17637520D01*
X868715Y17627171D01*
X862907Y17617134D01*
X858695Y17610616D01*
X851925Y17601182D01*
X844656Y17592149D01*
X836890Y17583519D01*
X828626Y17575290D01*
X822839Y17570027D01*
X816832Y17564943D01*
X810603Y17560038D01*
X804153Y17555311D01*
X797481Y17550762D01*
X790588Y17546393D01*
X783474Y17542202D01*
X776138Y17538189D01*
X768581Y17534355D01*
X760802Y17530700D01*
X752828Y17527269D01*
X744682Y17524060D01*
X736366Y17521072D01*
X727879Y17518305D01*
X719220Y17515759D01*
X710391Y17513435D01*
X701390Y17511332D01*
X692219Y17509451D01*
X682877Y17507791D01*
X673364Y17506352D01*
X663679Y17505135D01*
X653824Y17504139D01*
X643798Y17503364D01*
X633601Y17502811D01*
X623233Y17502479D01*
X612694Y17502368D01*
G37*
G36*
X1321389Y17502368D02*
G01*
X1312700Y17502447D01*
X1304122Y17502685D01*
X1295655Y17503081D01*
X1287298Y17503635D01*
X1279053Y17504348D01*
X1270917Y17505219D01*
X1262893Y17506248D01*
X1254979Y17507436D01*
X1247176Y17508782D01*
X1239483Y17510287D01*
X1224430Y17513771D01*
X1209820Y17517889D01*
X1195652Y17522640D01*
X1181928Y17528025D01*
X1168645Y17534043D01*
X1155806Y17540695D01*
X1143409Y17547980D01*
X1131455Y17555899D01*
X1119943Y17564451D01*
X1108874Y17573637D01*
X1098248Y17583457D01*
X1088192Y17593906D01*
X1078785Y17604932D01*
X1070027Y17616535D01*
X1061917Y17628715D01*
X1054456Y17641472D01*
X1047644Y17654806D01*
X1041481Y17668717D01*
X1035966Y17683205D01*
X1033452Y17690666D01*
X1031101Y17698271D01*
X1028911Y17706020D01*
X1026884Y17713913D01*
X1025018Y17721950D01*
X1023315Y17730132D01*
X1021775Y17738458D01*
X1020396Y17746928D01*
X1019180Y17755543D01*
X1018125Y17764302D01*
X1017233Y17773205D01*
X1016503Y17782252D01*
X1015936Y17791443D01*
X1015530Y17800779D01*
X1015287Y17810259D01*
X1015206Y17819884D01*
X1015206Y18000037D01*
X1015287Y18009673D01*
X1015530Y18019164D01*
X1015936Y18028511D01*
X1016503Y18037712D01*
X1017233Y18046768D01*
X1018125Y18055679D01*
X1019180Y18064445D01*
X1020396Y18073066D01*
X1021775Y18081542D01*
X1023315Y18089873D01*
X1025018Y18098059D01*
X1026884Y18106100D01*
X1028911Y18113996D01*
X1031101Y18121746D01*
X1033452Y18129352D01*
X1035966Y18136813D01*
X1041481Y18151300D01*
X1047644Y18165206D01*
X1054456Y18178533D01*
X1061917Y18191279D01*
X1070027Y18203446D01*
X1078785Y18215032D01*
X1088192Y18226038D01*
X1098248Y18236464D01*
X1108874Y18246307D01*
X1119943Y18255515D01*
X1131455Y18264088D01*
X1143409Y18272026D01*
X1155806Y18279329D01*
X1168645Y18285997D01*
X1181928Y18292030D01*
X1195652Y18297427D01*
X1209820Y18302190D01*
X1224430Y18306318D01*
X1239483Y18309810D01*
X1247176Y18311319D01*
X1254979Y18312668D01*
X1262893Y18313859D01*
X1270917Y18314891D01*
X1279053Y18315764D01*
X1287298Y18316478D01*
X1295655Y18317034D01*
X1304122Y18317431D01*
X1312700Y18317669D01*
X1321389Y18317748D01*
X1330008Y18317673D01*
X1338501Y18317446D01*
X1346867Y18317068D01*
X1355106Y18316539D01*
X1363219Y18315859D01*
X1371205Y18315028D01*
X1379064Y18314046D01*
X1394403Y18311628D01*
X1409234Y18308605D01*
X1423559Y18304978D01*
X1437377Y18300747D01*
X1450689Y18295911D01*
X1463493Y18290470D01*
X1475791Y18284425D01*
X1487581Y18277776D01*
X1498865Y18270522D01*
X1509643Y18262663D01*
X1519913Y18254200D01*
X1529677Y18245133D01*
X1534368Y18240372D01*
X1543360Y18230480D01*
X1551771Y18220146D01*
X1559602Y18209371D01*
X1566853Y18198155D01*
X1573524Y18186498D01*
X1579614Y18174399D01*
X1585125Y18161860D01*
X1590056Y18148879D01*
X1594406Y18135457D01*
X1598177Y18121594D01*
X1601367Y18107290D01*
X1603978Y18092544D01*
X1606008Y18077358D01*
X1607458Y18061730D01*
X1607966Y18053751D01*
X1608328Y18045661D01*
X1608546Y18037461D01*
X1608618Y18029151D01*
X1608618Y18023289D01*
X1515611Y18023289D01*
X1515611Y18032082D01*
X1515425Y18043020D01*
X1514869Y18053706D01*
X1513941Y18064141D01*
X1512643Y18074324D01*
X1510974Y18084254D01*
X1508934Y18093933D01*
X1506522Y18103360D01*
X1503740Y18112535D01*
X1500587Y18121459D01*
X1497063Y18130130D01*
X1493168Y18138550D01*
X1488903Y18146717D01*
X1484266Y18154633D01*
X1479258Y18162297D01*
X1473879Y18169709D01*
X1468130Y18176869D01*
X1462015Y18183683D01*
X1455493Y18190058D01*
X1448564Y18195993D01*
X1441226Y18201489D01*
X1433482Y18206545D01*
X1425329Y18211161D01*
X1416769Y18215337D01*
X1407802Y18219074D01*
X1398427Y18222371D01*
X1388644Y18225229D01*
X1378454Y18227647D01*
X1367856Y18229625D01*
X1356850Y18231164D01*
X1345437Y18232263D01*
X1333617Y18232923D01*
X1321389Y18233143D01*
X1309077Y18232904D01*
X1297105Y18232190D01*
X1285471Y18230999D01*
X1274177Y18229332D01*
X1263221Y18227189D01*
X1252604Y18224570D01*
X1242326Y18221474D01*
X1232387Y18217902D01*
X1222786Y18213853D01*
X1213525Y18209329D01*
X1204602Y18204328D01*
X1196019Y18198851D01*
X1187774Y18192897D01*
X1179868Y18186468D01*
X1172301Y18179562D01*
X1165073Y18172180D01*
X1158259Y18164395D01*
X1151884Y18156234D01*
X1145949Y18147695D01*
X1140454Y18138779D01*
X1135398Y18129487D01*
X1130782Y18119817D01*
X1126605Y18109770D01*
X1122868Y18099346D01*
X1119571Y18088545D01*
X1116713Y18077368D01*
X1114295Y18065813D01*
X1112317Y18053881D01*
X1110778Y18041571D01*
X1109679Y18028885D01*
X1109020Y18015822D01*
X1108800Y18002382D01*
X1108800Y17817734D01*
X1109020Y17804316D01*
X1109679Y17791271D01*
X1110778Y17778597D01*
X1112317Y17766297D01*
X1114295Y17754369D01*
X1116713Y17742813D01*
X1119571Y17731630D01*
X1122868Y17720819D01*
X1126605Y17710380D01*
X1130782Y17700315D01*
X1135398Y17690621D01*
X1140454Y17681300D01*
X1145949Y17672352D01*
X1151884Y17663776D01*
X1158259Y17655572D01*
X1165073Y17647741D01*
X1172301Y17640359D01*
X1179868Y17633453D01*
X1187774Y17627023D01*
X1196019Y17621070D01*
X1204602Y17615593D01*
X1213525Y17610592D01*
X1222786Y17606067D01*
X1232387Y17602019D01*
X1242326Y17598447D01*
X1252604Y17595351D01*
X1263221Y17592732D01*
X1274177Y17590588D01*
X1285471Y17588922D01*
X1297105Y17587731D01*
X1309077Y17587016D01*
X1321389Y17586778D01*
X1333617Y17586999D01*
X1345437Y17587661D01*
X1356850Y17588764D01*
X1367856Y17590308D01*
X1378454Y17592293D01*
X1388644Y17594719D01*
X1398427Y17597587D01*
X1407802Y17600896D01*
X1416769Y17604645D01*
X1425329Y17608836D01*
X1433482Y17613469D01*
X1441226Y17618542D01*
X1448564Y17624057D01*
X1455493Y17630012D01*
X1462015Y17636409D01*
X1468130Y17643247D01*
X1473879Y17650430D01*
X1479258Y17657862D01*
X1484266Y17665543D01*
X1488903Y17673472D01*
X1493168Y17681651D01*
X1497063Y17690078D01*
X1500587Y17698754D01*
X1503740Y17707678D01*
X1506522Y17716852D01*
X1508934Y17726275D01*
X1510974Y17735946D01*
X1512643Y17745866D01*
X1513941Y17756035D01*
X1514869Y17766452D01*
X1515425Y17777119D01*
X1515611Y17788034D01*
X1515611Y17805815D01*
X1608618Y17805815D01*
X1608618Y17790770D01*
X1608546Y17782472D01*
X1608328Y17774284D01*
X1607966Y17766205D01*
X1607458Y17758237D01*
X1606806Y17750378D01*
X1605065Y17734991D01*
X1602745Y17720043D01*
X1599845Y17705535D01*
X1596364Y17691467D01*
X1592304Y17677838D01*
X1587663Y17664649D01*
X1582442Y17651900D01*
X1576642Y17639590D01*
X1570261Y17627719D01*
X1563300Y17616289D01*
X1555759Y17605298D01*
X1547638Y17594747D01*
X1538937Y17584635D01*
X1534368Y17579744D01*
X1524858Y17570374D01*
X1514841Y17561609D01*
X1504317Y17553448D01*
X1493287Y17545892D01*
X1481749Y17538940D01*
X1469705Y17532593D01*
X1457154Y17526850D01*
X1444096Y17521712D01*
X1430532Y17517178D01*
X1416460Y17513249D01*
X1401882Y17509924D01*
X1386797Y17507204D01*
X1371205Y17505088D01*
X1363219Y17504257D01*
X1355106Y17503577D01*
X1346867Y17503048D01*
X1338501Y17502670D01*
X1330008Y17502444D01*
X1321389Y17502368D01*
G37*
G36*
X1756923Y17518000D02*
G01*
X1756923Y18301921D01*
X1850712Y18301921D01*
X1850712Y17603191D01*
X2247167Y17603191D01*
X2247167Y17518000D01*
X1756923Y17518000D01*
G37*
G36*
X3101892Y17502368D02*
G01*
X3091218Y17502487D01*
X3080691Y17502844D01*
X3070311Y17503440D01*
X3060077Y17504273D01*
X3049990Y17505345D01*
X3040049Y17506654D01*
X3030255Y17508202D01*
X3020608Y17509988D01*
X3011107Y17512012D01*
X3001752Y17514275D01*
X2992544Y17516775D01*
X2983483Y17519514D01*
X2974568Y17522491D01*
X2965800Y17525705D01*
X2957178Y17529158D01*
X2948703Y17532849D01*
X2940436Y17536778D01*
X2932393Y17540943D01*
X2924573Y17545345D01*
X2916975Y17549983D01*
X2909601Y17554858D01*
X2902449Y17559970D01*
X2895520Y17565318D01*
X2888814Y17570903D01*
X2882331Y17576724D01*
X2876071Y17582782D01*
X2870033Y17589076D01*
X2864219Y17595608D01*
X2858627Y17602375D01*
X2853259Y17609380D01*
X2848113Y17616621D01*
X2843190Y17624099D01*
X2838552Y17631838D01*
X2834214Y17639816D01*
X2830175Y17648031D01*
X2826435Y17656485D01*
X2822994Y17665177D01*
X2819852Y17674107D01*
X2817010Y17683276D01*
X2814467Y17692682D01*
X2812223Y17702327D01*
X2810278Y17712209D01*
X2808632Y17722330D01*
X2807286Y17732689D01*
X2806239Y17743286D01*
X2805491Y17754121D01*
X2805042Y17765195D01*
X2804892Y17776506D01*
X2804892Y17800735D01*
X2898095Y17800735D01*
X2898095Y17776506D01*
X2898317Y17764515D01*
X2898981Y17752915D01*
X2900087Y17741708D01*
X2901637Y17730894D01*
X2903629Y17720471D01*
X2906064Y17710441D01*
X2908941Y17700804D01*
X2912261Y17691558D01*
X2916024Y17682705D01*
X2920230Y17674245D01*
X2924878Y17666176D01*
X2929969Y17658500D01*
X2935503Y17651216D01*
X2941479Y17644325D01*
X2947898Y17637826D01*
X2954760Y17631719D01*
X2961998Y17626017D01*
X2969497Y17620682D01*
X2977257Y17615716D01*
X2985278Y17611117D01*
X2993560Y17606886D01*
X3002103Y17603023D01*
X3010907Y17599529D01*
X3019973Y17596401D01*
X3029299Y17593642D01*
X3038886Y17591251D01*
X3048734Y17589228D01*
X3058844Y17587572D01*
X3069214Y17586284D01*
X3079846Y17585365D01*
X3090738Y17584813D01*
X3101892Y17584629D01*
X3113130Y17584788D01*
X3124032Y17585267D01*
X3134599Y17586065D01*
X3144830Y17587181D01*
X3154724Y17588617D01*
X3164283Y17590372D01*
X3173507Y17592445D01*
X3182394Y17594838D01*
X3190946Y17597550D01*
X3199161Y17600581D01*
X3207041Y17603931D01*
X3214585Y17607600D01*
X3221793Y17611588D01*
X3228666Y17615895D01*
X3235202Y17620521D01*
X3241403Y17625466D01*
X3247247Y17630684D01*
X3255307Y17638842D01*
X3262518Y17647399D01*
X3268881Y17656355D01*
X3274395Y17665708D01*
X3279061Y17675461D01*
X3282879Y17685611D01*
X3285848Y17696160D01*
X3287969Y17707108D01*
X3289241Y17718453D01*
X3289666Y17730198D01*
X3289475Y17738075D01*
X3288628Y17748124D01*
X3287103Y17757654D01*
X3284900Y17766665D01*
X3282019Y17775157D01*
X3278461Y17783130D01*
X3274225Y17790584D01*
X3269311Y17797519D01*
X3267977Y17799172D01*
X3262280Y17805559D01*
X3256033Y17811628D01*
X3249237Y17817380D01*
X3241892Y17822815D01*
X3233996Y17827931D01*
X3225552Y17832731D01*
X3216558Y17837213D01*
X3207014Y17841377D01*
X3199531Y17844352D01*
X3191812Y17847269D01*
X3183856Y17850127D01*
X3175662Y17852927D01*
X3167232Y17855668D01*
X3158564Y17858351D01*
X3149660Y17860976D01*
X3140519Y17863542D01*
X3131140Y17866050D01*
X3121525Y17868499D01*
X3114983Y17870100D01*
X3056560Y17884559D01*
X3048050Y17886742D01*
X3039665Y17888992D01*
X3031405Y17891309D01*
X3023270Y17893694D01*
X3015260Y17896145D01*
X3007376Y17898664D01*
X2999616Y17901250D01*
X2991982Y17903903D01*
X2984473Y17906623D01*
X2977090Y17909411D01*
X2966249Y17913718D01*
X2955689Y17918176D01*
X2945412Y17922785D01*
X2935416Y17927546D01*
X2925761Y17932524D01*
X2916509Y17937788D01*
X2907658Y17943337D01*
X2899210Y17949171D01*
X2891163Y17955289D01*
X2883518Y17961693D01*
X2876275Y17968382D01*
X2869433Y17975356D01*
X2862994Y17982616D01*
X2856956Y17990160D01*
X2853155Y17995348D01*
X2847882Y18003438D01*
X2843128Y18011953D01*
X2838892Y18020895D01*
X2835175Y18030262D01*
X2831977Y18040056D01*
X2829298Y18050275D01*
X2827137Y18060920D01*
X2825494Y18071991D01*
X2824370Y18083488D01*
X2823909Y18091389D01*
X2823679Y18099480D01*
X2823650Y18103596D01*
X2823781Y18111781D01*
X2824172Y18119826D01*
X2824825Y18127730D01*
X2825738Y18135494D01*
X2827598Y18146877D01*
X2830046Y18157943D01*
X2833080Y18168694D01*
X2836702Y18179128D01*
X2840911Y18189247D01*
X2845708Y18199049D01*
X2851091Y18208536D01*
X2857063Y18217706D01*
X2863554Y18226558D01*
X2870499Y18235015D01*
X2877897Y18243077D01*
X2885749Y18250743D01*
X2894054Y18258015D01*
X2902812Y18264892D01*
X2912024Y18271374D01*
X2921689Y18277460D01*
X2931808Y18283152D01*
X2938805Y18286727D01*
X2946004Y18290127D01*
X2949679Y18291761D01*
X2957182Y18294908D01*
X2964841Y18297852D01*
X2972655Y18300593D01*
X2980625Y18303130D01*
X2988751Y18305465D01*
X2997032Y18307597D01*
X3005469Y18309526D01*
X3014062Y18311251D01*
X3022810Y18312774D01*
X3031715Y18314094D01*
X3040774Y18315210D01*
X3049990Y18316124D01*
X3059361Y18316835D01*
X3068888Y18317342D01*
X3078571Y18317647D01*
X3088409Y18317748D01*
X3098239Y18317641D01*
X3107943Y18317321D01*
X3117522Y18316787D01*
X3126975Y18316039D01*
X3136304Y18315077D01*
X3145507Y18313901D01*
X3154585Y18312512D01*
X3163539Y18310909D01*
X3172366Y18309093D01*
X3181069Y18307063D01*
X3189647Y18304819D01*
X3198099Y18302361D01*
X3206426Y18299690D01*
X3214628Y18296804D01*
X3222705Y18293706D01*
X3230656Y18290393D01*
X3238465Y18286871D01*
X3246065Y18283145D01*
X3253456Y18279214D01*
X3260637Y18275079D01*
X3267610Y18270739D01*
X3274373Y18266195D01*
X3280927Y18261446D01*
X3287272Y18256492D01*
X3293408Y18251334D01*
X3299334Y18245971D01*
X3305052Y18240404D01*
X3310560Y18234632D01*
X3315860Y18228656D01*
X3320950Y18222475D01*
X3325831Y18216090D01*
X3330503Y18209500D01*
X3334951Y18202727D01*
X3339112Y18195743D01*
X3342987Y18188548D01*
X3346574Y18181143D01*
X3349874Y18173527D01*
X3352888Y18165701D01*
X3355614Y18157664D01*
X3358054Y18149416D01*
X3360206Y18140958D01*
X3362071Y18132289D01*
X3363650Y18123409D01*
X3364941Y18114318D01*
X3365946Y18105017D01*
X3366663Y18095506D01*
X3367094Y18085783D01*
X3367237Y18075850D01*
X3367237Y18028760D01*
X3274229Y18028760D01*
X3274229Y18075850D01*
X3274016Y18086284D01*
X3273378Y18096337D01*
X3272313Y18106008D01*
X3270822Y18115298D01*
X3268906Y18124207D01*
X3266563Y18132735D01*
X3263795Y18140882D01*
X3260601Y18148647D01*
X3256980Y18156031D01*
X3252934Y18163033D01*
X3250000Y18167490D01*
X3245336Y18173920D01*
X3240356Y18180020D01*
X3235060Y18185790D01*
X3229447Y18191230D01*
X3223519Y18196341D01*
X3217275Y18201122D01*
X3210715Y18205574D01*
X3203839Y18209695D01*
X3196646Y18213487D01*
X3189138Y18216949D01*
X3183957Y18219074D01*
X3175979Y18222007D01*
X3167798Y18224652D01*
X3159415Y18227008D01*
X3150829Y18229076D01*
X3142040Y18230855D01*
X3133049Y18232346D01*
X3123855Y18233548D01*
X3114458Y18234461D01*
X3104859Y18235087D01*
X3095057Y18235423D01*
X3088409Y18235487D01*
X3078832Y18235354D01*
X3069493Y18234956D01*
X3060392Y18234292D01*
X3051529Y18233362D01*
X3042904Y18232167D01*
X3034517Y18230706D01*
X3026369Y18228980D01*
X3018458Y18226988D01*
X3010786Y18224730D01*
X3003352Y18222207D01*
X2992647Y18217924D01*
X2982478Y18213043D01*
X2972845Y18207565D01*
X2963748Y18201489D01*
X2955367Y18194861D01*
X2947811Y18187729D01*
X2941079Y18180092D01*
X2935171Y18171951D01*
X2930088Y18163304D01*
X2925829Y18154152D01*
X2922395Y18144496D01*
X2919784Y18134334D01*
X2917998Y18123668D01*
X2917036Y18112497D01*
X2916853Y18104769D01*
X2917162Y18094565D01*
X2918087Y18084863D01*
X2919628Y18075661D01*
X2921787Y18066960D01*
X2924562Y18058759D01*
X2927954Y18051060D01*
X2931963Y18043860D01*
X2936588Y18037162D01*
X2941836Y18030916D01*
X2947616Y18024974D01*
X2953926Y18019338D01*
X2960768Y18014008D01*
X2968141Y18008983D01*
X2976045Y18004263D01*
X2984481Y17999848D01*
X2993448Y17995739D01*
X3002958Y17991834D01*
X3010391Y17988973D01*
X3018082Y17986171D01*
X3026030Y17983427D01*
X3034236Y17980742D01*
X3042700Y17978115D01*
X3051421Y17975546D01*
X3060400Y17973036D01*
X3069636Y17970585D01*
X3079130Y17968191D01*
X3082352Y17967406D01*
X3140775Y17953143D01*
X3149222Y17951151D01*
X3157564Y17949085D01*
X3165800Y17946944D01*
X3173931Y17944728D01*
X3181957Y17942438D01*
X3189877Y17940073D01*
X3197692Y17937632D01*
X3205402Y17935117D01*
X3213006Y17932528D01*
X3220505Y17929863D01*
X3227899Y17927124D01*
X3238792Y17922875D01*
X3249448Y17918457D01*
X3259867Y17913871D01*
X3263287Y17912305D01*
X3273348Y17907421D01*
X3283014Y17902221D01*
X3292284Y17896705D01*
X3301160Y17890873D01*
X3309641Y17884725D01*
X3317727Y17878261D01*
X3325418Y17871481D01*
X3332713Y17864385D01*
X3339614Y17856973D01*
X3346120Y17849245D01*
X3350238Y17843917D01*
X3356034Y17835592D01*
X3361261Y17826810D01*
X3365917Y17817572D01*
X3370003Y17807876D01*
X3373519Y17797724D01*
X3376465Y17787115D01*
X3378840Y17776049D01*
X3380646Y17764526D01*
X3381533Y17756590D01*
X3382166Y17748452D01*
X3382546Y17740110D01*
X3382673Y17731565D01*
X3382537Y17722964D01*
X3382130Y17714502D01*
X3381450Y17706179D01*
X3380499Y17697994D01*
X3379277Y17689949D01*
X3377782Y17682042D01*
X3376016Y17674274D01*
X3373978Y17666646D01*
X3371669Y17659156D01*
X3367695Y17648182D01*
X3363109Y17637520D01*
X3357913Y17627171D01*
X3352105Y17617134D01*
X3347893Y17610616D01*
X3341123Y17601182D01*
X3333854Y17592149D01*
X3326088Y17583519D01*
X3317824Y17575290D01*
X3312037Y17570027D01*
X3306030Y17564943D01*
X3299801Y17560038D01*
X3293351Y17555311D01*
X3286679Y17550762D01*
X3279786Y17546393D01*
X3272672Y17542202D01*
X3265336Y17538189D01*
X3257779Y17534355D01*
X3250000Y17530700D01*
X3242026Y17527269D01*
X3233880Y17524060D01*
X3225564Y17521072D01*
X3217077Y17518305D01*
X3208418Y17515759D01*
X3199589Y17513435D01*
X3190588Y17511332D01*
X3181417Y17509451D01*
X3172075Y17507791D01*
X3162562Y17506352D01*
X3152877Y17505135D01*
X3143022Y17504139D01*
X3132996Y17503364D01*
X3122799Y17502811D01*
X3112431Y17502479D01*
X3101892Y17502368D01*
G37*
G36*
X3800260Y18301845D02*
G01*
X3809726Y18301615D01*
X3819056Y18301231D01*
X3828248Y18300694D01*
X3837304Y18300004D01*
X3846222Y18299160D01*
X3855004Y18298163D01*
X3863648Y18297012D01*
X3872156Y18295708D01*
X3880526Y18294251D01*
X3888760Y18292640D01*
X3896856Y18290875D01*
X3904816Y18288958D01*
X3912638Y18286887D01*
X3920324Y18284662D01*
X3927872Y18282284D01*
X3935284Y18279753D01*
X3949695Y18274230D01*
X3963559Y18268093D01*
X3976875Y18261343D01*
X3989643Y18253979D01*
X4001863Y18246002D01*
X4013534Y18237410D01*
X4024658Y18228205D01*
X4030014Y18223373D01*
X4040283Y18213249D01*
X4049890Y18202466D01*
X4058834Y18191023D01*
X4067115Y18178921D01*
X4074734Y18166159D01*
X4081690Y18152738D01*
X4087984Y18138657D01*
X4090882Y18131370D01*
X4093615Y18123917D01*
X4096183Y18116300D01*
X4098584Y18108518D01*
X4100820Y18100571D01*
X4102890Y18092459D01*
X4104795Y18084182D01*
X4106534Y18075740D01*
X4108108Y18067134D01*
X4109515Y18058362D01*
X4110758Y18049426D01*
X4111834Y18040325D01*
X4112745Y18031059D01*
X4113491Y18021628D01*
X4114070Y18012033D01*
X4114484Y18002272D01*
X4114733Y17992347D01*
X4114816Y17982256D01*
X4114816Y17836883D01*
X4114733Y17826793D01*
X4114484Y17816868D01*
X4114070Y17807108D01*
X4113491Y17797514D01*
X4112745Y17788085D01*
X4111834Y17778821D01*
X4110758Y17769722D01*
X4109515Y17760789D01*
X4108108Y17752021D01*
X4106534Y17743418D01*
X4104795Y17734980D01*
X4102890Y17726708D01*
X4100820Y17718601D01*
X4098584Y17710659D01*
X4096183Y17702882D01*
X4093615Y17695271D01*
X4090882Y17687825D01*
X4087984Y17680544D01*
X4081690Y17666478D01*
X4074734Y17653073D01*
X4067115Y17640329D01*
X4058834Y17628245D01*
X4049890Y17616823D01*
X4040283Y17606062D01*
X4030014Y17595962D01*
X4019165Y17586521D01*
X4007767Y17577689D01*
X3995821Y17569467D01*
X3983327Y17561853D01*
X3970286Y17554849D01*
X3956696Y17548454D01*
X3942558Y17542667D01*
X3927872Y17537490D01*
X3920324Y17535130D01*
X3912638Y17532922D01*
X3904816Y17530866D01*
X3896856Y17528963D01*
X3888760Y17527212D01*
X3880526Y17525613D01*
X3872156Y17524166D01*
X3863648Y17522872D01*
X3855004Y17521730D01*
X3846222Y17520740D01*
X3837304Y17519903D01*
X3828248Y17519218D01*
X3819056Y17518685D01*
X3809726Y17518304D01*
X3800260Y17518076D01*
X3790656Y17518000D01*
X3485646Y17518000D01*
X3485646Y17601824D01*
X3595067Y17601824D01*
X3595067Y18216143D01*
X3688856Y18216143D01*
X3688856Y17603191D01*
X3791243Y17603191D01*
X3805216Y17603409D01*
X3818757Y17604062D01*
X3831863Y17605149D01*
X3844536Y17606672D01*
X3856776Y17608630D01*
X3868582Y17611022D01*
X3879955Y17613850D01*
X3890894Y17617113D01*
X3901399Y17620811D01*
X3911471Y17624944D01*
X3921110Y17629512D01*
X3930315Y17634516D01*
X3939086Y17639954D01*
X3947424Y17645827D01*
X3955328Y17652135D01*
X3962799Y17658879D01*
X3969850Y17666108D01*
X3976446Y17673826D01*
X3982587Y17682033D01*
X3988273Y17690728D01*
X3993505Y17699912D01*
X3998281Y17709584D01*
X4002603Y17719744D01*
X4006469Y17730393D01*
X4009881Y17741531D01*
X4012838Y17753157D01*
X4015340Y17765271D01*
X4017387Y17777874D01*
X4018979Y17790965D01*
X4020117Y17804545D01*
X4020799Y17818614D01*
X4021026Y17833170D01*
X4021026Y17985969D01*
X4020799Y18000688D01*
X4020117Y18014902D01*
X4018979Y18028611D01*
X4017387Y18041815D01*
X4015340Y18054513D01*
X4012838Y18066706D01*
X4009881Y18078394D01*
X4006469Y18089577D01*
X4002603Y18100254D01*
X3998281Y18110426D01*
X3993505Y18120092D01*
X3988273Y18129254D01*
X3982587Y18137910D01*
X3976446Y18146061D01*
X3969850Y18153706D01*
X3962799Y18160847D01*
X3955328Y18167543D01*
X3947424Y18173807D01*
X3939086Y18179639D01*
X3930315Y18185039D01*
X3921110Y18190007D01*
X3911471Y18194543D01*
X3901399Y18198647D01*
X3890894Y18202319D01*
X3879955Y18205559D01*
X3868582Y18208367D01*
X3856776Y18210743D01*
X3844536Y18212687D01*
X3831863Y18214199D01*
X3818757Y18215279D01*
X3805216Y18215927D01*
X3791243Y18216143D01*
X3688856Y18216143D01*
X3595067Y18216143D01*
X3595067Y18218293D01*
X3485646Y18218293D01*
X3485646Y18301921D01*
X3790656Y18301921D01*
X3800260Y18301845D01*
G37*
G36*
X4841291Y17518000D02*
G01*
X4743790Y17518000D01*
X4683804Y17715934D01*
X4349679Y17715934D01*
X4289693Y17518000D01*
X4192192Y17518000D01*
X4279738Y17801712D01*
X4374104Y17801712D01*
X4659379Y17801712D01*
X4524362Y18244866D01*
X4508926Y18244866D01*
X4374104Y17801712D01*
X4279738Y17801712D01*
X4434090Y18301921D01*
X4599393Y18301921D01*
X4841291Y17518000D01*
G37*
G36*
X-2061932Y17518000D02*
G01*
X-2298555Y18301921D01*
X-2201053Y18301921D01*
X-1986901Y17575055D01*
X-1972832Y17575055D01*
X-1758485Y18301921D01*
X-1660983Y18301921D01*
X-1897801Y17518000D01*
X-2061932Y17518000D01*
G37*
G36*
X-1278010Y17502368D02*
G01*
X-1286699Y17502447D01*
X-1295277Y17502685D01*
X-1303744Y17503081D01*
X-1312101Y17503635D01*
X-1320346Y17504348D01*
X-1328482Y17505219D01*
X-1336506Y17506248D01*
X-1344420Y17507436D01*
X-1352223Y17508782D01*
X-1359916Y17510287D01*
X-1374969Y17513771D01*
X-1389579Y17517889D01*
X-1403747Y17522640D01*
X-1417472Y17528025D01*
X-1430754Y17534043D01*
X-1443593Y17540695D01*
X-1455990Y17547980D01*
X-1467944Y17555899D01*
X-1479456Y17564451D01*
X-1490525Y17573637D01*
X-1501151Y17583457D01*
X-1511207Y17593906D01*
X-1520614Y17604932D01*
X-1529372Y17616535D01*
X-1537482Y17628715D01*
X-1544943Y17641472D01*
X-1551755Y17654806D01*
X-1557918Y17668717D01*
X-1563433Y17683205D01*
X-1565947Y17690666D01*
X-1568298Y17698271D01*
X-1570488Y17706020D01*
X-1572515Y17713913D01*
X-1574381Y17721950D01*
X-1576084Y17730132D01*
X-1577624Y17738458D01*
X-1579003Y17746928D01*
X-1580220Y17755543D01*
X-1581274Y17764302D01*
X-1582166Y17773205D01*
X-1582896Y17782252D01*
X-1583463Y17791443D01*
X-1583869Y17800779D01*
X-1584112Y17810259D01*
X-1584193Y17819884D01*
X-1584193Y18000037D01*
X-1584112Y18009673D01*
X-1583869Y18019164D01*
X-1583463Y18028511D01*
X-1582896Y18037712D01*
X-1582166Y18046768D01*
X-1581274Y18055679D01*
X-1580220Y18064445D01*
X-1579003Y18073066D01*
X-1577624Y18081542D01*
X-1576084Y18089873D01*
X-1574381Y18098059D01*
X-1572515Y18106100D01*
X-1570488Y18113996D01*
X-1568298Y18121746D01*
X-1565947Y18129352D01*
X-1563433Y18136813D01*
X-1557918Y18151300D01*
X-1551755Y18165206D01*
X-1544943Y18178533D01*
X-1537482Y18191279D01*
X-1529372Y18203446D01*
X-1520614Y18215032D01*
X-1511207Y18226038D01*
X-1501151Y18236464D01*
X-1490525Y18246307D01*
X-1479456Y18255515D01*
X-1467944Y18264088D01*
X-1455990Y18272026D01*
X-1443593Y18279329D01*
X-1430754Y18285997D01*
X-1417472Y18292030D01*
X-1403747Y18297427D01*
X-1389579Y18302190D01*
X-1374969Y18306318D01*
X-1359916Y18309810D01*
X-1352223Y18311319D01*
X-1344420Y18312668D01*
X-1336506Y18313859D01*
X-1328482Y18314891D01*
X-1320346Y18315764D01*
X-1312101Y18316478D01*
X-1303744Y18317034D01*
X-1295277Y18317431D01*
X-1286699Y18317669D01*
X-1278010Y18317748D01*
X-1269391Y18317673D01*
X-1260898Y18317446D01*
X-1252532Y18317068D01*
X-1244293Y18316539D01*
X-1236180Y18315859D01*
X-1228194Y18315028D01*
X-1220335Y18314046D01*
X-1204996Y18311628D01*
X-1190165Y18308605D01*
X-1175840Y18304978D01*
X-1162022Y18300747D01*
X-1148711Y18295911D01*
X-1135906Y18290470D01*
X-1123608Y18284425D01*
X-1111818Y18277776D01*
X-1100534Y18270522D01*
X-1089756Y18262663D01*
X-1079486Y18254200D01*
X-1069722Y18245133D01*
X-1065031Y18240372D01*
X-1056039Y18230480D01*
X-1047628Y18220146D01*
X-1039797Y18209371D01*
X-1032546Y18198155D01*
X-1025875Y18186498D01*
X-1019785Y18174399D01*
X-1014274Y18161860D01*
X-1009343Y18148879D01*
X-1004993Y18135457D01*
X-1001222Y18121594D01*
X-998032Y18107290D01*
X-995421Y18092544D01*
X-993391Y18077358D01*
X-991941Y18061730D01*
X-991433Y18053751D01*
X-991071Y18045661D01*
X-990853Y18037461D01*
X-990781Y18029151D01*
X-990781Y18023289D01*
X-1083788Y18023289D01*
X-1083788Y18032082D01*
X-1083974Y18043020D01*
X-1084530Y18053706D01*
X-1085458Y18064141D01*
X-1086756Y18074324D01*
X-1088425Y18084254D01*
X-1090465Y18093933D01*
X-1092877Y18103360D01*
X-1095659Y18112535D01*
X-1098812Y18121459D01*
X-1102336Y18130130D01*
X-1106231Y18138550D01*
X-1110496Y18146717D01*
X-1115133Y18154633D01*
X-1120141Y18162297D01*
X-1125520Y18169709D01*
X-1131269Y18176869D01*
X-1137384Y18183683D01*
X-1143906Y18190058D01*
X-1150835Y18195993D01*
X-1158173Y18201489D01*
X-1165917Y18206545D01*
X-1174070Y18211161D01*
X-1182630Y18215337D01*
X-1191597Y18219074D01*
X-1200972Y18222371D01*
X-1210755Y18225229D01*
X-1220945Y18227647D01*
X-1231543Y18229625D01*
X-1242549Y18231164D01*
X-1253962Y18232263D01*
X-1265782Y18232923D01*
X-1278010Y18233143D01*
X-1290322Y18232904D01*
X-1302294Y18232190D01*
X-1313928Y18230999D01*
X-1325223Y18229332D01*
X-1336178Y18227189D01*
X-1346795Y18224570D01*
X-1357073Y18221474D01*
X-1367013Y18217902D01*
X-1376613Y18213853D01*
X-1385874Y18209329D01*
X-1394797Y18204328D01*
X-1403380Y18198851D01*
X-1411625Y18192897D01*
X-1419531Y18186468D01*
X-1427098Y18179562D01*
X-1434326Y18172180D01*
X-1441140Y18164395D01*
X-1447515Y18156234D01*
X-1453450Y18147695D01*
X-1458946Y18138779D01*
X-1464001Y18129487D01*
X-1468618Y18119817D01*
X-1472794Y18109770D01*
X-1476531Y18099346D01*
X-1479828Y18088545D01*
X-1482686Y18077368D01*
X-1485104Y18065813D01*
X-1487082Y18053881D01*
X-1488621Y18041571D01*
X-1489720Y18028885D01*
X-1490380Y18015822D01*
X-1490599Y18002382D01*
X-1490599Y17817734D01*
X-1490380Y17804316D01*
X-1489720Y17791271D01*
X-1488621Y17778597D01*
X-1487082Y17766297D01*
X-1485104Y17754369D01*
X-1482686Y17742813D01*
X-1479828Y17731630D01*
X-1476531Y17720819D01*
X-1472794Y17710380D01*
X-1468618Y17700315D01*
X-1464001Y17690621D01*
X-1458946Y17681300D01*
X-1453450Y17672352D01*
X-1447515Y17663776D01*
X-1441140Y17655572D01*
X-1434326Y17647741D01*
X-1427098Y17640359D01*
X-1419531Y17633453D01*
X-1411625Y17627023D01*
X-1403380Y17621070D01*
X-1394797Y17615593D01*
X-1385874Y17610592D01*
X-1376613Y17606067D01*
X-1367013Y17602019D01*
X-1357073Y17598447D01*
X-1346795Y17595351D01*
X-1336178Y17592732D01*
X-1325223Y17590588D01*
X-1313928Y17588922D01*
X-1302294Y17587731D01*
X-1290322Y17587016D01*
X-1278010Y17586778D01*
X-1265782Y17586999D01*
X-1253962Y17587661D01*
X-1242549Y17588764D01*
X-1231543Y17590308D01*
X-1220945Y17592293D01*
X-1210755Y17594719D01*
X-1200972Y17597587D01*
X-1191597Y17600896D01*
X-1182630Y17604645D01*
X-1174070Y17608836D01*
X-1165917Y17613469D01*
X-1158173Y17618542D01*
X-1150835Y17624057D01*
X-1143906Y17630012D01*
X-1137384Y17636409D01*
X-1131269Y17643247D01*
X-1125520Y17650430D01*
X-1120141Y17657862D01*
X-1115133Y17665543D01*
X-1110496Y17673472D01*
X-1106231Y17681651D01*
X-1102336Y17690078D01*
X-1098812Y17698754D01*
X-1095659Y17707678D01*
X-1092877Y17716852D01*
X-1090465Y17726275D01*
X-1088425Y17735946D01*
X-1086756Y17745866D01*
X-1085458Y17756035D01*
X-1084530Y17766452D01*
X-1083974Y17777119D01*
X-1083788Y17788034D01*
X-1083788Y17805815D01*
X-990781Y17805815D01*
X-990781Y17790770D01*
X-990853Y17782472D01*
X-991071Y17774284D01*
X-991433Y17766205D01*
X-991941Y17758237D01*
X-992594Y17750378D01*
X-994334Y17734991D01*
X-996654Y17720043D01*
X-999554Y17705535D01*
X-1003035Y17691467D01*
X-1007095Y17677838D01*
X-1011736Y17664649D01*
X-1016957Y17651900D01*
X-1022758Y17639590D01*
X-1029138Y17627719D01*
X-1036099Y17616289D01*
X-1043640Y17605298D01*
X-1051761Y17594747D01*
X-1060463Y17584635D01*
X-1065031Y17579744D01*
X-1074541Y17570374D01*
X-1084558Y17561609D01*
X-1095082Y17553448D01*
X-1106112Y17545892D01*
X-1117650Y17538940D01*
X-1129694Y17532593D01*
X-1142245Y17526850D01*
X-1155303Y17521712D01*
X-1168867Y17517178D01*
X-1182939Y17513249D01*
X-1197517Y17509924D01*
X-1212602Y17507204D01*
X-1228194Y17505088D01*
X-1236180Y17504257D01*
X-1244293Y17503577D01*
X-1252532Y17503048D01*
X-1260898Y17502670D01*
X-1269391Y17502444D01*
X-1278010Y17502368D01*
G37*
G36*
X-558959Y17502368D02*
G01*
X-567648Y17502447D01*
X-576226Y17502685D01*
X-584693Y17503081D01*
X-593050Y17503635D01*
X-601296Y17504348D01*
X-609431Y17505219D01*
X-617455Y17506248D01*
X-625369Y17507436D01*
X-633172Y17508782D01*
X-640865Y17510287D01*
X-655918Y17513771D01*
X-670528Y17517889D01*
X-684696Y17522640D01*
X-698421Y17528025D01*
X-711703Y17534043D01*
X-724542Y17540695D01*
X-736939Y17547980D01*
X-748893Y17555899D01*
X-760405Y17564451D01*
X-771474Y17573637D01*
X-782100Y17583457D01*
X-792156Y17593906D01*
X-801563Y17604932D01*
X-810321Y17616535D01*
X-818431Y17628715D01*
X-825892Y17641472D01*
X-832704Y17654806D01*
X-838867Y17668717D01*
X-844382Y17683205D01*
X-846896Y17690666D01*
X-849247Y17698271D01*
X-851437Y17706020D01*
X-853464Y17713913D01*
X-855330Y17721950D01*
X-857033Y17730132D01*
X-858574Y17738458D01*
X-859952Y17746928D01*
X-861169Y17755543D01*
X-862223Y17764302D01*
X-863115Y17773205D01*
X-863845Y17782252D01*
X-864412Y17791443D01*
X-864818Y17800779D01*
X-865061Y17810259D01*
X-865142Y17819884D01*
X-865142Y18000037D01*
X-865061Y18009673D01*
X-864818Y18019164D01*
X-864412Y18028511D01*
X-863845Y18037712D01*
X-863115Y18046768D01*
X-862223Y18055679D01*
X-861169Y18064445D01*
X-859952Y18073066D01*
X-858574Y18081542D01*
X-857033Y18089873D01*
X-855330Y18098059D01*
X-853464Y18106100D01*
X-851437Y18113996D01*
X-849247Y18121746D01*
X-846896Y18129352D01*
X-844382Y18136813D01*
X-838867Y18151300D01*
X-832704Y18165206D01*
X-825892Y18178533D01*
X-818431Y18191279D01*
X-810321Y18203446D01*
X-801563Y18215032D01*
X-792156Y18226038D01*
X-782100Y18236464D01*
X-771474Y18246307D01*
X-760405Y18255515D01*
X-748893Y18264088D01*
X-736939Y18272026D01*
X-724542Y18279329D01*
X-711703Y18285997D01*
X-698421Y18292030D01*
X-684696Y18297427D01*
X-670528Y18302190D01*
X-655918Y18306318D01*
X-640865Y18309810D01*
X-633172Y18311319D01*
X-625369Y18312668D01*
X-617455Y18313859D01*
X-609431Y18314891D01*
X-601296Y18315764D01*
X-593050Y18316478D01*
X-584693Y18317034D01*
X-576226Y18317431D01*
X-567648Y18317669D01*
X-558959Y18317748D01*
X-550340Y18317673D01*
X-541847Y18317446D01*
X-533481Y18317068D01*
X-525242Y18316539D01*
X-517129Y18315859D01*
X-509143Y18315028D01*
X-501284Y18314046D01*
X-485945Y18311628D01*
X-471114Y18308605D01*
X-456789Y18304978D01*
X-442971Y18300747D01*
X-429660Y18295911D01*
X-416855Y18290470D01*
X-404558Y18284425D01*
X-392767Y18277776D01*
X-381483Y18270522D01*
X-370705Y18262663D01*
X-360435Y18254200D01*
X-350671Y18245133D01*
X-345980Y18240372D01*
X-336989Y18230480D01*
X-328577Y18220146D01*
X-320746Y18209371D01*
X-313495Y18198155D01*
X-306825Y18186498D01*
X-300734Y18174399D01*
X-295223Y18161860D01*
X-290292Y18148879D01*
X-285942Y18135457D01*
X-282171Y18121594D01*
X-278981Y18107290D01*
X-276370Y18092544D01*
X-274340Y18077358D01*
X-272890Y18061730D01*
X-272382Y18053751D01*
X-272020Y18045661D01*
X-271802Y18037461D01*
X-271730Y18029151D01*
X-271730Y18023289D01*
X-364738Y18023289D01*
X-364738Y18032082D01*
X-364923Y18043020D01*
X-365479Y18053706D01*
X-366407Y18064141D01*
X-367705Y18074324D01*
X-369374Y18084254D01*
X-371415Y18093933D01*
X-373826Y18103360D01*
X-376608Y18112535D01*
X-379761Y18121459D01*
X-383285Y18130130D01*
X-387180Y18138550D01*
X-391446Y18146717D01*
X-396082Y18154633D01*
X-401090Y18162297D01*
X-406469Y18169709D01*
X-412218Y18176869D01*
X-418333Y18183683D01*
X-424855Y18190058D01*
X-431785Y18195993D01*
X-439122Y18201489D01*
X-446867Y18206545D01*
X-455019Y18211161D01*
X-463579Y18215337D01*
X-472546Y18219074D01*
X-481921Y18222371D01*
X-491704Y18225229D01*
X-501894Y18227647D01*
X-512492Y18229625D01*
X-523498Y18231164D01*
X-534911Y18232263D01*
X-546731Y18232923D01*
X-558959Y18233143D01*
X-571271Y18232904D01*
X-583243Y18232190D01*
X-594877Y18230999D01*
X-606172Y18229332D01*
X-617127Y18227189D01*
X-627744Y18224570D01*
X-638022Y18221474D01*
X-647962Y18217902D01*
X-657562Y18213853D01*
X-666823Y18209329D01*
X-675746Y18204328D01*
X-684329Y18198851D01*
X-692574Y18192897D01*
X-700480Y18186468D01*
X-708047Y18179562D01*
X-715275Y18172180D01*
X-722089Y18164395D01*
X-728464Y18156234D01*
X-734399Y18147695D01*
X-739895Y18138779D01*
X-744950Y18129487D01*
X-749567Y18119817D01*
X-753743Y18109770D01*
X-757480Y18099346D01*
X-760777Y18088545D01*
X-763635Y18077368D01*
X-766053Y18065813D01*
X-768031Y18053881D01*
X-769570Y18041571D01*
X-770669Y18028885D01*
X-771329Y18015822D01*
X-771548Y18002382D01*
X-771548Y17817734D01*
X-771329Y17804316D01*
X-770669Y17791271D01*
X-769570Y17778597D01*
X-768031Y17766297D01*
X-766053Y17754369D01*
X-763635Y17742813D01*
X-760777Y17731630D01*
X-757480Y17720819D01*
X-753743Y17710380D01*
X-749567Y17700315D01*
X-744950Y17690621D01*
X-739895Y17681300D01*
X-734399Y17672352D01*
X-728464Y17663776D01*
X-722089Y17655572D01*
X-715275Y17647741D01*
X-708047Y17640359D01*
X-700480Y17633453D01*
X-692574Y17627023D01*
X-684329Y17621070D01*
X-675746Y17615593D01*
X-666823Y17610592D01*
X-657562Y17606067D01*
X-647962Y17602019D01*
X-638022Y17598447D01*
X-627744Y17595351D01*
X-617127Y17592732D01*
X-606172Y17590588D01*
X-594877Y17588922D01*
X-583243Y17587731D01*
X-571271Y17587016D01*
X-558959Y17586778D01*
X-546731Y17586999D01*
X-534911Y17587661D01*
X-523498Y17588764D01*
X-512492Y17590308D01*
X-501894Y17592293D01*
X-491704Y17594719D01*
X-481921Y17597587D01*
X-472546Y17600896D01*
X-463579Y17604645D01*
X-455019Y17608836D01*
X-446867Y17613469D01*
X-439122Y17618542D01*
X-431785Y17624057D01*
X-424855Y17630012D01*
X-418333Y17636409D01*
X-412218Y17643247D01*
X-406469Y17650430D01*
X-401090Y17657862D01*
X-396082Y17665543D01*
X-391446Y17673472D01*
X-387180Y17681651D01*
X-383285Y17690078D01*
X-379761Y17698754D01*
X-376608Y17707678D01*
X-373826Y17716852D01*
X-371415Y17726275D01*
X-369374Y17735946D01*
X-367705Y17745866D01*
X-366407Y17756035D01*
X-365479Y17766452D01*
X-364923Y17777119D01*
X-364738Y17788034D01*
X-364738Y17805815D01*
X-271730Y17805815D01*
X-271730Y17790770D01*
X-271802Y17782472D01*
X-272020Y17774284D01*
X-272382Y17766205D01*
X-272890Y17758237D01*
X-273543Y17750378D01*
X-275283Y17734991D01*
X-277603Y17720043D01*
X-280504Y17705535D01*
X-283984Y17691467D01*
X-288045Y17677838D01*
X-292685Y17664649D01*
X-297906Y17651900D01*
X-303707Y17639590D01*
X-310087Y17627719D01*
X-317048Y17616289D01*
X-324589Y17605298D01*
X-332710Y17594747D01*
X-341412Y17584635D01*
X-345980Y17579744D01*
X-355490Y17570374D01*
X-365507Y17561609D01*
X-376031Y17553448D01*
X-387061Y17545892D01*
X-398599Y17538940D01*
X-410643Y17532593D01*
X-423194Y17526850D01*
X-436252Y17521712D01*
X-449817Y17517178D01*
X-463888Y17513249D01*
X-478466Y17509924D01*
X-493551Y17507204D01*
X-509143Y17505088D01*
X-517129Y17504257D01*
X-525242Y17503577D01*
X-533481Y17503048D01*
X-541847Y17502670D01*
X-550340Y17502444D01*
X-558959Y17502368D01*
G37*
G36*
X-4559727Y17502368D02*
G01*
X-4570517Y17502510D01*
X-4581150Y17502936D01*
X-4591626Y17503646D01*
X-4601944Y17504639D01*
X-4612106Y17505917D01*
X-4622110Y17507479D01*
X-4631957Y17509324D01*
X-4641646Y17511454D01*
X-4651179Y17513867D01*
X-4660554Y17516565D01*
X-4669771Y17519546D01*
X-4678832Y17522811D01*
X-4687736Y17526360D01*
X-4696482Y17530193D01*
X-4705071Y17534310D01*
X-4713502Y17538711D01*
X-4721717Y17543389D01*
X-4729705Y17548334D01*
X-4737465Y17553549D01*
X-4744998Y17559032D01*
X-4752303Y17564784D01*
X-4759380Y17570805D01*
X-4766231Y17577094D01*
X-4772853Y17583652D01*
X-4779249Y17590479D01*
X-4785417Y17597574D01*
X-4791357Y17604938D01*
X-4797070Y17612570D01*
X-4802556Y17620472D01*
X-4807814Y17628642D01*
X-4812844Y17637080D01*
X-4817648Y17645787D01*
X-4822167Y17654779D01*
X-4826395Y17664023D01*
X-4830331Y17673519D01*
X-4833975Y17683266D01*
X-4837328Y17693266D01*
X-4840390Y17703517D01*
X-4843159Y17714020D01*
X-4845638Y17724775D01*
X-4847825Y17735782D01*
X-4849720Y17747041D01*
X-4851323Y17758552D01*
X-4852635Y17770315D01*
X-4853656Y17782329D01*
X-4854385Y17794595D01*
X-4854822Y17807114D01*
X-4854968Y17819884D01*
X-4854968Y18000037D01*
X-4854887Y18009673D01*
X-4854643Y18019164D01*
X-4854238Y18028511D01*
X-4853670Y18037712D01*
X-4852940Y18046768D01*
X-4852048Y18055679D01*
X-4850994Y18064445D01*
X-4849778Y18073066D01*
X-4848399Y18081542D01*
X-4846858Y18089873D01*
X-4845155Y18098059D01*
X-4843290Y18106100D01*
X-4841263Y18113996D01*
X-4839073Y18121746D01*
X-4836721Y18129352D01*
X-4834207Y18136813D01*
X-4828693Y18151300D01*
X-4822529Y18165206D01*
X-4815717Y18178533D01*
X-4808256Y18191279D01*
X-4800147Y18203446D01*
X-4791388Y18215032D01*
X-4781981Y18226038D01*
X-4771925Y18236464D01*
X-4761299Y18246307D01*
X-4750230Y18255515D01*
X-4738719Y18264088D01*
X-4726765Y18272026D01*
X-4714368Y18279329D01*
X-4701528Y18285997D01*
X-4688246Y18292030D01*
X-4674521Y18297427D01*
X-4660354Y18302190D01*
X-4645743Y18306318D01*
X-4630690Y18309810D01*
X-4622998Y18311319D01*
X-4615195Y18312668D01*
X-4607281Y18313859D01*
X-4599256Y18314891D01*
X-4591121Y18315764D01*
X-4582875Y18316478D01*
X-4574519Y18317034D01*
X-4566051Y18317431D01*
X-4557474Y18317669D01*
X-4548785Y18317748D01*
X-4540167Y18317674D01*
X-4531679Y18317450D01*
X-4523320Y18317077D01*
X-4515092Y18316555D01*
X-4506993Y18315883D01*
X-4499024Y18315062D01*
X-4491184Y18314092D01*
X-4475895Y18311705D01*
X-4461124Y18308721D01*
X-4446872Y18305139D01*
X-4433140Y18300961D01*
X-4419926Y18296186D01*
X-4407232Y18290815D01*
X-4395056Y18284846D01*
X-4383400Y18278280D01*
X-4372262Y18271118D01*
X-4361644Y18263359D01*
X-4351544Y18255002D01*
X-4341964Y18246049D01*
X-4337368Y18241349D01*
X-4328567Y18231598D01*
X-4320332Y18221446D01*
X-4312666Y18210893D01*
X-4305568Y18199938D01*
X-4299038Y18188581D01*
X-4293075Y18176823D01*
X-4287680Y18164664D01*
X-4282853Y18152103D01*
X-4278594Y18139140D01*
X-4274903Y18125776D01*
X-4271780Y18112011D01*
X-4269225Y18097844D01*
X-4267237Y18083276D01*
X-4265817Y18068306D01*
X-4264966Y18052935D01*
X-4264753Y18045099D01*
X-4264682Y18037162D01*
X-4264682Y18031886D01*
X-4357689Y18031886D01*
X-4357689Y18040093D01*
X-4357868Y18050428D01*
X-4358404Y18060550D01*
X-4359297Y18070459D01*
X-4360547Y18080155D01*
X-4362154Y18089638D01*
X-4364119Y18098908D01*
X-4366441Y18107965D01*
X-4369120Y18116810D01*
X-4372156Y18125441D01*
X-4375550Y18133859D01*
X-4378010Y18139353D01*
X-4381978Y18147360D01*
X-4386334Y18155041D01*
X-4391078Y18162395D01*
X-4396210Y18169423D01*
X-4401730Y18176124D01*
X-4407638Y18182500D01*
X-4413934Y18188549D01*
X-4420619Y18194271D01*
X-4427691Y18199668D01*
X-4435152Y18204738D01*
X-4440341Y18207937D01*
X-4448466Y18212441D01*
X-4457013Y18216503D01*
X-4465983Y18220121D01*
X-4475375Y18223297D01*
X-4485189Y18226029D01*
X-4495426Y18228318D01*
X-4506086Y18230164D01*
X-4517168Y18231567D01*
X-4528672Y18232527D01*
X-4536577Y18232921D01*
X-4544669Y18233118D01*
X-4548785Y18233143D01*
X-4561096Y18232904D01*
X-4573069Y18232190D01*
X-4584702Y18230999D01*
X-4595997Y18229332D01*
X-4606953Y18227189D01*
X-4617570Y18224570D01*
X-4627848Y18221474D01*
X-4637787Y18217902D01*
X-4647387Y18213853D01*
X-4656649Y18209329D01*
X-4665571Y18204328D01*
X-4674155Y18198851D01*
X-4682400Y18192897D01*
X-4690305Y18186468D01*
X-4697872Y18179562D01*
X-4705100Y18172180D01*
X-4711915Y18164395D01*
X-4718290Y18156234D01*
X-4724225Y18147695D01*
X-4729720Y18138779D01*
X-4734776Y18129487D01*
X-4739392Y18119817D01*
X-4743569Y18109770D01*
X-4747306Y18099346D01*
X-4750603Y18088545D01*
X-4753461Y18077368D01*
X-4755879Y18065813D01*
X-4757857Y18053881D01*
X-4759396Y18041571D01*
X-4760495Y18028885D01*
X-4761154Y18015822D01*
X-4761374Y18002382D01*
X-4761374Y17817734D01*
X-4761154Y17804315D01*
X-4760495Y17791268D01*
X-4759396Y17778591D01*
X-4757857Y17766285D01*
X-4755879Y17754349D01*
X-4753461Y17742785D01*
X-4750603Y17731592D01*
X-4747306Y17720770D01*
X-4743569Y17710319D01*
X-4739392Y17700238D01*
X-4734776Y17690529D01*
X-4729720Y17681190D01*
X-4724225Y17672223D01*
X-4718290Y17663626D01*
X-4711915Y17655401D01*
X-4705100Y17647546D01*
X-4697870Y17640116D01*
X-4690296Y17633166D01*
X-4682379Y17626695D01*
X-4674118Y17620704D01*
X-4665514Y17615191D01*
X-4656566Y17610158D01*
X-4647275Y17605605D01*
X-4637641Y17601531D01*
X-4627662Y17597936D01*
X-4617341Y17594820D01*
X-4606676Y17592184D01*
X-4595667Y17590027D01*
X-4584316Y17588349D01*
X-4572620Y17587151D01*
X-4560581Y17586432D01*
X-4548199Y17586192D01*
X-4536021Y17586411D01*
X-4524254Y17587068D01*
X-4512897Y17588164D01*
X-4501951Y17589697D01*
X-4491416Y17591668D01*
X-4481292Y17594078D01*
X-4471578Y17596926D01*
X-4462274Y17600212D01*
X-4453381Y17603936D01*
X-4444899Y17608098D01*
X-4436828Y17612698D01*
X-4429167Y17617736D01*
X-4421917Y17623212D01*
X-4415077Y17629127D01*
X-4408648Y17635480D01*
X-4402630Y17642270D01*
X-4396999Y17649424D01*
X-4391731Y17656864D01*
X-4386826Y17664591D01*
X-4382285Y17672605D01*
X-4378107Y17680906D01*
X-4374292Y17689495D01*
X-4370840Y17698370D01*
X-4367752Y17707532D01*
X-4365027Y17716981D01*
X-4362666Y17726717D01*
X-4360668Y17736740D01*
X-4359033Y17747050D01*
X-4357761Y17757648D01*
X-4356853Y17768532D01*
X-4356308Y17779703D01*
X-4356126Y17791161D01*
X-4356126Y17810309D01*
X-4593726Y17810309D01*
X-4593726Y17891203D01*
X-4264682Y17891203D01*
X-4264682Y17518000D01*
X-4350460Y17518000D01*
X-4350460Y17602605D01*
X-4365701Y17602605D01*
X-4369683Y17594945D01*
X-4374180Y17587351D01*
X-4379193Y17579825D01*
X-4384721Y17572365D01*
X-4390764Y17564972D01*
X-4395970Y17559105D01*
X-4400090Y17554734D01*
X-4405955Y17549058D01*
X-4412314Y17543657D01*
X-4419168Y17538531D01*
X-4426517Y17533680D01*
X-4434360Y17529103D01*
X-4442698Y17524802D01*
X-4451531Y17520775D01*
X-4460858Y17517023D01*
X-4468234Y17514404D01*
X-4476002Y17512042D01*
X-4484162Y17509939D01*
X-4492713Y17508092D01*
X-4501656Y17506504D01*
X-4510990Y17505173D01*
X-4520716Y17504100D01*
X-4530833Y17503284D01*
X-4541342Y17502726D01*
X-4552243Y17502425D01*
X-4559727Y17502368D01*
G37*
G36*
X-4093712Y17518000D02*
G01*
X-4093712Y18301921D01*
X-3911214Y18301921D01*
X-3638638Y17577399D01*
X-3623202Y17577399D01*
X-3623202Y18301921D01*
X-3530195Y18301921D01*
X-3530195Y17518000D01*
X-3712693Y17518000D01*
X-3985268Y18243303D01*
X-4000704Y18243303D01*
X-4000704Y17518000D01*
X-4093712Y17518000D01*
G37*
G36*
X-3072552Y18301845D02*
G01*
X-3063086Y18301615D01*
X-3053756Y18301231D01*
X-3044564Y18300694D01*
X-3035508Y18300004D01*
X-3026590Y18299160D01*
X-3017808Y18298163D01*
X-3009164Y18297012D01*
X-3000656Y18295708D01*
X-2992286Y18294251D01*
X-2984052Y18292640D01*
X-2975956Y18290875D01*
X-2967996Y18288958D01*
X-2960174Y18286887D01*
X-2952488Y18284662D01*
X-2944940Y18282284D01*
X-2937529Y18279753D01*
X-2923117Y18274230D01*
X-2909253Y18268093D01*
X-2895937Y18261343D01*
X-2883169Y18253979D01*
X-2870949Y18246002D01*
X-2859278Y18237410D01*
X-2848154Y18228205D01*
X-2842798Y18223373D01*
X-2832529Y18213249D01*
X-2822922Y18202466D01*
X-2813978Y18191023D01*
X-2805697Y18178921D01*
X-2798078Y18166159D01*
X-2791122Y18152738D01*
X-2784828Y18138657D01*
X-2781930Y18131370D01*
X-2779197Y18123917D01*
X-2776630Y18116300D01*
X-2774228Y18108518D01*
X-2771992Y18100571D01*
X-2769922Y18092459D01*
X-2768017Y18084182D01*
X-2766278Y18075740D01*
X-2764704Y18067134D01*
X-2763297Y18058362D01*
X-2762054Y18049426D01*
X-2760978Y18040325D01*
X-2760067Y18031059D01*
X-2759321Y18021628D01*
X-2758742Y18012033D01*
X-2758328Y18002272D01*
X-2758079Y17992347D01*
X-2757996Y17982256D01*
X-2757996Y17836883D01*
X-2758079Y17826793D01*
X-2758328Y17816868D01*
X-2758742Y17807108D01*
X-2759321Y17797514D01*
X-2760067Y17788085D01*
X-2760978Y17778821D01*
X-2762054Y17769722D01*
X-2763297Y17760789D01*
X-2764704Y17752021D01*
X-2766278Y17743418D01*
X-2768017Y17734980D01*
X-2769922Y17726708D01*
X-2771992Y17718601D01*
X-2774228Y17710659D01*
X-2776630Y17702882D01*
X-2779197Y17695271D01*
X-2781930Y17687825D01*
X-2784828Y17680544D01*
X-2791122Y17666478D01*
X-2798078Y17653073D01*
X-2805697Y17640329D01*
X-2813978Y17628245D01*
X-2822922Y17616823D01*
X-2832529Y17606062D01*
X-2842798Y17595962D01*
X-2853647Y17586521D01*
X-2865045Y17577689D01*
X-2876991Y17569467D01*
X-2889485Y17561853D01*
X-2902526Y17554849D01*
X-2916116Y17548454D01*
X-2930254Y17542667D01*
X-2944940Y17537490D01*
X-2952488Y17535130D01*
X-2960174Y17532922D01*
X-2967996Y17530866D01*
X-2975956Y17528963D01*
X-2984052Y17527212D01*
X-2992286Y17525613D01*
X-3000656Y17524166D01*
X-3009164Y17522872D01*
X-3017808Y17521730D01*
X-3026590Y17520740D01*
X-3035508Y17519903D01*
X-3044564Y17519218D01*
X-3053756Y17518685D01*
X-3063086Y17518304D01*
X-3072552Y17518076D01*
X-3082156Y17518000D01*
X-3387166Y17518000D01*
X-3387166Y17601824D01*
X-3277745Y17601824D01*
X-3277745Y18216143D01*
X-3183956Y18216143D01*
X-3183956Y17603191D01*
X-3081569Y17603191D01*
X-3067596Y17603409D01*
X-3054055Y17604062D01*
X-3040949Y17605149D01*
X-3028276Y17606672D01*
X-3016036Y17608630D01*
X-3004230Y17611022D01*
X-2992857Y17613850D01*
X-2981918Y17617113D01*
X-2971413Y17620811D01*
X-2961341Y17624944D01*
X-2951702Y17629512D01*
X-2942498Y17634516D01*
X-2933726Y17639954D01*
X-2925388Y17645827D01*
X-2917484Y17652135D01*
X-2910013Y17658879D01*
X-2902962Y17666108D01*
X-2896366Y17673826D01*
X-2890225Y17682033D01*
X-2884539Y17690728D01*
X-2879307Y17699912D01*
X-2874531Y17709584D01*
X-2870209Y17719744D01*
X-2866343Y17730393D01*
X-2862931Y17741531D01*
X-2859974Y17753157D01*
X-2857472Y17765271D01*
X-2855425Y17777874D01*
X-2853833Y17790965D01*
X-2852696Y17804545D01*
X-2852013Y17818614D01*
X-2851786Y17833170D01*
X-2851786Y17985969D01*
X-2852013Y18000688D01*
X-2852696Y18014902D01*
X-2853833Y18028611D01*
X-2855425Y18041815D01*
X-2857472Y18054513D01*
X-2859974Y18066706D01*
X-2862931Y18078394D01*
X-2866343Y18089577D01*
X-2870209Y18100254D01*
X-2874531Y18110426D01*
X-2879307Y18120092D01*
X-2884539Y18129254D01*
X-2890225Y18137910D01*
X-2896366Y18146061D01*
X-2902962Y18153706D01*
X-2910013Y18160847D01*
X-2917484Y18167543D01*
X-2925388Y18173807D01*
X-2933726Y18179639D01*
X-2942498Y18185039D01*
X-2951702Y18190007D01*
X-2961341Y18194543D01*
X-2971413Y18198647D01*
X-2981918Y18202319D01*
X-2992857Y18205559D01*
X-3004230Y18208367D01*
X-3016036Y18210743D01*
X-3028276Y18212687D01*
X-3040949Y18214199D01*
X-3054055Y18215279D01*
X-3067596Y18215927D01*
X-3081569Y18216143D01*
X-3183956Y18216143D01*
X-3277745Y18216143D01*
X-3277745Y18218293D01*
X-3387166Y18218293D01*
X-3387166Y18301921D01*
X-3082156Y18301921D01*
X-3072552Y18301845D01*
G37*
D11*
G36*
X-2460440Y2956825D02*
G01*
X-2478019Y2957023D01*
X-2495340Y2957617D01*
X-2512404Y2958607D01*
X-2529210Y2959993D01*
X-2545758Y2961774D01*
X-2562049Y2963952D01*
X-2578082Y2966526D01*
X-2593858Y2969495D01*
X-2609376Y2972861D01*
X-2624636Y2976622D01*
X-2639639Y2980780D01*
X-2654384Y2985333D01*
X-2668872Y2990282D01*
X-2683102Y2995627D01*
X-2697074Y3001369D01*
X-2710789Y3007506D01*
X-2724153Y3014011D01*
X-2737150Y3020858D01*
X-2749779Y3028046D01*
X-2762042Y3035574D01*
X-2773937Y3043444D01*
X-2785464Y3051655D01*
X-2796624Y3060207D01*
X-2807417Y3069101D01*
X-2817843Y3078335D01*
X-2827901Y3087910D01*
X-2837592Y3097827D01*
X-2846916Y3108084D01*
X-2855872Y3118683D01*
X-2864461Y3129622D01*
X-2872683Y3140903D01*
X-2880538Y3152525D01*
X-2887932Y3164506D01*
X-2894849Y3176787D01*
X-2901289Y3189369D01*
X-2907252Y3202251D01*
X-2912738Y3215434D01*
X-2917746Y3228917D01*
X-2922278Y3242701D01*
X-2926333Y3256786D01*
X-2929911Y3271171D01*
X-2933012Y3285857D01*
X-2935635Y3300843D01*
X-2937782Y3316129D01*
X-2939452Y3331717D01*
X-2940644Y3347604D01*
X-2941360Y3363792D01*
X-2941598Y3380281D01*
X-2941598Y3429130D01*
X-2714147Y3429130D01*
X-2714147Y3380281D01*
X-2713881Y3366719D01*
X-2713083Y3353586D01*
X-2711754Y3340883D01*
X-2709892Y3328609D01*
X-2706102Y3311002D01*
X-2701116Y3294362D01*
X-2694932Y3278688D01*
X-2687552Y3263980D01*
X-2678976Y3250237D01*
X-2669202Y3237461D01*
X-2658232Y3225651D01*
X-2646064Y3214807D01*
X-2632812Y3204986D01*
X-2618702Y3196131D01*
X-2603732Y3188242D01*
X-2587904Y3181319D01*
X-2571217Y3175362D01*
X-2553672Y3170371D01*
X-2541498Y3167580D01*
X-2528942Y3165219D01*
X-2516005Y3163287D01*
X-2502686Y3161784D01*
X-2488986Y3160711D01*
X-2474904Y3160067D01*
X-2460440Y3159852D01*
X-2445792Y3160036D01*
X-2431617Y3160587D01*
X-2417914Y3161505D01*
X-2404684Y3162791D01*
X-2391925Y3164444D01*
X-2379639Y3166464D01*
X-2362096Y3170183D01*
X-2345615Y3174728D01*
X-2330196Y3180101D01*
X-2315840Y3186299D01*
X-2302547Y3193324D01*
X-2290317Y3201175D01*
X-2282753Y3206869D01*
X-2272277Y3215972D01*
X-2262832Y3225538D01*
X-2254417Y3235564D01*
X-2247033Y3246053D01*
X-2240679Y3257002D01*
X-2235355Y3268414D01*
X-2231062Y3280287D01*
X-2227799Y3292621D01*
X-2225566Y3305417D01*
X-2224364Y3318674D01*
X-2224135Y3327769D01*
X-2224588Y3340139D01*
X-2226429Y3354755D01*
X-2229686Y3368433D01*
X-2234360Y3381171D01*
X-2240450Y3392970D01*
X-2247955Y3403830D01*
X-2253139Y3409896D01*
X-2262756Y3419527D01*
X-2273669Y3428578D01*
X-2285880Y3437047D01*
X-2296582Y3443403D01*
X-2308115Y3449387D01*
X-2320477Y3455000D01*
X-2333669Y3460240D01*
X-2337097Y3461492D01*
X-2351208Y3466491D01*
X-2366063Y3471414D01*
X-2381662Y3476261D01*
X-2393850Y3479846D01*
X-2406456Y3483388D01*
X-2419481Y3486887D01*
X-2432924Y3490343D01*
X-2446787Y3493756D01*
X-2461067Y3497127D01*
X-2470820Y3499350D01*
X-2511120Y3507898D01*
X-2526741Y3511466D01*
X-2542080Y3515149D01*
X-2557138Y3518946D01*
X-2571914Y3522858D01*
X-2586409Y3526884D01*
X-2600622Y3531025D01*
X-2614554Y3535280D01*
X-2628204Y3539650D01*
X-2641573Y3544134D01*
X-2654661Y3548732D01*
X-2667467Y3553446D01*
X-2679991Y3558273D01*
X-2692234Y3563215D01*
X-2704196Y3568272D01*
X-2715876Y3573443D01*
X-2727275Y3578729D01*
X-2738370Y3584214D01*
X-2754399Y3592837D01*
X-2769693Y3601932D01*
X-2784252Y3611499D01*
X-2798076Y3621538D01*
X-2811164Y3632049D01*
X-2823517Y3643033D01*
X-2835135Y3654489D01*
X-2846018Y3666417D01*
X-2856165Y3678818D01*
X-2865578Y3691691D01*
X-2874144Y3705170D01*
X-2881867Y3719390D01*
X-2888748Y3734350D01*
X-2894787Y3750052D01*
X-2899983Y3766493D01*
X-2904336Y3783676D01*
X-2907846Y3801598D01*
X-2909719Y3813958D01*
X-2911217Y3826648D01*
X-2912340Y3839666D01*
X-2913089Y3853013D01*
X-2913464Y3866690D01*
X-2913510Y3873652D01*
X-2913303Y3887531D01*
X-2912680Y3901158D01*
X-2911643Y3914531D01*
X-2910190Y3927652D01*
X-2908323Y3940520D01*
X-2906040Y3953136D01*
X-2903342Y3965498D01*
X-2900230Y3977608D01*
X-2896702Y3989464D01*
X-2892759Y4001068D01*
X-2886067Y4018000D01*
X-2878441Y4034363D01*
X-2869881Y4050157D01*
X-2860388Y4065382D01*
X-2849986Y4079999D01*
X-2838817Y4093965D01*
X-2826881Y4107283D01*
X-2814177Y4119951D01*
X-2800706Y4131969D01*
X-2786467Y4143339D01*
X-2776548Y4150557D01*
X-2766288Y4157488D01*
X-2755688Y4164129D01*
X-2744745Y4170482D01*
X-2733462Y4176546D01*
X-2721838Y4182322D01*
X-2709873Y4187809D01*
X-2697568Y4193022D01*
X-2685000Y4197898D01*
X-2672170Y4202439D01*
X-2659078Y4206643D01*
X-2645723Y4210510D01*
X-2632106Y4214041D01*
X-2618227Y4217236D01*
X-2604085Y4220095D01*
X-2589681Y4222617D01*
X-2575015Y4224803D01*
X-2560086Y4226653D01*
X-2544894Y4228166D01*
X-2529441Y4229344D01*
X-2513725Y4230184D01*
X-2497747Y4230689D01*
X-2481506Y4230857D01*
X-2465209Y4230682D01*
X-2449139Y4230156D01*
X-2433295Y4229279D01*
X-2417678Y4228052D01*
X-2402288Y4226474D01*
X-2387124Y4224546D01*
X-2372187Y4222267D01*
X-2357476Y4219637D01*
X-2342992Y4216657D01*
X-2328735Y4213326D01*
X-2314704Y4209644D01*
X-2300900Y4205612D01*
X-2287322Y4201229D01*
X-2273971Y4196496D01*
X-2260847Y4191412D01*
X-2247949Y4185977D01*
X-2235298Y4180234D01*
X-2222990Y4174147D01*
X-2211026Y4167716D01*
X-2199405Y4160942D01*
X-2188128Y4153825D01*
X-2177195Y4146364D01*
X-2166604Y4138560D01*
X-2156358Y4130412D01*
X-2146454Y4121921D01*
X-2136894Y4113086D01*
X-2127678Y4103908D01*
X-2118805Y4094386D01*
X-2110276Y4084521D01*
X-2102090Y4074313D01*
X-2094247Y4063761D01*
X-2086748Y4052865D01*
X-2079650Y4041662D01*
X-2073010Y4030110D01*
X-2066827Y4018211D01*
X-2061103Y4005963D01*
X-2055836Y3993367D01*
X-2051028Y3980422D01*
X-2046677Y3967130D01*
X-2042785Y3953489D01*
X-2039350Y3939500D01*
X-2036373Y3925162D01*
X-2033854Y3910477D01*
X-2031794Y3895443D01*
X-2030191Y3880061D01*
X-2029046Y3864331D01*
X-2028359Y3848252D01*
X-2028130Y3831825D01*
X-2028130Y3779313D01*
X-2255581Y3779313D01*
X-2255581Y3831825D01*
X-2255820Y3844695D01*
X-2256536Y3857088D01*
X-2258235Y3872868D01*
X-2260782Y3887800D01*
X-2264179Y3901882D01*
X-2268424Y3915115D01*
X-2273519Y3927499D01*
X-2279463Y3939033D01*
X-2282753Y3944482D01*
X-2289914Y3954886D01*
X-2297809Y3964575D01*
X-2306438Y3973548D01*
X-2315802Y3981806D01*
X-2325901Y3989348D01*
X-2336735Y3996174D01*
X-2348303Y4002285D01*
X-2360606Y4007680D01*
X-2373581Y4012403D01*
X-2387167Y4016496D01*
X-2401364Y4019959D01*
X-2416171Y4022793D01*
X-2431589Y4024997D01*
X-2447617Y4026571D01*
X-2460039Y4027338D01*
X-2472805Y4027751D01*
X-2481506Y4027830D01*
X-2494418Y4027676D01*
X-2506899Y4027215D01*
X-2524810Y4025946D01*
X-2541750Y4023984D01*
X-2557718Y4021330D01*
X-2572715Y4017984D01*
X-2586741Y4013946D01*
X-2599795Y4009215D01*
X-2611879Y4003792D01*
X-2622990Y3997677D01*
X-2633131Y3990869D01*
X-2636295Y3988446D01*
X-2647958Y3978147D01*
X-2658067Y3966941D01*
X-2666620Y3954829D01*
X-2673618Y3941811D01*
X-2679061Y3927886D01*
X-2682949Y3913055D01*
X-2685282Y3897318D01*
X-2686011Y3884920D01*
X-2686059Y3880674D01*
X-2685485Y3866801D01*
X-2683763Y3853614D01*
X-2680894Y3841113D01*
X-2676876Y3829297D01*
X-2671711Y3818167D01*
X-2663997Y3805716D01*
X-2662551Y3803737D01*
X-2654543Y3794164D01*
X-2645401Y3785097D01*
X-2635127Y3776537D01*
X-2623720Y3768484D01*
X-2611180Y3760938D01*
X-2600332Y3755266D01*
X-2591720Y3751225D01*
X-2579480Y3746044D01*
X-2566418Y3741036D01*
X-2552537Y3736198D01*
X-2537834Y3731533D01*
X-2522312Y3727039D01*
X-2510131Y3723782D01*
X-2497489Y3720621D01*
X-2484385Y3717556D01*
X-2470820Y3714589D01*
X-2430520Y3705735D01*
X-2414244Y3702163D01*
X-2398234Y3698470D01*
X-2382492Y3694654D01*
X-2367017Y3690718D01*
X-2351809Y3686659D01*
X-2336868Y3682479D01*
X-2322195Y3678178D01*
X-2307788Y3673754D01*
X-2293649Y3669209D01*
X-2279777Y3664543D01*
X-2266171Y3659754D01*
X-2252833Y3654845D01*
X-2239763Y3649813D01*
X-2226959Y3644660D01*
X-2214422Y3639385D01*
X-2202153Y3633989D01*
X-2190185Y3628421D01*
X-2178554Y3622635D01*
X-2167259Y3616629D01*
X-2156300Y3610404D01*
X-2145678Y3603959D01*
X-2135392Y3597295D01*
X-2120593Y3586887D01*
X-2106551Y3575986D01*
X-2093266Y3564590D01*
X-2080738Y3552701D01*
X-2068966Y3540319D01*
X-2057951Y3527442D01*
X-2051028Y3518584D01*
X-2041316Y3504777D01*
X-2032559Y3490262D01*
X-2024758Y3475039D01*
X-2017912Y3459107D01*
X-2012021Y3442467D01*
X-2007086Y3425118D01*
X-2004326Y3413159D01*
X-2001991Y3400884D01*
X-2000080Y3388295D01*
X-1998594Y3375392D01*
X-1997533Y3362173D01*
X-1996896Y3348639D01*
X-1996684Y3334791D01*
X-1996906Y3320891D01*
X-1997571Y3307204D01*
X-1998680Y3293729D01*
X-2000233Y3280466D01*
X-2002229Y3267416D01*
X-2004669Y3254577D01*
X-2007553Y3241951D01*
X-2010880Y3229538D01*
X-2014651Y3217336D01*
X-2018866Y3205347D01*
X-2023524Y3193570D01*
X-2028626Y3182006D01*
X-2034172Y3170653D01*
X-2040161Y3159513D01*
X-2046594Y3148586D01*
X-2053470Y3137870D01*
X-2060755Y3127404D01*
X-2068411Y3117224D01*
X-2076440Y3107330D01*
X-2084840Y3097723D01*
X-2093613Y3088402D01*
X-2102758Y3079366D01*
X-2112275Y3070618D01*
X-2122164Y3062155D01*
X-2132425Y3053979D01*
X-2143058Y3046088D01*
X-2154063Y3038484D01*
X-2165440Y3031167D01*
X-2177190Y3024135D01*
X-2189311Y3017390D01*
X-2201805Y3010931D01*
X-2214671Y3004758D01*
X-2227831Y2998954D01*
X-2241284Y2993524D01*
X-2255031Y2988468D01*
X-2269072Y2983787D01*
X-2283406Y2979481D01*
X-2298033Y2975549D01*
X-2312953Y2971991D01*
X-2328167Y2968808D01*
X-2343674Y2966000D01*
X-2359475Y2963566D01*
X-2375569Y2961506D01*
X-2391956Y2959821D01*
X-2408637Y2958510D01*
X-2425611Y2957574D01*
X-2442879Y2957012D01*
X-2460440Y2956825D01*
G37*
G36*
X-1825714Y2981250D02*
G01*
X-1825714Y4206127D01*
X-1594599Y4206127D01*
X-1594599Y3700545D01*
X-1139697Y3700545D01*
X-1139697Y4206127D01*
X-908582Y4206127D01*
X-908582Y2981250D01*
X-1139697Y2981250D01*
X-1139697Y3490496D01*
X-1594599Y3490496D01*
X-1594599Y2981250D01*
X-1825714Y2981250D01*
G37*
G36*
X-341633Y2981250D02*
G01*
X-341633Y4041874D01*
X-373079Y4041874D01*
X-537638Y3653223D01*
X-772111Y3653223D01*
X-522068Y4206127D01*
X-117540Y4206127D01*
X-117540Y2981250D01*
X-341633Y2981250D01*
G37*
G36*
X448491Y2981250D02*
G01*
X448491Y4041874D01*
X417045Y4041874D01*
X252487Y3653223D01*
X18013Y3653223D01*
X268057Y4206127D01*
X672584Y4206127D01*
X672584Y2981250D01*
X448491Y2981250D01*
G37*
G36*
X1367617Y4230736D02*
G01*
X1381039Y4230374D01*
X1394288Y4229770D01*
X1407364Y4228925D01*
X1420267Y4227838D01*
X1432998Y4226510D01*
X1445555Y4224940D01*
X1457939Y4223129D01*
X1470151Y4221076D01*
X1482190Y4218782D01*
X1505748Y4213469D01*
X1528615Y4207190D01*
X1550790Y4199945D01*
X1572273Y4191734D01*
X1593065Y4182557D01*
X1613165Y4172414D01*
X1632573Y4161305D01*
X1651290Y4149230D01*
X1669314Y4136189D01*
X1686648Y4122182D01*
X1703289Y4107209D01*
X1719075Y4091351D01*
X1733843Y4074613D01*
X1747593Y4056995D01*
X1760324Y4038497D01*
X1772036Y4019118D01*
X1782730Y3998860D01*
X1792405Y3977721D01*
X1801063Y3955702D01*
X1808701Y3932803D01*
X1812138Y3921024D01*
X1815321Y3909024D01*
X1818249Y3896804D01*
X1820923Y3884365D01*
X1823342Y3871705D01*
X1825506Y3858825D01*
X1827416Y3845726D01*
X1829071Y3832406D01*
X1830471Y3818866D01*
X1831617Y3805106D01*
X1832508Y3791127D01*
X1833144Y3776927D01*
X1833526Y3762507D01*
X1833654Y3747867D01*
X1833654Y3439815D01*
X1833526Y3424728D01*
X1833144Y3409881D01*
X1832508Y3395276D01*
X1831617Y3380911D01*
X1830471Y3366787D01*
X1829071Y3352904D01*
X1827416Y3339262D01*
X1825506Y3325861D01*
X1823342Y3312701D01*
X1820923Y3299781D01*
X1818249Y3287103D01*
X1815321Y3274665D01*
X1812138Y3262469D01*
X1808701Y3250513D01*
X1805009Y3238798D01*
X1796861Y3216091D01*
X1787695Y3194348D01*
X1777510Y3173568D01*
X1766307Y3153752D01*
X1754085Y3134899D01*
X1740845Y3117011D01*
X1726587Y3100085D01*
X1711310Y3084124D01*
X1703289Y3076504D01*
X1686648Y3062012D01*
X1669314Y3048454D01*
X1651290Y3035832D01*
X1632573Y3024145D01*
X1613165Y3013392D01*
X1593065Y3003575D01*
X1572273Y2994692D01*
X1550790Y2986745D01*
X1528615Y2979733D01*
X1505748Y2973655D01*
X1482190Y2968513D01*
X1470151Y2966292D01*
X1457939Y2964305D01*
X1445555Y2962552D01*
X1432998Y2961033D01*
X1420267Y2959747D01*
X1407364Y2958695D01*
X1394288Y2957877D01*
X1381039Y2957293D01*
X1367617Y2956942D01*
X1354022Y2956825D01*
X1340539Y2956942D01*
X1327223Y2957293D01*
X1314075Y2957877D01*
X1301095Y2958695D01*
X1288282Y2959747D01*
X1275636Y2961033D01*
X1263158Y2962552D01*
X1250848Y2964305D01*
X1238706Y2966292D01*
X1214923Y2970967D01*
X1191810Y2976577D01*
X1169368Y2983122D01*
X1147596Y2990602D01*
X1126495Y2999017D01*
X1106063Y3008367D01*
X1086302Y3018652D01*
X1067211Y3029871D01*
X1048790Y3042026D01*
X1031040Y3055116D01*
X1013959Y3069141D01*
X1005670Y3076504D01*
X989810Y3091984D01*
X974973Y3108428D01*
X961159Y3125835D01*
X948369Y3144205D01*
X936601Y3163540D01*
X925857Y3183837D01*
X916137Y3205099D01*
X907439Y3227324D01*
X899765Y3250513D01*
X896311Y3262469D01*
X893114Y3274665D01*
X890172Y3287103D01*
X887486Y3299781D01*
X885056Y3312701D01*
X882881Y3325861D01*
X880963Y3339262D01*
X879300Y3352904D01*
X877893Y3366787D01*
X876742Y3380911D01*
X875846Y3395276D01*
X875207Y3409881D01*
X874823Y3424728D01*
X874755Y3432793D01*
X1098483Y3432793D01*
X1098732Y3415775D01*
X1099480Y3399296D01*
X1100726Y3383356D01*
X1102471Y3367955D01*
X1104714Y3353093D01*
X1107456Y3338770D01*
X1110696Y3324986D01*
X1114435Y3311741D01*
X1118672Y3299035D01*
X1123408Y3286868D01*
X1128642Y3275240D01*
X1134375Y3264151D01*
X1140606Y3253602D01*
X1150888Y3238788D01*
X1162291Y3225187D01*
X1174871Y3212856D01*
X1188566Y3201738D01*
X1203378Y3191833D01*
X1219307Y3183141D01*
X1230546Y3178020D01*
X1242281Y3173438D01*
X1254512Y3169395D01*
X1267239Y3165891D01*
X1280463Y3162927D01*
X1294182Y3160501D01*
X1308398Y3158614D01*
X1323110Y3157267D01*
X1338318Y3156458D01*
X1354022Y3156188D01*
X1370161Y3156469D01*
X1385759Y3157309D01*
X1400816Y3158711D01*
X1415331Y3160673D01*
X1429304Y3163195D01*
X1442736Y3166278D01*
X1455627Y3169921D01*
X1467976Y3174125D01*
X1479784Y3178889D01*
X1491051Y3184214D01*
X1501776Y3190100D01*
X1516848Y3199979D01*
X1530702Y3211119D01*
X1543338Y3223521D01*
X1547279Y3227935D01*
X1558409Y3241927D01*
X1568445Y3256997D01*
X1574527Y3267643D01*
X1580123Y3278769D01*
X1585232Y3290374D01*
X1589854Y3302459D01*
X1593990Y3315023D01*
X1597640Y3328066D01*
X1600802Y3341589D01*
X1603479Y3355591D01*
X1605668Y3370073D01*
X1607371Y3385034D01*
X1608588Y3400474D01*
X1609318Y3416394D01*
X1609561Y3432793D01*
X1609561Y3758247D01*
X1609290Y3774821D01*
X1608478Y3790881D01*
X1607124Y3806429D01*
X1605229Y3821464D01*
X1602793Y3835986D01*
X1599815Y3849996D01*
X1596296Y3863492D01*
X1592235Y3876476D01*
X1587633Y3888947D01*
X1582489Y3900905D01*
X1576804Y3912350D01*
X1570577Y3923283D01*
X1563809Y3933702D01*
X1556500Y3943609D01*
X1548649Y3953003D01*
X1540257Y3961885D01*
X1526896Y3974270D01*
X1512687Y3985437D01*
X1497630Y3995386D01*
X1481725Y4004117D01*
X1464972Y4011629D01*
X1453332Y4015961D01*
X1441315Y4019751D01*
X1428922Y4022999D01*
X1416152Y4025706D01*
X1403005Y4027872D01*
X1389481Y4029496D01*
X1375580Y4030579D01*
X1361302Y4031121D01*
X1354022Y4031188D01*
X1339155Y4030908D01*
X1324703Y4030067D01*
X1310666Y4028666D01*
X1297044Y4026704D01*
X1283838Y4024182D01*
X1271046Y4021099D01*
X1258669Y4017456D01*
X1246708Y4013252D01*
X1235161Y4008487D01*
X1224029Y4003163D01*
X1213313Y3997277D01*
X1198016Y3987398D01*
X1183653Y3976258D01*
X1170224Y3963856D01*
X1165955Y3959442D01*
X1157784Y3950248D01*
X1150141Y3940604D01*
X1143025Y3930509D01*
X1136436Y3919963D01*
X1130374Y3908966D01*
X1124839Y3897518D01*
X1119831Y3885619D01*
X1115351Y3873270D01*
X1111397Y3860470D01*
X1107971Y3847219D01*
X1105072Y3833518D01*
X1102700Y3819365D01*
X1100855Y3804762D01*
X1099537Y3789708D01*
X1098746Y3774203D01*
X1098483Y3758247D01*
X1098483Y3432793D01*
X874755Y3432793D01*
X874695Y3439815D01*
X874695Y3747867D01*
X874823Y3762507D01*
X875207Y3776927D01*
X875846Y3791127D01*
X876742Y3805106D01*
X877893Y3818866D01*
X879300Y3832406D01*
X880963Y3845726D01*
X882881Y3858825D01*
X885056Y3871705D01*
X887486Y3884365D01*
X890172Y3896804D01*
X893114Y3909024D01*
X896311Y3921024D01*
X899765Y3932803D01*
X907439Y3955702D01*
X916137Y3977721D01*
X925857Y3998860D01*
X936601Y4019118D01*
X948369Y4038497D01*
X961159Y4056995D01*
X974973Y4074613D01*
X989810Y4091351D01*
X1005670Y4107209D01*
X1022416Y4122182D01*
X1039831Y4136189D01*
X1057917Y4149230D01*
X1076673Y4161305D01*
X1096099Y4172414D01*
X1116195Y4182557D01*
X1136962Y4191734D01*
X1158399Y4199945D01*
X1180506Y4207190D01*
X1203283Y4213469D01*
X1226730Y4218782D01*
X1250848Y4223129D01*
X1263158Y4224940D01*
X1275636Y4226510D01*
X1288282Y4227838D01*
X1301095Y4228925D01*
X1314075Y4229770D01*
X1327223Y4230374D01*
X1340539Y4230736D01*
X1354022Y4230857D01*
X1367617Y4230736D01*
G37*
G36*
X2493846Y4230679D02*
G01*
X2510483Y4230146D01*
X2526838Y4229258D01*
X2542912Y4228014D01*
X2558704Y4226415D01*
X2574215Y4224460D01*
X2589445Y4222150D01*
X2604392Y4219484D01*
X2619059Y4216464D01*
X2633444Y4213087D01*
X2647548Y4209356D01*
X2661370Y4205269D01*
X2674910Y4200826D01*
X2688170Y4196029D01*
X2701147Y4190875D01*
X2713844Y4185367D01*
X2726259Y4179523D01*
X2738316Y4173364D01*
X2750015Y4166891D01*
X2761357Y4160103D01*
X2772340Y4153000D01*
X2782966Y4145582D01*
X2793235Y4137849D01*
X2803145Y4129801D01*
X2812698Y4121439D01*
X2821893Y4112762D01*
X2830730Y4103770D01*
X2839209Y4094463D01*
X2847331Y4084841D01*
X2855094Y4074904D01*
X2862500Y4064653D01*
X2869549Y4054086D01*
X2876240Y4043232D01*
X2882500Y4032119D01*
X2888328Y4020745D01*
X2893725Y4009111D01*
X2898690Y3997217D01*
X2903223Y3985064D01*
X2907324Y3972650D01*
X2910994Y3959976D01*
X2914231Y3947043D01*
X2917038Y3933849D01*
X2919412Y3920395D01*
X2921355Y3906682D01*
X2922866Y3892708D01*
X2923945Y3878475D01*
X2924593Y3863981D01*
X2924809Y3849228D01*
X2697357Y3849228D01*
X2696912Y3862852D01*
X2695576Y3876132D01*
X2693349Y3889070D01*
X2690230Y3901663D01*
X2686222Y3913914D01*
X2681322Y3925821D01*
X2675531Y3937384D01*
X2668850Y3948604D01*
X2661277Y3959480D01*
X2652814Y3970013D01*
X2646677Y3976844D01*
X2636573Y3986556D01*
X2625268Y3995313D01*
X2612760Y4003114D01*
X2599050Y4009960D01*
X2584138Y4015851D01*
X2568023Y4020787D01*
X2550707Y4024767D01*
X2538495Y4026890D01*
X2525748Y4028588D01*
X2512468Y4029862D01*
X2498653Y4030711D01*
X2484303Y4031135D01*
X2476928Y4031188D01*
X2462481Y4030949D01*
X2448449Y4030230D01*
X2434832Y4029031D01*
X2421630Y4027353D01*
X2408843Y4025196D01*
X2396471Y4022559D01*
X2384514Y4019443D01*
X2367357Y4013869D01*
X2351134Y4007217D01*
X2335844Y3999487D01*
X2321488Y3990677D01*
X2308066Y3980789D01*
X2295578Y3969822D01*
X2284175Y3957958D01*
X2273893Y3945261D01*
X2264733Y3931733D01*
X2256695Y3917372D01*
X2249778Y3902180D01*
X2243983Y3886156D01*
X2239309Y3869300D01*
X2235758Y3851613D01*
X2234013Y3839359D01*
X2232767Y3826735D01*
X2232019Y3813742D01*
X2231770Y3800379D01*
X2231770Y3674289D01*
X2263216Y3674289D01*
X2273326Y3685171D01*
X2282509Y3693748D01*
X2292665Y3702211D01*
X2303794Y3710559D01*
X2315897Y3718793D01*
X2328972Y3726912D01*
X2343021Y3734916D01*
X2354196Y3740845D01*
X2366193Y3746465D01*
X2379173Y3751532D01*
X2393134Y3756046D01*
X2408078Y3760007D01*
X2424003Y3763416D01*
X2440911Y3766272D01*
X2458801Y3768575D01*
X2471273Y3769804D01*
X2484181Y3770786D01*
X2497526Y3771523D01*
X2511308Y3772015D01*
X2525526Y3772260D01*
X2532799Y3772291D01*
X2546090Y3772113D01*
X2559251Y3771580D01*
X2572280Y3770692D01*
X2585177Y3769448D01*
X2597944Y3767849D01*
X2610580Y3765894D01*
X2623084Y3763584D01*
X2635457Y3760918D01*
X2647699Y3757898D01*
X2659810Y3754521D01*
X2671789Y3750790D01*
X2683638Y3746703D01*
X2695355Y3742260D01*
X2706941Y3737463D01*
X2718396Y3732309D01*
X2729720Y3726801D01*
X2740844Y3720954D01*
X2751701Y3714784D01*
X2762292Y3708293D01*
X2772615Y3701480D01*
X2782671Y3694344D01*
X2792459Y3686887D01*
X2801981Y3679108D01*
X2811236Y3671007D01*
X2820223Y3662583D01*
X2828943Y3653838D01*
X2837396Y3644771D01*
X2845582Y3635381D01*
X2853501Y3625670D01*
X2861153Y3615637D01*
X2868537Y3605282D01*
X2875655Y3594604D01*
X2882457Y3583627D01*
X2888821Y3572370D01*
X2894746Y3560834D01*
X2900232Y3549019D01*
X2905279Y3536925D01*
X2909887Y3524551D01*
X2914056Y3511899D01*
X2917787Y3498968D01*
X2921078Y3485758D01*
X2923931Y3472268D01*
X2926345Y3458500D01*
X2928320Y3444452D01*
X2929856Y3430126D01*
X2930953Y3415520D01*
X2931611Y3400635D01*
X2931831Y3385471D01*
X2931831Y3364405D01*
X2931605Y3349443D01*
X2930929Y3334705D01*
X2929802Y3320191D01*
X2928224Y3305902D01*
X2926196Y3291836D01*
X2923716Y3277995D01*
X2920786Y3264378D01*
X2917405Y3250985D01*
X2913573Y3237817D01*
X2909291Y3224872D01*
X2904557Y3212152D01*
X2899373Y3199656D01*
X2893738Y3187384D01*
X2887652Y3175337D01*
X2881116Y3163513D01*
X2874128Y3151914D01*
X2866731Y3140585D01*
X2858963Y3129570D01*
X2850826Y3118870D01*
X2842319Y3108485D01*
X2833443Y3098415D01*
X2824197Y3088659D01*
X2814581Y3079219D01*
X2804595Y3070093D01*
X2794240Y3061282D01*
X2783515Y3052786D01*
X2772420Y3044605D01*
X2760956Y3036738D01*
X2749122Y3029187D01*
X2736918Y3021950D01*
X2724345Y3015028D01*
X2711401Y3008422D01*
X2698136Y3002174D01*
X2684597Y2996329D01*
X2670783Y2990887D01*
X2656695Y2985848D01*
X2642332Y2981213D01*
X2627696Y2976980D01*
X2612785Y2973151D01*
X2597599Y2969724D01*
X2582140Y2966701D01*
X2566406Y2964081D01*
X2550398Y2961864D01*
X2534115Y2960050D01*
X2517559Y2958639D01*
X2500728Y2957631D01*
X2483622Y2957027D01*
X2466243Y2956825D01*
X2448906Y2957030D01*
X2431853Y2957646D01*
X2415084Y2958671D01*
X2398599Y2960107D01*
X2382397Y2961953D01*
X2366480Y2964210D01*
X2350846Y2966876D01*
X2335496Y2969953D01*
X2320430Y2973440D01*
X2305648Y2977338D01*
X2291150Y2981645D01*
X2276935Y2986363D01*
X2263005Y2991491D01*
X2249358Y2997030D01*
X2235995Y3002979D01*
X2222916Y3009337D01*
X2210201Y3016058D01*
X2197857Y3023090D01*
X2185882Y3030436D01*
X2174277Y3038093D01*
X2163042Y3046063D01*
X2152176Y3054346D01*
X2141680Y3062941D01*
X2131554Y3071848D01*
X2121797Y3081068D01*
X2112410Y3090601D01*
X2103393Y3100445D01*
X2094745Y3110603D01*
X2086468Y3121073D01*
X2078560Y3131855D01*
X2071021Y3142949D01*
X2063853Y3154357D01*
X2057087Y3166068D01*
X2050758Y3177999D01*
X2044865Y3190149D01*
X2039409Y3202518D01*
X2034390Y3215107D01*
X2029806Y3227916D01*
X2025660Y3240944D01*
X2021950Y3254191D01*
X2018676Y3267658D01*
X2015839Y3281344D01*
X2013438Y3295249D01*
X2011474Y3309375D01*
X2009946Y3323719D01*
X2008855Y3338283D01*
X2008200Y3353066D01*
X2007982Y3368069D01*
X2231770Y3368069D01*
X2232330Y3350373D01*
X2234013Y3333347D01*
X2236817Y3316992D01*
X2240743Y3301308D01*
X2245790Y3286295D01*
X2251959Y3271952D01*
X2259250Y3258281D01*
X2267662Y3245280D01*
X2277196Y3232950D01*
X2287851Y3221291D01*
X2295578Y3213891D01*
X2308004Y3203579D01*
X2321241Y3194281D01*
X2335289Y3185998D01*
X2350146Y3178728D01*
X2365814Y3172474D01*
X2382293Y3167233D01*
X2399581Y3163007D01*
X2417680Y3159795D01*
X2430197Y3158217D01*
X2443073Y3157090D01*
X2456310Y3156414D01*
X2469906Y3156188D01*
X2483502Y3156414D01*
X2496735Y3157090D01*
X2509605Y3158217D01*
X2522113Y3159795D01*
X2534259Y3161823D01*
X2551797Y3165712D01*
X2568519Y3170614D01*
X2584426Y3176531D01*
X2599517Y3183462D01*
X2613793Y3191407D01*
X2627252Y3200367D01*
X2639896Y3210341D01*
X2643929Y3213891D01*
X2655333Y3225103D01*
X2665614Y3236985D01*
X2674774Y3249539D01*
X2682813Y3262763D01*
X2689729Y3276658D01*
X2695524Y3291224D01*
X2700198Y3306461D01*
X2703750Y3322369D01*
X2706180Y3338948D01*
X2707488Y3356197D01*
X2707738Y3368069D01*
X2707738Y3382113D01*
X2707285Y3398017D01*
X2705925Y3413369D01*
X2703659Y3428166D01*
X2700487Y3442411D01*
X2696408Y3456101D01*
X2691423Y3469239D01*
X2685532Y3481823D01*
X2678734Y3493854D01*
X2671173Y3505356D01*
X2662839Y3516199D01*
X2653732Y3526383D01*
X2643853Y3535910D01*
X2633201Y3544778D01*
X2621776Y3552988D01*
X2609578Y3560539D01*
X2596607Y3567432D01*
X2583007Y3573586D01*
X2568767Y3578919D01*
X2553889Y3583432D01*
X2538371Y3587124D01*
X2526313Y3589355D01*
X2513895Y3591124D01*
X2501118Y3592432D01*
X2487981Y3593278D01*
X2474485Y3593663D01*
X2469906Y3593688D01*
X2456607Y3593458D01*
X2443613Y3592765D01*
X2430926Y3591612D01*
X2418544Y3589996D01*
X2406468Y3587919D01*
X2390842Y3584432D01*
X2375761Y3580124D01*
X2361223Y3574996D01*
X2347229Y3569048D01*
X2343816Y3567432D01*
X2330626Y3560539D01*
X2318228Y3552988D01*
X2306621Y3544778D01*
X2295807Y3535910D01*
X2285784Y3526383D01*
X2276554Y3516199D01*
X2268115Y3505356D01*
X2260468Y3493854D01*
X2253742Y3481823D01*
X2247912Y3469239D01*
X2242980Y3456101D01*
X2238944Y3442411D01*
X2235805Y3428166D01*
X2233563Y3413369D01*
X2232218Y3398017D01*
X2231770Y3382113D01*
X2231770Y3368069D01*
X2007982Y3368069D01*
X2007982Y3786335D01*
X2008217Y3804726D01*
X2008922Y3822728D01*
X2010096Y3840342D01*
X2011741Y3857566D01*
X2013856Y3874402D01*
X2016440Y3890849D01*
X2019494Y3906907D01*
X2023018Y3922577D01*
X2027012Y3937857D01*
X2031476Y3952749D01*
X2036410Y3967252D01*
X2041813Y3981367D01*
X2047687Y3995092D01*
X2054030Y4008429D01*
X2060844Y4021377D01*
X2068127Y4033936D01*
X2075861Y4046105D01*
X2083950Y4057883D01*
X2092395Y4069270D01*
X2101195Y4080266D01*
X2110351Y4090871D01*
X2119861Y4101084D01*
X2129728Y4110906D01*
X2139949Y4120337D01*
X2150527Y4129377D01*
X2161459Y4138026D01*
X2172747Y4146283D01*
X2184390Y4154149D01*
X2196389Y4161625D01*
X2208743Y4168709D01*
X2221452Y4175401D01*
X2234517Y4181703D01*
X2247879Y4187655D01*
X2261479Y4193224D01*
X2275318Y4198408D01*
X2289396Y4203208D01*
X2303711Y4207624D01*
X2318266Y4211656D01*
X2333059Y4215304D01*
X2348090Y4218568D01*
X2363360Y4221449D01*
X2378869Y4223945D01*
X2394616Y4226057D01*
X2410601Y4227785D01*
X2426825Y4229129D01*
X2443288Y4230089D01*
X2459989Y4230665D01*
X2476928Y4230857D01*
X2493846Y4230679D01*
G37*
D10*
G36*
X455957Y-15142701D02*
G01*
X470599Y-15143582D01*
X484785Y-15145052D01*
X498515Y-15147109D01*
X511789Y-15149753D01*
X524607Y-15152986D01*
X536969Y-15156806D01*
X548875Y-15161214D01*
X560325Y-15166209D01*
X571319Y-15171793D01*
X581857Y-15177963D01*
X591938Y-15184722D01*
X601564Y-15192068D01*
X610734Y-15200003D01*
X619447Y-15208524D01*
X627705Y-15217634D01*
X635483Y-15227244D01*
X642760Y-15237330D01*
X649535Y-15247890D01*
X655808Y-15258926D01*
X661579Y-15270437D01*
X666848Y-15282423D01*
X671616Y-15294884D01*
X675881Y-15307821D01*
X679645Y-15321232D01*
X682907Y-15335118D01*
X685667Y-15349480D01*
X687926Y-15364317D01*
X689682Y-15379629D01*
X690937Y-15395416D01*
X691690Y-15411678D01*
X691940Y-15428415D01*
X691940Y-15670949D01*
X691695Y-15687601D01*
X690960Y-15703792D01*
X689734Y-15719520D01*
X688017Y-15734788D01*
X685811Y-15749593D01*
X683113Y-15763936D01*
X679926Y-15777818D01*
X676248Y-15791238D01*
X672079Y-15804196D01*
X667421Y-15816693D01*
X662272Y-15828728D01*
X656632Y-15840300D01*
X650502Y-15851412D01*
X643882Y-15862061D01*
X636771Y-15872249D01*
X629170Y-15881974D01*
X621107Y-15891143D01*
X612550Y-15899720D01*
X603499Y-15907706D01*
X593953Y-15915100D01*
X583914Y-15921902D01*
X573380Y-15928113D01*
X562351Y-15933733D01*
X550829Y-15938761D01*
X538813Y-15943197D01*
X526302Y-15947042D01*
X513297Y-15950296D01*
X499798Y-15952957D01*
X485804Y-15955028D01*
X471317Y-15956507D01*
X456335Y-15957394D01*
X440859Y-15957690D01*
X425470Y-15957396D01*
X410565Y-15956514D01*
X396145Y-15955045D01*
X382210Y-15952988D01*
X368759Y-15950343D01*
X355794Y-15947111D01*
X343312Y-15943291D01*
X331316Y-15938883D01*
X319804Y-15933887D01*
X308777Y-15928304D01*
X298234Y-15922133D01*
X288176Y-15915375D01*
X278603Y-15908028D01*
X269515Y-15900094D01*
X260911Y-15891572D01*
X252792Y-15882463D01*
X245161Y-15872821D01*
X238023Y-15862702D01*
X231377Y-15852106D01*
X225223Y-15841033D01*
X219561Y-15829483D01*
X214392Y-15817456D01*
X209715Y-15804952D01*
X205531Y-15791971D01*
X201839Y-15778513D01*
X198639Y-15764578D01*
X195931Y-15750165D01*
X193716Y-15735276D01*
X191993Y-15719910D01*
X190762Y-15704066D01*
X190023Y-15687746D01*
X189777Y-15670949D01*
X189777Y-15428415D01*
X190026Y-15411823D01*
X190773Y-15395691D01*
X192018Y-15380018D01*
X193761Y-15364805D01*
X196002Y-15350053D01*
X198742Y-15335760D01*
X201979Y-15321926D01*
X205714Y-15308553D01*
X209947Y-15295640D01*
X214678Y-15283186D01*
X219908Y-15271193D01*
X225635Y-15259659D01*
X231860Y-15248585D01*
X238584Y-15237971D01*
X245805Y-15227817D01*
X253525Y-15218122D01*
X261727Y-15208954D01*
X270396Y-15200377D01*
X279534Y-15192391D01*
X289138Y-15184997D01*
X299210Y-15178194D01*
X309750Y-15171983D01*
X320757Y-15166364D01*
X332232Y-15161336D01*
X344174Y-15156899D01*
X356584Y-15153054D01*
X369461Y-15149801D01*
X382805Y-15147139D01*
X396617Y-15145069D01*
X410897Y-15143590D01*
X425644Y-15142703D01*
X440859Y-15142407D01*
X455957Y-15142701D01*
G37*
G36*
X-269887Y-15685359D02*
G01*
X-626481Y-15685359D01*
X-457954Y-15131416D01*
X-438659Y-15131416D01*
X-269887Y-15685359D01*
G37*
G36*
X948370Y-16202396D02*
G01*
X-996729Y-16202396D01*
X-996729Y-16040000D01*
X-853872Y-16040000D01*
X-731994Y-16040000D01*
X-657012Y-15792581D01*
X-239357Y-15792581D01*
X-164374Y-16040000D01*
X-42497Y-16040000D01*
X-158110Y-15665331D01*
X76204Y-15665331D01*
X76248Y-15670949D01*
X76300Y-15677524D01*
X76589Y-15689526D01*
X77069Y-15701338D01*
X77742Y-15712958D01*
X78607Y-15724388D01*
X79665Y-15735627D01*
X80914Y-15746675D01*
X82356Y-15757533D01*
X83990Y-15768199D01*
X85817Y-15778675D01*
X87835Y-15788960D01*
X90046Y-15799054D01*
X92449Y-15808957D01*
X95044Y-15818670D01*
X97832Y-15828191D01*
X100812Y-15837522D01*
X107348Y-15855611D01*
X114653Y-15872937D01*
X122728Y-15889500D01*
X131571Y-15905300D01*
X141183Y-15920336D01*
X151565Y-15934609D01*
X162715Y-15948118D01*
X174634Y-15960865D01*
X187209Y-15972814D01*
X200325Y-15983992D01*
X213984Y-15994399D01*
X228184Y-16004035D01*
X242927Y-16012900D01*
X258211Y-16020994D01*
X274037Y-16028318D01*
X290405Y-16034870D01*
X307315Y-16040652D01*
X324767Y-16045663D01*
X342761Y-16049903D01*
X361297Y-16053372D01*
X380374Y-16056070D01*
X390116Y-16057130D01*
X399994Y-16057997D01*
X410007Y-16058672D01*
X420155Y-16059153D01*
X430439Y-16059443D01*
X440859Y-16059539D01*
X451293Y-16059443D01*
X461591Y-16059153D01*
X471752Y-16058672D01*
X481777Y-16057997D01*
X491666Y-16057130D01*
X501418Y-16056070D01*
X520513Y-16053372D01*
X539062Y-16049903D01*
X557065Y-16045663D01*
X574523Y-16040652D01*
X591435Y-16034870D01*
X607801Y-16028318D01*
X623621Y-16020994D01*
X638896Y-16012900D01*
X653625Y-16004035D01*
X667808Y-15994399D01*
X681446Y-15983992D01*
X694537Y-15972814D01*
X707084Y-15960865D01*
X719003Y-15948118D01*
X730153Y-15934609D01*
X740534Y-15920336D01*
X750147Y-15905300D01*
X758990Y-15889500D01*
X767064Y-15872937D01*
X774370Y-15855611D01*
X780906Y-15837522D01*
X783886Y-15828191D01*
X786673Y-15818670D01*
X789269Y-15808957D01*
X791672Y-15799054D01*
X793883Y-15788960D01*
X795901Y-15778675D01*
X797727Y-15768199D01*
X799362Y-15757533D01*
X800803Y-15746675D01*
X802053Y-15735627D01*
X803110Y-15724388D01*
X803975Y-15712958D01*
X804648Y-15701338D01*
X805129Y-15689526D01*
X805417Y-15677524D01*
X805513Y-15665331D01*
X805513Y-15434766D01*
X805417Y-15422677D01*
X805129Y-15410775D01*
X804648Y-15399058D01*
X803975Y-15387528D01*
X803110Y-15376183D01*
X802053Y-15365025D01*
X800803Y-15354053D01*
X799362Y-15343266D01*
X797727Y-15332666D01*
X795901Y-15322252D01*
X793883Y-15312024D01*
X791672Y-15301982D01*
X789269Y-15292126D01*
X786673Y-15282456D01*
X780906Y-15263674D01*
X774370Y-15245636D01*
X767064Y-15228342D01*
X758990Y-15211793D01*
X750147Y-15195988D01*
X740534Y-15180927D01*
X730153Y-15166610D01*
X719003Y-15153037D01*
X707084Y-15140209D01*
X694537Y-15128112D01*
X681446Y-15116796D01*
X667808Y-15106260D01*
X653625Y-15096505D01*
X638896Y-15087530D01*
X623621Y-15079335D01*
X607801Y-15071921D01*
X591435Y-15065287D01*
X574523Y-15059434D01*
X557065Y-15054361D01*
X539062Y-15050069D01*
X520513Y-15046557D01*
X501418Y-15043825D01*
X491666Y-15042752D01*
X481777Y-15041874D01*
X471752Y-15041192D01*
X461591Y-15040704D01*
X451293Y-15040411D01*
X440859Y-15040314D01*
X430439Y-15040411D01*
X420155Y-15040704D01*
X410007Y-15041192D01*
X399994Y-15041874D01*
X390116Y-15042752D01*
X380374Y-15043825D01*
X361297Y-15046557D01*
X342761Y-15050069D01*
X324767Y-15054361D01*
X307315Y-15059434D01*
X290405Y-15065287D01*
X274037Y-15071921D01*
X258211Y-15079335D01*
X242927Y-15087530D01*
X228184Y-15096505D01*
X213984Y-15106260D01*
X200325Y-15116796D01*
X187209Y-15128112D01*
X174634Y-15140209D01*
X168578Y-15146530D01*
X157044Y-15159731D01*
X146278Y-15173675D01*
X136281Y-15188364D01*
X127053Y-15203797D01*
X118594Y-15219975D01*
X110905Y-15236896D01*
X103984Y-15254562D01*
X97832Y-15272972D01*
X95044Y-15282456D01*
X92449Y-15292126D01*
X90046Y-15301982D01*
X87835Y-15312024D01*
X85817Y-15322252D01*
X83990Y-15332666D01*
X82356Y-15343266D01*
X80914Y-15354053D01*
X79665Y-15365025D01*
X78607Y-15376183D01*
X77742Y-15387528D01*
X77069Y-15399058D01*
X76589Y-15410775D01*
X76300Y-15422677D01*
X76204Y-15434766D01*
X76204Y-15665331D01*
X-158110Y-15665331D01*
X-344869Y-15060097D01*
X-551499Y-15060097D01*
X-744439Y-15685359D01*
X-853872Y-16040000D01*
X-996729Y-16040000D01*
X-996729Y-14897457D01*
X948370Y-14897457D01*
X948370Y-16202396D01*
G37*
G36*
X-7364061Y-21435359D02*
G01*
X-7720655Y-21435359D01*
X-7552128Y-20881416D01*
X-7532833Y-20881416D01*
X-7364061Y-21435359D01*
G37*
G36*
X-6486277Y-21932857D02*
G01*
X-8090903Y-21932857D01*
X-8090903Y-21790000D01*
X-7948046Y-21790000D01*
X-7826168Y-21790000D01*
X-7751186Y-21542581D01*
X-7333531Y-21542581D01*
X-7258548Y-21790000D01*
X-7136671Y-21790000D01*
X-7308055Y-21234591D01*
X-7077320Y-21234591D01*
X-6953244Y-21234591D01*
X-6762979Y-20885812D01*
X-6742707Y-20885812D01*
X-6742707Y-21790000D01*
X-6629134Y-21790000D01*
X-6629134Y-20810097D01*
X-6843335Y-20810097D01*
X-7077320Y-21234591D01*
X-7308055Y-21234591D01*
X-7439043Y-20810097D01*
X-7645673Y-20810097D01*
X-7838613Y-21435359D01*
X-7948046Y-21790000D01*
X-8090903Y-21790000D01*
X-8090903Y-20667240D01*
X-6486277Y-20667240D01*
X-6486277Y-21932857D01*
G37*
D12*
%TO.C,REF\u002A\u002A*%
X-12250000Y29600000D02*
X3750000Y29600000D01*
X3750000Y29600000D02*
X3750000Y23600000D01*
X3750000Y23600000D02*
X-12250000Y23600000D01*
X-12250000Y23600000D02*
X-12250000Y29600000D01*
%TO.C,SW4*%
X3000000Y-24125000D02*
X-3000000Y-24125000D01*
X-3000000Y-24125000D02*
X-3000000Y-30125000D01*
X-3000000Y-30125000D02*
X3000000Y-30125000D01*
X3000000Y-30125000D02*
X3000000Y-24125000D01*
%TO.C,SW3*%
X10250000Y-18375000D02*
X4250000Y-18375000D01*
X4250000Y-18375000D02*
X4250000Y-24375000D01*
X4250000Y-24375000D02*
X10250000Y-24375000D01*
X10250000Y-24375000D02*
X10250000Y-18375000D01*
%TO.C,U3*%
X-17700000Y21750000D02*
X17700000Y21750000D01*
X17700000Y21750000D02*
X17700000Y-11750000D01*
X17700000Y-11750000D02*
X-17700000Y-11750000D01*
X-17700000Y-11750000D02*
X-17700000Y21750000D01*
%TO.C,SW1*%
X3000000Y-12625000D02*
X-3000000Y-12625000D01*
X-3000000Y-12625000D02*
X-3000000Y-18625000D01*
X-3000000Y-18625000D02*
X3000000Y-18625000D01*
X3000000Y-18625000D02*
X3000000Y-12625000D01*
%TO.C,SW2*%
X-4250000Y-18375000D02*
X-10250000Y-18375000D01*
X-10250000Y-18375000D02*
X-10250000Y-24375000D01*
X-10250000Y-24375000D02*
X-4250000Y-24375000D01*
X-4250000Y-24375000D02*
X-4250000Y-18375000D01*
%TD*%
M02*
