%TF.GenerationSoftware,KiCad,Pcbnew,7.0.7-7.0.7~ubuntu22.04.1*%
%TF.CreationDate,2023-11-01T16:15:55-07:00*%
%TF.ProjectId,Wardriver-PCB,57617264-7269-4766-9572-2d5043422e6b,rev?*%
%TF.SameCoordinates,Original*%
%TF.FileFunction,Soldermask,Bot*%
%TF.FilePolarity,Negative*%
%FSLAX46Y46*%
G04 Gerber Fmt 4.6, Leading zero omitted, Abs format (unit mm)*
G04 Created by KiCad (PCBNEW 7.0.7-7.0.7~ubuntu22.04.1) date 2023-11-01 16:15:55*
%MOMM*%
%LPD*%
G01*
G04 APERTURE LIST*
G04 Aperture macros list*
%AMRoundRect*
0 Rectangle with rounded corners*
0 $1 Rounding radius*
0 $2 $3 $4 $5 $6 $7 $8 $9 X,Y pos of 4 corners*
0 Add a 4 corners polygon primitive as box body*
4,1,4,$2,$3,$4,$5,$6,$7,$8,$9,$2,$3,0*
0 Add four circle primitives for the rounded corners*
1,1,$1+$1,$2,$3*
1,1,$1+$1,$4,$5*
1,1,$1+$1,$6,$7*
1,1,$1+$1,$8,$9*
0 Add four rect primitives between the rounded corners*
20,1,$1+$1,$2,$3,$4,$5,0*
20,1,$1+$1,$4,$5,$6,$7,0*
20,1,$1+$1,$6,$7,$8,$9,0*
20,1,$1+$1,$8,$9,$2,$3,0*%
G04 Aperture macros list end*
%ADD10C,0.300000*%
%ADD11C,4.700000*%
%ADD12C,1.800000*%
%ADD13R,2.510000X1.000000*%
%ADD14C,2.050000*%
%ADD15C,2.250000*%
%ADD16RoundRect,0.500000X0.500000X1.250000X-0.500000X1.250000X-0.500000X-1.250000X0.500000X-1.250000X0*%
%ADD17RoundRect,0.150000X0.625000X-0.150000X0.625000X0.150000X-0.625000X0.150000X-0.625000X-0.150000X0*%
%ADD18RoundRect,0.250000X0.650000X-0.350000X0.650000X0.350000X-0.650000X0.350000X-0.650000X-0.350000X0*%
%ADD19C,1.000000*%
%ADD20R,0.700000X2.000000*%
%ADD21R,1.600000X1.900000*%
%ADD22R,1.700000X3.000000*%
%ADD23R,2.100000X2.000000*%
%ADD24O,2.000000X3.500000*%
%ADD25RoundRect,0.250000X-0.250000X-1.500000X0.250000X-1.500000X0.250000X1.500000X-0.250000X1.500000X0*%
%ADD26RoundRect,0.250001X-0.499999X-1.449999X0.499999X-1.449999X0.499999X1.449999X-0.499999X1.449999X0*%
%ADD27RoundRect,0.150000X-0.625000X0.150000X-0.625000X-0.150000X0.625000X-0.150000X0.625000X0.150000X0*%
%ADD28RoundRect,0.250000X-0.650000X0.350000X-0.650000X-0.350000X0.650000X-0.350000X0.650000X0.350000X0*%
%ADD29RoundRect,0.250000X-1.005000X0.250000X-1.005000X-0.250000X1.005000X-0.250000X1.005000X0.250000X0*%
G04 APERTURE END LIST*
D10*
G36*
X2904117Y26690000D02*
G01*
X2904117Y28649804D01*
X2551430Y28649804D01*
X2551430Y26690000D01*
X2904117Y26690000D01*
G37*
G36*
X2008234Y26130195D02*
G01*
X2008234Y26437941D01*
X1252547Y26437941D01*
X1229890Y26439992D01*
X1211073Y26446146D01*
X1193562Y26458946D01*
X1181581Y26477653D01*
X1175820Y26497756D01*
X1173900Y26521960D01*
X1173900Y26872205D01*
X1224214Y26872205D01*
X1233534Y26854253D01*
X1244639Y26836301D01*
X1257531Y26818349D01*
X1272208Y26800397D01*
X1285804Y26785437D01*
X1294556Y26776461D01*
X1310186Y26762060D01*
X1327462Y26748469D01*
X1346384Y26735689D01*
X1366951Y26723720D01*
X1384590Y26714729D01*
X1403283Y26706257D01*
X1423028Y26698304D01*
X1444002Y26691091D01*
X1466381Y26684840D01*
X1490164Y26679550D01*
X1515352Y26675223D01*
X1535164Y26672608D01*
X1555766Y26670534D01*
X1577159Y26669002D01*
X1599341Y26668010D01*
X1622313Y26667559D01*
X1630146Y26667529D01*
X1650321Y26667819D01*
X1670179Y26668689D01*
X1689720Y26670140D01*
X1718438Y26673402D01*
X1746444Y26677971D01*
X1773737Y26683844D01*
X1800317Y26691022D01*
X1826184Y26699506D01*
X1851338Y26709295D01*
X1875780Y26720389D01*
X1899510Y26732788D01*
X1914933Y26741779D01*
X1937263Y26756203D01*
X1958639Y26771632D01*
X1979063Y26788065D01*
X1998533Y26805503D01*
X2017050Y26823946D01*
X2034614Y26843394D01*
X2051225Y26863846D01*
X2066883Y26885302D01*
X2081587Y26907763D01*
X2095339Y26931229D01*
X2103977Y26947431D01*
X2115937Y26972500D01*
X2126720Y26998247D01*
X2136327Y27024673D01*
X2144758Y27051777D01*
X2152012Y27079559D01*
X2158090Y27108019D01*
X2161489Y27127370D01*
X2164364Y27147022D01*
X2166717Y27166975D01*
X2168547Y27187230D01*
X2169854Y27207787D01*
X2170638Y27228645D01*
X2170900Y27249804D01*
X2170900Y28078764D01*
X1817725Y28078764D01*
X1817725Y27278136D01*
X1817050Y27249422D01*
X1815028Y27222083D01*
X1811658Y27196116D01*
X1806940Y27171524D01*
X1800873Y27148306D01*
X1793459Y27126461D01*
X1784696Y27105991D01*
X1774585Y27086894D01*
X1763126Y27069171D01*
X1750319Y27052822D01*
X1741032Y27042686D01*
X1725986Y27028719D01*
X1709788Y27016125D01*
X1692440Y27004905D01*
X1673942Y26995059D01*
X1654293Y26986587D01*
X1633493Y26979488D01*
X1611543Y26973764D01*
X1588442Y26969413D01*
X1564190Y26966437D01*
X1538788Y26964834D01*
X1521214Y26964528D01*
X1501167Y26964948D01*
X1472170Y26967152D01*
X1444460Y26971245D01*
X1418039Y26977227D01*
X1392906Y26985098D01*
X1369061Y26994858D01*
X1346504Y27006508D01*
X1325235Y27020046D01*
X1305253Y27035473D01*
X1286560Y27052790D01*
X1269155Y27071995D01*
X1253180Y27092988D01*
X1238776Y27115484D01*
X1225943Y27139482D01*
X1214681Y27164983D01*
X1204991Y27191987D01*
X1199404Y27210824D01*
X1194516Y27230329D01*
X1190325Y27250502D01*
X1186833Y27271343D01*
X1184040Y27292851D01*
X1181945Y27315028D01*
X1180548Y27337872D01*
X1179850Y27361384D01*
X1179762Y27373391D01*
X1179762Y28078764D01*
X826587Y28078764D01*
X826587Y26443803D01*
X827326Y26417477D01*
X829541Y26392174D01*
X833233Y26367892D01*
X838402Y26344632D01*
X845048Y26322394D01*
X853171Y26301178D01*
X862771Y26280984D01*
X873848Y26261811D01*
X886402Y26243660D01*
X900432Y26226532D01*
X910607Y26215680D01*
X926854Y26200403D01*
X944089Y26186628D01*
X962311Y26174357D01*
X981521Y26163587D01*
X1001718Y26154321D01*
X1022903Y26146557D01*
X1045075Y26140296D01*
X1068235Y26135538D01*
X1092382Y26132282D01*
X1117517Y26130529D01*
X1134822Y26130195D01*
X2008234Y26130195D01*
G37*
G36*
X436287Y26690000D02*
G01*
X436287Y28078764D01*
X88974Y28078764D01*
X88974Y27896559D01*
X38660Y27896559D01*
X29317Y27914755D01*
X18143Y27932707D01*
X5137Y27950415D01*
X-9699Y27967878D01*
X-26369Y27985097D01*
X-44870Y28002072D01*
X-59949Y28014643D01*
X-76057Y28027076D01*
X-87369Y28035289D01*
X-105517Y28047074D01*
X-125339Y28057700D01*
X-146836Y28067167D01*
X-170007Y28075475D01*
X-194852Y28082623D01*
X-221372Y28088612D01*
X-249566Y28093442D01*
X-269293Y28096018D01*
X-289763Y28098079D01*
X-310978Y28099625D01*
X-332937Y28100655D01*
X-355640Y28101170D01*
X-367271Y28101235D01*
X-387444Y28100945D01*
X-407296Y28100075D01*
X-426828Y28098624D01*
X-455525Y28095361D01*
X-483500Y28090793D01*
X-510754Y28084920D01*
X-537287Y28077742D01*
X-563098Y28069258D01*
X-588189Y28059469D01*
X-612558Y28048375D01*
X-636205Y28035976D01*
X-651570Y28026985D01*
X-673899Y28012569D01*
X-695276Y27997166D01*
X-715699Y27980776D01*
X-735169Y27963398D01*
X-753687Y27945032D01*
X-771251Y27925679D01*
X-787861Y27905339D01*
X-803519Y27884011D01*
X-818224Y27861696D01*
X-831975Y27838393D01*
X-840614Y27822309D01*
X-852661Y27797564D01*
X-863523Y27772054D01*
X-873200Y27745781D01*
X-881692Y27718743D01*
X-888999Y27690941D01*
X-895122Y27662374D01*
X-898545Y27642905D01*
X-901442Y27623097D01*
X-903811Y27602949D01*
X-905655Y27582461D01*
X-906971Y27561634D01*
X-907761Y27540466D01*
X-908025Y27518960D01*
X-908025Y26690000D01*
X-554849Y26690000D01*
X-554849Y27490628D01*
X-554171Y27519337D01*
X-552136Y27546664D01*
X-548744Y27572609D01*
X-543996Y27597171D01*
X-537891Y27620351D01*
X-530429Y27642148D01*
X-521610Y27662563D01*
X-511435Y27681595D01*
X-499903Y27699245D01*
X-487015Y27715512D01*
X-477669Y27725589D01*
X-462709Y27739644D01*
X-446591Y27752317D01*
X-429313Y27763607D01*
X-410876Y27773514D01*
X-391280Y27782039D01*
X-370524Y27789182D01*
X-348610Y27794942D01*
X-325536Y27799320D01*
X-301303Y27802315D01*
X-275911Y27803928D01*
X-258339Y27804235D01*
X-238290Y27803814D01*
X-209283Y27801600D01*
X-181555Y27797488D01*
X-155106Y27791479D01*
X-129938Y27783572D01*
X-106048Y27773768D01*
X-83438Y27762065D01*
X-62107Y27748465D01*
X-42056Y27732968D01*
X-23284Y27715573D01*
X-5792Y27696280D01*
X10183Y27675374D01*
X24587Y27652957D01*
X37420Y27629029D01*
X48681Y27603590D01*
X58371Y27576639D01*
X63958Y27557832D01*
X68847Y27538354D01*
X73037Y27518204D01*
X76529Y27497382D01*
X79323Y27475889D01*
X81418Y27453724D01*
X82815Y27430887D01*
X83513Y27407379D01*
X83600Y27395373D01*
X83600Y26690000D01*
X436287Y26690000D01*
G37*
G36*
X-2329030Y27919030D02*
G01*
X-2278227Y27919030D01*
X-2268906Y27934750D01*
X-2256083Y27953206D01*
X-2241474Y27971215D01*
X-2227936Y27985881D01*
X-2213157Y28000238D01*
X-2197138Y28014284D01*
X-2193779Y28017078D01*
X-2176038Y28030587D01*
X-2156723Y28043334D01*
X-2135833Y28055317D01*
X-2117988Y28064354D01*
X-2099136Y28072903D01*
X-2079276Y28080963D01*
X-2058408Y28088534D01*
X-2047624Y28092083D01*
X-2025092Y28098495D01*
X-2001279Y28103990D01*
X-1976183Y28108570D01*
X-1956519Y28111403D01*
X-1936134Y28113722D01*
X-1915028Y28115525D01*
X-1893201Y28116813D01*
X-1870652Y28117586D01*
X-1847383Y28117843D01*
X-1826475Y28117521D01*
X-1805762Y28116553D01*
X-1785244Y28114941D01*
X-1764920Y28112684D01*
X-1744791Y28109781D01*
X-1724857Y28106234D01*
X-1705117Y28102042D01*
X-1685572Y28097205D01*
X-1666221Y28091723D01*
X-1647065Y28085595D01*
X-1628104Y28078823D01*
X-1609337Y28071407D01*
X-1590765Y28063345D01*
X-1572388Y28054638D01*
X-1554205Y28045286D01*
X-1536217Y28035289D01*
X-1518605Y28024668D01*
X-1501428Y28013445D01*
X-1484686Y28001618D01*
X-1468379Y27989188D01*
X-1452507Y27976156D01*
X-1437070Y27962520D01*
X-1422068Y27948281D01*
X-1407501Y27933440D01*
X-1393370Y27917995D01*
X-1379673Y27901948D01*
X-1366411Y27885297D01*
X-1353585Y27868044D01*
X-1341193Y27850187D01*
X-1329237Y27831728D01*
X-1317715Y27812666D01*
X-1306629Y27793000D01*
X-1296159Y27772829D01*
X-1286364Y27752128D01*
X-1277245Y27730896D01*
X-1268802Y27709133D01*
X-1261034Y27686840D01*
X-1253941Y27664017D01*
X-1247524Y27640663D01*
X-1241782Y27616779D01*
X-1236716Y27592364D01*
X-1232326Y27567419D01*
X-1228611Y27541943D01*
X-1225571Y27515937D01*
X-1223207Y27489401D01*
X-1221518Y27462334D01*
X-1220505Y27434736D01*
X-1220167Y27406608D01*
X-1220167Y27362156D01*
X-1220505Y27334026D01*
X-1221518Y27306423D01*
X-1223207Y27279346D01*
X-1225571Y27252796D01*
X-1228611Y27226773D01*
X-1232326Y27201276D01*
X-1236716Y27176306D01*
X-1241782Y27151863D01*
X-1247524Y27127946D01*
X-1253941Y27104556D01*
X-1261034Y27081693D01*
X-1268802Y27059356D01*
X-1277245Y27037546D01*
X-1286364Y27016262D01*
X-1296159Y26995505D01*
X-1306629Y26975275D01*
X-1317721Y26955669D01*
X-1329260Y26936662D01*
X-1341245Y26918254D01*
X-1353676Y26900445D01*
X-1366554Y26883236D01*
X-1379879Y26866625D01*
X-1393650Y26850614D01*
X-1407868Y26835202D01*
X-1422532Y26820389D01*
X-1437642Y26806175D01*
X-1453199Y26792561D01*
X-1469203Y26779545D01*
X-1485653Y26767129D01*
X-1502550Y26755312D01*
X-1519893Y26744094D01*
X-1537683Y26733475D01*
X-1555780Y26723478D01*
X-1574044Y26714126D01*
X-1592477Y26705419D01*
X-1611078Y26697357D01*
X-1629846Y26689940D01*
X-1648783Y26683168D01*
X-1667887Y26677041D01*
X-1687159Y26671559D01*
X-1706600Y26666722D01*
X-1726208Y26662530D01*
X-1745984Y26658983D01*
X-1765928Y26656080D01*
X-1786039Y26653823D01*
X-1806319Y26652211D01*
X-1826767Y26651243D01*
X-1847383Y26650921D01*
X-1859170Y26650983D01*
X-1882213Y26651483D01*
X-1904546Y26652483D01*
X-1926169Y26653983D01*
X-1947082Y26655982D01*
X-1967286Y26658482D01*
X-1996260Y26663169D01*
X-2023637Y26668981D01*
X-2049417Y26675917D01*
X-2073600Y26683979D01*
X-2096186Y26693165D01*
X-2117175Y26703476D01*
X-2136566Y26714912D01*
X-2154796Y26727127D01*
X-2172115Y26739590D01*
X-2188524Y26752303D01*
X-2204023Y26765264D01*
X-2223272Y26782934D01*
X-2240904Y26801046D01*
X-2256917Y26819601D01*
X-2271312Y26838598D01*
X-2284089Y26858039D01*
X-2334403Y26858039D01*
X-2334403Y26690000D01*
X-2681716Y26690000D01*
X-2681716Y27370460D01*
X-2334403Y27370460D01*
X-2333975Y27345620D01*
X-2332693Y27321535D01*
X-2330556Y27298206D01*
X-2327564Y27275633D01*
X-2323717Y27253815D01*
X-2319016Y27232753D01*
X-2313459Y27212446D01*
X-2307048Y27192896D01*
X-2299781Y27174100D01*
X-2291660Y27156061D01*
X-2277876Y27130418D01*
X-2262168Y27106476D01*
X-2244537Y27084233D01*
X-2224982Y27063691D01*
X-2218121Y27057230D01*
X-2196909Y27039076D01*
X-2174753Y27022768D01*
X-2151652Y27008307D01*
X-2127606Y26995692D01*
X-2102616Y26984923D01*
X-2076682Y26976000D01*
X-2049803Y26968923D01*
X-2021979Y26963692D01*
X-1993211Y26960308D01*
X-1973507Y26959077D01*
X-1953384Y26958667D01*
X-1933318Y26959077D01*
X-1903992Y26961231D01*
X-1875593Y26965231D01*
X-1848121Y26971077D01*
X-1821577Y26978769D01*
X-1795960Y26988307D01*
X-1771270Y26999692D01*
X-1747508Y27012922D01*
X-1724673Y27027999D01*
X-1702766Y27044922D01*
X-1681786Y27063691D01*
X-1662319Y27084233D01*
X-1644766Y27106476D01*
X-1629128Y27130418D01*
X-1615405Y27156061D01*
X-1607321Y27174100D01*
X-1600087Y27192896D01*
X-1593704Y27212446D01*
X-1588172Y27232753D01*
X-1583492Y27253815D01*
X-1579662Y27275633D01*
X-1576683Y27298206D01*
X-1574556Y27321535D01*
X-1573279Y27345620D01*
X-1572854Y27370460D01*
X-1572854Y27398304D01*
X-1573279Y27423144D01*
X-1574556Y27447229D01*
X-1576683Y27470558D01*
X-1579662Y27493131D01*
X-1583492Y27514949D01*
X-1588172Y27536011D01*
X-1593704Y27556317D01*
X-1600087Y27575868D01*
X-1607321Y27594664D01*
X-1615405Y27612703D01*
X-1629128Y27638346D01*
X-1644766Y27662288D01*
X-1662319Y27684531D01*
X-1681786Y27705073D01*
X-1688676Y27711534D01*
X-1709965Y27729688D01*
X-1732182Y27745995D01*
X-1755326Y27760457D01*
X-1779397Y27773072D01*
X-1804396Y27783841D01*
X-1830322Y27792764D01*
X-1857175Y27799841D01*
X-1884956Y27805072D01*
X-1913664Y27808456D01*
X-1933318Y27809687D01*
X-1953384Y27810097D01*
X-1963677Y27809995D01*
X-1983922Y27809174D01*
X-2003714Y27807533D01*
X-2032549Y27803533D01*
X-2060363Y27797687D01*
X-2087155Y27789995D01*
X-2112925Y27780457D01*
X-2137673Y27769072D01*
X-2161399Y27755841D01*
X-2184104Y27740765D01*
X-2205787Y27723842D01*
X-2226448Y27705073D01*
X-2245740Y27684531D01*
X-2263135Y27662288D01*
X-2278633Y27638346D01*
X-2292233Y27612703D01*
X-2300245Y27594664D01*
X-2307414Y27575868D01*
X-2313740Y27556317D01*
X-2319222Y27536011D01*
X-2323860Y27514949D01*
X-2327656Y27493131D01*
X-2330608Y27470558D01*
X-2332716Y27447229D01*
X-2333981Y27423144D01*
X-2334403Y27398304D01*
X-2334403Y27370460D01*
X-2681716Y27370460D01*
X-2681716Y28649804D01*
X-2329030Y28649804D01*
X-2329030Y27919030D01*
G37*
G36*
X-3072993Y26690000D02*
G01*
X-3072993Y28649804D01*
X-3425680Y28649804D01*
X-3425680Y26690000D01*
X-3072993Y26690000D01*
G37*
G36*
X-4372151Y28117629D02*
G01*
X-4350383Y28116988D01*
X-4329043Y28115920D01*
X-4308129Y28114424D01*
X-4287643Y28112500D01*
X-4267585Y28110150D01*
X-4247954Y28107371D01*
X-4219309Y28102402D01*
X-4191625Y28096472D01*
X-4164904Y28089580D01*
X-4139144Y28081726D01*
X-4114345Y28072910D01*
X-4090509Y28063133D01*
X-4075135Y28056221D01*
X-4052811Y28045354D01*
X-4031372Y28033885D01*
X-4010817Y28021815D01*
X-3991146Y28009144D01*
X-3972360Y27995872D01*
X-3954458Y27981998D01*
X-3937441Y27967524D01*
X-3921308Y27952449D01*
X-3906059Y27936772D01*
X-3891695Y27920495D01*
X-3882572Y27909432D01*
X-3869482Y27892564D01*
X-3857104Y27875371D01*
X-3845439Y27857851D01*
X-3834487Y27840005D01*
X-3824247Y27821833D01*
X-3814721Y27803335D01*
X-3805906Y27784510D01*
X-3797805Y27765359D01*
X-3790416Y27745881D01*
X-3783740Y27726078D01*
X-4108583Y27616657D01*
X-4114170Y27639921D01*
X-4121161Y27662086D01*
X-4129557Y27683152D01*
X-4139357Y27703119D01*
X-4150562Y27721987D01*
X-4163171Y27739755D01*
X-4177185Y27756425D01*
X-4192602Y27771995D01*
X-4196698Y27775722D01*
X-4214398Y27789445D01*
X-4234205Y27801276D01*
X-4256118Y27811213D01*
X-4280138Y27819258D01*
X-4299535Y27824050D01*
X-4320117Y27827776D01*
X-4341884Y27830438D01*
X-4364837Y27832035D01*
X-4388974Y27832568D01*
X-4397298Y27832506D01*
X-4421420Y27831583D01*
X-4444262Y27829552D01*
X-4465824Y27826414D01*
X-4486107Y27822168D01*
X-4505111Y27816814D01*
X-4528459Y27807952D01*
X-4549533Y27797122D01*
X-4568332Y27784322D01*
X-4584856Y27769553D01*
X-4599282Y27753250D01*
X-4611784Y27735847D01*
X-4622363Y27717346D01*
X-4631018Y27697745D01*
X-4637750Y27677046D01*
X-4642559Y27655247D01*
X-4645444Y27632349D01*
X-4646406Y27608353D01*
X-4646406Y27530195D01*
X-4265387Y27530195D01*
X-4245924Y27530002D01*
X-4217244Y27528990D01*
X-4189183Y27527111D01*
X-4161740Y27524365D01*
X-4134915Y27520751D01*
X-4108709Y27516271D01*
X-4083121Y27510923D01*
X-4058151Y27504707D01*
X-4033799Y27497625D01*
X-4010065Y27489675D01*
X-3986950Y27480858D01*
X-3971952Y27474565D01*
X-3950228Y27464424D01*
X-3929431Y27453442D01*
X-3909561Y27441618D01*
X-3890619Y27428952D01*
X-3872604Y27415446D01*
X-3855517Y27401097D01*
X-3839357Y27385907D01*
X-3824124Y27369876D01*
X-3809819Y27353003D01*
X-3796441Y27335289D01*
X-3788159Y27323020D01*
X-3776739Y27303943D01*
X-3766521Y27284059D01*
X-3757505Y27263368D01*
X-3749691Y27241870D01*
X-3743079Y27219565D01*
X-3737670Y27196452D01*
X-3733462Y27172533D01*
X-3730457Y27147806D01*
X-3728654Y27122272D01*
X-3728053Y27095931D01*
X-3728320Y27078269D01*
X-3729722Y27052406D01*
X-3732327Y27027299D01*
X-3736134Y27002947D01*
X-3741142Y26979351D01*
X-3747353Y26956510D01*
X-3754767Y26934426D01*
X-3763382Y26913096D01*
X-3773199Y26892523D01*
X-3784219Y26872705D01*
X-3796441Y26853642D01*
X-3805239Y26841432D01*
X-3819145Y26823811D01*
X-3833901Y26807022D01*
X-3849508Y26791067D01*
X-3865964Y26775944D01*
X-3883270Y26761655D01*
X-3901427Y26748198D01*
X-3920433Y26735574D01*
X-3940290Y26723783D01*
X-3960997Y26712825D01*
X-3982554Y26702700D01*
X-3997389Y26696430D01*
X-4020094Y26687783D01*
X-4043340Y26680047D01*
X-4067126Y26673220D01*
X-4091453Y26667304D01*
X-4116322Y26662298D01*
X-4141731Y26658202D01*
X-4167682Y26655016D01*
X-4194173Y26652741D01*
X-4221205Y26651376D01*
X-4248778Y26650921D01*
X-4275531Y26651290D01*
X-4301203Y26652398D01*
X-4325792Y26654244D01*
X-4349299Y26656828D01*
X-4371725Y26660151D01*
X-4393069Y26664213D01*
X-4413330Y26669013D01*
X-4432510Y26674551D01*
X-4456400Y26683084D01*
X-4478367Y26692930D01*
X-4483574Y26695568D01*
X-4503525Y26706357D01*
X-4522073Y26717527D01*
X-4539215Y26729079D01*
X-4554954Y26741012D01*
X-4572652Y26756466D01*
X-4588156Y26772516D01*
X-4601465Y26789162D01*
X-4612997Y26805746D01*
X-4625042Y26824293D01*
X-4635128Y26841364D01*
X-4644421Y26859412D01*
X-4651779Y26877578D01*
X-4705024Y26877578D01*
X-4705024Y26874647D01*
X-4706070Y26854169D01*
X-4710318Y26830052D01*
X-4717833Y26807581D01*
X-4728617Y26786756D01*
X-4742668Y26767577D01*
X-4756261Y26753419D01*
X-4771946Y26740314D01*
X-4789372Y26728521D01*
X-4807942Y26718301D01*
X-4827657Y26709653D01*
X-4848517Y26702578D01*
X-4870521Y26697075D01*
X-4893671Y26693144D01*
X-4917966Y26690786D01*
X-4943405Y26690000D01*
X-5178367Y26690000D01*
X-5178367Y26981137D01*
X-5066503Y26981137D01*
X-5043846Y26983188D01*
X-5021727Y26991065D01*
X-5005138Y27004850D01*
X-4994078Y27024542D01*
X-4989086Y27045464D01*
X-4987857Y27065157D01*
X-4987857Y27266901D01*
X-4646406Y27266901D01*
X-4646406Y27238569D01*
X-4646039Y27221682D01*
X-4644116Y27197138D01*
X-4640544Y27173539D01*
X-4635323Y27150885D01*
X-4628454Y27129175D01*
X-4619936Y27108409D01*
X-4609769Y27088589D01*
X-4597954Y27069712D01*
X-4584490Y27051780D01*
X-4569378Y27034793D01*
X-4552616Y27018750D01*
X-4540679Y27008754D01*
X-4521972Y26994968D01*
X-4502302Y26982633D01*
X-4481671Y26971749D01*
X-4460079Y26962317D01*
X-4437525Y26954336D01*
X-4414009Y26947805D01*
X-4389531Y26942726D01*
X-4364091Y26939099D01*
X-4337690Y26936922D01*
X-4310327Y26936196D01*
X-4289817Y26936613D01*
X-4263912Y26938464D01*
X-4239655Y26941795D01*
X-4217048Y26946608D01*
X-4196089Y26952901D01*
X-4176778Y26960674D01*
X-4159116Y26969929D01*
X-4139357Y26983579D01*
X-4132259Y26989672D01*
X-4116517Y27005856D01*
X-4103637Y27023399D01*
X-4093619Y27042301D01*
X-4086464Y27062563D01*
X-4082170Y27084185D01*
X-4080739Y27107166D01*
X-4080957Y27116499D01*
X-4083404Y27138679D01*
X-4088570Y27159213D01*
X-4096456Y27178101D01*
X-4107060Y27195344D01*
X-4120384Y27210940D01*
X-4136427Y27224891D01*
X-4143613Y27229978D01*
X-4163014Y27241260D01*
X-4184466Y27250491D01*
X-4203105Y27256399D01*
X-4223056Y27260993D01*
X-4244321Y27264275D01*
X-4266898Y27266245D01*
X-4290788Y27266901D01*
X-4646406Y27266901D01*
X-4987857Y27266901D01*
X-4987857Y27583440D01*
X-4987233Y27615502D01*
X-4985361Y27646600D01*
X-4982241Y27676731D01*
X-4977874Y27705897D01*
X-4972258Y27734098D01*
X-4965394Y27761333D01*
X-4957283Y27787602D01*
X-4947923Y27812906D01*
X-4937316Y27837244D01*
X-4925461Y27860617D01*
X-4912357Y27883025D01*
X-4898006Y27904467D01*
X-4882407Y27924943D01*
X-4865560Y27944454D01*
X-4847465Y27962999D01*
X-4828122Y27980579D01*
X-4807766Y27997201D01*
X-4786509Y28012750D01*
X-4764352Y28027227D01*
X-4741294Y28040632D01*
X-4717335Y28052964D01*
X-4692476Y28064224D01*
X-4666716Y28074412D01*
X-4640055Y28083527D01*
X-4612494Y28091570D01*
X-4584032Y28098540D01*
X-4554670Y28104438D01*
X-4524406Y28109264D01*
X-4493242Y28113017D01*
X-4461178Y28115698D01*
X-4428213Y28117307D01*
X-4394347Y28117843D01*
X-4372151Y28117629D01*
G37*
G36*
X-5435310Y26690000D02*
G01*
X-5782623Y26690000D01*
X-5782623Y26858039D01*
X-5832937Y26858039D01*
X-5835981Y26853137D01*
X-5849185Y26833807D01*
X-5864038Y26814921D01*
X-5880540Y26796477D01*
X-5898690Y26778475D01*
X-5913385Y26765264D01*
X-5929007Y26752303D01*
X-5945556Y26739590D01*
X-5963033Y26727127D01*
X-5981437Y26714912D01*
X-5994355Y26707163D01*
X-6015006Y26696477D01*
X-6037185Y26686916D01*
X-6060893Y26678480D01*
X-6086129Y26671168D01*
X-6112894Y26664981D01*
X-6141187Y26659919D01*
X-6160898Y26657170D01*
X-6181289Y26654920D01*
X-6202359Y26653170D01*
X-6224108Y26651921D01*
X-6246536Y26651171D01*
X-6269644Y26650921D01*
X-6290549Y26651243D01*
X-6311256Y26652211D01*
X-6331765Y26653823D01*
X-6352076Y26656080D01*
X-6372187Y26658983D01*
X-6392101Y26662530D01*
X-6411816Y26666722D01*
X-6431332Y26671559D01*
X-6450650Y26677041D01*
X-6469770Y26683168D01*
X-6488691Y26689940D01*
X-6507414Y26697357D01*
X-6525938Y26705419D01*
X-6544264Y26714126D01*
X-6562392Y26723478D01*
X-6580321Y26733475D01*
X-6597990Y26744094D01*
X-6615217Y26755312D01*
X-6632001Y26767129D01*
X-6648342Y26779545D01*
X-6664241Y26792561D01*
X-6679697Y26806175D01*
X-6694710Y26820389D01*
X-6709281Y26835202D01*
X-6723409Y26850614D01*
X-6737094Y26866625D01*
X-6750336Y26883236D01*
X-6763136Y26900445D01*
X-6775493Y26918254D01*
X-6787408Y26936662D01*
X-6798880Y26955669D01*
X-6809909Y26975275D01*
X-6820438Y26995505D01*
X-6830288Y27016262D01*
X-6839458Y27037546D01*
X-6847950Y27059356D01*
X-6855762Y27081693D01*
X-6862894Y27104556D01*
X-6869348Y27127946D01*
X-6875122Y27151863D01*
X-6880216Y27176306D01*
X-6884632Y27201276D01*
X-6888368Y27226773D01*
X-6891425Y27252796D01*
X-6893802Y27279346D01*
X-6895501Y27306423D01*
X-6896520Y27334026D01*
X-6896859Y27362156D01*
X-6896859Y27370460D01*
X-6544173Y27370460D01*
X-6543745Y27345620D01*
X-6542463Y27321535D01*
X-6540326Y27298206D01*
X-6537334Y27275633D01*
X-6533487Y27253815D01*
X-6528785Y27232753D01*
X-6523229Y27212446D01*
X-6516817Y27192896D01*
X-6509551Y27174100D01*
X-6501430Y27156061D01*
X-6487646Y27130418D01*
X-6471938Y27106476D01*
X-6454306Y27084233D01*
X-6434752Y27063691D01*
X-6427892Y27057230D01*
X-6406687Y27039076D01*
X-6384546Y27022768D01*
X-6361469Y27008307D01*
X-6337457Y26995692D01*
X-6312508Y26984923D01*
X-6286624Y26976000D01*
X-6259803Y26968923D01*
X-6232047Y26963692D01*
X-6203355Y26960308D01*
X-6183706Y26959077D01*
X-6163642Y26958667D01*
X-6153528Y26958769D01*
X-6133610Y26959590D01*
X-6114109Y26961231D01*
X-6085637Y26965231D01*
X-6058101Y26971077D01*
X-6031501Y26978769D01*
X-6005837Y26988307D01*
X-5981109Y26999692D01*
X-5957317Y27012922D01*
X-5934460Y27027999D01*
X-5912540Y27044922D01*
X-5891556Y27063691D01*
X-5872088Y27084233D01*
X-5854536Y27106476D01*
X-5838898Y27130418D01*
X-5825175Y27156061D01*
X-5817090Y27174100D01*
X-5809856Y27192896D01*
X-5803474Y27212446D01*
X-5797942Y27232753D01*
X-5793261Y27253815D01*
X-5789432Y27275633D01*
X-5786453Y27298206D01*
X-5784325Y27321535D01*
X-5783049Y27345620D01*
X-5782623Y27370460D01*
X-5782623Y27398304D01*
X-5783049Y27423144D01*
X-5784325Y27447229D01*
X-5786453Y27470558D01*
X-5789432Y27493131D01*
X-5793261Y27514949D01*
X-5797942Y27536011D01*
X-5803474Y27556317D01*
X-5809856Y27575868D01*
X-5817090Y27594664D01*
X-5825175Y27612703D01*
X-5838898Y27638346D01*
X-5854536Y27662288D01*
X-5872088Y27684531D01*
X-5891556Y27705073D01*
X-5898446Y27711534D01*
X-5919743Y27729688D01*
X-5941975Y27745995D01*
X-5965143Y27760457D01*
X-5989248Y27773072D01*
X-6014288Y27783841D01*
X-6040264Y27792764D01*
X-6067176Y27799841D01*
X-6095024Y27805072D01*
X-6123808Y27808456D01*
X-6143517Y27809687D01*
X-6163642Y27810097D01*
X-6173905Y27809995D01*
X-6194093Y27809174D01*
X-6213831Y27807533D01*
X-6242594Y27803533D01*
X-6270343Y27797687D01*
X-6297079Y27789995D01*
X-6322802Y27780457D01*
X-6347511Y27769072D01*
X-6371208Y27755841D01*
X-6393891Y27740765D01*
X-6415561Y27723842D01*
X-6436217Y27705073D01*
X-6455510Y27684531D01*
X-6472905Y27662288D01*
X-6488403Y27638346D01*
X-6502003Y27612703D01*
X-6510015Y27594664D01*
X-6517184Y27575868D01*
X-6523509Y27556317D01*
X-6528991Y27536011D01*
X-6533630Y27514949D01*
X-6537425Y27493131D01*
X-6540377Y27470558D01*
X-6542486Y27447229D01*
X-6543751Y27423144D01*
X-6544173Y27398304D01*
X-6544173Y27370460D01*
X-6896859Y27370460D01*
X-6896859Y27406608D01*
X-6896520Y27434736D01*
X-6895501Y27462334D01*
X-6893802Y27489401D01*
X-6891425Y27515937D01*
X-6888368Y27541943D01*
X-6884632Y27567419D01*
X-6880216Y27592364D01*
X-6875122Y27616779D01*
X-6869348Y27640663D01*
X-6862894Y27664017D01*
X-6855762Y27686840D01*
X-6847950Y27709133D01*
X-6839458Y27730896D01*
X-6830288Y27752128D01*
X-6820438Y27772829D01*
X-6809909Y27793000D01*
X-6798880Y27812666D01*
X-6787408Y27831728D01*
X-6775493Y27850187D01*
X-6763136Y27868044D01*
X-6750336Y27885297D01*
X-6737094Y27901948D01*
X-6723409Y27917995D01*
X-6709281Y27933440D01*
X-6694710Y27948281D01*
X-6679697Y27962520D01*
X-6664241Y27976156D01*
X-6648342Y27989188D01*
X-6632001Y28001618D01*
X-6615217Y28013445D01*
X-6597990Y28024668D01*
X-6580321Y28035289D01*
X-6562392Y28045286D01*
X-6544264Y28054638D01*
X-6525938Y28063345D01*
X-6507414Y28071407D01*
X-6488691Y28078823D01*
X-6469770Y28085595D01*
X-6450650Y28091723D01*
X-6431332Y28097205D01*
X-6411816Y28102042D01*
X-6392101Y28106234D01*
X-6372187Y28109781D01*
X-6352076Y28112684D01*
X-6331765Y28114941D01*
X-6311256Y28116553D01*
X-6290549Y28117521D01*
X-6269644Y28117843D01*
X-6261806Y28117815D01*
X-6238770Y28117385D01*
X-6216446Y28116441D01*
X-6194835Y28114981D01*
X-6173936Y28113006D01*
X-6153750Y28110516D01*
X-6127945Y28106394D01*
X-6103406Y28101357D01*
X-6080134Y28095403D01*
X-6058129Y28088534D01*
X-6052849Y28086687D01*
X-6032379Y28078993D01*
X-6012946Y28070811D01*
X-5994552Y28062141D01*
X-5977195Y28052981D01*
X-5956959Y28040846D01*
X-5938345Y28027947D01*
X-5921353Y28014284D01*
X-5905685Y28000238D01*
X-5891042Y27985881D01*
X-5877425Y27971215D01*
X-5864834Y27956238D01*
X-5851078Y27937857D01*
X-5838799Y27919030D01*
X-5787997Y27919030D01*
X-5787997Y28649804D01*
X-5435310Y28649804D01*
X-5435310Y26690000D01*
G37*
G36*
X-7798115Y26650921D02*
G01*
X-7764547Y26651379D01*
X-7731742Y26652752D01*
X-7699701Y26655042D01*
X-7668422Y26658248D01*
X-7637907Y26662370D01*
X-7608155Y26667407D01*
X-7579167Y26673360D01*
X-7550942Y26680230D01*
X-7523480Y26688015D01*
X-7496781Y26696716D01*
X-7470845Y26706333D01*
X-7445673Y26716866D01*
X-7421264Y26728315D01*
X-7397618Y26740680D01*
X-7374736Y26753961D01*
X-7352616Y26768157D01*
X-7331476Y26783266D01*
X-7311408Y26799161D01*
X-7292412Y26815842D01*
X-7274489Y26833309D01*
X-7257638Y26851562D01*
X-7241860Y26870602D01*
X-7227154Y26890427D01*
X-7213520Y26911039D01*
X-7200959Y26932437D01*
X-7189470Y26954621D01*
X-7179053Y26977592D01*
X-7169709Y27001348D01*
X-7161437Y27025891D01*
X-7154238Y27051219D01*
X-7148111Y27077334D01*
X-7143056Y27104235D01*
X-7467899Y27188255D01*
X-7473196Y27164479D01*
X-7479317Y27142001D01*
X-7486263Y27120821D01*
X-7494033Y27100938D01*
X-7502627Y27082353D01*
X-7512046Y27065065D01*
X-7524978Y27045280D01*
X-7533356Y27034382D01*
X-7548395Y27017614D01*
X-7564507Y27002420D01*
X-7581692Y26988801D01*
X-7599950Y26976756D01*
X-7619282Y26966285D01*
X-7639688Y26957388D01*
X-7648150Y26954270D01*
X-7669972Y26947515D01*
X-7692391Y26941905D01*
X-7715405Y26937440D01*
X-7739016Y26934120D01*
X-7763223Y26931945D01*
X-7783019Y26931029D01*
X-7798115Y26930823D01*
X-7820630Y26931205D01*
X-7842010Y26932351D01*
X-7862258Y26934262D01*
X-7887491Y26937998D01*
X-7910709Y26943093D01*
X-7931913Y26949546D01*
X-7951101Y26957358D01*
X-7972253Y26969034D01*
X-7979832Y26974298D01*
X-7996860Y26988385D01*
X-8011002Y27003474D01*
X-8022257Y27019564D01*
X-8031954Y27040195D01*
X-8037496Y27062269D01*
X-8038939Y27081765D01*
X-8036964Y27104915D01*
X-8031039Y27126004D01*
X-8021164Y27145032D01*
X-8007340Y27161999D01*
X-7989565Y27176905D01*
X-7982763Y27181416D01*
X-7963715Y27192085D01*
X-7941375Y27202110D01*
X-7921134Y27209666D01*
X-7898785Y27216810D01*
X-7874331Y27223542D01*
X-7854607Y27228321D01*
X-7833698Y27232867D01*
X-7811605Y27237182D01*
X-7803977Y27238569D01*
X-7725331Y27252735D01*
X-7698256Y27258140D01*
X-7671619Y27263915D01*
X-7645419Y27270059D01*
X-7619658Y27276572D01*
X-7594334Y27283454D01*
X-7569449Y27290705D01*
X-7545001Y27298326D01*
X-7520991Y27306316D01*
X-7497419Y27314675D01*
X-7474286Y27323403D01*
X-7459106Y27329427D01*
X-7436991Y27339004D01*
X-7415709Y27349234D01*
X-7395260Y27360116D01*
X-7375644Y27371651D01*
X-7356861Y27383838D01*
X-7338910Y27396678D01*
X-7321793Y27410171D01*
X-7305508Y27424316D01*
X-7290056Y27439113D01*
X-7275438Y27454564D01*
X-7266154Y27465226D01*
X-7253147Y27481972D01*
X-7241419Y27499602D01*
X-7230971Y27518116D01*
X-7221801Y27537515D01*
X-7213912Y27557798D01*
X-7207301Y27578965D01*
X-7201971Y27601017D01*
X-7197919Y27623954D01*
X-7195147Y27647774D01*
X-7193654Y27672480D01*
X-7193370Y27689441D01*
X-7193960Y27714953D01*
X-7195729Y27739709D01*
X-7198677Y27763710D01*
X-7202804Y27786955D01*
X-7208110Y27809445D01*
X-7214596Y27831178D01*
X-7222261Y27852157D01*
X-7231106Y27872379D01*
X-7241129Y27891846D01*
X-7252332Y27910557D01*
X-7264714Y27928513D01*
X-7278275Y27945713D01*
X-7293015Y27962157D01*
X-7308935Y27977846D01*
X-7326034Y27992779D01*
X-7344312Y28006957D01*
X-7363611Y28020385D01*
X-7383650Y28032946D01*
X-7404430Y28044641D01*
X-7425950Y28055470D01*
X-7448211Y28065432D01*
X-7471212Y28074528D01*
X-7494953Y28082758D01*
X-7519434Y28090122D01*
X-7544656Y28096619D01*
X-7570618Y28102250D01*
X-7597321Y28107014D01*
X-7624764Y28110913D01*
X-7652947Y28113945D01*
X-7681871Y28116111D01*
X-7711535Y28117410D01*
X-7741939Y28117843D01*
X-7770697Y28117439D01*
X-7798840Y28116225D01*
X-7826369Y28114202D01*
X-7853284Y28111371D01*
X-7879584Y28107730D01*
X-7905269Y28103280D01*
X-7930340Y28098021D01*
X-7954797Y28091953D01*
X-7978639Y28085076D01*
X-8001867Y28077390D01*
X-8024481Y28068895D01*
X-8046480Y28059591D01*
X-8067864Y28049478D01*
X-8088635Y28038556D01*
X-8108790Y28026825D01*
X-8128332Y28014284D01*
X-8147209Y28001087D01*
X-8165251Y27987387D01*
X-8182456Y27973183D01*
X-8198826Y27958475D01*
X-8214360Y27943263D01*
X-8229059Y27927547D01*
X-8242922Y27911328D01*
X-8255949Y27894605D01*
X-8268140Y27877378D01*
X-8279495Y27859648D01*
X-8290015Y27841414D01*
X-8299699Y27822676D01*
X-8308547Y27803434D01*
X-8316559Y27783688D01*
X-8323735Y27763439D01*
X-8330076Y27742686D01*
X-8002302Y27642058D01*
X-7997769Y27661480D01*
X-7990441Y27685679D01*
X-7981649Y27707939D01*
X-7971390Y27728261D01*
X-7959667Y27746644D01*
X-7946478Y27763089D01*
X-7931823Y27777594D01*
X-7915703Y27790161D01*
X-7911444Y27793000D01*
X-7893836Y27803533D01*
X-7875204Y27812662D01*
X-7855551Y27820386D01*
X-7834874Y27826706D01*
X-7813174Y27831621D01*
X-7790452Y27835132D01*
X-7766707Y27837239D01*
X-7741939Y27837941D01*
X-7717523Y27837391D01*
X-7694587Y27835743D01*
X-7673132Y27832995D01*
X-7653157Y27829148D01*
X-7630271Y27822794D01*
X-7609699Y27814723D01*
X-7591441Y27804934D01*
X-7588066Y27802770D01*
X-7569972Y27788819D01*
X-7555620Y27772980D01*
X-7545013Y27755251D01*
X-7538149Y27735634D01*
X-7535030Y27714127D01*
X-7534822Y27706538D01*
X-7536193Y27686331D01*
X-7541460Y27664349D01*
X-7550676Y27644840D01*
X-7563842Y27627804D01*
X-7580958Y27613241D01*
X-7590997Y27606887D01*
X-7609495Y27597194D01*
X-7629876Y27588264D01*
X-7652142Y27580097D01*
X-7671311Y27574113D01*
X-7691686Y27568617D01*
X-7713267Y27563610D01*
X-7736054Y27559092D01*
X-7741939Y27558039D01*
X-7820586Y27543872D01*
X-7840070Y27540320D01*
X-7859321Y27536622D01*
X-7887762Y27530803D01*
X-7915678Y27524657D01*
X-7943071Y27518186D01*
X-7969940Y27511388D01*
X-7996285Y27504264D01*
X-8022107Y27496814D01*
X-8047405Y27489037D01*
X-8072179Y27480934D01*
X-8096429Y27472505D01*
X-8104396Y27469623D01*
X-8127833Y27460665D01*
X-8150335Y27451013D01*
X-8171900Y27440664D01*
X-8192529Y27429620D01*
X-8212223Y27417881D01*
X-8230980Y27405446D01*
X-8248802Y27392316D01*
X-8265688Y27378490D01*
X-8281637Y27363968D01*
X-8296651Y27348751D01*
X-8306140Y27338220D01*
X-8319410Y27321663D01*
X-8331374Y27304051D01*
X-8342033Y27285382D01*
X-8351386Y27265657D01*
X-8359435Y27244876D01*
X-8366178Y27223039D01*
X-8371617Y27200145D01*
X-8375750Y27176195D01*
X-8378578Y27151190D01*
X-8380100Y27125128D01*
X-8380390Y27107166D01*
X-8379772Y27080259D01*
X-8377917Y27054127D01*
X-8374826Y27028770D01*
X-8370498Y27004187D01*
X-8364934Y26980379D01*
X-8358134Y26957346D01*
X-8350097Y26935088D01*
X-8340823Y26913604D01*
X-8330313Y26892895D01*
X-8318566Y26872960D01*
X-8305583Y26853801D01*
X-8291364Y26835416D01*
X-8275908Y26817805D01*
X-8259215Y26800970D01*
X-8241286Y26784909D01*
X-8222121Y26769623D01*
X-8201975Y26755249D01*
X-8180981Y26741802D01*
X-8159141Y26729283D01*
X-8136453Y26717691D01*
X-8112918Y26707026D01*
X-8088535Y26697289D01*
X-8063306Y26688479D01*
X-8037229Y26680596D01*
X-8010305Y26673641D01*
X-7982534Y26667613D01*
X-7953916Y26662513D01*
X-7924450Y26658340D01*
X-7894137Y26655094D01*
X-7862977Y26652775D01*
X-7830970Y26651384D01*
X-7798115Y26650921D01*
G37*
G36*
X-8911374Y26650921D02*
G01*
X-8890443Y26651578D01*
X-8870147Y26653548D01*
X-8850486Y26656833D01*
X-8831461Y26661431D01*
X-8807083Y26669605D01*
X-8783834Y26680115D01*
X-8761714Y26692961D01*
X-8740725Y26708142D01*
X-8725724Y26721061D01*
X-8720865Y26725659D01*
X-8707159Y26740046D01*
X-8690982Y26760391D01*
X-8677201Y26782063D01*
X-8665817Y26805064D01*
X-8656830Y26829393D01*
X-8651662Y26848511D01*
X-8647842Y26868376D01*
X-8645371Y26888989D01*
X-8644247Y26910348D01*
X-8644173Y26917634D01*
X-8644847Y26939151D01*
X-8646869Y26959920D01*
X-8650239Y26979943D01*
X-8654957Y26999219D01*
X-8663346Y27023757D01*
X-8674130Y27046968D01*
X-8687312Y27068851D01*
X-8702890Y27089405D01*
X-8716146Y27103950D01*
X-8720865Y27108632D01*
X-8735654Y27121901D01*
X-8756361Y27137563D01*
X-8778198Y27150905D01*
X-8801164Y27161926D01*
X-8825261Y27170627D01*
X-8850486Y27177008D01*
X-8870147Y27180271D01*
X-8890443Y27182229D01*
X-8911374Y27182882D01*
X-8932293Y27182220D01*
X-8952550Y27180237D01*
X-8972146Y27176931D01*
X-8997246Y27170466D01*
X-9021170Y27161651D01*
X-9043919Y27150484D01*
X-9065493Y27136967D01*
X-9085891Y27121099D01*
X-9100418Y27107655D01*
X-9113949Y27093272D01*
X-9129921Y27072947D01*
X-9143526Y27051308D01*
X-9154765Y27028357D01*
X-9163638Y27004093D01*
X-9168739Y26985033D01*
X-9172510Y26965235D01*
X-9174950Y26944699D01*
X-9176060Y26923424D01*
X-9176133Y26916168D01*
X-9175468Y26894652D01*
X-9173472Y26873882D01*
X-9170144Y26853859D01*
X-9165486Y26834584D01*
X-9157205Y26810045D01*
X-9146557Y26786834D01*
X-9133544Y26764952D01*
X-9118164Y26744397D01*
X-9105076Y26729853D01*
X-9100418Y26725170D01*
X-9085891Y26711901D01*
X-9065493Y26696239D01*
X-9043919Y26682897D01*
X-9021170Y26671876D01*
X-8997246Y26663175D01*
X-8972146Y26656794D01*
X-8952550Y26653531D01*
X-8932293Y26651573D01*
X-8911374Y26650921D01*
G37*
G36*
X-9522958Y26690000D02*
G01*
X-9522958Y28078764D01*
X-9875645Y28078764D01*
X-9875645Y26690000D01*
X-9522958Y26690000D01*
G37*
G36*
X-9699790Y28241430D02*
G01*
X-9676434Y28242392D01*
X-9653995Y28245277D01*
X-9632471Y28250085D01*
X-9611863Y28256817D01*
X-9592171Y28265473D01*
X-9573394Y28276051D01*
X-9555534Y28288554D01*
X-9538590Y28302979D01*
X-9523134Y28318977D01*
X-9509739Y28336196D01*
X-9498404Y28354637D01*
X-9489131Y28374298D01*
X-9481918Y28395181D01*
X-9476766Y28417285D01*
X-9473675Y28440610D01*
X-9472644Y28465157D01*
X-9473675Y28489703D01*
X-9476766Y28513028D01*
X-9481918Y28535132D01*
X-9489131Y28556015D01*
X-9498404Y28575676D01*
X-9509739Y28594117D01*
X-9523134Y28611336D01*
X-9538590Y28627334D01*
X-9555534Y28641874D01*
X-9573394Y28654475D01*
X-9592171Y28665138D01*
X-9611863Y28673862D01*
X-9632471Y28680647D01*
X-9653995Y28685494D01*
X-9676434Y28688402D01*
X-9699790Y28689371D01*
X-9723695Y28688402D01*
X-9746563Y28685494D01*
X-9768392Y28680647D01*
X-9789183Y28673862D01*
X-9808936Y28665138D01*
X-9827651Y28654475D01*
X-9845328Y28641874D01*
X-9861967Y28627334D01*
X-9877080Y28611336D01*
X-9890177Y28594117D01*
X-9901260Y28575676D01*
X-9910327Y28556015D01*
X-9917380Y28535132D01*
X-9922418Y28513028D01*
X-9925440Y28489703D01*
X-9926448Y28465157D01*
X-9925440Y28440610D01*
X-9922418Y28417285D01*
X-9917380Y28395181D01*
X-9910327Y28374298D01*
X-9901260Y28354637D01*
X-9890177Y28336196D01*
X-9877080Y28318977D01*
X-9861967Y28302979D01*
X-9845328Y28288554D01*
X-9827651Y28276051D01*
X-9808936Y28265473D01*
X-9789183Y28256817D01*
X-9768392Y28250085D01*
X-9746563Y28245277D01*
X-9723695Y28242392D01*
X-9699790Y28241430D01*
G37*
G36*
X-10902604Y28117515D02*
G01*
X-10877201Y28116530D01*
X-10852122Y28114889D01*
X-10827368Y28112592D01*
X-10802938Y28109638D01*
X-10778832Y28106028D01*
X-10755051Y28101761D01*
X-10731594Y28096838D01*
X-10708462Y28091259D01*
X-10685654Y28085023D01*
X-10663170Y28078131D01*
X-10641010Y28070582D01*
X-10619176Y28062377D01*
X-10597665Y28053516D01*
X-10576479Y28043998D01*
X-10555617Y28033824D01*
X-10535251Y28023025D01*
X-10515432Y28011636D01*
X-10496157Y27999654D01*
X-10477429Y27987082D01*
X-10459246Y27973917D01*
X-10441609Y27960162D01*
X-10424518Y27945814D01*
X-10407972Y27930875D01*
X-10391972Y27915345D01*
X-10376518Y27899223D01*
X-10361610Y27882509D01*
X-10347247Y27865204D01*
X-10333431Y27847308D01*
X-10320159Y27828820D01*
X-10307434Y27809740D01*
X-10295254Y27790069D01*
X-10283779Y27769910D01*
X-10273043Y27749243D01*
X-10263049Y27728068D01*
X-10253794Y27706386D01*
X-10245280Y27684196D01*
X-10237506Y27661498D01*
X-10230473Y27638293D01*
X-10224180Y27614581D01*
X-10218627Y27590361D01*
X-10213814Y27565633D01*
X-10209742Y27540398D01*
X-10206411Y27514655D01*
X-10203820Y27488405D01*
X-10201969Y27461647D01*
X-10200858Y27434381D01*
X-10200488Y27406608D01*
X-10200488Y27362156D01*
X-10200858Y27334381D01*
X-10201969Y27307110D01*
X-10203820Y27280342D01*
X-10206411Y27254078D01*
X-10209742Y27228318D01*
X-10213814Y27203062D01*
X-10218627Y27178310D01*
X-10224180Y27154061D01*
X-10230473Y27130316D01*
X-10237506Y27107075D01*
X-10245280Y27084337D01*
X-10253794Y27062103D01*
X-10263049Y27040373D01*
X-10273043Y27019147D01*
X-10283779Y26998425D01*
X-10295254Y26978206D01*
X-10307434Y26958594D01*
X-10320159Y26939570D01*
X-10333431Y26921133D01*
X-10347247Y26903285D01*
X-10361610Y26886023D01*
X-10376518Y26869350D01*
X-10391972Y26853264D01*
X-10407972Y26837766D01*
X-10424518Y26822856D01*
X-10441609Y26808534D01*
X-10459246Y26794799D01*
X-10477429Y26781652D01*
X-10496157Y26769092D01*
X-10515432Y26757120D01*
X-10535251Y26745736D01*
X-10555617Y26734940D01*
X-10576479Y26724766D01*
X-10597665Y26715248D01*
X-10619176Y26706387D01*
X-10641010Y26698182D01*
X-10663170Y26690633D01*
X-10685654Y26683741D01*
X-10708462Y26677505D01*
X-10731594Y26671926D01*
X-10755051Y26667003D01*
X-10778832Y26662736D01*
X-10802938Y26659126D01*
X-10827368Y26656172D01*
X-10852122Y26653874D01*
X-10877201Y26652233D01*
X-10902604Y26651249D01*
X-10928332Y26650921D01*
X-10954057Y26651249D01*
X-10979455Y26652233D01*
X-11004524Y26653874D01*
X-11029265Y26656172D01*
X-11053678Y26659126D01*
X-11077762Y26662736D01*
X-11101519Y26667003D01*
X-11124947Y26671926D01*
X-11148047Y26677505D01*
X-11170819Y26683741D01*
X-11193263Y26690633D01*
X-11215378Y26698182D01*
X-11237165Y26706387D01*
X-11258624Y26715248D01*
X-11279755Y26724766D01*
X-11300558Y26734940D01*
X-11320981Y26745736D01*
X-11340850Y26757120D01*
X-11360166Y26769092D01*
X-11378929Y26781652D01*
X-11397139Y26794799D01*
X-11414795Y26808534D01*
X-11431897Y26822856D01*
X-11448447Y26837766D01*
X-11464443Y26853264D01*
X-11479885Y26869350D01*
X-11494775Y26886023D01*
X-11509111Y26903285D01*
X-11522893Y26921133D01*
X-11536122Y26939570D01*
X-11548798Y26958594D01*
X-11560921Y26978206D01*
X-11572455Y26998425D01*
X-11583246Y27019147D01*
X-11593292Y27040373D01*
X-11602595Y27062103D01*
X-11611153Y27084337D01*
X-11618966Y27107075D01*
X-11626036Y27130316D01*
X-11632362Y27154061D01*
X-11637943Y27178310D01*
X-11642780Y27203062D01*
X-11646873Y27228318D01*
X-11650222Y27254078D01*
X-11652827Y27280342D01*
X-11654687Y27307110D01*
X-11655803Y27334381D01*
X-11656175Y27362156D01*
X-11656175Y27370460D01*
X-11303489Y27370460D01*
X-11303385Y27358306D01*
X-11302553Y27334531D01*
X-11300889Y27311465D01*
X-11298393Y27289109D01*
X-11295065Y27267463D01*
X-11290905Y27246527D01*
X-11285914Y27226301D01*
X-11280090Y27206784D01*
X-11273434Y27187977D01*
X-11261891Y27161098D01*
X-11248476Y27135816D01*
X-11233189Y27112131D01*
X-11216030Y27090044D01*
X-11196999Y27069553D01*
X-11190289Y27063091D01*
X-11169506Y27044938D01*
X-11147745Y27028630D01*
X-11125004Y27014169D01*
X-11101285Y27001554D01*
X-11076587Y26990785D01*
X-11050910Y26981862D01*
X-11024254Y26974785D01*
X-10996619Y26969554D01*
X-10968006Y26966169D01*
X-10948386Y26964939D01*
X-10928332Y26964528D01*
X-10908277Y26964939D01*
X-10879011Y26967093D01*
X-10850724Y26971092D01*
X-10823415Y26976939D01*
X-10797085Y26984631D01*
X-10771735Y26994169D01*
X-10747363Y27005554D01*
X-10723970Y27018784D01*
X-10701556Y27033861D01*
X-10680121Y27050784D01*
X-10659665Y27069553D01*
X-10646769Y27083036D01*
X-10628986Y27104591D01*
X-10613075Y27127744D01*
X-10599036Y27152493D01*
X-10586869Y27178840D01*
X-10579797Y27197292D01*
X-10573557Y27216454D01*
X-10568150Y27236325D01*
X-10563574Y27256906D01*
X-10559830Y27278197D01*
X-10556918Y27300198D01*
X-10554839Y27322909D01*
X-10553591Y27346330D01*
X-10553175Y27370460D01*
X-10553175Y27398304D01*
X-10553279Y27410458D01*
X-10554111Y27434233D01*
X-10555775Y27457299D01*
X-10558270Y27479655D01*
X-10561598Y27501301D01*
X-10565758Y27522237D01*
X-10570750Y27542463D01*
X-10576573Y27561980D01*
X-10583229Y27580787D01*
X-10594772Y27607666D01*
X-10608187Y27632948D01*
X-10623475Y27656633D01*
X-10640634Y27678720D01*
X-10659665Y27699211D01*
X-10666375Y27705672D01*
X-10687157Y27723826D01*
X-10708919Y27740134D01*
X-10731659Y27754595D01*
X-10755378Y27767210D01*
X-10780076Y27777979D01*
X-10805753Y27786902D01*
X-10832409Y27793979D01*
X-10860044Y27799210D01*
X-10888657Y27802594D01*
X-10908277Y27803825D01*
X-10928332Y27804235D01*
X-10938592Y27804133D01*
X-10958761Y27803312D01*
X-10978461Y27801671D01*
X-11007131Y27797671D01*
X-11034744Y27791825D01*
X-11061301Y27784133D01*
X-11086802Y27774595D01*
X-11111247Y27763210D01*
X-11134635Y27749980D01*
X-11156968Y27734903D01*
X-11178244Y27717980D01*
X-11198464Y27699211D01*
X-11211182Y27685728D01*
X-11228720Y27664173D01*
X-11244412Y27641020D01*
X-11258258Y27616270D01*
X-11270258Y27589924D01*
X-11277233Y27571472D01*
X-11283386Y27552310D01*
X-11288720Y27532439D01*
X-11293232Y27511858D01*
X-11296925Y27490566D01*
X-11299796Y27468566D01*
X-11301848Y27445855D01*
X-11303078Y27422434D01*
X-11303489Y27398304D01*
X-11303489Y27370460D01*
X-11656175Y27370460D01*
X-11656175Y27406608D01*
X-11655803Y27434381D01*
X-11654687Y27461647D01*
X-11652827Y27488405D01*
X-11650222Y27514655D01*
X-11646873Y27540398D01*
X-11642780Y27565633D01*
X-11637943Y27590361D01*
X-11632362Y27614581D01*
X-11626036Y27638293D01*
X-11618966Y27661498D01*
X-11611153Y27684196D01*
X-11602595Y27706386D01*
X-11593292Y27728068D01*
X-11583246Y27749243D01*
X-11572455Y27769910D01*
X-11560921Y27790069D01*
X-11548798Y27809740D01*
X-11536122Y27828820D01*
X-11522893Y27847308D01*
X-11509111Y27865204D01*
X-11494775Y27882509D01*
X-11479885Y27899223D01*
X-11464443Y27915345D01*
X-11448447Y27930875D01*
X-11431897Y27945814D01*
X-11414795Y27960162D01*
X-11397139Y27973917D01*
X-11378929Y27987082D01*
X-11360166Y27999654D01*
X-11340850Y28011636D01*
X-11320981Y28023025D01*
X-11300558Y28033824D01*
X-11279755Y28043998D01*
X-11258624Y28053516D01*
X-11237165Y28062377D01*
X-11215378Y28070582D01*
X-11193263Y28078131D01*
X-11170819Y28085023D01*
X-11148047Y28091259D01*
X-11124947Y28096838D01*
X-11101519Y28101761D01*
X-11077762Y28106028D01*
X-11053678Y28109638D01*
X-11029265Y28112592D01*
X-11004524Y28114889D01*
X-10979455Y28116530D01*
X-10954057Y28117515D01*
X-10928332Y28117843D01*
X-10902604Y28117515D01*
G37*
D11*
%TO.C,*%
X16500000Y28500000D03*
%TD*%
%TO.C,*%
X16500000Y-28500000D03*
%TD*%
%TO.C,*%
X-16500000Y28500000D03*
%TD*%
D12*
%TO.C,U3*%
X-3810000Y19750000D03*
X-1270000Y19750000D03*
X1270000Y19750000D03*
X3810000Y19750000D03*
%TD*%
D11*
%TO.C,REF\u002A\u002A*%
X-16500000Y-28500000D03*
%TD*%
D13*
%TO.C,J5*%
X13345000Y-15190000D03*
X16655000Y-17730000D03*
X13345000Y-20270000D03*
X16655000Y-22810000D03*
%TD*%
D14*
%TO.C,REF\u002A\u002A*%
X8900000Y27300000D03*
D15*
X11440000Y24760000D03*
X11440000Y29840000D03*
X6360000Y24760000D03*
X6360000Y29840000D03*
%TD*%
D16*
%TO.C,REF\u002A\u002A*%
X7130000Y-12250000D03*
X4590000Y-12250000D03*
X2050000Y-12250000D03*
X-490000Y-12250000D03*
X-3030000Y-12250000D03*
%TD*%
D17*
%TO.C,J3*%
X-14800000Y-10000000D03*
X-14800000Y-9000000D03*
X-14800000Y-8000000D03*
X-14800000Y-7000000D03*
D18*
X-18675000Y-11300000D03*
X-18675000Y-5700000D03*
%TD*%
D19*
%TO.C,J1*%
X4930000Y-27500000D03*
X-3050000Y-27500000D03*
D20*
X-2250000Y-16800000D03*
X-1150000Y-16800000D03*
X-50000Y-16800000D03*
X1050000Y-16800000D03*
X2150000Y-16800000D03*
X3250000Y-16800000D03*
X4350000Y-16800000D03*
X5450000Y-16800000D03*
X6550000Y-16800000D03*
D21*
X8050000Y-17500000D03*
D22*
X8000000Y-27100000D03*
D23*
X-7100000Y-17200000D03*
D22*
X-8000000Y-27100000D03*
%TD*%
D24*
%TO.C,U1*%
X16645000Y-1480000D03*
X14105000Y-1480000D03*
X11565000Y-1480000D03*
X9025000Y-1480000D03*
X6485000Y-1480000D03*
X3945000Y-1480000D03*
X1405000Y-1480000D03*
X1405000Y16300000D03*
X3945000Y16300000D03*
X6485000Y16300000D03*
X9025000Y16300000D03*
X11565000Y16300000D03*
X14105000Y16300000D03*
X16645000Y16300000D03*
%TD*%
D25*
%TO.C,J2*%
X-14500000Y-23650000D03*
X-12500000Y-23650000D03*
D26*
X-16850000Y-17900000D03*
X-10150000Y-17900000D03*
%TD*%
D27*
%TO.C,J3*%
X14800000Y-7000000D03*
X14800000Y-8000000D03*
X14800000Y-9000000D03*
X14800000Y-10000000D03*
D28*
X18675000Y-5700000D03*
X18675000Y-11300000D03*
%TD*%
D29*
%TO.C,U2*%
X-18135000Y14780000D03*
X-14825000Y12240000D03*
X-18135000Y9700000D03*
X-14825000Y7160000D03*
X-18135000Y4620000D03*
%TD*%
M02*
