%TF.GenerationSoftware,KiCad,Pcbnew,7.0.7-7.0.7~ubuntu22.04.1*%
%TF.CreationDate,2023-12-23T21:18:33-08:00*%
%TF.ProjectId,Wardriver-PCB,57617264-7269-4766-9572-2d5043422e6b,rev?*%
%TF.SameCoordinates,Original*%
%TF.FileFunction,Soldermask,Bot*%
%TF.FilePolarity,Negative*%
%FSLAX46Y46*%
G04 Gerber Fmt 4.6, Leading zero omitted, Abs format (unit mm)*
G04 Created by KiCad (PCBNEW 7.0.7-7.0.7~ubuntu22.04.1) date 2023-12-23 21:18:33*
%MOMM*%
%LPD*%
G01*
G04 APERTURE LIST*
G04 Aperture macros list*
%AMRoundRect*
0 Rectangle with rounded corners*
0 $1 Rounding radius*
0 $2 $3 $4 $5 $6 $7 $8 $9 X,Y pos of 4 corners*
0 Add a 4 corners polygon primitive as box body*
4,1,4,$2,$3,$4,$5,$6,$7,$8,$9,$2,$3,0*
0 Add four circle primitives for the rounded corners*
1,1,$1+$1,$2,$3*
1,1,$1+$1,$4,$5*
1,1,$1+$1,$6,$7*
1,1,$1+$1,$8,$9*
0 Add four rect primitives between the rounded corners*
20,1,$1+$1,$2,$3,$4,$5,0*
20,1,$1+$1,$4,$5,$6,$7,0*
20,1,$1+$1,$6,$7,$8,$9,0*
20,1,$1+$1,$8,$9,$2,$3,0*%
G04 Aperture macros list end*
%ADD10C,0.300000*%
%ADD11C,0.150000*%
%ADD12C,4.700000*%
%ADD13C,1.800000*%
%ADD14C,2.050000*%
%ADD15C,2.250000*%
%ADD16RoundRect,0.500000X-1.250000X0.500000X-1.250000X-0.500000X1.250000X-0.500000X1.250000X0.500000X0*%
%ADD17RoundRect,0.150000X0.625000X-0.150000X0.625000X0.150000X-0.625000X0.150000X-0.625000X-0.150000X0*%
%ADD18RoundRect,0.250000X0.650000X-0.350000X0.650000X0.350000X-0.650000X0.350000X-0.650000X-0.350000X0*%
%ADD19C,1.000000*%
%ADD20R,2.000000X0.700000*%
%ADD21R,1.900000X1.600000*%
%ADD22R,3.000000X1.700000*%
%ADD23R,2.000000X2.100000*%
%ADD24RoundRect,0.375000X1.375000X-0.375000X1.375000X0.375000X-1.375000X0.375000X-1.375000X-0.375000X0*%
%ADD25RoundRect,0.333335X2.166665X-0.666665X2.166665X0.666665X-2.166665X0.666665X-2.166665X-0.666665X0*%
%ADD26O,2.000000X3.500000*%
%ADD27RoundRect,0.150000X-0.625000X0.150000X-0.625000X-0.150000X0.625000X-0.150000X0.625000X0.150000X0*%
%ADD28RoundRect,0.250000X-0.650000X0.350000X-0.650000X-0.350000X0.650000X-0.350000X0.650000X0.350000X0*%
%ADD29R,1.000000X2.510000*%
%ADD30R,0.800000X1.000000*%
%ADD31C,0.900000*%
%ADD32R,2.000000X1.000000*%
%ADD33RoundRect,0.375000X-0.375000X-0.880000X0.375000X-0.880000X0.375000X0.880000X-0.375000X0.880000X0*%
G04 APERTURE END LIST*
D10*
G36*
X803705Y-29754000D02*
G01*
X803705Y-27990175D01*
X486287Y-27990175D01*
X486287Y-29754000D01*
X803705Y-29754000D01*
G37*
G36*
X-2588Y-30257824D02*
G01*
X-2588Y-29980852D01*
X-682707Y-29980852D01*
X-703098Y-29979006D01*
X-720033Y-29973468D01*
X-735793Y-29961948D01*
X-746576Y-29945111D01*
X-751761Y-29927019D01*
X-753489Y-29905235D01*
X-753489Y-29590015D01*
X-708206Y-29590015D01*
X-699819Y-29606172D01*
X-689824Y-29622328D01*
X-678221Y-29638485D01*
X-665012Y-29654642D01*
X-652776Y-29668105D01*
X-644898Y-29676184D01*
X-630831Y-29689145D01*
X-615283Y-29701377D01*
X-598253Y-29712879D01*
X-579743Y-29723651D01*
X-563868Y-29731743D01*
X-547045Y-29739368D01*
X-529274Y-29746526D01*
X-510397Y-29753017D01*
X-490256Y-29758643D01*
X-468851Y-29763404D01*
X-446182Y-29767299D01*
X-428351Y-29769652D01*
X-409809Y-29771518D01*
X-390556Y-29772897D01*
X-370592Y-29773790D01*
X-349917Y-29774196D01*
X-342868Y-29774223D01*
X-324710Y-29773962D01*
X-306838Y-29773179D01*
X-289251Y-29771873D01*
X-263404Y-29768937D01*
X-238200Y-29764826D01*
X-213636Y-29759540D01*
X-189714Y-29753079D01*
X-166434Y-29745444D01*
X-143794Y-29736634D01*
X-121797Y-29726649D01*
X-100440Y-29715490D01*
X-86559Y-29707398D01*
X-66463Y-29694416D01*
X-47224Y-29680530D01*
X-28843Y-29665740D01*
X-11319Y-29650046D01*
X5345Y-29633447D01*
X21153Y-29615945D01*
X36102Y-29597538D01*
X50194Y-29578227D01*
X63429Y-29558012D01*
X75805Y-29536893D01*
X83579Y-29522311D01*
X94343Y-29499749D01*
X104048Y-29476576D01*
X112695Y-29452794D01*
X120282Y-29428400D01*
X126811Y-29403396D01*
X132281Y-29377782D01*
X135340Y-29360366D01*
X137928Y-29342679D01*
X140045Y-29324721D01*
X141692Y-29306492D01*
X142869Y-29287991D01*
X143574Y-29269219D01*
X143810Y-29250175D01*
X143810Y-28504111D01*
X-174047Y-28504111D01*
X-174047Y-29224676D01*
X-174654Y-29250519D01*
X-176474Y-29275125D01*
X-179507Y-29298494D01*
X-183753Y-29320627D01*
X-189213Y-29341524D01*
X-195886Y-29361184D01*
X-203773Y-29379607D01*
X-212872Y-29396794D01*
X-223185Y-29412745D01*
X-234712Y-29427459D01*
X-243070Y-29436581D01*
X-256612Y-29449152D01*
X-271190Y-29460487D01*
X-286803Y-29470585D01*
X-303451Y-29479446D01*
X-321136Y-29487071D01*
X-339855Y-29493460D01*
X-359611Y-29498612D01*
X-380402Y-29502527D01*
X-402228Y-29505206D01*
X-425090Y-29506649D01*
X-440907Y-29506923D01*
X-458949Y-29506546D01*
X-485046Y-29504562D01*
X-509985Y-29500878D01*
X-533764Y-29495495D01*
X-556384Y-29488411D01*
X-577844Y-29479626D01*
X-598146Y-29469142D01*
X-617288Y-29456958D01*
X-635271Y-29443073D01*
X-652095Y-29427488D01*
X-667759Y-29410203D01*
X-682137Y-29391310D01*
X-695101Y-29371064D01*
X-706651Y-29349465D01*
X-716786Y-29326514D01*
X-725507Y-29302211D01*
X-730535Y-29285257D01*
X-734935Y-29267703D01*
X-738706Y-29249547D01*
X-741849Y-29230791D01*
X-744363Y-29211433D01*
X-746249Y-29191474D01*
X-747506Y-29170914D01*
X-748134Y-29149753D01*
X-748213Y-29138947D01*
X-748213Y-28504111D01*
X-1066071Y-28504111D01*
X-1066071Y-29975577D01*
X-1065406Y-29999269D01*
X-1063412Y-30022042D01*
X-1060089Y-30043896D01*
X-1055437Y-30064830D01*
X-1049455Y-30084844D01*
X-1042145Y-30103939D01*
X-1033505Y-30122114D01*
X-1023536Y-30139369D01*
X-1012237Y-30155705D01*
X-999610Y-30171121D01*
X-990453Y-30180887D01*
X-975830Y-30194637D01*
X-960319Y-30207034D01*
X-943919Y-30218078D01*
X-926630Y-30227770D01*
X-908453Y-30236110D01*
X-889386Y-30243098D01*
X-869431Y-30248733D01*
X-848588Y-30253015D01*
X-826855Y-30255945D01*
X-804234Y-30257523D01*
X-788660Y-30257824D01*
X-2588Y-30257824D01*
G37*
G36*
X-1417341Y-29754000D02*
G01*
X-1417341Y-28504111D01*
X-1729923Y-28504111D01*
X-1729923Y-28668096D01*
X-1775205Y-28668096D01*
X-1783613Y-28651719D01*
X-1793670Y-28635563D01*
X-1805375Y-28619626D01*
X-1818729Y-28603909D01*
X-1833732Y-28588412D01*
X-1850383Y-28573134D01*
X-1863954Y-28561820D01*
X-1878451Y-28550630D01*
X-1888632Y-28543239D01*
X-1904965Y-28532632D01*
X-1922805Y-28523069D01*
X-1942152Y-28514549D01*
X-1963006Y-28507072D01*
X-1985367Y-28500638D01*
X-2009235Y-28495248D01*
X-2034610Y-28490901D01*
X-2052364Y-28488583D01*
X-2070787Y-28486728D01*
X-2089880Y-28485337D01*
X-2109643Y-28484409D01*
X-2130076Y-28483946D01*
X-2140544Y-28483888D01*
X-2158699Y-28484149D01*
X-2176567Y-28484932D01*
X-2194145Y-28486237D01*
X-2219972Y-28489174D01*
X-2245150Y-28493285D01*
X-2269679Y-28498571D01*
X-2293558Y-28505032D01*
X-2316788Y-28512667D01*
X-2339370Y-28521477D01*
X-2361302Y-28531461D01*
X-2382585Y-28542621D01*
X-2396413Y-28550713D01*
X-2416509Y-28563687D01*
X-2435748Y-28577549D01*
X-2454129Y-28592301D01*
X-2471652Y-28607941D01*
X-2488318Y-28624470D01*
X-2504125Y-28641888D01*
X-2519075Y-28660194D01*
X-2533167Y-28679389D01*
X-2546401Y-28699473D01*
X-2558778Y-28720445D01*
X-2566552Y-28734921D01*
X-2577395Y-28757191D01*
X-2587170Y-28780150D01*
X-2595880Y-28803796D01*
X-2603523Y-28828131D01*
X-2610099Y-28853153D01*
X-2615610Y-28878862D01*
X-2618690Y-28896384D01*
X-2621297Y-28914212D01*
X-2623430Y-28932345D01*
X-2625089Y-28950784D01*
X-2626274Y-28969529D01*
X-2626985Y-28988579D01*
X-2627222Y-29007935D01*
X-2627222Y-29754000D01*
X-2309364Y-29754000D01*
X-2309364Y-29033434D01*
X-2308754Y-29007596D01*
X-2306922Y-28983001D01*
X-2303870Y-28959651D01*
X-2299596Y-28937545D01*
X-2294102Y-28916684D01*
X-2287386Y-28897066D01*
X-2279449Y-28878693D01*
X-2270292Y-28861564D01*
X-2259913Y-28845679D01*
X-2248313Y-28831038D01*
X-2239902Y-28821969D01*
X-2226438Y-28809319D01*
X-2211932Y-28797914D01*
X-2196382Y-28787753D01*
X-2179788Y-28778836D01*
X-2162152Y-28771164D01*
X-2143472Y-28764735D01*
X-2123749Y-28759551D01*
X-2102982Y-28755611D01*
X-2081173Y-28752915D01*
X-2058320Y-28751464D01*
X-2042505Y-28751187D01*
X-2024461Y-28751567D01*
X-1998354Y-28753559D01*
X-1973399Y-28757260D01*
X-1949596Y-28762668D01*
X-1926944Y-28769784D01*
X-1905443Y-28778608D01*
X-1885094Y-28789140D01*
X-1865896Y-28801380D01*
X-1847850Y-28815328D01*
X-1830956Y-28830984D01*
X-1815212Y-28848347D01*
X-1800834Y-28867162D01*
X-1787871Y-28887337D01*
X-1776321Y-28908873D01*
X-1766186Y-28931768D01*
X-1757465Y-28956024D01*
X-1752437Y-28972950D01*
X-1748037Y-28990480D01*
X-1744265Y-29008615D01*
X-1741123Y-29027355D01*
X-1738609Y-29046699D01*
X-1736723Y-29066647D01*
X-1735466Y-29087200D01*
X-1734837Y-29108358D01*
X-1734759Y-29119163D01*
X-1734759Y-29754000D01*
X-1417341Y-29754000D01*
G37*
G36*
X-3906127Y-28647872D02*
G01*
X-3860404Y-28647872D01*
X-3852015Y-28633724D01*
X-3840475Y-28617114D01*
X-3827327Y-28600906D01*
X-3815142Y-28587706D01*
X-3801841Y-28574785D01*
X-3787424Y-28562143D01*
X-3784401Y-28559629D01*
X-3768434Y-28547470D01*
X-3751051Y-28535999D01*
X-3732250Y-28525214D01*
X-3716190Y-28517080D01*
X-3699222Y-28509387D01*
X-3681348Y-28502133D01*
X-3662568Y-28495318D01*
X-3652861Y-28492124D01*
X-3632583Y-28486354D01*
X-3611151Y-28481408D01*
X-3588564Y-28477286D01*
X-3570867Y-28474736D01*
X-3552521Y-28472650D01*
X-3533525Y-28471027D01*
X-3513881Y-28469868D01*
X-3493587Y-28469172D01*
X-3472644Y-28468940D01*
X-3453827Y-28469230D01*
X-3435186Y-28470101D01*
X-3416719Y-28471552D01*
X-3398428Y-28473584D01*
X-3380312Y-28476196D01*
X-3362371Y-28479388D01*
X-3344605Y-28483161D01*
X-3327015Y-28487515D01*
X-3309599Y-28492449D01*
X-3292359Y-28497963D01*
X-3275294Y-28504058D01*
X-3258404Y-28510733D01*
X-3241689Y-28517989D01*
X-3225149Y-28525825D01*
X-3208785Y-28534242D01*
X-3192595Y-28543239D01*
X-3176744Y-28552798D01*
X-3161285Y-28562899D01*
X-3146217Y-28573543D01*
X-3131541Y-28584730D01*
X-3117256Y-28596459D01*
X-3103363Y-28608731D01*
X-3089861Y-28621546D01*
X-3076751Y-28634903D01*
X-3064033Y-28648803D01*
X-3051705Y-28663246D01*
X-3039770Y-28678231D01*
X-3028226Y-28693760D01*
X-3017074Y-28709830D01*
X-3006313Y-28726444D01*
X-2995944Y-28743600D01*
X-2985966Y-28761299D01*
X-2976543Y-28779453D01*
X-2967728Y-28798084D01*
X-2959521Y-28817193D01*
X-2951922Y-28836779D01*
X-2944930Y-28856843D01*
X-2938547Y-28877384D01*
X-2932772Y-28898402D01*
X-2927604Y-28919898D01*
X-2923045Y-28941871D01*
X-2919093Y-28964322D01*
X-2915749Y-28987250D01*
X-2913014Y-29010656D01*
X-2910886Y-29034538D01*
X-2909366Y-29058899D01*
X-2908454Y-29083737D01*
X-2908150Y-29109052D01*
X-2908150Y-29149059D01*
X-2908454Y-29174376D01*
X-2909366Y-29199219D01*
X-2910886Y-29223588D01*
X-2913014Y-29247483D01*
X-2915749Y-29270904D01*
X-2919093Y-29293851D01*
X-2923045Y-29316324D01*
X-2927604Y-29338323D01*
X-2932772Y-29359848D01*
X-2938547Y-29380899D01*
X-2944930Y-29401476D01*
X-2951922Y-29421579D01*
X-2959521Y-29441208D01*
X-2967728Y-29460363D01*
X-2976543Y-29479044D01*
X-2985966Y-29497251D01*
X-2995949Y-29514897D01*
X-3006334Y-29532003D01*
X-3017120Y-29548570D01*
X-3028309Y-29564598D01*
X-3039899Y-29580087D01*
X-3051891Y-29595036D01*
X-3064285Y-29609446D01*
X-3077081Y-29623317D01*
X-3090278Y-29636649D01*
X-3103878Y-29649441D01*
X-3117879Y-29661695D01*
X-3132283Y-29673409D01*
X-3147088Y-29684583D01*
X-3162295Y-29695219D01*
X-3177904Y-29705315D01*
X-3193914Y-29714872D01*
X-3210202Y-29723869D01*
X-3226640Y-29732286D01*
X-3243229Y-29740122D01*
X-3259970Y-29747377D01*
X-3276862Y-29754053D01*
X-3293904Y-29760148D01*
X-3311098Y-29765662D01*
X-3328443Y-29770596D01*
X-3345940Y-29774949D01*
X-3363587Y-29778722D01*
X-3381385Y-29781915D01*
X-3399335Y-29784527D01*
X-3417435Y-29786558D01*
X-3435687Y-29788010D01*
X-3454090Y-29788880D01*
X-3472644Y-29789170D01*
X-3483253Y-29789114D01*
X-3503992Y-29788664D01*
X-3524091Y-29787764D01*
X-3543552Y-29786415D01*
X-3562374Y-29784615D01*
X-3580557Y-29782365D01*
X-3606634Y-29778147D01*
X-3631273Y-29772916D01*
X-3654475Y-29766673D01*
X-3676240Y-29759418D01*
X-3696567Y-29751150D01*
X-3715457Y-29741870D01*
X-3732909Y-29731578D01*
X-3749316Y-29720585D01*
X-3764903Y-29709368D01*
X-3779672Y-29697926D01*
X-3793621Y-29686261D01*
X-3810945Y-29670359D01*
X-3826813Y-29654058D01*
X-3841225Y-29637358D01*
X-3854181Y-29620261D01*
X-3865680Y-29602764D01*
X-3910963Y-29602764D01*
X-3910963Y-29754000D01*
X-4223545Y-29754000D01*
X-4223545Y-29141585D01*
X-3910963Y-29141585D01*
X-3910578Y-29163941D01*
X-3909424Y-29185617D01*
X-3907500Y-29206613D01*
X-3904808Y-29226930D01*
X-3901345Y-29246566D01*
X-3897114Y-29265521D01*
X-3892113Y-29283797D01*
X-3886343Y-29301393D01*
X-3879803Y-29318309D01*
X-3872494Y-29334544D01*
X-3860088Y-29357623D01*
X-3845951Y-29379171D01*
X-3830083Y-29399189D01*
X-3812484Y-29417677D01*
X-3806309Y-29423492D01*
X-3787218Y-29439831D01*
X-3767278Y-29454507D01*
X-3746487Y-29467523D01*
X-3724846Y-29478876D01*
X-3702355Y-29488569D01*
X-3679014Y-29496599D01*
X-3654822Y-29502968D01*
X-3629781Y-29507676D01*
X-3603890Y-29510722D01*
X-3586157Y-29511830D01*
X-3568046Y-29512199D01*
X-3549986Y-29511830D01*
X-3523592Y-29509891D01*
X-3498033Y-29506291D01*
X-3473309Y-29501030D01*
X-3449419Y-29494107D01*
X-3426364Y-29485522D01*
X-3404143Y-29475276D01*
X-3382757Y-29463369D01*
X-3362206Y-29449800D01*
X-3342489Y-29434569D01*
X-3323607Y-29417677D01*
X-3306087Y-29399189D01*
X-3290289Y-29379171D01*
X-3276215Y-29357623D01*
X-3263865Y-29334544D01*
X-3256588Y-29318309D01*
X-3250078Y-29301393D01*
X-3244334Y-29283797D01*
X-3239355Y-29265521D01*
X-3235142Y-29246566D01*
X-3231696Y-29226930D01*
X-3229015Y-29206613D01*
X-3227100Y-29185617D01*
X-3225951Y-29163941D01*
X-3225568Y-29141585D01*
X-3225568Y-29116526D01*
X-3225951Y-29094169D01*
X-3227100Y-29072493D01*
X-3229015Y-29051497D01*
X-3231696Y-29031181D01*
X-3235142Y-29011545D01*
X-3239355Y-28992589D01*
X-3244334Y-28974313D01*
X-3250078Y-28956718D01*
X-3256588Y-28939802D01*
X-3263865Y-28923566D01*
X-3276215Y-28900488D01*
X-3290289Y-28878940D01*
X-3306087Y-28858921D01*
X-3323607Y-28840434D01*
X-3329809Y-28834618D01*
X-3348969Y-28818280D01*
X-3368964Y-28803603D01*
X-3389793Y-28790588D01*
X-3411457Y-28779234D01*
X-3433956Y-28769542D01*
X-3457290Y-28761511D01*
X-3481458Y-28755142D01*
X-3506460Y-28750435D01*
X-3532298Y-28747388D01*
X-3549986Y-28746281D01*
X-3568046Y-28745912D01*
X-3577309Y-28746004D01*
X-3595530Y-28746742D01*
X-3613342Y-28748219D01*
X-3639294Y-28751819D01*
X-3664327Y-28757081D01*
X-3688439Y-28764004D01*
X-3711632Y-28772588D01*
X-3733906Y-28782834D01*
X-3755259Y-28794742D01*
X-3775693Y-28808311D01*
X-3795208Y-28823541D01*
X-3813803Y-28840434D01*
X-3831166Y-28858921D01*
X-3846822Y-28878940D01*
X-3860770Y-28900488D01*
X-3873009Y-28923566D01*
X-3880221Y-28939802D01*
X-3886673Y-28956718D01*
X-3892366Y-28974313D01*
X-3897299Y-28992589D01*
X-3901474Y-29011545D01*
X-3904890Y-29031181D01*
X-3907547Y-29051497D01*
X-3909444Y-29072493D01*
X-3910583Y-29094169D01*
X-3910963Y-29116526D01*
X-3910963Y-29141585D01*
X-4223545Y-29141585D01*
X-4223545Y-27990175D01*
X-3906127Y-27990175D01*
X-3906127Y-28647872D01*
G37*
G36*
X-4575694Y-29754000D02*
G01*
X-4575694Y-27990175D01*
X-4893112Y-27990175D01*
X-4893112Y-29754000D01*
X-4575694Y-29754000D01*
G37*
G36*
X-5744936Y-28469133D02*
G01*
X-5725345Y-28469710D01*
X-5706138Y-28470671D01*
X-5687316Y-28472018D01*
X-5668879Y-28473749D01*
X-5650826Y-28475864D01*
X-5633159Y-28478365D01*
X-5607378Y-28482837D01*
X-5582463Y-28488174D01*
X-5558413Y-28494377D01*
X-5535229Y-28501446D01*
X-5512911Y-28509380D01*
X-5491458Y-28518180D01*
X-5477621Y-28524400D01*
X-5457530Y-28534181D01*
X-5438234Y-28544503D01*
X-5419735Y-28555366D01*
X-5402031Y-28566770D01*
X-5385124Y-28578715D01*
X-5369012Y-28591201D01*
X-5353697Y-28604227D01*
X-5339177Y-28617795D01*
X-5325453Y-28631904D01*
X-5312526Y-28646554D01*
X-5304315Y-28656511D01*
X-5292534Y-28671691D01*
X-5281394Y-28687165D01*
X-5270895Y-28702933D01*
X-5261038Y-28718994D01*
X-5251823Y-28735349D01*
X-5243248Y-28751998D01*
X-5235316Y-28768940D01*
X-5228024Y-28786176D01*
X-5221374Y-28803706D01*
X-5215366Y-28821529D01*
X-5507725Y-28920008D01*
X-5512753Y-28899070D01*
X-5519045Y-28879122D01*
X-5526601Y-28860162D01*
X-5535422Y-28842192D01*
X-5545506Y-28825211D01*
X-5556854Y-28809219D01*
X-5569466Y-28794217D01*
X-5583342Y-28780203D01*
X-5587028Y-28776849D01*
X-5602958Y-28764498D01*
X-5620784Y-28753851D01*
X-5640506Y-28744907D01*
X-5662124Y-28737667D01*
X-5679581Y-28733354D01*
X-5698105Y-28730000D01*
X-5717696Y-28727605D01*
X-5738353Y-28726167D01*
X-5760076Y-28725688D01*
X-5767569Y-28725744D01*
X-5789278Y-28726574D01*
X-5809836Y-28728402D01*
X-5829242Y-28731227D01*
X-5847497Y-28735048D01*
X-5864600Y-28739867D01*
X-5885613Y-28747842D01*
X-5904579Y-28757589D01*
X-5921499Y-28769109D01*
X-5936371Y-28782401D01*
X-5949354Y-28797074D01*
X-5960606Y-28812736D01*
X-5970127Y-28829388D01*
X-5977916Y-28847028D01*
X-5983975Y-28865658D01*
X-5988303Y-28885277D01*
X-5990899Y-28905885D01*
X-5991765Y-28927482D01*
X-5991765Y-28997824D01*
X-5648848Y-28997824D01*
X-5631331Y-28997997D01*
X-5605520Y-28998908D01*
X-5580265Y-29000599D01*
X-5555566Y-29003071D01*
X-5531424Y-29006323D01*
X-5507838Y-29010355D01*
X-5484808Y-29015169D01*
X-5462335Y-29020762D01*
X-5440419Y-29027137D01*
X-5419059Y-29034292D01*
X-5398255Y-29042227D01*
X-5384757Y-29047891D01*
X-5365205Y-29057018D01*
X-5346488Y-29066902D01*
X-5328605Y-29077543D01*
X-5311557Y-29088942D01*
X-5295344Y-29101098D01*
X-5279965Y-29114011D01*
X-5265421Y-29127682D01*
X-5251711Y-29142110D01*
X-5238837Y-29157296D01*
X-5226796Y-29173239D01*
X-5219343Y-29184281D01*
X-5209065Y-29201450D01*
X-5199869Y-29219346D01*
X-5191754Y-29237968D01*
X-5184722Y-29257316D01*
X-5178771Y-29277391D01*
X-5173903Y-29298192D01*
X-5170116Y-29319720D01*
X-5167411Y-29341974D01*
X-5165788Y-29364954D01*
X-5165247Y-29388661D01*
X-5165488Y-29404557D01*
X-5166750Y-29427833D01*
X-5169094Y-29450430D01*
X-5172520Y-29472347D01*
X-5177028Y-29493583D01*
X-5182618Y-29514140D01*
X-5189290Y-29534016D01*
X-5197044Y-29553212D01*
X-5205879Y-29571729D01*
X-5215797Y-29589565D01*
X-5226796Y-29606721D01*
X-5234715Y-29617710D01*
X-5247231Y-29633569D01*
X-5260511Y-29648679D01*
X-5274557Y-29663039D01*
X-5289367Y-29676649D01*
X-5304943Y-29689510D01*
X-5321284Y-29701621D01*
X-5338390Y-29712982D01*
X-5356261Y-29723594D01*
X-5374897Y-29733456D01*
X-5394298Y-29742569D01*
X-5407650Y-29748212D01*
X-5428085Y-29755994D01*
X-5449006Y-29762957D01*
X-5470413Y-29769101D01*
X-5492308Y-29774425D01*
X-5514690Y-29778931D01*
X-5537558Y-29782617D01*
X-5560913Y-29785484D01*
X-5584756Y-29787532D01*
X-5609085Y-29788761D01*
X-5633900Y-29789170D01*
X-5657978Y-29788838D01*
X-5681082Y-29787841D01*
X-5703213Y-29786180D01*
X-5724369Y-29783854D01*
X-5744552Y-29780863D01*
X-5763762Y-29777208D01*
X-5781997Y-29772888D01*
X-5799259Y-29767903D01*
X-5820760Y-29760223D01*
X-5840530Y-29751362D01*
X-5845216Y-29748988D01*
X-5863173Y-29739278D01*
X-5879865Y-29729225D01*
X-5895294Y-29718828D01*
X-5909458Y-29708088D01*
X-5925387Y-29694180D01*
X-5939340Y-29679735D01*
X-5951318Y-29664753D01*
X-5961698Y-29649827D01*
X-5972537Y-29633135D01*
X-5981615Y-29617772D01*
X-5989979Y-29601528D01*
X-5996601Y-29585179D01*
X-6044521Y-29585179D01*
X-6044521Y-29587817D01*
X-6045463Y-29606247D01*
X-6049286Y-29627952D01*
X-6056050Y-29648176D01*
X-6065755Y-29666918D01*
X-6078401Y-29684180D01*
X-6090635Y-29696922D01*
X-6104752Y-29708717D01*
X-6120434Y-29719330D01*
X-6137148Y-29728528D01*
X-6154891Y-29736311D01*
X-6173665Y-29742679D01*
X-6193469Y-29747632D01*
X-6214304Y-29751169D01*
X-6236169Y-29753292D01*
X-6259064Y-29754000D01*
X-6470530Y-29754000D01*
X-6470530Y-29491976D01*
X-6369853Y-29491976D01*
X-6349462Y-29490130D01*
X-6329554Y-29483040D01*
X-6314624Y-29470634D01*
X-6304670Y-29452912D01*
X-6300177Y-29434081D01*
X-6299071Y-29416358D01*
X-6299071Y-29234788D01*
X-5991765Y-29234788D01*
X-5991765Y-29260287D01*
X-5991435Y-29275485D01*
X-5989704Y-29297575D01*
X-5986489Y-29318814D01*
X-5981791Y-29339203D01*
X-5975608Y-29358742D01*
X-5967942Y-29377431D01*
X-5958792Y-29395269D01*
X-5948159Y-29412258D01*
X-5936041Y-29428397D01*
X-5922440Y-29443685D01*
X-5907355Y-29458124D01*
X-5896611Y-29467121D01*
X-5879774Y-29479528D01*
X-5862072Y-29490629D01*
X-5843504Y-29500425D01*
X-5824071Y-29508914D01*
X-5803772Y-29516097D01*
X-5782608Y-29521974D01*
X-5760578Y-29526545D01*
X-5737682Y-29529810D01*
X-5713921Y-29531769D01*
X-5689295Y-29532422D01*
X-5670835Y-29532048D01*
X-5647521Y-29530382D01*
X-5625690Y-29527383D01*
X-5605343Y-29523052D01*
X-5586480Y-29517388D01*
X-5569100Y-29510392D01*
X-5553205Y-29502063D01*
X-5535422Y-29489778D01*
X-5529033Y-29484294D01*
X-5514865Y-29469729D01*
X-5503273Y-29453940D01*
X-5494257Y-29436928D01*
X-5487817Y-29418692D01*
X-5483953Y-29399233D01*
X-5482665Y-29378549D01*
X-5482861Y-29370150D01*
X-5485063Y-29350188D01*
X-5489713Y-29331707D01*
X-5496810Y-29314708D01*
X-5506354Y-29299190D01*
X-5518345Y-29285153D01*
X-5532784Y-29272597D01*
X-5539251Y-29268018D01*
X-5556712Y-29257865D01*
X-5576019Y-29249557D01*
X-5592794Y-29244240D01*
X-5610751Y-29240105D01*
X-5629889Y-29237151D01*
X-5650208Y-29235379D01*
X-5671709Y-29234788D01*
X-5991765Y-29234788D01*
X-6299071Y-29234788D01*
X-6299071Y-28949903D01*
X-6298510Y-28921047D01*
X-6296825Y-28893059D01*
X-6294017Y-28865941D01*
X-6290086Y-28839692D01*
X-6285032Y-28814311D01*
X-6278855Y-28789800D01*
X-6271555Y-28766157D01*
X-6263131Y-28743384D01*
X-6253584Y-28721479D01*
X-6242915Y-28700443D01*
X-6231122Y-28680277D01*
X-6218206Y-28660979D01*
X-6204166Y-28642550D01*
X-6189004Y-28624991D01*
X-6172719Y-28608300D01*
X-6155310Y-28592478D01*
X-6136990Y-28577519D01*
X-6117858Y-28563524D01*
X-6097917Y-28550495D01*
X-6077165Y-28538430D01*
X-6055602Y-28527331D01*
X-6033228Y-28517197D01*
X-6010044Y-28508028D01*
X-5986050Y-28499825D01*
X-5961245Y-28492586D01*
X-5935629Y-28486313D01*
X-5909203Y-28481004D01*
X-5881966Y-28476661D01*
X-5853918Y-28473283D01*
X-5825060Y-28470870D01*
X-5795391Y-28469423D01*
X-5764912Y-28468940D01*
X-5744936Y-28469133D01*
G37*
G36*
X-6701779Y-29754000D02*
G01*
X-7014361Y-29754000D01*
X-7014361Y-29602764D01*
X-7059644Y-29602764D01*
X-7062383Y-29607176D01*
X-7074267Y-29624572D01*
X-7087634Y-29641570D01*
X-7102486Y-29658170D01*
X-7118821Y-29674372D01*
X-7132046Y-29686261D01*
X-7146106Y-29697926D01*
X-7161001Y-29709368D01*
X-7176730Y-29720585D01*
X-7193293Y-29731578D01*
X-7204920Y-29738552D01*
X-7223505Y-29748170D01*
X-7243467Y-29756775D01*
X-7264804Y-29764367D01*
X-7287516Y-29770948D01*
X-7311605Y-29776516D01*
X-7337068Y-29781072D01*
X-7354808Y-29783546D01*
X-7373160Y-29785571D01*
X-7392123Y-29787146D01*
X-7411697Y-29788271D01*
X-7431882Y-29788945D01*
X-7452679Y-29789170D01*
X-7471494Y-29788880D01*
X-7490131Y-29788010D01*
X-7508589Y-29786558D01*
X-7526868Y-29784527D01*
X-7544969Y-29781915D01*
X-7562891Y-29778722D01*
X-7580634Y-29774949D01*
X-7598199Y-29770596D01*
X-7615585Y-29765662D01*
X-7632793Y-29760148D01*
X-7649822Y-29754053D01*
X-7666673Y-29747377D01*
X-7683344Y-29740122D01*
X-7699838Y-29732286D01*
X-7716152Y-29723869D01*
X-7732288Y-29714872D01*
X-7748191Y-29705315D01*
X-7763695Y-29695219D01*
X-7778801Y-29684583D01*
X-7793508Y-29673409D01*
X-7807817Y-29661695D01*
X-7821727Y-29649441D01*
X-7835239Y-29636649D01*
X-7848353Y-29623317D01*
X-7861068Y-29609446D01*
X-7873384Y-29595036D01*
X-7885303Y-29580087D01*
X-7896823Y-29564598D01*
X-7907944Y-29548570D01*
X-7918667Y-29532003D01*
X-7928992Y-29514897D01*
X-7938918Y-29497251D01*
X-7948394Y-29479044D01*
X-7957259Y-29460363D01*
X-7965512Y-29441208D01*
X-7973155Y-29421579D01*
X-7980185Y-29401476D01*
X-7986605Y-29380899D01*
X-7992413Y-29359848D01*
X-7997609Y-29338323D01*
X-8002195Y-29316324D01*
X-8006169Y-29293851D01*
X-8009531Y-29270904D01*
X-8012282Y-29247483D01*
X-8014422Y-29223588D01*
X-8015951Y-29199219D01*
X-8016868Y-29174376D01*
X-8017173Y-29149059D01*
X-8017173Y-29141585D01*
X-7699755Y-29141585D01*
X-7699371Y-29163941D01*
X-7698217Y-29185617D01*
X-7696293Y-29206613D01*
X-7693600Y-29226930D01*
X-7690138Y-29246566D01*
X-7685907Y-29265521D01*
X-7680906Y-29283797D01*
X-7675136Y-29301393D01*
X-7668596Y-29318309D01*
X-7661287Y-29334544D01*
X-7648881Y-29357623D01*
X-7634744Y-29379171D01*
X-7618876Y-29399189D01*
X-7601277Y-29417677D01*
X-7595102Y-29423492D01*
X-7576018Y-29439831D01*
X-7556091Y-29454507D01*
X-7535322Y-29467523D01*
X-7513711Y-29478876D01*
X-7491257Y-29488569D01*
X-7467961Y-29496599D01*
X-7443823Y-29502968D01*
X-7418842Y-29507676D01*
X-7393019Y-29510722D01*
X-7375336Y-29511830D01*
X-7357278Y-29512199D01*
X-7348175Y-29512107D01*
X-7330249Y-29511368D01*
X-7312698Y-29509891D01*
X-7287073Y-29506291D01*
X-7262291Y-29501030D01*
X-7238351Y-29494107D01*
X-7215253Y-29485522D01*
X-7192998Y-29475276D01*
X-7171585Y-29463369D01*
X-7151014Y-29449800D01*
X-7131286Y-29434569D01*
X-7112400Y-29417677D01*
X-7094879Y-29399189D01*
X-7079082Y-29379171D01*
X-7065008Y-29357623D01*
X-7052657Y-29334544D01*
X-7045381Y-29318309D01*
X-7038871Y-29301393D01*
X-7033126Y-29283797D01*
X-7028148Y-29265521D01*
X-7023935Y-29246566D01*
X-7020488Y-29226930D01*
X-7017808Y-29206613D01*
X-7015893Y-29185617D01*
X-7014744Y-29163941D01*
X-7014361Y-29141585D01*
X-7014361Y-29116526D01*
X-7014744Y-29094169D01*
X-7015893Y-29072493D01*
X-7017808Y-29051497D01*
X-7020488Y-29031181D01*
X-7023935Y-29011545D01*
X-7028148Y-28992589D01*
X-7033126Y-28974313D01*
X-7038871Y-28956718D01*
X-7045381Y-28939802D01*
X-7052657Y-28923566D01*
X-7065008Y-28900488D01*
X-7079082Y-28878940D01*
X-7094879Y-28858921D01*
X-7112400Y-28840434D01*
X-7118602Y-28834618D01*
X-7137768Y-28818280D01*
X-7157778Y-28803603D01*
X-7178629Y-28790588D01*
X-7200323Y-28779234D01*
X-7222859Y-28769542D01*
X-7246237Y-28761511D01*
X-7270458Y-28755142D01*
X-7295521Y-28750435D01*
X-7321427Y-28747388D01*
X-7339165Y-28746281D01*
X-7357278Y-28745912D01*
X-7366515Y-28746004D01*
X-7384684Y-28746742D01*
X-7402448Y-28748219D01*
X-7428334Y-28751819D01*
X-7453309Y-28757081D01*
X-7477371Y-28764004D01*
X-7500522Y-28772588D01*
X-7522760Y-28782834D01*
X-7544087Y-28794742D01*
X-7564502Y-28808311D01*
X-7584004Y-28823541D01*
X-7602595Y-28840434D01*
X-7619959Y-28858921D01*
X-7635615Y-28878940D01*
X-7649562Y-28900488D01*
X-7661802Y-28923566D01*
X-7669013Y-28939802D01*
X-7675465Y-28956718D01*
X-7681158Y-28974313D01*
X-7686092Y-28992589D01*
X-7690267Y-29011545D01*
X-7693683Y-29031181D01*
X-7696339Y-29051497D01*
X-7698237Y-29072493D01*
X-7699376Y-29094169D01*
X-7699755Y-29116526D01*
X-7699755Y-29141585D01*
X-8017173Y-29141585D01*
X-8017173Y-29109052D01*
X-8016868Y-29083737D01*
X-8015951Y-29058899D01*
X-8014422Y-29034538D01*
X-8012282Y-29010656D01*
X-8009531Y-28987250D01*
X-8006169Y-28964322D01*
X-8002195Y-28941871D01*
X-7997609Y-28919898D01*
X-7992413Y-28898402D01*
X-7986605Y-28877384D01*
X-7980185Y-28856843D01*
X-7973155Y-28836779D01*
X-7965512Y-28817193D01*
X-7957259Y-28798084D01*
X-7948394Y-28779453D01*
X-7938918Y-28761299D01*
X-7928992Y-28743600D01*
X-7918667Y-28726444D01*
X-7907944Y-28709830D01*
X-7896823Y-28693760D01*
X-7885303Y-28678231D01*
X-7873384Y-28663246D01*
X-7861068Y-28648803D01*
X-7848353Y-28634903D01*
X-7835239Y-28621546D01*
X-7821727Y-28608731D01*
X-7807817Y-28596459D01*
X-7793508Y-28584730D01*
X-7778801Y-28573543D01*
X-7763695Y-28562899D01*
X-7748191Y-28552798D01*
X-7732288Y-28543239D01*
X-7716152Y-28534242D01*
X-7699838Y-28525825D01*
X-7683344Y-28517989D01*
X-7666673Y-28510733D01*
X-7649822Y-28504058D01*
X-7632793Y-28497963D01*
X-7615585Y-28492449D01*
X-7598199Y-28487515D01*
X-7580634Y-28483161D01*
X-7562891Y-28479388D01*
X-7544969Y-28476196D01*
X-7526868Y-28473584D01*
X-7508589Y-28471552D01*
X-7490131Y-28470101D01*
X-7471494Y-28469230D01*
X-7452679Y-28468940D01*
X-7445626Y-28468966D01*
X-7424893Y-28469352D01*
X-7404801Y-28470202D01*
X-7385351Y-28471516D01*
X-7366543Y-28473294D01*
X-7348375Y-28475535D01*
X-7325150Y-28479244D01*
X-7303065Y-28483778D01*
X-7282121Y-28489136D01*
X-7262316Y-28495318D01*
X-7257564Y-28496981D01*
X-7239141Y-28503905D01*
X-7221652Y-28511269D01*
X-7205097Y-28519073D01*
X-7189476Y-28527316D01*
X-7171263Y-28538238D01*
X-7154511Y-28549847D01*
X-7139218Y-28562143D01*
X-7125116Y-28574785D01*
X-7111938Y-28587706D01*
X-7099683Y-28600906D01*
X-7088351Y-28614385D01*
X-7075970Y-28630928D01*
X-7064919Y-28647872D01*
X-7019197Y-28647872D01*
X-7019197Y-27990175D01*
X-6701779Y-27990175D01*
X-6701779Y-29754000D01*
G37*
G36*
X-8828304Y-29789170D02*
G01*
X-8798092Y-29788758D01*
X-8768568Y-29787522D01*
X-8739731Y-29785461D01*
X-8711580Y-29782576D01*
X-8684117Y-29778866D01*
X-8657340Y-29774333D01*
X-8631250Y-29768975D01*
X-8605847Y-29762792D01*
X-8581132Y-29755786D01*
X-8557103Y-29747954D01*
X-8533761Y-29739299D01*
X-8511106Y-29729819D01*
X-8489137Y-29719515D01*
X-8467856Y-29708387D01*
X-8447262Y-29696435D01*
X-8427355Y-29683658D01*
X-8408328Y-29670060D01*
X-8390267Y-29655754D01*
X-8373171Y-29640741D01*
X-8357040Y-29625021D01*
X-8341874Y-29608593D01*
X-8327674Y-29591457D01*
X-8314438Y-29573614D01*
X-8302168Y-29555064D01*
X-8290863Y-29535806D01*
X-8280523Y-29515840D01*
X-8271148Y-29495167D01*
X-8262738Y-29473786D01*
X-8255293Y-29451697D01*
X-8248814Y-29428902D01*
X-8243300Y-29405398D01*
X-8238750Y-29381187D01*
X-8531109Y-29305570D01*
X-8535876Y-29326968D01*
X-8541386Y-29347198D01*
X-8547637Y-29366260D01*
X-8554630Y-29384155D01*
X-8562365Y-29400882D01*
X-8570841Y-29416441D01*
X-8582480Y-29434247D01*
X-8590020Y-29444055D01*
X-8603555Y-29459146D01*
X-8618056Y-29472821D01*
X-8633523Y-29485078D01*
X-8649955Y-29495919D01*
X-8667354Y-29505343D01*
X-8685719Y-29513350D01*
X-8693335Y-29516156D01*
X-8712975Y-29522235D01*
X-8733152Y-29527284D01*
X-8753865Y-29531303D01*
X-8775115Y-29534291D01*
X-8796901Y-29536249D01*
X-8814717Y-29537073D01*
X-8828304Y-29537258D01*
X-8848567Y-29536915D01*
X-8867809Y-29535883D01*
X-8886032Y-29534163D01*
X-8908742Y-29530801D01*
X-8929638Y-29526216D01*
X-8948721Y-29520408D01*
X-8965991Y-29513377D01*
X-8985028Y-29502869D01*
X-8991849Y-29498131D01*
X-9007174Y-29485452D01*
X-9019901Y-29471873D01*
X-9030032Y-29457391D01*
X-9038759Y-29438823D01*
X-9043746Y-29418957D01*
X-9045045Y-29401411D01*
X-9043267Y-29380576D01*
X-9037935Y-29361596D01*
X-9029048Y-29344471D01*
X-9016606Y-29329200D01*
X-9000609Y-29315784D01*
X-8994487Y-29311725D01*
X-8977343Y-29302123D01*
X-8957238Y-29293100D01*
X-8939020Y-29286299D01*
X-8918907Y-29279870D01*
X-8896897Y-29273811D01*
X-8879146Y-29269510D01*
X-8860329Y-29265418D01*
X-8840444Y-29261535D01*
X-8833579Y-29260287D01*
X-8762798Y-29247538D01*
X-8738430Y-29242673D01*
X-8714457Y-29237476D01*
X-8690877Y-29231946D01*
X-8667692Y-29226085D01*
X-8644901Y-29219891D01*
X-8622504Y-29213364D01*
X-8600501Y-29206506D01*
X-8578892Y-29199315D01*
X-8557677Y-29191792D01*
X-8536857Y-29183936D01*
X-8523196Y-29178515D01*
X-8503292Y-29169895D01*
X-8484138Y-29160689D01*
X-8465734Y-29150895D01*
X-8448079Y-29140513D01*
X-8431174Y-29129545D01*
X-8415019Y-29117989D01*
X-8399613Y-29105846D01*
X-8384957Y-29093115D01*
X-8371051Y-29079797D01*
X-8357894Y-29065892D01*
X-8349539Y-29056295D01*
X-8337832Y-29041225D01*
X-8327277Y-29025358D01*
X-8317873Y-29008695D01*
X-8309621Y-28991236D01*
X-8302521Y-28972981D01*
X-8296571Y-28953930D01*
X-8291773Y-28934084D01*
X-8288127Y-28913441D01*
X-8285632Y-28892002D01*
X-8284289Y-28869767D01*
X-8284033Y-28854502D01*
X-8284564Y-28831541D01*
X-8286156Y-28809261D01*
X-8288809Y-28787660D01*
X-8292523Y-28766739D01*
X-8297299Y-28746499D01*
X-8303137Y-28726938D01*
X-8310035Y-28708058D01*
X-8317995Y-28689858D01*
X-8327016Y-28672338D01*
X-8337099Y-28655497D01*
X-8348242Y-28639337D01*
X-8360447Y-28623857D01*
X-8373714Y-28609057D01*
X-8388042Y-28594937D01*
X-8403431Y-28581498D01*
X-8419881Y-28568738D01*
X-8437250Y-28556653D01*
X-8455285Y-28545348D01*
X-8473987Y-28534822D01*
X-8493355Y-28525076D01*
X-8513390Y-28516110D01*
X-8534090Y-28507924D01*
X-8555457Y-28500517D01*
X-8577491Y-28493890D01*
X-8600190Y-28488042D01*
X-8623557Y-28482974D01*
X-8647589Y-28478686D01*
X-8672288Y-28475178D01*
X-8697653Y-28472449D01*
X-8723684Y-28470500D01*
X-8750382Y-28469330D01*
X-8777745Y-28468940D01*
X-8803627Y-28469304D01*
X-8828956Y-28470396D01*
X-8853732Y-28472217D01*
X-8877955Y-28474765D01*
X-8901625Y-28478042D01*
X-8924742Y-28482047D01*
X-8947306Y-28486780D01*
X-8969317Y-28492241D01*
X-8990775Y-28498430D01*
X-9011681Y-28505348D01*
X-9032033Y-28512993D01*
X-9051832Y-28521367D01*
X-9071078Y-28530469D01*
X-9089771Y-28540299D01*
X-9107911Y-28550857D01*
X-9125498Y-28562143D01*
X-9142488Y-28574020D01*
X-9158725Y-28586351D01*
X-9174211Y-28599135D01*
X-9188944Y-28612372D01*
X-9202924Y-28626062D01*
X-9216153Y-28640206D01*
X-9228629Y-28654804D01*
X-9240354Y-28669854D01*
X-9251326Y-28685358D01*
X-9261546Y-28701316D01*
X-9271013Y-28717727D01*
X-9279729Y-28734591D01*
X-9287692Y-28751908D01*
X-9294903Y-28769679D01*
X-9301362Y-28787904D01*
X-9307069Y-28806581D01*
X-9012072Y-28897147D01*
X-9007992Y-28879667D01*
X-9001397Y-28857888D01*
X-8993484Y-28837854D01*
X-8984251Y-28819564D01*
X-8973700Y-28803019D01*
X-8961830Y-28788219D01*
X-8948641Y-28775164D01*
X-8934133Y-28763854D01*
X-8930300Y-28761299D01*
X-8914452Y-28751819D01*
X-8897684Y-28743603D01*
X-8879995Y-28736652D01*
X-8861386Y-28730964D01*
X-8841857Y-28726540D01*
X-8821407Y-28723380D01*
X-8800036Y-28721484D01*
X-8777745Y-28720852D01*
X-8755771Y-28721347D01*
X-8735128Y-28722831D01*
X-8715818Y-28725304D01*
X-8697841Y-28728766D01*
X-8677244Y-28734484D01*
X-8658729Y-28741749D01*
X-8642296Y-28750559D01*
X-8639260Y-28752506D01*
X-8622974Y-28765062D01*
X-8610058Y-28779317D01*
X-8600512Y-28795273D01*
X-8594334Y-28812929D01*
X-8591527Y-28832285D01*
X-8591339Y-28839115D01*
X-8592574Y-28857301D01*
X-8597314Y-28877085D01*
X-8605608Y-28894643D01*
X-8617458Y-28909975D01*
X-8632862Y-28923082D01*
X-8641898Y-28928801D01*
X-8658545Y-28937525D01*
X-8676888Y-28945562D01*
X-8696927Y-28952912D01*
X-8714180Y-28958298D01*
X-8732517Y-28963243D01*
X-8751940Y-28967750D01*
X-8772449Y-28971816D01*
X-8777745Y-28972764D01*
X-8848527Y-28985514D01*
X-8866063Y-28988711D01*
X-8883389Y-28992040D01*
X-8908985Y-28997277D01*
X-8934110Y-29002807D01*
X-8958764Y-29008632D01*
X-8982946Y-29014750D01*
X-9006657Y-29021161D01*
X-9029896Y-29027867D01*
X-9052664Y-29034866D01*
X-9074961Y-29042158D01*
X-9096786Y-29049745D01*
X-9103956Y-29052339D01*
X-9125050Y-29060400D01*
X-9145301Y-29069088D01*
X-9164710Y-29078401D01*
X-9183276Y-29088341D01*
X-9201001Y-29098906D01*
X-9217882Y-29110098D01*
X-9233922Y-29121915D01*
X-9249119Y-29134358D01*
X-9263474Y-29147428D01*
X-9276986Y-29161123D01*
X-9285526Y-29170601D01*
X-9297469Y-29185502D01*
X-9308236Y-29201353D01*
X-9317829Y-29218155D01*
X-9326248Y-29235908D01*
X-9333491Y-29254611D01*
X-9339561Y-29274264D01*
X-9344455Y-29294869D01*
X-9348175Y-29316423D01*
X-9350720Y-29338928D01*
X-9352090Y-29362384D01*
X-9352351Y-29378549D01*
X-9351795Y-29402766D01*
X-9350126Y-29426284D01*
X-9347343Y-29449106D01*
X-9343449Y-29471230D01*
X-9338441Y-29492658D01*
X-9332320Y-29513387D01*
X-9325087Y-29533420D01*
X-9316741Y-29552756D01*
X-9307282Y-29571394D01*
X-9296710Y-29589335D01*
X-9285025Y-29606579D01*
X-9272227Y-29623125D01*
X-9258317Y-29638974D01*
X-9243294Y-29654126D01*
X-9227158Y-29668581D01*
X-9209909Y-29682339D01*
X-9191777Y-29695275D01*
X-9172883Y-29707377D01*
X-9153227Y-29718645D01*
X-9132807Y-29729078D01*
X-9111626Y-29738676D01*
X-9089682Y-29747439D01*
X-9066975Y-29755368D01*
X-9043506Y-29762463D01*
X-9019275Y-29768722D01*
X-8994281Y-29774147D01*
X-8968524Y-29778738D01*
X-8942005Y-29782493D01*
X-8914723Y-29785415D01*
X-8886679Y-29787501D01*
X-8857873Y-29788753D01*
X-8828304Y-29789170D01*
G37*
G36*
X-9830237Y-29789170D02*
G01*
X-9811398Y-29788579D01*
X-9793132Y-29786806D01*
X-9775438Y-29783850D01*
X-9758315Y-29779711D01*
X-9736374Y-29772354D01*
X-9715450Y-29762895D01*
X-9695543Y-29751334D01*
X-9676652Y-29737671D01*
X-9663151Y-29726044D01*
X-9658778Y-29721906D01*
X-9646443Y-29708958D01*
X-9631884Y-29690648D01*
X-9619481Y-29671142D01*
X-9609235Y-29650441D01*
X-9601147Y-29628545D01*
X-9596496Y-29611339D01*
X-9593058Y-29593460D01*
X-9590834Y-29574909D01*
X-9589823Y-29555686D01*
X-9589755Y-29549129D01*
X-9590362Y-29529764D01*
X-9592182Y-29511071D01*
X-9595215Y-29493050D01*
X-9599462Y-29475702D01*
X-9607011Y-29453617D01*
X-9616717Y-29432728D01*
X-9628581Y-29413033D01*
X-9642601Y-29394534D01*
X-9654532Y-29381444D01*
X-9658778Y-29377230D01*
X-9672088Y-29365288D01*
X-9690725Y-29351192D01*
X-9710378Y-29339185D01*
X-9731048Y-29329265D01*
X-9752734Y-29321434D01*
X-9775438Y-29315692D01*
X-9793132Y-29312755D01*
X-9811398Y-29310993D01*
X-9830237Y-29310406D01*
X-9849063Y-29311001D01*
X-9867295Y-29312786D01*
X-9884932Y-29315761D01*
X-9907521Y-29321579D01*
X-9929053Y-29329514D01*
X-9949527Y-29339563D01*
X-9968944Y-29351729D01*
X-9987302Y-29366010D01*
X-10000376Y-29378110D01*
X-10012554Y-29391054D01*
X-10026928Y-29409347D01*
X-10039173Y-29428822D01*
X-10049288Y-29449478D01*
X-10057274Y-29471315D01*
X-10061865Y-29488469D01*
X-10065259Y-29506287D01*
X-10067455Y-29524770D01*
X-10068454Y-29543917D01*
X-10068520Y-29550448D01*
X-10067921Y-29569813D01*
X-10066124Y-29588505D01*
X-10063130Y-29606526D01*
X-10058937Y-29623874D01*
X-10051484Y-29645959D01*
X-10041901Y-29666848D01*
X-10030189Y-29686543D01*
X-10016348Y-29705042D01*
X-10004569Y-29718132D01*
X-10000376Y-29722346D01*
X-9987302Y-29734288D01*
X-9968944Y-29748384D01*
X-9949527Y-29760391D01*
X-9929053Y-29770311D01*
X-9907521Y-29778142D01*
X-9884932Y-29783885D01*
X-9867295Y-29786821D01*
X-9849063Y-29788583D01*
X-9830237Y-29789170D01*
G37*
G36*
X-10380662Y-29754000D02*
G01*
X-10380662Y-28504111D01*
X-10698080Y-28504111D01*
X-10698080Y-29754000D01*
X-10380662Y-29754000D01*
G37*
G36*
X-10539811Y-28357712D02*
G01*
X-10518791Y-28356846D01*
X-10498595Y-28354250D01*
X-10479224Y-28349922D01*
X-10460676Y-28343863D01*
X-10442954Y-28336074D01*
X-10426055Y-28326553D01*
X-10409981Y-28315301D01*
X-10394731Y-28302318D01*
X-10380820Y-28287920D01*
X-10368765Y-28272422D01*
X-10358564Y-28255826D01*
X-10350218Y-28238131D01*
X-10343726Y-28219336D01*
X-10339089Y-28199443D01*
X-10336307Y-28178450D01*
X-10335380Y-28156358D01*
X-10336307Y-28134266D01*
X-10339089Y-28113274D01*
X-10343726Y-28093380D01*
X-10350218Y-28074586D01*
X-10358564Y-28056890D01*
X-10368765Y-28040294D01*
X-10380820Y-28024797D01*
X-10394731Y-28010399D01*
X-10409981Y-27997313D01*
X-10426055Y-27985971D01*
X-10442954Y-27976375D01*
X-10460676Y-27968523D01*
X-10479224Y-27962416D01*
X-10498595Y-27958054D01*
X-10518791Y-27955437D01*
X-10539811Y-27954565D01*
X-10561326Y-27955437D01*
X-10581906Y-27958054D01*
X-10601553Y-27962416D01*
X-10620265Y-27968523D01*
X-10638043Y-27976375D01*
X-10654886Y-27985971D01*
X-10670795Y-27997313D01*
X-10685771Y-28010399D01*
X-10699372Y-28024797D01*
X-10711160Y-28040294D01*
X-10721134Y-28056890D01*
X-10729295Y-28074586D01*
X-10735642Y-28093380D01*
X-10740176Y-28113274D01*
X-10742896Y-28134266D01*
X-10743803Y-28156358D01*
X-10742896Y-28178450D01*
X-10740176Y-28199443D01*
X-10735642Y-28219336D01*
X-10729295Y-28238131D01*
X-10721134Y-28255826D01*
X-10711160Y-28272422D01*
X-10699372Y-28287920D01*
X-10685771Y-28302318D01*
X-10670795Y-28315301D01*
X-10654886Y-28326553D01*
X-10638043Y-28336074D01*
X-10620265Y-28343863D01*
X-10601553Y-28349922D01*
X-10581906Y-28354250D01*
X-10561326Y-28356846D01*
X-10539811Y-28357712D01*
G37*
G36*
X-11622344Y-28469236D02*
G01*
X-11599481Y-28470122D01*
X-11576910Y-28471599D01*
X-11554631Y-28473666D01*
X-11532644Y-28476325D01*
X-11510949Y-28479574D01*
X-11489546Y-28483414D01*
X-11468435Y-28487845D01*
X-11447615Y-28492866D01*
X-11427088Y-28498478D01*
X-11406853Y-28504681D01*
X-11386909Y-28511475D01*
X-11367258Y-28518860D01*
X-11347898Y-28526835D01*
X-11328831Y-28535401D01*
X-11310055Y-28544558D01*
X-11291726Y-28554276D01*
X-11273888Y-28564527D01*
X-11256542Y-28575310D01*
X-11239686Y-28586626D01*
X-11223321Y-28598473D01*
X-11207448Y-28610854D01*
X-11192066Y-28623766D01*
X-11177175Y-28637211D01*
X-11162775Y-28651189D01*
X-11148866Y-28665698D01*
X-11135449Y-28680741D01*
X-11122523Y-28696315D01*
X-11110087Y-28712422D01*
X-11098143Y-28729061D01*
X-11086690Y-28746233D01*
X-11075729Y-28763937D01*
X-11065401Y-28782080D01*
X-11055739Y-28800681D01*
X-11046744Y-28819738D01*
X-11038415Y-28839252D01*
X-11030752Y-28859223D01*
X-11023755Y-28879651D01*
X-11017425Y-28900535D01*
X-11011762Y-28921876D01*
X-11006764Y-28943674D01*
X-11002433Y-28965929D01*
X-10998768Y-28988641D01*
X-10995770Y-29011810D01*
X-10993438Y-29035435D01*
X-10991772Y-29059517D01*
X-10990772Y-29084056D01*
X-10990439Y-29109052D01*
X-10990439Y-29149059D01*
X-10990772Y-29174056D01*
X-10991772Y-29198600D01*
X-10993438Y-29222691D01*
X-10995770Y-29246329D01*
X-10998768Y-29269513D01*
X-11002433Y-29292243D01*
X-11006764Y-29314520D01*
X-11011762Y-29336344D01*
X-11017425Y-29357715D01*
X-11023755Y-29378632D01*
X-11030752Y-29399096D01*
X-11038415Y-29419106D01*
X-11046744Y-29438663D01*
X-11055739Y-29457767D01*
X-11065401Y-29476417D01*
X-11075729Y-29494614D01*
X-11086690Y-29512264D01*
X-11098143Y-29529386D01*
X-11110087Y-29545979D01*
X-11122523Y-29562043D01*
X-11135449Y-29577578D01*
X-11148866Y-29592584D01*
X-11162775Y-29607061D01*
X-11177175Y-29621009D01*
X-11192066Y-29634429D01*
X-11207448Y-29647319D01*
X-11223321Y-29659680D01*
X-11239686Y-29671513D01*
X-11256542Y-29682816D01*
X-11273888Y-29693591D01*
X-11291726Y-29703836D01*
X-11310055Y-29713553D01*
X-11328831Y-29722710D01*
X-11347898Y-29731276D01*
X-11367258Y-29739251D01*
X-11386909Y-29746636D01*
X-11406853Y-29753429D01*
X-11427088Y-29759632D01*
X-11447615Y-29765245D01*
X-11468435Y-29770266D01*
X-11489546Y-29774697D01*
X-11510949Y-29778537D01*
X-11532644Y-29781786D01*
X-11554631Y-29784444D01*
X-11576910Y-29786512D01*
X-11599481Y-29787989D01*
X-11622344Y-29788875D01*
X-11645498Y-29789170D01*
X-11668652Y-29788875D01*
X-11691509Y-29787989D01*
X-11714072Y-29786512D01*
X-11736338Y-29784444D01*
X-11758310Y-29781786D01*
X-11779986Y-29778537D01*
X-11801367Y-29774697D01*
X-11822452Y-29770266D01*
X-11843242Y-29765245D01*
X-11863737Y-29759632D01*
X-11883936Y-29753429D01*
X-11903840Y-29746636D01*
X-11923449Y-29739251D01*
X-11942762Y-29731276D01*
X-11961780Y-29722710D01*
X-11980502Y-29713553D01*
X-11998883Y-29703836D01*
X-12016765Y-29693591D01*
X-12034150Y-29682816D01*
X-12051036Y-29671513D01*
X-12067425Y-29659680D01*
X-12083315Y-29647319D01*
X-12098708Y-29634429D01*
X-12113602Y-29621009D01*
X-12127998Y-29607061D01*
X-12141897Y-29592584D01*
X-12155297Y-29577578D01*
X-12168200Y-29562043D01*
X-12180604Y-29545979D01*
X-12192510Y-29529386D01*
X-12203918Y-29512264D01*
X-12214829Y-29494614D01*
X-12225210Y-29476417D01*
X-12234921Y-29457767D01*
X-12243963Y-29438663D01*
X-12252335Y-29419106D01*
X-12260037Y-29399096D01*
X-12267070Y-29378632D01*
X-12273433Y-29357715D01*
X-12279125Y-29336344D01*
X-12284149Y-29314520D01*
X-12288502Y-29292243D01*
X-12292186Y-29269513D01*
X-12295200Y-29246329D01*
X-12297544Y-29222691D01*
X-12299218Y-29198600D01*
X-12300223Y-29174056D01*
X-12300558Y-29149059D01*
X-12300558Y-29141585D01*
X-11983140Y-29141585D01*
X-11983046Y-29152524D01*
X-11982297Y-29173921D01*
X-11980800Y-29194681D01*
X-11978554Y-29214801D01*
X-11975559Y-29234282D01*
X-11971815Y-29253125D01*
X-11967322Y-29271329D01*
X-11962081Y-29288893D01*
X-11956091Y-29305820D01*
X-11945702Y-29330011D01*
X-11933628Y-29352765D01*
X-11919870Y-29374081D01*
X-11904427Y-29393960D01*
X-11887299Y-29412401D01*
X-11881260Y-29418217D01*
X-11862556Y-29434555D01*
X-11842970Y-29449232D01*
X-11822504Y-29462247D01*
X-11801157Y-29473601D01*
X-11778928Y-29483293D01*
X-11755819Y-29491324D01*
X-11731829Y-29497693D01*
X-11706957Y-29502400D01*
X-11681205Y-29505447D01*
X-11663548Y-29506554D01*
X-11645498Y-29506923D01*
X-11627449Y-29506554D01*
X-11601110Y-29504616D01*
X-11575651Y-29501016D01*
X-11551074Y-29495754D01*
X-11527377Y-29488831D01*
X-11504561Y-29480247D01*
X-11482627Y-29470001D01*
X-11461573Y-29458093D01*
X-11441400Y-29444524D01*
X-11422109Y-29429294D01*
X-11403698Y-29412401D01*
X-11392092Y-29400267D01*
X-11376088Y-29380867D01*
X-11361768Y-29360030D01*
X-11349132Y-29337755D01*
X-11338182Y-29314043D01*
X-11331817Y-29297436D01*
X-11326202Y-29280191D01*
X-11321335Y-29262307D01*
X-11317217Y-29243783D01*
X-11313847Y-29224621D01*
X-11311227Y-29204821D01*
X-11309355Y-29184381D01*
X-11308232Y-29163302D01*
X-11307857Y-29141585D01*
X-11307857Y-29116526D01*
X-11307951Y-29105587D01*
X-11308699Y-29084189D01*
X-11310197Y-29063430D01*
X-11312443Y-29043310D01*
X-11315438Y-29023828D01*
X-11319182Y-29004986D01*
X-11323675Y-28986782D01*
X-11328916Y-28969217D01*
X-11334906Y-28952291D01*
X-11345295Y-28928100D01*
X-11357369Y-28905346D01*
X-11371127Y-28884030D01*
X-11386570Y-28864151D01*
X-11403698Y-28845709D01*
X-11409737Y-28839894D01*
X-11428441Y-28823556D01*
X-11448027Y-28808879D01*
X-11468493Y-28795864D01*
X-11489840Y-28784510D01*
X-11512069Y-28774818D01*
X-11535178Y-28766787D01*
X-11559168Y-28760418D01*
X-11584039Y-28755710D01*
X-11609792Y-28752664D01*
X-11627449Y-28751556D01*
X-11645498Y-28751187D01*
X-11654733Y-28751280D01*
X-11672885Y-28752018D01*
X-11690615Y-28753495D01*
X-11716417Y-28757095D01*
X-11741269Y-28762356D01*
X-11765171Y-28769279D01*
X-11788122Y-28777864D01*
X-11810122Y-28788110D01*
X-11831172Y-28800017D01*
X-11851271Y-28813586D01*
X-11870420Y-28828817D01*
X-11888618Y-28845709D01*
X-11900064Y-28857844D01*
X-11915848Y-28877244D01*
X-11929971Y-28898081D01*
X-11942433Y-28920356D01*
X-11953232Y-28944068D01*
X-11959509Y-28960674D01*
X-11965048Y-28977920D01*
X-11969848Y-28995804D01*
X-11973909Y-29014327D01*
X-11977232Y-29033489D01*
X-11979817Y-29053290D01*
X-11981663Y-29073730D01*
X-11982771Y-29094808D01*
X-11983140Y-29116526D01*
X-11983140Y-29141585D01*
X-12300558Y-29141585D01*
X-12300558Y-29109052D01*
X-12300223Y-29084056D01*
X-12299218Y-29059517D01*
X-12297544Y-29035435D01*
X-12295200Y-29011810D01*
X-12292186Y-28988641D01*
X-12288502Y-28965929D01*
X-12284149Y-28943674D01*
X-12279125Y-28921876D01*
X-12273433Y-28900535D01*
X-12267070Y-28879651D01*
X-12260037Y-28859223D01*
X-12252335Y-28839252D01*
X-12243963Y-28819738D01*
X-12234921Y-28800681D01*
X-12225210Y-28782080D01*
X-12214829Y-28763937D01*
X-12203918Y-28746233D01*
X-12192510Y-28729061D01*
X-12180604Y-28712422D01*
X-12168200Y-28696315D01*
X-12155297Y-28680741D01*
X-12141897Y-28665698D01*
X-12127998Y-28651189D01*
X-12113602Y-28637211D01*
X-12098708Y-28623766D01*
X-12083315Y-28610854D01*
X-12067425Y-28598473D01*
X-12051036Y-28586626D01*
X-12034150Y-28575310D01*
X-12016765Y-28564527D01*
X-11998883Y-28554276D01*
X-11980502Y-28544558D01*
X-11961780Y-28535401D01*
X-11942762Y-28526835D01*
X-11923449Y-28518860D01*
X-11903840Y-28511475D01*
X-11883936Y-28504681D01*
X-11863737Y-28498478D01*
X-11843242Y-28492866D01*
X-11822452Y-28487845D01*
X-11801367Y-28483414D01*
X-11779986Y-28479574D01*
X-11758310Y-28476325D01*
X-11736338Y-28473666D01*
X-11714072Y-28471599D01*
X-11691509Y-28470122D01*
X-11668652Y-28469236D01*
X-11645498Y-28468940D01*
X-11622344Y-28469236D01*
G37*
D11*
G36*
X-16555199Y22055000D02*
G01*
X-16309979Y22739368D01*
X-16427949Y22739368D01*
X-16633845Y22138042D01*
X-16653141Y22138042D01*
X-16858793Y22739368D01*
X-16976762Y22739368D01*
X-16731787Y22055000D01*
X-16555199Y22055000D01*
G37*
G36*
X-17379275Y22055000D02*
G01*
X-17379275Y22959187D01*
X-17359002Y22959187D01*
X-17168737Y22610408D01*
X-17044662Y22610408D01*
X-17278647Y23034902D01*
X-17492848Y23034902D01*
X-17492848Y22055000D01*
X-17379275Y22055000D01*
G37*
G36*
X-17782275Y22035460D02*
G01*
X-17772177Y22035876D01*
X-17760178Y22037566D01*
X-17748869Y22040556D01*
X-17738253Y22044846D01*
X-17728328Y22050435D01*
X-17719095Y22057325D01*
X-17713887Y22062083D01*
X-17706077Y22070842D01*
X-17699591Y22080329D01*
X-17694428Y22090544D01*
X-17690589Y22101486D01*
X-17688074Y22113155D01*
X-17687015Y22123015D01*
X-17686776Y22130715D01*
X-17687200Y22140920D01*
X-17688471Y22150651D01*
X-17691251Y22162150D01*
X-17695354Y22172910D01*
X-17700782Y22182930D01*
X-17707533Y22192211D01*
X-17713887Y22199103D01*
X-17722705Y22206772D01*
X-17732215Y22213142D01*
X-17742417Y22218212D01*
X-17753310Y22221981D01*
X-17764895Y22224451D01*
X-17774660Y22225491D01*
X-17782275Y22225725D01*
X-17792369Y22225305D01*
X-17804354Y22223600D01*
X-17815635Y22220583D01*
X-17826212Y22216254D01*
X-17836085Y22210613D01*
X-17845255Y22203660D01*
X-17850419Y22198859D01*
X-17858159Y22190169D01*
X-17864587Y22180741D01*
X-17869703Y22170573D01*
X-17873508Y22159665D01*
X-17876000Y22148018D01*
X-17877050Y22138168D01*
X-17877286Y22130471D01*
X-17876866Y22120266D01*
X-17875607Y22110534D01*
X-17872852Y22099035D01*
X-17868785Y22088276D01*
X-17863406Y22078256D01*
X-17856716Y22068975D01*
X-17850419Y22062083D01*
X-17841671Y22054413D01*
X-17832220Y22048043D01*
X-17822065Y22042974D01*
X-17811207Y22039204D01*
X-17799644Y22036734D01*
X-17789888Y22035694D01*
X-17782275Y22035460D01*
G37*
G36*
X-18375624Y23054588D02*
G01*
X-18365340Y23054295D01*
X-18355192Y23053807D01*
X-18345179Y23053125D01*
X-18335301Y23052247D01*
X-18325559Y23051174D01*
X-18306482Y23048442D01*
X-18287946Y23044930D01*
X-18269952Y23040638D01*
X-18252500Y23035565D01*
X-18235590Y23029712D01*
X-18219222Y23023078D01*
X-18203396Y23015664D01*
X-18188112Y23007469D01*
X-18173369Y22998494D01*
X-18159169Y22988739D01*
X-18145510Y22978203D01*
X-18132394Y22966887D01*
X-18119819Y22954790D01*
X-18113763Y22948469D01*
X-18102228Y22935268D01*
X-18091463Y22921324D01*
X-18081466Y22906635D01*
X-18072238Y22891202D01*
X-18063779Y22875024D01*
X-18056089Y22858103D01*
X-18049169Y22840437D01*
X-18043017Y22822027D01*
X-18040229Y22812543D01*
X-18037634Y22802873D01*
X-18035231Y22793017D01*
X-18033020Y22782975D01*
X-18031001Y22772747D01*
X-18029175Y22762333D01*
X-18027541Y22751733D01*
X-18026099Y22740946D01*
X-18024850Y22729974D01*
X-18023792Y22718816D01*
X-18022927Y22707471D01*
X-18022254Y22695941D01*
X-18021774Y22684224D01*
X-18021485Y22672322D01*
X-18021389Y22660233D01*
X-18021389Y22429668D01*
X-18021485Y22417475D01*
X-18021774Y22405473D01*
X-18022254Y22393661D01*
X-18022927Y22382041D01*
X-18023792Y22370611D01*
X-18024850Y22359372D01*
X-18026099Y22348324D01*
X-18027541Y22337466D01*
X-18029175Y22326800D01*
X-18031001Y22316324D01*
X-18033020Y22306039D01*
X-18035231Y22295945D01*
X-18037634Y22286042D01*
X-18040229Y22276329D01*
X-18043017Y22266808D01*
X-18045997Y22257477D01*
X-18052533Y22239388D01*
X-18059838Y22222062D01*
X-18067913Y22205499D01*
X-18076756Y22189699D01*
X-18086368Y22174663D01*
X-18096749Y22160390D01*
X-18107900Y22146881D01*
X-18119819Y22134134D01*
X-18132394Y22122185D01*
X-18145510Y22111007D01*
X-18159169Y22100600D01*
X-18173369Y22090964D01*
X-18188112Y22082099D01*
X-18203396Y22074005D01*
X-18219222Y22066681D01*
X-18235590Y22060129D01*
X-18252500Y22054347D01*
X-18269952Y22049336D01*
X-18287946Y22045096D01*
X-18306482Y22041627D01*
X-18325559Y22038929D01*
X-18335301Y22037869D01*
X-18345179Y22037002D01*
X-18355192Y22036327D01*
X-18365340Y22035846D01*
X-18375624Y22035556D01*
X-18386044Y22035460D01*
X-18396478Y22035556D01*
X-18406776Y22035846D01*
X-18416937Y22036327D01*
X-18426962Y22037002D01*
X-18436850Y22037869D01*
X-18446603Y22038929D01*
X-18465697Y22041627D01*
X-18484246Y22045096D01*
X-18502250Y22049336D01*
X-18519707Y22054347D01*
X-18536619Y22060129D01*
X-18552986Y22066681D01*
X-18568806Y22074005D01*
X-18584081Y22082099D01*
X-18598810Y22090964D01*
X-18612993Y22100600D01*
X-18626630Y22111007D01*
X-18639722Y22122185D01*
X-18652268Y22134134D01*
X-18664188Y22146881D01*
X-18675338Y22160390D01*
X-18685719Y22174663D01*
X-18695331Y22189699D01*
X-18704175Y22205499D01*
X-18712249Y22222062D01*
X-18719554Y22239388D01*
X-18726091Y22257477D01*
X-18729071Y22266808D01*
X-18731858Y22276329D01*
X-18734453Y22286042D01*
X-18736857Y22295945D01*
X-18739067Y22306039D01*
X-18741086Y22316324D01*
X-18742912Y22326800D01*
X-18744546Y22337466D01*
X-18745988Y22348324D01*
X-18747238Y22359372D01*
X-18748295Y22370611D01*
X-18749160Y22382041D01*
X-18749833Y22393661D01*
X-18750314Y22405473D01*
X-18750602Y22417475D01*
X-18750654Y22424050D01*
X-18637125Y22424050D01*
X-18636880Y22407398D01*
X-18636145Y22391207D01*
X-18634919Y22375479D01*
X-18633202Y22360211D01*
X-18630995Y22345406D01*
X-18628298Y22331063D01*
X-18625111Y22317181D01*
X-18621433Y22303761D01*
X-18617264Y22290803D01*
X-18612606Y22278306D01*
X-18607456Y22266271D01*
X-18601817Y22254699D01*
X-18595687Y22243587D01*
X-18589067Y22232938D01*
X-18581956Y22222750D01*
X-18574355Y22213025D01*
X-18566292Y22203856D01*
X-18557735Y22195279D01*
X-18548684Y22187293D01*
X-18539138Y22179899D01*
X-18529098Y22173097D01*
X-18518564Y22166886D01*
X-18507536Y22161266D01*
X-18496014Y22156238D01*
X-18483997Y22151802D01*
X-18471487Y22147957D01*
X-18458482Y22144703D01*
X-18444983Y22142042D01*
X-18430989Y22139971D01*
X-18416502Y22138492D01*
X-18401520Y22137605D01*
X-18386044Y22137309D01*
X-18370654Y22137603D01*
X-18355750Y22138485D01*
X-18341330Y22139954D01*
X-18327395Y22142011D01*
X-18313944Y22144656D01*
X-18300978Y22147888D01*
X-18288497Y22151708D01*
X-18276501Y22156116D01*
X-18264989Y22161112D01*
X-18253962Y22166695D01*
X-18243419Y22172866D01*
X-18233361Y22179624D01*
X-18223788Y22186971D01*
X-18214700Y22194905D01*
X-18206096Y22203427D01*
X-18197977Y22212536D01*
X-18190346Y22222178D01*
X-18183208Y22232297D01*
X-18176562Y22242893D01*
X-18170408Y22253966D01*
X-18164746Y22265516D01*
X-18159577Y22277543D01*
X-18154900Y22290047D01*
X-18150716Y22303028D01*
X-18147023Y22316486D01*
X-18143823Y22330421D01*
X-18141116Y22344834D01*
X-18138900Y22359723D01*
X-18137177Y22375089D01*
X-18135947Y22390933D01*
X-18135208Y22407253D01*
X-18134962Y22424050D01*
X-18134962Y22666584D01*
X-18135211Y22683176D01*
X-18135958Y22699308D01*
X-18137203Y22714981D01*
X-18138946Y22730194D01*
X-18141187Y22744946D01*
X-18143926Y22759239D01*
X-18147164Y22773073D01*
X-18150899Y22786446D01*
X-18155132Y22799359D01*
X-18159863Y22811813D01*
X-18165093Y22823806D01*
X-18170820Y22835340D01*
X-18177045Y22846414D01*
X-18183769Y22857028D01*
X-18190990Y22867182D01*
X-18198709Y22876877D01*
X-18206912Y22886045D01*
X-18215581Y22894622D01*
X-18224718Y22902608D01*
X-18234323Y22910002D01*
X-18244395Y22916805D01*
X-18254935Y22923016D01*
X-18265942Y22928635D01*
X-18277417Y22933663D01*
X-18289359Y22938100D01*
X-18301768Y22941945D01*
X-18314646Y22945198D01*
X-18327990Y22947860D01*
X-18341802Y22949930D01*
X-18356082Y22951409D01*
X-18370829Y22952296D01*
X-18386044Y22952592D01*
X-18401142Y22952298D01*
X-18415784Y22951417D01*
X-18429970Y22949947D01*
X-18443700Y22947890D01*
X-18456974Y22945246D01*
X-18469792Y22942013D01*
X-18482154Y22938193D01*
X-18494060Y22933785D01*
X-18505510Y22928790D01*
X-18516504Y22923206D01*
X-18527041Y22917036D01*
X-18537123Y22910277D01*
X-18546749Y22902931D01*
X-18555918Y22894996D01*
X-18564632Y22886475D01*
X-18572889Y22877365D01*
X-18580668Y22867755D01*
X-18587945Y22857669D01*
X-18594720Y22847109D01*
X-18600993Y22836073D01*
X-18606764Y22824562D01*
X-18612033Y22812576D01*
X-18616801Y22800115D01*
X-18621066Y22787178D01*
X-18624830Y22773767D01*
X-18628092Y22759881D01*
X-18630852Y22745519D01*
X-18633111Y22730682D01*
X-18634867Y22715370D01*
X-18636122Y22699583D01*
X-18636874Y22683321D01*
X-18637125Y22666584D01*
X-18637125Y22424050D01*
X-18750654Y22424050D01*
X-18750698Y22429668D01*
X-18750698Y22660233D01*
X-18750602Y22672322D01*
X-18750314Y22684224D01*
X-18749833Y22695941D01*
X-18749160Y22707471D01*
X-18748295Y22718816D01*
X-18747238Y22729974D01*
X-18745988Y22740946D01*
X-18744546Y22751733D01*
X-18742912Y22762333D01*
X-18741086Y22772747D01*
X-18739067Y22782975D01*
X-18736857Y22793017D01*
X-18734453Y22802873D01*
X-18731858Y22812543D01*
X-18726091Y22831325D01*
X-18719554Y22849363D01*
X-18712249Y22866657D01*
X-18704175Y22883206D01*
X-18695331Y22899011D01*
X-18685719Y22914072D01*
X-18675338Y22928389D01*
X-18664188Y22941962D01*
X-18652268Y22954790D01*
X-18639722Y22966887D01*
X-18626630Y22978203D01*
X-18612993Y22988739D01*
X-18598810Y22998494D01*
X-18584081Y23007469D01*
X-18568806Y23015664D01*
X-18552986Y23023078D01*
X-18536619Y23029712D01*
X-18519707Y23035565D01*
X-18502250Y23040638D01*
X-18484246Y23044930D01*
X-18465697Y23048442D01*
X-18446603Y23051174D01*
X-18436850Y23052247D01*
X-18426962Y23053125D01*
X-18416937Y23053807D01*
X-18406776Y23054295D01*
X-18396478Y23054588D01*
X-18386044Y23054685D01*
X-18375624Y23054588D01*
G37*
D12*
%TO.C,*%
X16500000Y28500000D03*
%TD*%
%TO.C,*%
X16500000Y-28500000D03*
%TD*%
%TO.C,*%
X-16500000Y28500000D03*
%TD*%
D13*
%TO.C,J4*%
X-3810000Y20600000D03*
X-1270000Y20600000D03*
X1270000Y20600000D03*
X3810000Y20600000D03*
%TD*%
D12*
%TO.C,REF\u002A\u002A*%
X-16500000Y-28500000D03*
%TD*%
D14*
%TO.C,REF\u002A\u002A*%
X8250000Y27300000D03*
D15*
X10790000Y24760000D03*
X10790000Y29840000D03*
X5710000Y24760000D03*
X5710000Y29840000D03*
%TD*%
D16*
%TO.C,U4*%
X420000Y-19310000D03*
X420000Y-16770000D03*
X420000Y-14230000D03*
X420000Y-11690000D03*
X10580000Y-19310000D03*
X10580000Y-16770000D03*
X10580000Y-14230000D03*
X10580000Y-11690000D03*
%TD*%
D17*
%TO.C,J3*%
X-14800000Y-22500000D03*
X-14800000Y-21500000D03*
X-14800000Y-20500000D03*
X-14800000Y-19500000D03*
D18*
X-18675000Y-23800000D03*
X-18675000Y-18200000D03*
%TD*%
D19*
%TO.C,J1*%
X15500000Y13930000D03*
X15500000Y5950000D03*
D20*
X4800000Y6750000D03*
X4800000Y7850000D03*
X4800000Y8950000D03*
X4800000Y10050000D03*
X4800000Y11150000D03*
X4800000Y12250000D03*
X4800000Y13350000D03*
X4800000Y14450000D03*
X4800000Y15550000D03*
D21*
X5500000Y17050000D03*
D22*
X15100000Y17000000D03*
D23*
X5200000Y1900000D03*
D22*
X15100000Y1000000D03*
%TD*%
D24*
%TO.C,J2*%
X10350000Y-27000000D03*
X10350000Y-25000000D03*
D25*
X5500000Y-29350000D03*
X5500000Y-22650000D03*
%TD*%
D26*
%TO.C,U1*%
X-16810000Y16370000D03*
X-14270000Y16370000D03*
X-11730000Y16370000D03*
X-9190000Y16370000D03*
X-6650000Y16370000D03*
X-4110000Y16370000D03*
X-1570000Y16370000D03*
X-1570000Y-1410000D03*
X-4110000Y-1410000D03*
X-6650000Y-1410000D03*
X-9190000Y-1410000D03*
X-11730000Y-1410000D03*
X-14270000Y-1410000D03*
X-16810000Y-1410000D03*
%TD*%
D27*
%TO.C,J3*%
X14800000Y-19500000D03*
X14800000Y-20500000D03*
X14800000Y-21500000D03*
X14800000Y-22500000D03*
D28*
X18675000Y-18200000D03*
X18675000Y-23800000D03*
%TD*%
D29*
%TO.C,J6*%
X-9830000Y28155000D03*
X-7290000Y24845000D03*
X-4750000Y28155000D03*
X-2210000Y24845000D03*
X330000Y28155000D03*
%TD*%
D30*
%TO.C,SW5*%
X-19080000Y-13150000D03*
X-16870000Y-13150000D03*
D31*
X-17980000Y-11000000D03*
X-17980000Y-8000000D03*
D30*
X-19080000Y-5850000D03*
X-16870000Y-5850000D03*
D32*
X-16220000Y-11750000D03*
X-16220000Y-8750000D03*
X-16220000Y-7250000D03*
%TD*%
D33*
%TO.C,U2*%
X4920000Y-5635000D03*
X7460000Y-2325000D03*
X10000000Y-5635000D03*
X12540000Y-2325000D03*
X15080000Y-5635000D03*
%TD*%
M02*
