M48
; DRILL file {KiCad 7.0.7-7.0.7~ubuntu22.04.1} date Sun Oct 29 19:46:24 2023
; FORMAT={2:4/ absolute / inch / suppress leading zeros}
; #@! TF.CreationDate,2023-10-29T19:46:24-07:00
; #@! TF.GenerationSoftware,Kicad,Pcbnew,7.0.7-7.0.7~ubuntu22.04.1
; #@! TF.FileFunction,Plated,1,2,PTH
FMAT,2
INCH,TZ
; #@! TA.AperFunction,Plated,PTH,ViaDrill
T1C0.0079
; #@! TA.AperFunction,Plated,PTH,ViaDrill
T2C0.0315
; #@! TA.AperFunction,Plated,PTH,ComponentDrill
T3C0.0394
; #@! TA.AperFunction,Plated,PTH,ComponentDrill
T4C0.0591
; #@! TA.AperFunction,Plated,PTH,ComponentDrill
T5C0.0669
; #@! TA.AperFunction,Plated,PTH,ComponentDrill
T6C0.1063
%
G90
G05
T1
X-2520Y-10679
X-2323Y4823
X-2323Y-3701
X-2067Y4823
X-2067Y-3701
X-1791Y4823
X-1791Y-3701
X-463Y-7392
X-148Y-3533
X1280Y-7303
X1555Y325
X2303Y-2205
X2549Y315
X2559Y-2205
X2628Y-7303
X2835Y-2205
X3091Y-2205
X3770Y-6900
X5256Y-5630
X6280Y-2756
T2
X-6693Y7815
X-6693Y-3543
X-5709Y-4646
X3219Y-3720
X6555Y7372
T3
X-1500Y7776
X-500Y7776
X500Y7776
X1500Y7776
T4
X3504Y10748
T5
X2504Y11748
X2504Y9748
X4504Y11748
X4504Y9748
T6
X-6496Y11220
X-6496Y-11220
X6496Y11220
X6496Y-11220
T0
M30
